<svg width="35" height="58" viewBox="0 0 35 58" fill="none" xmlns="http://www.w3.org/2000/svg">
<path d="M23.2 34.896L18.976 23.352C18.768 22.84 18.552 22.232 18.328 21.528C18.104 20.824 17.88 20.064 17.656 19.248C17.448 20.064 17.232 20.832 17.008 21.552C16.784 22.256 16.568 22.872 16.36 23.4L12.16 34.896H23.2ZM34.6 48H29.608C29.048 48 28.592 47.864 28.24 47.592C27.888 47.304 27.624 46.952 27.448 46.536L24.856 39.456H10.48L7.888 46.536C7.76 46.904 7.512 47.24 7.144 47.544C6.776 47.848 6.32 48 5.776 48H0.736L14.392 13.296H20.968L34.6 48Z" fill="#E1E5FA"/>
<line x1="1" y1="54" x2="35" y2="54" stroke="#E1E5FA" stroke-width="4"/>
</svg>
