<svg width="28" height="28" viewBox="0 0 28 28" fill="none" xmlns="http://www.w3.org/2000/svg">
<path d="M14 27.2812C12.1667 27.2812 10.4427 26.9323 8.82812 26.2344C7.21354 25.5365 5.80208 24.5833 4.59375 23.375C3.38542 22.1667 2.4375 20.7552 1.75 19.1406C1.0625 17.526 0.71875 15.7917 0.71875 13.9375C0.71875 12.125 1.06771 10.4115 1.76562 8.79688C2.46354 7.18229 3.41146 5.77604 4.60938 4.57812C5.80729 3.38021 7.21354 2.43229 8.82812 1.73438C10.4427 1.03646 12.1667 0.6875 14 0.6875C15.8333 0.6875 17.5573 1.03646 19.1719 1.73438C20.7865 2.43229 22.1927 3.38021 23.3906 4.57812C24.5885 5.77604 25.5417 7.18229 26.25 8.79688C26.9583 10.4115 27.3125 12.125 27.3125 13.9375C27.3125 15.7917 26.9635 17.526 26.2656 19.1406C25.5677 20.7552 24.6146 22.1667 23.4062 23.375C22.1979 24.5833 20.7865 25.5365 19.1719 26.2344C17.5573 26.9323 15.8333 27.2812 14 27.2812ZM14 24.3438C15.146 24.3438 16.2607 24.1719 17.3441 23.8281C18.4272 23.4844 19.3958 22.9375 20.25 22.1875L5.75 7.75C5.0625 8.625 4.54167 9.59552 4.1875 10.6616C3.83333 11.7276 3.65625 12.8196 3.65625 13.9375C3.65625 16.841 4.65948 19.3014 6.66594 21.3184C8.6726 23.3353 11.1173 24.3438 14 24.3438ZM22.25 20.1562C22.875 19.2812 23.3802 18.3126 23.7656 17.2503C24.151 16.1878 24.3438 15.0835 24.3438 13.9375C24.3438 11.0754 23.3405 8.64635 21.3341 6.65031C19.3276 4.65427 16.8829 3.65625 14 3.65625C12.8613 3.65625 11.7693 3.82812 10.7241 4.17188C9.67885 4.51562 8.70833 5.03125 7.8125 5.71875L22.25 20.1562Z" fill="#757575"/>
</svg>
