<svg width="26" height="26" viewBox="0 0 26 26" fill="none" xmlns="http://www.w3.org/2000/svg">
<path d="M0.96875 25.0312V19.5312L18.875 1.625C19.0625 1.41667 19.2969 1.25521 19.5781 1.14062C19.8594 1.02604 20.1458 0.96875 20.4375 0.96875C20.7083 0.96875 20.9792 1.02604 21.25 1.14062C21.5208 1.25521 21.7812 1.40625 22.0312 1.59375L24.4375 3.90625C24.6458 4.15625 24.8021 4.42188 24.9062 4.70312C25.0104 4.98438 25.0625 5.27083 25.0625 5.5625C25.0625 5.85417 25.0052 6.14062 24.8906 6.42188C24.776 6.70312 24.625 6.94792 24.4375 7.15625L6.5 25.0312H0.96875ZM20.5938 6.75L21.8438 5.53125L20.5312 4.1875L19.25 5.4375L20.5938 6.75Z" fill="#0078D7"/>
</svg>
