<svg width="28" height="22" viewBox="0 0 28 22" fill="none" xmlns="http://www.w3.org/2000/svg">
<path d="M3.65625 21.7812C2.84271 21.7812 2.14969 21.495 1.57719 20.9225C1.0049 20.3502 0.71875 19.6573 0.71875 18.8438V3.15625C0.71875 2.33417 1.0049 1.63385 1.57719 1.05531C2.14969 0.476771 2.84271 0.1875 3.65625 0.1875H24.3438C25.1658 0.1875 25.8661 0.476771 26.4447 1.05531C27.0232 1.63385 27.3125 2.33417 27.3125 3.15625V18.8438C27.3125 19.6573 27.0232 20.3502 26.4447 20.9225C25.8661 21.495 25.1658 21.7812 24.3438 21.7812H3.65625ZM14 12.5625L24.3438 5.59375V3.15625L14 9.96875L3.65625 3.15625V5.59375L14 12.5625Z" fill="#FB8C00"/>
</svg>
