<svg width="40" height="40" viewBox="0 0 40 40" fill="none" xmlns="http://www.w3.org/2000/svg">
<path d="M9.41683 29.0835C11.0557 27.9816 12.7363 27.1367 14.4585 26.5489C16.1807 25.9609 18.0279 25.6668 20.0002 25.6668C21.9724 25.6668 23.8242 25.9609 25.5556 26.5489C27.2873 27.1367 28.9725 27.9816 30.6114 29.0835C31.7503 27.7038 32.5813 26.2639 33.1043 24.7639C33.6274 23.2639 33.8889 21.676 33.8889 20.0002C33.8889 16.0835 32.5534 12.7895 29.8822 10.1181C27.2109 7.44697 23.9168 6.11141 20.0002 6.11141C16.0835 6.11141 12.7895 7.44697 10.1181 10.1181C7.44697 12.7895 6.11141 16.0835 6.11141 20.0002C6.11141 21.676 6.37752 23.2639 6.90975 24.7639C7.44225 26.2639 8.27794 27.7038 9.41683 29.0835ZM19.9952 21.3889C18.3782 21.3889 17.0164 20.8341 15.9097 19.7243C14.8034 18.6143 14.2502 17.2509 14.2502 15.6339C14.2502 14.017 14.8052 12.6553 15.9152 11.5489C17.0249 10.4422 18.3882 9.88891 20.0052 9.88891C21.6221 9.88891 22.9839 10.4439 24.0906 11.5539C25.197 12.6639 25.7502 14.0274 25.7502 15.6443C25.7502 17.2613 25.1952 18.6229 24.0852 19.7293C22.9754 20.8357 21.6121 21.3889 19.9952 21.3889ZM19.9889 36.6668C17.6806 36.6668 15.5114 36.2293 13.4814 35.3543C11.4511 34.4793 9.68516 33.2872 8.1835 31.7781C6.68155 30.2686 5.4978 28.5016 4.63225 26.4768C3.76641 24.4521 3.3335 22.2886 3.3335 19.9864C3.3335 17.6842 3.771 15.5206 4.646 13.4956C5.521 11.4709 6.71308 9.7085 8.22225 8.2085C9.73169 6.7085 11.4988 5.521 13.5235 4.646C15.5482 3.771 17.7117 3.3335 20.0139 3.3335C22.3161 3.3335 24.4797 3.771 26.5047 4.646C28.5295 5.521 30.2918 6.7085 31.7918 8.2085C33.2918 9.7085 34.4793 11.4724 35.3543 13.5002C36.2293 15.5279 36.6668 17.6921 36.6668 19.9927C36.6668 22.2935 36.2293 24.4556 35.3543 26.4789C34.4793 28.5022 33.2918 30.2686 31.7918 31.7781C30.2918 33.2872 28.5267 34.4793 26.4964 35.3543C24.4664 36.2293 22.2972 36.6668 19.9889 36.6668Z" fill="white"/>
</svg>
