<svg width="19" height="19" viewBox="0 0 19 19" fill="none" xmlns="http://www.w3.org/2000/svg">
<path d="M9.12173 10.2416H8.78867C6.34854 10.2416 3.90841 10.2416 1.46828 10.2416C1.04948 10.2416 0.796711 10.0647 0.703533 9.71734C0.677182 9.61972 0.672601 9.51752 0.690138 9.41794C0.707675 9.31837 0.74689 9.22387 0.805006 9.14113C0.863121 9.05839 0.938716 8.98943 1.02644 8.93914C1.11416 8.88885 1.21187 8.85845 1.31265 8.85011C1.40285 8.84218 1.49404 8.84516 1.58425 8.84516H9.12371V8.528C9.12371 6.11264 9.12371 3.69746 9.12371 1.28244C9.11747 1.15899 9.12578 1.03524 9.14849 0.913745C9.19153 0.755463 9.289 0.617413 9.42376 0.52388C9.55852 0.430347 9.72195 0.387318 9.88531 0.402349C10.0487 0.417381 10.2015 0.489511 10.3169 0.606066C10.4324 0.722621 10.503 0.876141 10.5164 1.03962C10.5244 1.13873 10.5219 1.23784 10.5219 1.33695V8.84566H10.8192C13.2676 8.84566 15.716 8.84566 18.1644 8.84566C18.5936 8.84566 18.84 9.01116 18.9381 9.35706C18.967 9.45618 18.9733 9.56054 18.9566 9.66242C18.9398 9.7643 18.9003 9.8611 18.841 9.94568C18.7818 10.0303 18.7043 10.1005 18.6143 10.1511C18.5243 10.2017 18.4241 10.2315 18.321 10.2382C18.2308 10.2446 18.1396 10.2421 18.0489 10.2421H10.5234V10.5469C10.5234 12.9867 10.5234 15.4265 10.5234 17.8663C10.5234 18.3123 10.3573 18.5601 10.0039 18.6592C9.90663 18.6867 9.80445 18.6924 9.70468 18.6759C9.60491 18.6595 9.50999 18.6213 9.42666 18.564C9.34334 18.5067 9.27367 18.4317 9.22259 18.3445C9.17152 18.2572 9.14029 18.1598 9.13114 18.0591C9.12172 17.96 9.1247 17.8609 9.1247 17.7617V10.2416H9.12173Z" fill="white"/>
</svg>
