<svg width="27" height="35" viewBox="0 0 27 35" fill="none" xmlns="http://www.w3.org/2000/svg">
<path d="M13.848 29.96C15.048 29.96 16.056 29.816 16.872 29.528C17.688 29.24 18.336 28.856 18.816 28.376C19.312 27.896 19.664 27.336 19.872 26.696C20.096 26.056 20.208 25.376 20.208 24.656C20.208 23.904 20.088 23.232 19.848 22.64C19.608 22.032 19.232 21.52 18.72 21.104C18.208 20.672 17.544 20.344 16.728 20.12C15.928 19.896 14.96 19.784 13.824 19.784H7.32V29.96H13.848ZM7.32 5.288V15.32H12.456C14.664 15.32 16.328 14.92 17.448 14.12C18.584 13.32 19.152 12.048 19.152 10.304C19.152 8.496 18.64 7.208 17.616 6.44C16.592 5.672 14.992 5.288 12.816 5.288H7.32ZM12.816 0.295998C15.088 0.295998 17.032 0.511998 18.648 0.943999C20.264 1.376 21.584 1.992 22.608 2.792C23.648 3.592 24.408 4.56 24.888 5.696C25.368 6.832 25.608 8.112 25.608 9.536C25.608 10.352 25.488 11.136 25.248 11.888C25.008 12.624 24.632 13.32 24.12 13.976C23.624 14.616 22.984 15.2 22.2 15.728C21.432 16.256 20.512 16.704 19.44 17.072C24.208 18.144 26.592 20.72 26.592 24.8C26.592 26.272 26.312 27.632 25.752 28.88C25.192 30.128 24.376 31.208 23.304 32.12C22.232 33.016 20.912 33.72 19.344 34.232C17.776 34.744 15.984 35 13.968 35H0.864V0.295998H12.816Z" fill="#E1E5FA"/>
</svg>
