<svg width="28" height="28" viewBox="0 0 28 28" fill="none" xmlns="http://www.w3.org/2000/svg">
<g clip-path="url(#clip0_126_479)">
<g clip-path="url(#clip1_126_479)">
<path d="M9.16862 10.6097C11.052 13.9343 13.4459 16.4619 16.5576 18.2743C16.8442 18.4408 17.3874 18.1924 17.805 18.1024C17.9169 18.0778 18.0043 17.9249 18.0998 17.8321C21.0832 14.9497 21.7411 14.9579 24.7245 17.9249C25.4615 18.6592 26.2203 19.3743 26.93 20.1359C28.2129 21.5116 28.2074 23.1029 26.9218 24.4923C26.2148 25.2566 25.4888 26.0018 24.7327 26.7169C23.1741 28.1936 21.2661 28.1963 19.3827 27.7159C13.8853 26.3129 9.52073 23.1084 5.87129 18.8776C3.12534 15.6949 0.952592 12.1819 0.136448 7.97017C-0.251151 5.96939 0.163744 4.20881 1.7005 2.77578C2.36105 2.1589 2.95064 1.46286 3.61939 0.85689C4.85043 -0.259507 6.43631 -0.300451 7.65916 0.826865C8.95571 2.02242 10.2059 3.27257 11.4014 4.56911C12.5806 5.84656 12.5451 7.2905 11.3496 8.57067C10.7026 9.26399 9.96566 9.86995 9.16862 10.6097ZM21.4217 26.3157C21.7138 26.272 22.287 26.3566 22.579 26.1082C23.8019 25.06 24.9865 23.9573 26.0647 22.7645C26.2585 22.5516 26.0319 21.6863 25.7372 21.356C24.6535 20.1441 23.458 19.0331 22.3061 17.8813C21.6728 17.248 21.0368 17.2698 20.4117 17.8813C19.7976 18.4818 19.1698 19.0714 18.5911 19.7046C17.906 20.4498 17.2018 20.5508 16.301 20.0622C12.7034 18.1105 9.95747 15.3155 7.94031 11.7807C7.40804 10.8499 7.4599 10.0719 8.31699 9.25853C11.4533 6.2751 11.2376 6.7828 8.36066 3.81302C5.31719 0.674008 5.73754 1.22811 2.96702 3.85942C1.83152 4.93488 1.46575 6.18502 1.7933 7.66718C1.95708 8.41509 2.11812 9.17391 2.39108 9.8836C4.72487 15.9323 8.78102 20.518 14.3248 23.8154C16.4702 25.0901 18.6976 26.1846 21.4244 26.3184L21.4217 26.3157Z" fill="#FEDF85"/>
<path d="M21.4217 26.3159C18.6922 26.1821 16.4675 25.0875 14.3221 23.8128C8.77833 20.5182 4.72218 15.9298 2.38839 9.88108C2.11543 9.17139 1.95438 8.40983 1.79061 7.66466C1.46306 6.1825 1.82882 4.93508 2.96433 3.8569C5.73485 1.22559 5.31449 0.674214 8.35797 3.8105C11.2349 6.77755 11.4533 6.27258 8.3143 9.256C7.45721 10.0694 7.40535 10.8473 7.93762 11.7781C9.9575 15.3129 12.7007 18.1107 16.2983 20.0597C17.1991 20.5483 17.906 20.4473 18.5884 19.7021C19.1698 19.0688 19.7949 18.4792 20.4091 17.8787C21.0369 17.2673 21.6701 17.2455 22.3034 17.8787C23.4553 19.0306 24.6508 20.1416 25.7345 21.3535C26.0293 21.6838 26.2531 22.549 26.062 22.7619C24.9838 23.9548 23.7992 25.0575 22.5763 26.1057C22.287 26.3541 21.7111 26.2695 21.419 26.3131L21.4217 26.3159Z" fill="#FEDF85"/>
</g>
</g>
<defs>
<clipPath id="clip0_126_479">
<rect width="27.8908" height="28" fill="white"/>
</clipPath>
<clipPath id="clip1_126_479">
<rect width="27.8908" height="28" fill="white"/>
</clipPath>
</defs>
</svg>
