<svg width="83" height="89" viewBox="0 0 83 89" fill="none" xmlns="http://www.w3.org/2000/svg">
<g clip-path="url(#clip0_271_735)">
<path d="M41.4487 88.9958C31.9591 88.9958 22.4651 89.0089 12.9755 88.9958C4.58608 88.9827 -0.761412 83.043 0.0933097 74.7178C1.76769 58.4249 14.2861 47.1429 30.6923 47.1473C38.1394 47.1473 45.5864 47.1299 53.0334 47.156C69.203 47.2084 82.3131 59.7943 82.9925 75.8865C83.3081 83.3875 77.9518 88.974 70.3645 88.9914C60.7259 89.0176 51.0873 88.9958 41.453 89.0001L41.4487 88.9958Z" fill="#F3F3F2"/>
<path d="M41.6178 42.3633C29.7481 42.3982 20.2848 33.07 20.2191 21.2647C20.1533 9.63378 29.6254 0.0569474 41.254 0.000253982C53.2026 -0.0564395 62.7754 9.3852 62.7798 21.2298C62.7798 32.8563 53.3034 42.3285 41.6222 42.3633H41.6178Z" fill="#F3F3F2"/>
</g>
<defs>
<clipPath id="clip0_271_735">
<rect width="83" height="89" fill="white"/>
</clipPath>
</defs>
</svg>
