<svg width="40" height="40" viewBox="0 0 40 40" fill="none" xmlns="http://www.w3.org/2000/svg">
<path d="M17.2498 21.9718L15.6665 20.3885C15.8887 20.083 16.0554 19.7636 16.1665 19.4306C16.2776 19.0975 16.3332 18.7573 16.3332 18.4098C16.3332 18.0623 16.2776 17.7196 16.1665 17.3818C16.0554 17.0438 15.8887 16.7359 15.6665 16.4581L17.2498 14.861C17.7129 15.3702 18.0555 15.9303 18.2778 16.5414C18.5 17.1525 18.6111 17.7775 18.6111 18.4164C18.6111 19.0553 18.5 19.678 18.2778 20.2843C18.0555 20.891 17.7129 21.4535 17.2498 21.9718ZM20.4303 25.1664L18.8332 23.5693C19.509 22.773 20.0114 21.9391 20.3403 21.0677C20.6689 20.1963 20.8332 19.312 20.8332 18.4148C20.8332 17.5178 20.6689 16.6318 20.3403 15.7568C20.0114 14.8818 19.509 14.0555 18.8332 13.2777L20.4303 11.6802C21.3378 12.6896 22.0068 13.7639 22.4373 14.9031C22.8679 16.0423 23.0832 17.2134 23.0832 18.4164C23.0832 19.6139 22.8679 20.786 22.4373 21.9327C22.0068 23.0793 21.3378 24.1573 20.4303 25.1664ZM8.054 19.861C7.17539 19.861 6.42359 19.5481 5.79859 18.9223C5.17359 18.2964 4.86109 17.5441 4.86109 16.6652C4.86109 15.7863 5.174 15.0343 5.79984 14.4093C6.42567 13.7843 7.17789 13.4718 8.0565 13.4718C8.93539 13.4718 9.68734 13.7848 10.3123 14.4106C10.9373 15.0364 11.2498 15.7888 11.2498 16.6677C11.2498 17.5466 10.9369 18.2985 10.3111 18.9235C9.68525 19.5485 8.93289 19.861 8.054 19.861ZM1.6665 26.3885V25.7081C1.6665 25.0956 1.83234 24.5341 2.164 24.0235C2.49567 23.513 2.95484 23.13 3.5415 22.8748C4.24678 22.5781 4.97234 22.3488 5.71817 22.1868C6.46373 22.0252 7.24345 21.9443 8.05734 21.9443C8.87095 21.9443 9.65025 22.0252 10.3953 22.1868C11.1403 22.3488 11.865 22.5781 12.5694 22.8748C13.1561 23.13 13.6153 23.513 13.9469 24.0235C14.2786 24.5341 14.4444 25.0956 14.4444 25.7081V26.3885H1.6665ZM31.9432 19.861C31.0643 19.861 30.3123 19.5481 29.6873 18.9223C29.0623 18.2964 28.7498 17.5441 28.7498 16.6652C28.7498 15.7863 29.0628 15.0343 29.6886 14.4093C30.3144 13.7843 31.0668 13.4718 31.9457 13.4718C32.8243 13.4718 33.5761 13.7848 34.2011 14.4106C34.8261 15.0364 35.1386 15.7888 35.1386 16.6677C35.1386 17.5466 34.8257 18.2985 34.1998 18.9235C33.574 19.5485 32.8218 19.861 31.9432 19.861ZM25.5553 26.3885V25.7081C25.5553 25.0956 25.7211 24.5341 26.0528 24.0235C26.3844 23.513 26.8436 23.13 27.4303 22.8748C28.1355 22.5781 28.8611 22.3488 29.6069 22.1868C30.3528 22.0252 31.1325 21.9443 31.9461 21.9443C32.7597 21.9443 33.539 22.0252 34.284 22.1868C35.029 22.3488 35.7537 22.5781 36.4582 22.8748C37.0448 23.13 37.504 23.513 37.8357 24.0235C38.1673 24.5341 38.3332 25.0956 38.3332 25.7081V26.3885H25.5553Z" fill="white"/>
</svg>
