<svg width="40" height="40" viewBox="0 0 40 40" fill="none" xmlns="http://www.w3.org/2000/svg">
<path d="M20.0002 36.6668C17.0557 36.6668 14.6529 36.2015 12.7918 35.271C10.9307 34.3404 10.0002 33.139 10.0002 31.6668C10.0002 31.0002 10.2016 30.3821 10.6043 29.8127C11.0071 29.2432 11.5696 28.7502 12.2918 28.3335L14.9168 30.7918C14.6668 30.9029 14.396 31.0279 14.1043 31.1668C13.8127 31.3057 13.5835 31.4724 13.4168 31.6668C13.7779 32.1113 14.6113 32.5002 15.9168 32.8335C17.2224 33.1668 18.5835 33.3335 20.0002 33.3335C21.4168 33.3335 22.7849 33.1668 24.1043 32.8335C25.4238 32.5002 26.2641 32.1113 26.6252 31.6668C26.4307 31.4446 26.1807 31.264 25.8752 31.1252C25.5696 30.9863 25.2779 30.8613 25.0002 30.7502L27.5835 28.2502C28.3613 28.6946 28.9585 29.2015 29.3752 29.771C29.7918 30.3404 30.0002 30.9724 30.0002 31.6668C30.0002 33.139 29.0696 34.3404 27.2085 35.271C25.3474 36.2015 22.9446 36.6668 20.0002 36.6668ZM20.0002 31.6668C16.0835 28.7779 13.1599 25.9724 11.2293 23.2502C9.29877 20.5279 8.3335 17.8613 8.3335 15.2502C8.3335 13.2779 8.68766 11.5488 9.396 10.0627C10.1043 8.57655 11.0141 7.3335 12.1252 6.3335C13.2363 5.3335 14.4863 4.5835 15.8752 4.0835C17.2641 3.5835 18.6391 3.3335 20.0002 3.3335C21.3613 3.3335 22.7363 3.5835 24.1252 4.0835C25.5141 4.5835 26.7641 5.3335 27.8752 6.3335C28.9863 7.3335 29.896 8.57655 30.6043 10.0627C31.3127 11.5488 31.6668 13.2779 31.6668 15.2502C31.6668 17.8613 30.7016 20.5279 28.771 23.2502C26.8404 25.9724 23.9168 28.7779 20.0002 31.6668ZM20.0002 18.3335C20.9168 18.3335 21.7016 18.0071 22.3543 17.3543C23.0071 16.7016 23.3335 15.9168 23.3335 15.0002C23.3335 14.0835 23.0071 13.2988 22.3543 12.646C21.7016 11.9932 20.9168 11.6668 20.0002 11.6668C19.0835 11.6668 18.2988 11.9932 17.646 12.646C16.9932 13.2988 16.6668 14.0835 16.6668 15.0002C16.6668 15.9168 16.9932 16.7016 17.646 17.3543C18.2988 18.0071 19.0835 18.3335 20.0002 18.3335Z" fill="white"/>
</svg>
