<svg width="30" height="30" viewBox="0 0 30 30" fill="none" xmlns="http://www.w3.org/2000/svg">
<path d="M2.96875 27.0312V21.5312L20.875 3.625C21.0625 3.41667 21.2969 3.25521 21.5781 3.14062C21.8594 3.02604 22.1458 2.96875 22.4375 2.96875C22.7083 2.96875 22.9792 3.02604 23.25 3.14062C23.5208 3.25521 23.7812 3.40625 24.0312 3.59375L26.4375 5.90625C26.6458 6.15625 26.8021 6.42188 26.9062 6.70312C27.0104 6.98438 27.0625 7.27083 27.0625 7.5625C27.0625 7.85417 27.0052 8.14062 26.8906 8.42188C26.776 8.70312 26.625 8.94792 26.4375 9.15625L8.5 27.0312H2.96875ZM22.5938 8.75L23.8438 7.53125L22.5312 6.1875L21.25 7.4375L22.5938 8.75Z" fill="#0078D7"/>
</svg>
