<svg width="25" height="25" viewBox="0 0 25 25" fill="none" xmlns="http://www.w3.org/2000/svg">
<path d="M21.2536 0.000206202C21.9912 -0.0077199 22.7139 0.213021 23.3276 0.633625C23.9413 1.05423 24.4175 1.65518 24.6941 2.35811C24.9872 3.05129 25.0711 3.81899 24.9348 4.56174C24.7985 5.30449 24.4482 5.98803 23.9296 6.52374L16.9722 13.676C15.1373 15.5624 13.2259 17.4487 11.391 19.4137C10.5675 20.3687 9.4172 20.96 8.17993 21.0642C7.03311 21.1428 5.96273 21.3785 4.81591 21.5357C3.66909 21.6929 3.97491 21.3786 4.05137 20.8284C4.12782 20.2782 4.43363 17.7631 4.66299 16.2698C4.82233 15.5649 5.19754 14.9313 5.73338 14.462C7.49183 12.5757 9.32672 10.768 11.1616 8.88165L18.5777 1.17916C18.9247 0.809017 19.3402 0.514021 19.7997 0.311543C20.2593 0.109064 20.7537 0.00319961 21.2536 0.000206202ZM10.55 18.2347L21.483 6.9953L18.1955 3.61565L7.26247 14.855L10.55 18.2347ZM22.5534 5.97355C22.9783 5.67965 23.3027 5.25608 23.481 4.76255C23.6593 4.26903 23.6825 3.73044 23.5473 3.22266C23.4488 2.76895 23.2221 2.35527 22.8957 2.03363C22.5692 1.71199 22.1575 1.49676 21.7124 1.41494C21.2453 1.34469 20.7683 1.41058 20.3359 1.6051C19.9034 1.79962 19.5327 2.11497 19.2658 2.51532L22.5534 5.97355ZM6.26857 15.8768C5.93311 17.2484 5.67781 18.6394 5.50402 20.0424C6.8802 19.728 8.25638 19.8066 9.55611 19.335L6.26857 15.8768Z" fill="#0D0B54"/>
<path d="M10.1705 0.864258V2.27899H9.86462C8.56489 2.27899 7.34162 2.2004 6.04189 2.27899C5.42659 2.26836 4.8155 2.38515 4.245 2.62233C3.67449 2.8595 3.15628 3.21223 2.72113 3.65957C2.28599 4.10691 1.94282 4.6397 1.71211 5.22619C1.4814 5.81268 1.36784 6.44089 1.37818 7.07343C1.30173 11.0033 1.30173 14.8545 1.37818 18.7843C1.36747 19.4237 1.48333 20.0586 1.71874 20.6504C1.95415 21.2423 2.30417 21.7787 2.74754 22.2272C3.19092 22.6756 3.71839 23.0267 4.29787 23.2591C4.87734 23.4914 5.49673 23.6002 6.11837 23.5788H17.3572C17.9955 23.6007 18.6313 23.4876 19.2253 23.2465C19.8193 23.0054 20.3589 22.6414 20.8104 22.1772C21.262 21.713 21.6161 21.1583 21.8506 20.5476C22.0851 19.937 22.1951 19.2834 22.1738 18.6272V14.5401H23.4736V14.8545C23.4736 16.1906 23.55 17.4482 23.4736 18.7058C23.5031 20.1356 23.0454 21.531 22.1798 22.6505C21.3141 23.7701 20.095 24.5433 18.7334 24.8363C18.2863 24.9665 17.8212 25.0197 17.3572 24.9935H6.11837C5.31232 25.0041 4.51237 24.8487 3.76566 24.5364C3.01895 24.2241 2.3406 23.7614 1.77058 23.1754C1.20057 22.5894 0.750413 21.892 0.446673 21.1244C0.142933 20.3568 -0.00825914 19.5344 0.00201036 18.7058V7.15201C-0.0183293 6.34687 0.115837 5.54548 0.396882 4.79367C0.677928 4.04186 1.10031 3.35439 1.63992 2.77046C2.17953 2.18654 2.82581 1.71763 3.54177 1.39056C4.25772 1.06349 5.02933 0.884638 5.81254 0.864258H10.1705Z" fill="#0D0B54"/>
</svg>
