<svg width="42" height="28" viewBox="0 0 42 28" fill="none" xmlns="http://www.w3.org/2000/svg">
<g clip-path="url(#clip0_126_472)">
<g clip-path="url(#clip1_126_472)">
<path d="M20.8064 -6.49838e-05C26.5695 -6.49838e-05 32.3326 -0.0012234 38.0957 -6.49838e-05C40.2689 -6.49838e-05 41.5443 1.2684 41.5454 3.43463C41.5477 10.4755 41.5477 17.5163 41.5454 24.5583C41.5454 26.7222 40.2654 27.9976 38.0968 27.9976C26.5926 27.9988 15.0884 27.9999 3.58423 27.993C3.14867 27.993 2.69921 27.9594 2.28102 27.8459C0.878182 27.4636 0.0105302 26.3446 0.00821338 24.8919C-0.00105392 17.6518 -0.00452916 10.4129 0.0105302 3.17399C0.0140054 1.31126 1.37167 0.00572708 3.25409 0.00341026C9.10523 -0.00238181 14.9552 0.00109343 20.8064 -6.49838e-05ZM2.76176 1.56379C3.02009 1.81169 3.15562 1.94839 3.29926 2.07697C8.78782 7.02571 14.2775 11.9745 19.7684 16.9209C20.599 17.6692 20.957 17.6669 21.8026 16.9047C26.7548 12.4448 31.7047 7.98256 36.6558 3.52035C37.3334 2.90871 38.0099 2.29475 38.8185 1.56379H2.76176ZM2.80231 26.4384H38.749C34.4073 22.6087 30.193 18.8913 26.0076 15.2006C25.9231 15.2157 25.8953 15.2122 25.8814 15.225C24.8156 16.1772 23.7522 17.1317 22.6853 18.0828C21.4029 19.2261 20.1449 19.225 18.8649 18.0781C17.7864 17.112 16.7114 16.1413 15.6062 15.1462C11.3583 18.8925 7.14404 22.6098 2.80346 26.4384H2.80231ZM1.6103 2.53107V25.5348C5.97752 21.6831 10.2231 17.938 14.5115 14.1534C10.1999 10.2693 5.94855 6.43955 1.6103 2.53107ZM39.97 2.50442C35.5981 6.44303 31.3444 10.2762 27.0386 14.1557C31.3421 17.9507 35.597 21.7028 39.97 25.5592V2.50442Z" fill="#2C3557"/>
<path d="M2.76166 1.56387H38.8161C38.0075 2.29483 37.3322 2.90879 36.6533 3.52043C31.7034 7.98264 26.7524 12.4448 21.8002 16.9047C20.9545 17.6658 20.5977 17.6693 19.766 16.921C14.2763 11.9745 8.78772 7.02579 3.298 2.07589C3.15552 1.94731 3.01998 1.81061 2.7605 1.56271L2.76166 1.56387Z" fill="#FEDF85"/>
<path d="M2.80225 26.4384C7.14282 22.6099 11.3571 18.8925 15.605 15.1462C16.7102 16.1413 17.7852 17.1109 18.8636 18.0782C20.1437 19.225 21.4006 19.2262 22.6841 18.0828C23.751 17.1318 24.8144 16.1772 25.8801 15.225C25.894 15.2123 25.9219 15.2157 26.0064 15.2007C30.1918 18.8914 34.4061 22.6099 38.7478 26.4384H2.80225Z" fill="#FEDF85"/>
<path d="M1.61011 2.53113C5.94836 6.43961 10.1997 10.2693 14.5114 14.1546C10.2217 17.938 5.97617 21.6832 1.61011 25.536V2.53113Z" fill="#FEDF85"/>
<path d="M39.9699 2.50449V25.5592C35.5969 21.7029 31.3421 17.9508 27.0386 14.1558C31.3444 10.2763 35.5992 6.44309 39.9699 2.50449Z" fill="#FEDF85"/>
</g>
</g>
<defs>
<clipPath id="clip0_126_472">
<rect width="42" height="28" fill="white"/>
</clipPath>
<clipPath id="clip1_126_472">
<rect width="41.5476" height="28" fill="white"/>
</clipPath>
</defs>
</svg>
