<svg width="123" height="49" viewBox="0 0 123 49" fill="none" xmlns="http://www.w3.org/2000/svg">
<rect width="123" height="49" rx="22" fill="#D6FFE4"/>
<path d="M66.224 26.124C65.9813 26.124 65.86 26.2453 65.86 26.488V34.356C65.86 34.7853 65.608 35 65.104 35H61.576C61.3333 35 61.1653 34.9533 61.072 34.86C60.9973 34.7667 60.96 34.6173 60.96 34.412V14.756C60.96 14.4013 61.1093 14.224 61.408 14.224H65.412C65.7107 14.224 65.86 14.392 65.86 14.728V21.896C65.86 22.2133 66 22.372 66.28 22.372H72.748C73.0467 22.372 73.196 22.2227 73.196 21.924V14.728C73.196 14.392 73.336 14.224 73.616 14.224H77.62C77.9373 14.224 78.096 14.4013 78.096 14.756V34.412C78.096 34.6173 78.0493 34.7667 77.956 34.86C77.8813 34.9533 77.7227 35 77.48 35H73.924C73.4387 35 73.196 34.7853 73.196 34.356V26.488C73.196 26.2453 73.0653 26.124 72.804 26.124H66.224ZM88.3993 35.28C86.9247 35.28 85.618 34.9533 84.4793 34.3C83.3593 33.6467 82.482 32.7507 81.8473 31.612C81.2127 30.4547 80.8953 29.1387 80.8953 27.664C80.8953 26.1147 81.222 24.7613 81.8753 23.604C82.5287 22.428 83.4247 21.5133 84.5633 20.86C85.702 20.2067 86.99 19.88 88.4273 19.88C89.9393 19.88 91.2553 20.216 92.3753 20.888C93.4953 21.5413 94.3633 22.456 94.9793 23.632C95.614 24.7893 95.9313 26.124 95.9313 27.636C95.9313 29.1293 95.614 30.4547 94.9793 31.612C94.3447 32.7507 93.458 33.6467 92.3193 34.3C91.1993 34.9533 89.8927 35.28 88.3993 35.28ZM88.4273 32.424C89.118 32.424 89.6967 32.2467 90.1633 31.892C90.63 31.5187 90.9753 30.968 91.1993 30.24C91.442 29.512 91.5633 28.6253 91.5633 27.58C91.5633 26.4787 91.442 25.5733 91.1993 24.864C90.9753 24.136 90.63 23.5853 90.1633 23.212C89.6967 22.8387 89.118 22.652 88.4273 22.652C87.7553 22.652 87.1767 22.8387 86.6913 23.212C86.2247 23.5853 85.87 24.136 85.6273 24.864C85.3847 25.5733 85.2633 26.4787 85.2633 27.58C85.2633 28.644 85.3847 29.54 85.6273 30.268C85.87 30.9773 86.2247 31.5187 86.6913 31.892C87.1767 32.2467 87.7553 32.424 88.4273 32.424ZM104.108 23.128C103.903 23.128 103.8 23.24 103.8 23.464V30.212C103.8 30.8467 103.95 31.304 104.248 31.584C104.547 31.8453 105.023 31.976 105.676 31.976H107.188C107.319 31.976 107.422 32.0227 107.496 32.116C107.571 32.2093 107.608 32.3213 107.608 32.452L107.58 34.16C107.58 34.5147 107.375 34.7387 106.964 34.832C106.628 34.8693 106.264 34.9067 105.872 34.944C105.499 34.9627 105.116 34.9813 104.724 35C104.351 35 103.987 35 103.632 35C102.363 35 101.355 34.7013 100.608 34.104C99.8616 33.488 99.4882 32.5827 99.4882 31.388V23.548C99.4882 23.268 99.3669 23.128 99.1242 23.128H97.4162C97.0616 23.128 96.8842 22.9693 96.8842 22.652V20.58C96.8842 20.3 97.0522 20.16 97.3882 20.16H99.3202C99.4882 20.16 99.5816 20.0573 99.6002 19.852L99.9922 15.596C100.011 15.2787 100.151 15.12 100.412 15.12H103.464C103.763 15.12 103.912 15.2973 103.912 15.652V19.852C103.912 20.0387 104.006 20.132 104.192 20.132H107.132C107.468 20.132 107.636 20.2813 107.636 20.58V22.652C107.636 22.9693 107.45 23.128 107.076 23.128H104.108Z" fill="#171F3F"/>
<path d="M20.6665 28.3333C20.6665 25.4167 21.3609 22.8194 22.7498 20.5417C24.1387 18.2639 25.6665 16.3472 27.3332 14.7917C28.9998 13.2361 30.5276 12.0486 31.9165 11.2292L33.9998 10V15.5C33.9998 16.5278 34.3471 17.3403 35.0415 17.9375C35.7359 18.5347 36.5137 18.8333 37.3748 18.8333C37.8471 18.8333 38.2984 18.7361 38.729 18.5417C39.1596 18.3472 39.5554 18.0278 39.9165 17.5833L40.6665 16.6667C42.6665 17.8333 44.2776 19.4514 45.4998 21.5208C46.7221 23.5903 47.3332 25.8611 47.3332 28.3333C47.3332 30.9075 46.6804 33.2385 45.3748 35.3263C44.0693 37.4143 42.3516 39.0139 40.2219 40.125C40.8053 39.4214 41.2566 38.6413 41.5761 37.7846C41.8955 36.9282 42.0553 36.0278 42.0553 35.0833C42.0553 34.0092 41.8562 32.9976 41.4582 32.0488C41.0601 31.0996 40.4814 30.2454 39.7219 29.4863L33.9998 23.8888L28.3194 29.4863C27.5322 30.2546 26.9396 31.111 26.5415 32.0554C26.1434 32.9999 25.9444 34.0092 25.9444 35.0833C25.9444 36.0278 26.1041 36.9282 26.4236 37.7846C26.743 38.6413 27.1944 39.4214 27.7778 40.125C25.648 39.0139 23.9304 37.4143 22.6248 35.3263C21.3193 33.2385 20.6665 30.9075 20.6665 28.3333ZM33.9998 27.7779L37.7361 31.4304C38.2266 31.9212 38.6062 32.4768 38.8748 33.0971C39.1434 33.7176 39.2778 34.3797 39.2778 35.0833C39.2778 36.5186 38.7639 37.7432 37.7361 38.7571C36.7083 39.771 35.4629 40.2779 33.9998 40.2779C32.5368 40.2779 31.2914 39.771 30.2636 38.7571C29.2358 37.7432 28.7219 36.5186 28.7219 35.0833C28.7219 34.3889 28.8516 33.7292 29.1111 33.1042C29.3703 32.4792 29.7544 31.9212 30.2636 31.4304L33.9998 27.7779Z" fill="#171F3F"/>
</svg>
