<svg width="48" height="48" viewBox="0 0 48 48" fill="none" xmlns="http://www.w3.org/2000/svg">
<g clip-path="url(#clip0_797_560)">
<path d="M48 13.295C47.9425 13.7418 47.8986 14.194 47.8246 14.638C47.386 17.3375 46.1882 19.6561 44.2613 21.591C42.392 23.4684 40.5172 25.3403 38.6368 27.2094C37.7817 28.059 36.5153 28.144 35.5834 27.4314C34.6707 26.7325 34.424 25.4773 35.016 24.466C35.1366 24.2604 35.2983 24.0713 35.4683 23.9014C37.3376 22.024 39.2124 20.1522 41.0845 18.2748C43.8639 15.4876 44.1791 10.9956 41.8164 7.84111C39.577 4.85105 35.6272 3.77671 32.2065 5.23474C31.2006 5.66228 30.3289 6.28441 29.5587 7.05728C27.7223 8.90175 25.8831 10.7435 24.0411 12.5797C23.0379 13.5801 21.5249 13.5307 20.6149 12.4783C19.9352 11.6917 19.8886 10.4475 20.5464 9.63899C20.8698 9.24159 21.2508 8.8853 21.6154 8.5208C23.26 6.87092 24.8963 5.21281 26.5601 3.58212C28.3911 1.78698 30.5838 0.666052 33.1055 0.202879C38.0886 -0.712503 43.1129 1.43618 45.9032 5.66776C47.1202 7.51497 47.8027 9.54306 47.9589 11.7466C47.9644 11.8233 47.9863 11.8973 48.0028 11.974V13.2868L48 13.295Z" fill="#E1E5FA"/>
<path d="M11.9781 48C11.6218 47.9589 11.2654 47.9232 10.9118 47.8712C6.86068 47.26 3.78256 45.1798 1.69119 41.6718C0.337151 39.4025 -0.175412 36.914 0.0520891 34.2884C0.315223 31.2271 1.5514 28.6043 3.71404 26.4227C5.58612 24.5372 7.46917 22.6625 9.35223 20.7852C10.0704 20.0699 11.0653 19.8917 11.9671 20.3001C12.7976 20.6728 13.3349 21.5553 13.2883 22.4981C13.2581 23.1285 12.9813 23.6492 12.5372 24.0904C10.7008 25.9239 8.86981 27.7629 7.03062 29.5937C5.55049 31.0682 4.67612 32.8331 4.60485 34.927C4.49247 38.2487 5.89859 40.7975 8.79307 42.4227C11.9315 44.1877 15.8264 43.5574 18.3783 40.9894C20.2229 39.1312 22.0786 37.2812 23.9287 35.4313C24.6469 34.716 25.4966 34.5022 26.445 34.8585C27.9717 35.434 28.4048 37.4018 27.2645 38.5721C26.1188 39.7478 24.9511 40.8989 23.789 42.061C22.8927 42.9544 22.021 43.8753 21.0864 44.7304C19.206 46.4488 16.9886 47.4847 14.4696 47.8602C14.1243 47.9123 13.7762 47.9534 13.4281 48H11.9753H11.9781Z" fill="#E1E5FA"/>
<path d="M31.9707 18.3626C31.9515 18.9874 31.7103 19.5301 31.2498 19.9905C28.0209 23.2135 24.7948 26.442 21.5687 29.6678C21.015 30.2214 20.4695 30.7805 19.9076 31.3204C19.2662 31.9371 18.496 32.1207 17.6545 31.8713C16.8295 31.6274 16.2868 31.0601 16.0867 30.2187C15.8839 29.3581 16.1333 28.6154 16.7582 27.9932C17.6819 27.0724 18.6057 26.1488 19.5266 25.2279C22.3498 22.405 25.173 19.5821 27.9962 16.7593C28.9282 15.8274 30.2603 15.7726 31.2224 16.6305C31.7295 17.0827 31.957 17.6664 31.9679 18.3626H31.9707Z" fill="#E1E5FA"/>
</g>
<defs>
<clipPath id="clip0_797_560">
<rect width="48" height="48" fill="white"/>
</clipPath>
</defs>
</svg>
