<svg width="674" height="660" viewBox="0 0 674 660" fill="none" xmlns="http://www.w3.org/2000/svg">
<g clip-path="url(#clip0_2_76)">
<path d="M101.01 265.641C97.1501 268.042 92.8668 269.862 88.2227 270.991C76.1887 273.925 64.1234 271.666 54.3801 265.625C44.8408 259.726 37.4981 250.218 34.6269 238.451C28.8217 214.65 43.3817 190.645 67.1829 184.855C90.9684 179.034 114.974 193.61 120.779 217.411C125.454 236.568 116.903 255.835 101.01 265.641Z" fill="#EBEBEB"/>
<path d="M91.1881 222.856C91.1881 230.308 85.1476 236.349 77.695 236.349C70.2424 236.349 64.2019 230.308 64.2019 222.856C64.2019 215.403 70.2424 209.362 77.695 209.362C85.1476 209.362 91.1881 215.403 91.1881 222.856Z" fill="white"/>
<path d="M101.01 260.071V265.641C97.1501 268.042 92.8668 269.862 88.2227 270.991C76.1887 273.925 64.1234 271.666 54.3801 265.625V260.071C54.3801 247.222 64.8137 236.757 77.6949 236.757C90.5761 236.757 101.01 247.222 101.01 260.071Z" fill="white"/>
<path d="M41.7815 81.539C43.3661 80.5506 45.3587 80.6133 46.959 81.5704C47.3984 81.8371 47.8377 82.0882 48.2927 82.3235C48.7477 82.5745 49.2027 82.7942 49.6734 83.0138C51.3678 83.814 52.4975 85.43 52.5602 87.2971L52.7642 93.6671L73.5216 93.0238L73.3176 86.6538C73.2549 84.7868 74.2904 83.0766 75.9221 82.1823C76.8321 81.6959 77.7107 81.1468 78.558 80.5506C80.0955 79.4837 82.0724 79.3425 83.7199 80.2211L89.3211 83.2335L99.1428 64.9237L93.5416 61.9113C91.8941 61.0327 90.9214 59.2911 90.9685 57.4398C90.9842 56.4042 90.9528 55.3687 90.8743 54.3489C90.7174 52.4818 91.5804 50.6775 93.165 49.7048L98.5779 46.3472L87.6266 28.6964L82.1823 32.0696C80.5976 33.0581 78.6207 32.9953 77.0204 32.0382C76.5811 31.7715 76.1418 31.5205 75.6868 31.2851C75.2318 31.0498 74.7768 30.8144 74.3218 30.5948C72.6273 29.7946 71.4819 28.1629 71.4192 26.2958L71.2309 19.9102L50.4578 20.5534L50.6618 26.9077C50.7246 28.7748 49.7047 30.485 48.0573 31.395C47.1473 31.897 46.2687 32.4305 45.4215 33.0267C43.8839 34.0936 41.907 34.2348 40.2596 33.3562L34.6584 30.3438L24.8367 48.6536L30.4379 51.666C32.0853 52.5446 33.058 54.2861 33.011 56.1532C32.9953 57.1887 33.0267 58.2242 33.1051 59.2598C33.262 61.1268 32.3991 62.9154 30.8144 63.9039L25.4015 67.2458L36.3529 84.8966L41.7815 81.539ZM46.9747 48.7634C51.4149 40.4793 61.7387 37.357 70.0228 41.8129C78.3069 46.253 81.4135 56.5768 76.9733 64.8609C72.5332 73.1451 62.2251 76.2516 53.9409 71.8115C45.6725 67.3556 42.5346 57.0318 46.9747 48.7634Z" fill="#EBEBEB"/>
<path d="M614.28 455.203C614.939 454.074 616.179 453.446 617.497 453.509C617.858 453.524 618.203 453.54 618.564 453.54C618.924 453.54 619.285 453.524 619.646 453.509C620.948 453.446 622.188 454.058 622.847 455.203L625.075 459.079L637.673 451.799L635.446 447.923C634.787 446.794 634.849 445.397 635.571 444.299C635.963 443.703 636.324 443.075 636.654 442.416C637.25 441.255 638.427 440.502 639.729 440.502H644.185V425.942H639.729C638.427 425.942 637.25 425.189 636.654 424.028C636.324 423.385 635.963 422.757 635.571 422.145C634.849 421.047 634.787 419.651 635.446 418.521L637.673 414.646L625.075 407.366L622.831 411.257C622.172 412.386 620.933 413.014 619.63 412.935C619.27 412.92 618.924 412.904 618.564 412.904C618.203 412.904 617.842 412.92 617.497 412.935C616.194 412.998 614.939 412.371 614.28 411.241L612.052 407.366L599.454 414.646L601.681 418.505C602.34 419.635 602.278 421.031 601.556 422.13C601.164 422.741 600.803 423.369 600.473 424.012C599.877 425.173 598.7 425.926 597.398 425.926H592.942V440.486H597.398C598.7 440.486 599.877 441.239 600.473 442.401C600.803 443.044 601.164 443.671 601.556 444.283C602.278 445.382 602.34 446.778 601.681 447.908L599.454 451.767L612.052 459.047L614.28 455.203ZM606.639 433.238C606.639 426.648 611.99 421.314 618.564 421.314C625.137 421.314 630.472 426.664 630.472 433.238C630.472 439.812 625.137 445.146 618.564 445.146C611.99 445.146 606.639 439.827 606.639 433.238Z" fill="#EBEBEB"/>
<path d="M95.0006 118.519C96.1302 119.178 96.7578 120.418 96.6951 121.736C96.6794 122.097 96.6637 122.442 96.6637 122.803C96.6637 123.164 96.6794 123.524 96.6951 123.885C96.7578 125.188 96.1459 126.427 95.0006 127.086L91.1252 129.314L98.4052 141.913L102.281 139.685C103.41 139.026 104.807 139.089 105.905 139.81C106.501 140.203 107.129 140.563 107.788 140.893C108.949 141.489 109.702 142.666 109.702 143.968V148.424H124.262V143.968C124.262 142.666 125.015 141.489 126.176 140.893C126.819 140.563 127.447 140.203 128.059 139.81C129.157 139.089 130.553 139.026 131.683 139.685L135.558 141.913L142.838 129.314L138.947 127.07C137.818 126.411 137.19 125.172 137.268 123.87C137.284 123.509 137.3 123.164 137.3 122.803C137.3 122.442 137.284 122.081 137.268 121.736C137.206 120.434 137.833 119.178 138.963 118.519L142.838 116.292L135.558 103.693L131.699 105.921C130.569 106.58 129.173 106.517 128.074 105.795C127.462 105.403 126.835 105.042 126.192 104.713C125.031 104.116 124.277 102.94 124.277 101.637V97.1816H109.717V101.637C109.717 102.94 108.964 104.116 107.803 104.713C107.16 105.042 106.532 105.403 105.921 105.795C104.822 106.517 103.426 106.58 102.296 105.921L98.4366 103.693L91.1566 116.292L95.0006 118.519ZM116.966 110.879C123.556 110.879 128.89 116.229 128.89 122.803C128.89 129.377 123.54 134.711 116.966 134.711C110.376 134.711 105.058 129.377 105.058 122.803C105.058 116.229 110.376 110.879 116.966 110.879Z" fill="#EBEBEB"/>
<path d="M642.177 7.45258H555.178V112.981H642.177V7.45258Z" fill="#EBEBEB"/>
<path d="M632.23 17.0703H565.109V103.332H632.23V17.0703Z" fill="white"/>
<path d="M567.73 17.0703H565.109V103.332H567.73V17.0703Z" fill="#C7C7C7"/>
<path d="M644.781 7.45258H642.161V112.981H644.781V7.45258Z" fill="#C7C7C7"/>
<path d="M600.164 84.1678H615.995V37.0205H600.164V84.1678Z" fill="#EBEBEB"/>
<path d="M580.698 52.0764L622.888 52.0764V28.9813L580.698 28.9813V52.0764Z" stroke="#EBEBEB" stroke-miterlimit="10"/>
<path d="M642.177 267.492H555.178V373.021H642.177V267.492Z" fill="#EBEBEB"/>
<path d="M632.23 277.126H565.109V363.388H632.23V277.126Z" fill="white"/>
<path d="M567.73 277.126H565.109V363.388H567.73V277.126Z" fill="#C7C7C7"/>
<path d="M644.781 267.493H642.161V373.021H644.781V267.493Z" fill="#C7C7C7"/>
<path d="M603.439 297.067H587.608V344.215H603.439V297.067Z" fill="#EBEBEB"/>
<path d="M622.894 289.019H580.705V312.114H622.894V289.019Z" stroke="#EBEBEB" stroke-miterlimit="10"/>
<path d="M642.177 137.943H555.178V243.472H642.177V137.943Z" fill="#EBEBEB"/>
<path d="M632.23 147.577H565.109V233.838H632.23V147.577Z" fill="white"/>
<path d="M567.73 147.577H565.109V233.838H567.73V147.577Z" fill="#C7C7C7"/>
<path d="M644.781 137.943H642.161V243.472H644.781V137.943Z" fill="#C7C7C7"/>
    //
<path d="M605.73 169.872H592.174V204.153H605.73V169.872Z" fill="#EBEBEB"/>
<path d="M619.992 190.707H583.576V214.336H619.992V190.707Z" stroke="#DBDBDB" stroke-miterlimit="10"/>
<path d="M54.7881 404.604V631.241H191.79V404.604H54.7881ZM67.23 488.606H179.364V547.599H67.23V488.606ZM67.23 415.556H179.364V474.549H67.23V415.556Z" fill="#EBEBEB"/>
<path d="M0.00136566 631.247H54.7896L54.7896 404.611H0.00136566L0.00136566 631.247Z" fill="#DBDBDB"/>
<path d="M152.726 474.548H179.367V415.555H152.726V474.548Z" fill="#DBDBDB"/>
<path d="M67.2346 617.014H178.662V560.767H67.2346V617.014Z" stroke="#DBDBDB" stroke-width="0.75" stroke-miterlimit="10"/>
<path d="M116.542 587.796H138.68V576.594H116.542V587.796Z" fill="#DBDBDB"/>
<path d="M109.999 586.949H132.137V577.441H109.999V586.949Z" stroke="#DBDBDB" stroke-width="0.75" stroke-miterlimit="10"/>
<path d="M152.726 547.616H179.367V488.623H152.726V547.616Z" fill="#DBDBDB"/>
<path d="M56.3101 543.677C56.3101 543.677 69.1128 497.738 79.3267 482.127C89.5564 466.515 108.604 449.382 108.604 449.382C108.604 449.382 108.164 520.221 56.3101 543.677Z" fill="#0D0B5473"/>
<path d="M57.2357 542.893C61.6288 535.77 65.3473 528.238 68.9088 520.629C70.4778 512.47 72.3919 504.265 75.2631 496.467C75.3102 496.326 75.5298 496.404 75.4828 496.545C73.7883 503.81 71.8114 510.996 70.0071 518.228C75.169 507.042 80.0798 495.73 86.2459 485.155C87.4853 480.024 89.8388 475.098 92.1765 470.454C92.2393 470.312 92.4746 470.391 92.3962 470.532C90.7488 474.125 89.5721 477.843 88.3953 481.562C91.2979 476.886 94.4986 472.368 98.1229 468.132C98.3426 467.865 98.7976 468.163 98.5779 468.445C90.3565 478.942 84.6769 490.897 79.264 502.994C85.1162 496.749 90.435 489.909 95.3302 482.911C95.3772 482.833 95.4871 482.911 95.44 482.99C90.3879 491.023 84.5671 498.24 78.2442 505.285C74.3061 514.149 70.4307 523.045 65.7395 531.471C75.1219 523.532 82.3391 513.271 89.4936 503.37C89.6505 503.151 89.9957 503.386 89.8388 503.606C82.6843 514.479 75.2945 524.708 65.0021 532.757C62.8997 536.444 60.6404 540.037 58.13 543.489C57.7221 544.085 56.8592 543.489 57.2357 542.893Z" fill="#263238"/>
<path d="M53.8781 543.74C53.8781 543.74 76.8791 501.378 70.1953 460.302C63.5115 419.227 56.3571 404.604 56.3571 404.604C56.3571 404.604 20.1925 468.492 53.8781 543.74Z" fill="#0D0B5473"/>
<path d="M44.4329 477.137C46.2686 488.999 49.485 500.107 53.3133 511.341C53.376 496.263 53.6584 481.185 54.0664 466.123C51.4148 456.96 50.0812 447.578 49.7203 438.054C49.7047 437.772 50.1283 437.788 50.144 438.054C50.8186 446.26 52.2621 454.246 54.1762 462.217C54.5214 449.775 54.945 437.348 55.3843 424.922C55.3843 424.718 55.7138 424.718 55.7138 424.922C55.6981 444.346 55.6981 463.77 55.5883 483.194C58.5536 475.71 60.4207 468.006 62.225 460.114C62.2407 460.036 62.3662 460.051 62.3662 460.13C61.6758 469.198 58.9145 477.969 55.5726 486.394C55.4784 498.805 55.3529 511.231 55.0705 523.641C58.9615 510.446 63.1193 497.659 64.2489 483.711C64.2646 483.523 64.547 483.523 64.547 483.711C64.2489 499.087 60.2795 514.714 55.196 529.18C55.1333 529.337 55.0391 529.447 54.945 529.541C54.8352 534.075 54.694 538.609 54.5528 543.159C54.5371 543.803 53.5486 543.787 53.5486 543.144C53.376 533.855 53.3133 524.583 53.329 515.295C48.1671 503.37 45.4057 490.05 44.2604 477.169C44.229 477.059 44.4173 477.027 44.4329 477.137Z" fill="#263238"/>
<path d="M46.0175 470.595C46.7392 474.235 47.4296 478.079 47.6178 481.781C47.6178 481.907 47.4296 481.923 47.3982 481.813C46.4411 478.22 45.9234 474.345 45.4997 470.658C45.4684 470.359 45.9547 470.312 46.0175 470.595Z" fill="#263238"/>
<path d="M59.4637 439.623C59.4793 439.498 59.6833 439.529 59.6833 439.655C59.7147 442.197 59.1969 444.927 58.5223 447.374C58.4595 447.578 58.1771 447.484 58.2085 447.28C58.7262 444.738 59.0243 442.181 59.4637 439.623Z" fill="#263238"/>
<path d="M45.4685 543.74C45.4685 543.74 46.4099 499.511 33.717 477.53C21.0398 455.564 0 444.362 0 444.362C0 444.362 8.48809 522.308 45.4685 543.74Z" fill="#0D0B5473"/>
<path d="M22.3576 505.928C27.6921 513.6 32.9952 521.006 39.5221 527.689C36.9961 518.652 34.0464 509.756 30.7359 501.017C23.6285 494.788 16.5682 488.324 12.2064 479.789C12.1437 479.648 12.332 479.538 12.4104 479.663C17.1016 487.226 23.3775 493.266 29.9828 499.087C24.915 485.955 19.0157 473.136 12.3163 460.632C12.1437 460.318 12.6144 460.036 12.8026 460.349C16.8663 466.861 20.5533 473.607 23.8795 480.526C22.6871 475.804 21.7457 470.971 20.5219 466.28C20.4906 466.155 20.6788 466.108 20.7259 466.217C22.9695 472.132 25.2131 478.659 25.9349 484.966C30.375 494.772 34.1092 504.892 37.1059 515.232C36.7764 508.595 36.3685 502.005 35.6781 495.384C35.6624 495.259 35.8821 495.227 35.8978 495.353C37.2785 502.696 38.0002 510.164 37.8119 517.632C39.6476 524.222 41.1852 530.89 42.409 537.605C42.4404 537.778 42.1736 537.872 42.1266 537.684C41.4362 534.875 40.6831 532.082 39.93 529.29C39.8829 529.274 39.8359 529.274 39.7888 529.227C32.9795 522.418 26.5154 514.636 22.2792 505.944C22.2635 505.912 22.3262 505.881 22.3576 505.928Z" fill="#263238"/>
<path d="M7.65656 469.936C9.06863 471.458 10.3709 473.074 11.7359 474.643C12.944 476.039 14.4188 477.341 15.3915 478.91C15.4229 478.973 15.3602 479.051 15.2974 479.004C13.6657 477.969 12.3478 476.29 11.0769 474.847C9.74328 473.325 8.53518 471.819 7.46828 470.093C7.37415 469.983 7.56242 469.842 7.65656 469.936Z" fill="#263238"/>
<path d="M81.6489 546.988L80.0485 567.933L75.2318 631.257H33.1993L28.3826 567.933L26.7822 546.988C28.5708 546.988 54.2077 546.988 54.2077 546.988C54.2077 546.988 79.8602 546.988 81.6489 546.988Z" fill="#37474F"/>
<path d="M81.6486 546.988L80.6758 559.728L27.9273 561.846L26.7976 546.988C28.5862 546.988 54.2231 546.988 54.2231 546.988C54.2231 546.988 79.8599 546.988 81.6486 546.988Z" fill="#263238"/>
<path d="M23.0447 552.768H85.3796V536.702H23.0447V552.768Z" fill="#37474F"/>
<path d="M0 631.257C214.32 630.3 454.717 630.284 669.037 631.257C454.717 632.214 214.305 632.214 0 631.257Z" fill="#263238"/>
<path d="M120.073 611.017V20.2239C120.073 9.05292 129.126 0 140.297 0H522.167C533.338 0 542.391 9.05292 542.391 20.2239V611.017C542.391 622.188 533.338 631.241 522.167 631.241H140.297C129.126 631.257 120.073 622.188 120.073 611.017Z" fill="#455A64"/>
<path d="M524.583 44.182H138.382V587.451H524.583V44.182Z" fill="white"/>
<path d="M285.284 26.9548V24.3189C285.284 23.2363 286.163 22.3577 287.246 22.3577H375.233C376.316 22.3577 377.194 23.2363 377.194 24.3189V26.9548C377.194 28.0374 376.316 28.916 375.233 28.916H287.246C286.163 28.916 285.284 28.0374 285.284 26.9548Z" fill="#263238"/>
<path d="M331.239 620.682C337.808 620.682 343.132 615.357 343.132 608.789C343.132 602.221 337.808 596.896 331.239 596.896C324.671 596.896 319.347 602.221 319.347 608.789C319.347 615.357 324.671 620.682 331.239 620.682Z" fill="#263238"/>
<path d="M524.583 44.182H138.382V587.451H524.583V44.182Z" fill="white"/>
<path d="M331.428 277.989C368.254 277.989 398.108 248.135 398.108 211.308C398.108 174.481 368.254 144.627 331.428 144.627C294.601 144.627 264.747 174.481 264.747 211.308C264.747 248.135 294.601 277.989 331.428 277.989Z" fill="#A6A6A6"/>
<path d="M413.986 333.059H248.853V356.986H413.986V333.059Z" fill="#EBEBEB"/>
<path d="M274.364 340.324C274.364 340.151 274.505 340.01 274.678 340.01C274.866 340.01 275.008 340.151 275.008 340.324V345.439C275.008 347.117 276.373 348.467 278.036 348.482C279.73 348.467 281.095 347.117 281.095 345.439V340.324C281.095 340.151 281.236 340.01 281.409 340.01C281.597 340.01 281.738 340.151 281.738 340.324V345.439C281.738 347.463 280.091 349.126 278.051 349.126C276.027 349.126 274.38 347.478 274.38 345.439V340.324H274.364Z" fill="#A6A6A6"/>
<path d="M284.359 347.792C284.468 347.667 284.657 347.635 284.798 347.745C285.237 348.074 285.943 348.482 286.743 348.482C287.246 348.482 287.669 348.325 287.952 348.09C288.265 347.886 288.438 347.588 288.438 347.306C288.422 347.008 288.312 346.804 287.983 346.521C287.716 346.317 287.261 346.16 286.634 346.05L286.602 346.035C286.037 345.925 285.52 345.799 285.159 345.533C284.751 345.297 284.468 344.889 284.468 344.387C284.468 343.885 284.751 343.43 285.159 343.132C285.535 342.865 286.069 342.709 286.728 342.709C287.544 342.709 288.14 343.085 288.626 343.399C288.767 343.509 288.815 343.697 288.72 343.838C288.626 343.979 288.438 344.027 288.297 343.932C287.826 343.619 287.355 343.289 286.728 343.289C286.21 343.289 285.786 343.43 285.52 343.65C285.253 343.854 285.112 344.121 285.112 344.372C285.112 344.638 285.222 344.811 285.473 345.015C285.755 345.203 286.194 345.36 286.775 345.454H286.806C287.418 345.548 287.904 345.721 288.359 345.972C288.783 346.239 289.081 346.741 289.081 347.274C289.081 347.808 288.783 348.231 288.359 348.561C287.92 348.89 287.402 349.063 286.775 349.063C285.739 349.047 284.939 348.561 284.421 348.153C284.265 348.09 284.249 347.933 284.359 347.792Z" fill="#A6A6A6"/>
<path d="M290.744 345.941C290.744 344.168 292.125 342.74 293.835 342.74C295.467 342.74 296.769 344.042 296.91 345.705V345.721V345.752C296.91 345.925 296.769 346.035 296.596 346.035H291.372C291.434 347.431 292.533 348.482 293.851 348.482C294.698 348.482 295.482 348.043 295.906 347.321C296 347.164 296.188 347.133 296.33 347.212C296.471 347.321 296.518 347.494 296.439 347.651C295.89 348.514 294.949 349.094 293.866 349.094C292.125 349.126 290.744 347.698 290.744 345.941ZM291.403 345.439H296.236C296.032 344.246 295.012 343.368 293.835 343.368C292.643 343.368 291.638 344.23 291.403 345.439Z" fill="#A6A6A6"/>
<path d="M298.84 343.069C298.84 342.881 298.981 342.756 299.17 342.756C299.326 342.756 299.468 342.881 299.468 343.069V344.482C299.499 344.434 299.515 344.372 299.562 344.325C300.048 343.572 300.895 342.756 302.119 342.756C302.292 342.756 302.433 342.881 302.433 343.069C302.433 343.242 302.292 343.383 302.119 343.383C301.288 343.383 300.707 343.854 300.268 344.419C299.844 344.999 299.593 345.643 299.499 345.909C299.468 345.956 299.468 345.988 299.468 346.019V348.812C299.468 349 299.326 349.126 299.17 349.126C298.981 349.126 298.84 349 298.84 348.812V343.069Z" fill="#A6A6A6"/>
<path d="M309.101 345.344C309.101 344.262 308.222 343.383 307.14 343.383C306.057 343.383 305.194 344.262 305.163 345.344V348.812V348.859C305.147 348.906 305.132 348.969 305.1 349C305.053 349.079 304.959 349.11 304.865 349.11H304.786C304.692 349.079 304.614 349.016 304.582 348.937C304.567 348.922 304.567 348.906 304.567 348.89C304.567 348.875 304.551 348.859 304.551 348.859V348.78V345.313V345.203V343.022C304.551 342.85 304.677 342.709 304.865 342.709C305.037 342.709 305.163 342.85 305.163 343.022V343.634C305.634 343.069 306.355 342.709 307.14 342.709C308.568 342.709 309.729 343.885 309.729 345.297V348.765C309.729 348.953 309.587 349.079 309.415 349.079C309.242 349.079 309.101 348.953 309.101 348.765V345.344Z" fill="#A6A6A6"/>
<path d="M317.872 343.054V348.812C317.872 348.984 317.73 349.126 317.558 349.126C317.385 349.126 317.244 348.984 317.244 348.812V347.855C316.695 348.608 315.832 349.11 314.843 349.11C313.165 349.11 311.831 347.667 311.831 345.925C311.831 344.183 313.165 342.74 314.843 342.74C315.816 342.74 316.695 343.242 317.244 343.995V343.054C317.244 342.865 317.385 342.74 317.558 342.74C317.73 342.756 317.872 342.881 317.872 343.054ZM317.244 345.941C317.244 344.513 316.161 343.368 314.843 343.368C313.541 343.368 312.443 344.513 312.443 345.941C312.443 347.368 313.541 348.498 314.843 348.498C316.161 348.498 317.244 347.368 317.244 345.941Z" fill="#A6A6A6"/>
<path d="M329.686 345.344C329.655 344.262 328.807 343.368 327.709 343.368C326.626 343.368 325.748 344.262 325.748 345.344V348.812V348.859C325.748 348.875 325.732 348.89 325.732 348.89V348.922C325.701 349 325.638 349.047 325.575 349.094C325.528 349.126 325.465 349.141 325.418 349.141H325.387H325.356C325.34 349.141 325.324 349.126 325.324 349.126C325.293 349.126 325.277 349.094 325.246 349.079C325.23 349.079 325.214 349.063 325.214 349.047L325.183 349.016C325.167 349 325.167 348.984 325.152 348.984C325.152 348.969 325.152 348.969 325.136 348.953C325.136 348.953 325.136 348.937 325.12 348.922C325.12 348.906 325.12 348.89 325.105 348.875V348.828V348.796V345.329C325.105 344.246 324.242 343.352 323.143 343.352C322.045 343.352 321.182 344.246 321.182 345.329V348.796C321.182 348.906 321.135 348.984 321.041 349.047C321.025 349.063 320.994 349.094 320.963 349.094C320.947 349.11 320.931 349.11 320.915 349.11H320.884H320.837C320.727 349.094 320.617 349 320.57 348.875V348.812V345.344V345.235V343.054C320.57 342.881 320.711 342.756 320.868 342.756C321.057 342.756 321.182 342.881 321.182 343.054V343.666C321.653 343.101 322.359 342.756 323.143 342.756C324.132 342.756 324.979 343.305 325.418 344.105C325.873 343.305 326.736 342.756 327.709 342.756C329.137 342.756 330.298 343.917 330.298 345.344V348.812C330.298 348.969 330.172 349.11 329.984 349.11C329.812 349.11 329.686 348.969 329.686 348.812V345.344Z" fill="#A6A6A6"/>
<path d="M332.479 345.941C332.479 344.168 333.859 342.74 335.57 342.74C337.201 342.74 338.504 344.042 338.645 345.705V345.721V345.752C338.645 345.925 338.504 346.035 338.331 346.035H333.106C333.169 347.431 334.267 348.482 335.585 348.482C336.433 348.482 337.217 348.043 337.641 347.321C337.735 347.164 337.923 347.133 338.049 347.212C338.19 347.321 338.237 347.494 338.158 347.651C337.609 348.514 336.668 349.094 335.585 349.094C333.859 349.126 332.479 347.698 332.479 345.941ZM333.138 345.439H337.97C337.766 344.246 336.746 343.368 335.57 343.368C334.377 343.368 333.373 344.23 333.138 345.439Z" fill="#A6A6A6"/>
<path d="M262.754 343.022C262.754 344.293 261.734 345.313 260.463 345.313C259.192 345.313 258.173 344.293 258.173 343.022C258.173 341.752 259.192 340.732 260.463 340.732C261.734 340.732 262.754 341.752 262.754 343.022Z" fill="#A6A6A6"/>
<path d="M264.433 349.314H256.51C256.525 347.133 258.298 345.392 260.463 345.392C262.66 345.392 264.401 347.133 264.433 349.314Z" fill="#A6A6A6"/>
<path d="M413.986 367.796H248.853V391.723H413.986V367.796Z" fill="#EBEBEB"/>
<path d="M279.825 376.928C278.318 379.187 276.436 381.085 274.176 382.576C275.682 380.317 277.565 378.434 279.825 376.928Z" fill="#A6A6A6"/>
<path d="M274.176 376.928C276.436 378.434 278.334 380.317 279.825 382.576C277.565 381.085 275.682 379.187 274.176 376.928Z" fill="#A6A6A6"/>
<path d="M281.001 379.752C278.334 380.285 275.667 380.285 273.015 379.752C275.667 379.218 278.334 379.218 281.001 379.752Z" fill="#A6A6A6"/>
<path d="M277 375.767C277.534 378.434 277.534 381.101 277 383.753C276.467 381.101 276.467 378.418 277 375.767Z" fill="#A6A6A6"/>
<path d="M293.616 376.928C292.11 379.187 290.227 381.085 287.968 382.576C289.458 380.317 291.356 378.434 293.616 376.928Z" fill="#A6A6A6"/>
<path d="M287.968 376.928C290.227 378.434 292.125 380.317 293.616 382.576C291.356 381.085 289.458 379.187 287.968 376.928Z" fill="#A6A6A6"/>
<path d="M294.792 379.752C292.125 380.285 289.458 380.285 286.806 379.752C289.458 379.218 292.125 379.218 294.792 379.752Z" fill="#A6A6A6"/>
<path d="M290.791 375.767C291.325 378.434 291.325 381.101 290.791 383.753C290.242 381.101 290.258 378.418 290.791 375.767Z" fill="#A6A6A6"/>
<path d="M307.407 376.928C305.901 379.187 304.018 381.085 301.759 382.576C303.249 380.317 305.147 378.434 307.407 376.928Z" fill="#A6A6A6"/>
<path d="M301.743 376.928C304.002 378.434 305.901 380.317 307.391 382.576C305.132 381.085 303.249 379.187 301.743 376.928Z" fill="#A6A6A6"/>
<path d="M308.568 379.752C305.901 380.285 303.233 380.285 300.582 379.752C303.233 379.218 305.916 379.218 308.568 379.752Z" fill="#A6A6A6"/>
<path d="M304.583 375.767C305.116 378.434 305.116 381.101 304.583 383.753C304.034 381.101 304.034 378.418 304.583 375.767Z" fill="#A6A6A6"/>
<path d="M321.182 376.928C319.676 379.187 317.793 381.085 315.534 382.576C317.04 380.317 318.923 378.434 321.182 376.928Z" fill="#A6A6A6"/>
<path d="M315.534 376.928C317.793 378.434 319.692 380.317 321.182 382.576C318.923 381.085 317.04 379.187 315.534 376.928Z" fill="#A6A6A6"/>
<path d="M322.359 379.752C319.692 380.285 317.025 380.285 314.373 379.752C317.025 379.218 319.692 379.218 322.359 379.752Z" fill="#A6A6A6"/>
<path d="M318.358 375.767C318.892 378.434 318.892 381.101 318.358 383.753C317.825 381.101 317.825 378.418 318.358 375.767Z" fill="#A6A6A6"/>
<path d="M263.146 377.179V380.066H262.33V377.179C262.33 376.08 261.499 375.186 260.463 375.186C259.428 375.186 258.596 376.08 258.596 377.179V380.066H257.78V377.179C257.78 375.61 258.988 374.323 260.463 374.323C261.938 374.323 263.146 375.61 263.146 377.179Z" fill="#A6A6A6"/>
<path d="M256.745 379.014V385.196H264.197V379.014H256.745ZM261.091 383.533H259.757L260.071 382.058C259.883 381.948 259.757 381.729 259.757 381.493C259.757 381.132 260.055 380.834 260.416 380.834C260.777 380.834 261.075 381.132 261.075 381.493C261.075 381.729 260.95 381.933 260.761 382.058L261.091 383.533Z" fill="#A6A6A6"/>
<path d="M303.422 314.671V303.861C303.422 303.312 303.861 302.857 304.426 302.857C304.991 302.857 305.446 303.312 305.446 303.861V313.651H310.404C310.937 313.651 311.408 314.106 311.408 314.671C311.408 315.22 310.937 315.675 310.404 315.675H304.473C304.441 315.675 304.441 315.675 304.441 315.675C304.426 315.675 304.426 315.675 304.426 315.675C303.861 315.691 303.422 315.22 303.422 314.671Z" fill="#263238"/>
<path d="M323.128 304.457C324.257 305.665 324.979 307.281 324.979 309.086C324.979 310.89 324.273 312.537 323.128 313.714C322.045 314.907 320.429 315.675 318.75 315.675C316.993 315.675 315.377 314.907 314.263 313.714C313.133 312.522 312.443 310.89 312.443 309.086C312.443 307.281 313.118 305.665 314.263 304.457C315.377 303.249 316.993 302.496 318.75 302.496C320.429 302.496 322.045 303.249 323.128 304.457ZM322.892 309.086C322.892 307.846 322.39 306.685 321.653 305.885C320.884 305.053 319.864 304.583 318.766 304.583C317.589 304.583 316.569 305.053 315.801 305.885C315.032 306.685 314.561 307.846 314.561 309.086C314.561 310.325 315.032 311.486 315.801 312.271C316.569 313.102 317.589 313.589 318.766 313.589C319.864 313.589 320.884 313.087 321.653 312.271C322.39 311.486 322.892 310.341 322.892 309.086Z" fill="#263238"/>
<path d="M328.023 309.101C328.023 305.414 331.067 302.48 334.785 302.48C336.338 302.48 337.829 303.014 338.959 303.908C339.429 304.253 339.508 304.928 339.163 305.399C338.817 305.838 338.143 305.932 337.672 305.556C336.888 304.959 335.883 304.567 334.785 304.567C333.467 304.567 332.306 305.069 331.49 305.901C330.627 306.732 330.11 307.846 330.11 309.086C330.11 310.294 330.627 311.408 331.49 312.239C332.322 313.087 333.467 313.573 334.785 313.573C335.695 313.573 336.558 313.291 337.296 312.883V310.372H334.675C334.111 310.372 333.64 309.902 333.64 309.321C333.64 308.741 334.111 308.301 334.675 308.301H338.284C338.3 308.301 338.3 308.301 338.3 308.301C338.315 308.301 338.315 308.301 338.315 308.301C338.896 308.301 339.382 308.741 339.382 309.321V313.369C339.382 313.495 339.351 313.573 339.335 313.683C339.319 313.714 339.319 313.73 339.304 313.777V313.793C339.257 313.965 339.147 314.106 338.959 314.232C337.798 315.126 336.354 315.66 334.801 315.66C331.067 315.691 328.023 312.773 328.023 309.101Z" fill="#263238"/>
<path d="M343.634 303.861C343.634 303.296 344.074 302.857 344.638 302.857C345.188 302.857 345.658 303.296 345.658 303.861V314.671C345.658 315.236 345.188 315.675 344.638 315.675C344.074 315.675 343.634 315.236 343.634 314.671V303.861Z" fill="#263238"/>
<path d="M351.118 314.671C351.118 315.22 350.663 315.675 350.13 315.675C349.565 315.675 349.125 315.22 349.125 314.671V304.034C349.125 304.034 349.125 304.034 349.125 304.018C349.11 303.704 349.251 303.375 349.533 303.171C349.988 302.857 350.616 302.951 350.93 303.39L356.845 311.58V304.034C356.845 303.5 357.284 303.045 357.833 303.045C358.382 303.045 358.837 303.5 358.837 304.034V314.671C358.837 315.22 358.382 315.675 357.833 315.675C357.535 315.675 357.268 315.534 357.08 315.315C357.049 315.283 357.002 315.236 356.986 315.205L351.118 307.062V314.671Z" fill="#263238"/>
<path d="M358.79 406.361H304.065V423.385H358.79V406.361Z" fill="#0D0B5473"/>
<path d="M317.433 417.407V411.994C317.433 411.712 317.652 411.492 317.935 411.492C318.217 411.492 318.452 411.727 318.452 411.994V416.889H320.931C321.198 416.889 321.433 417.125 321.433 417.407C321.433 417.689 321.198 417.909 320.931 417.909H317.966C317.95 417.909 317.95 417.909 317.95 417.909C317.935 417.909 317.935 417.909 317.935 417.909C317.652 417.925 317.433 417.689 317.433 417.407Z" fill="white"/>
<path d="M327.286 412.292C327.851 412.904 328.211 413.704 328.211 414.614C328.211 415.524 327.851 416.34 327.286 416.936C326.752 417.532 325.936 417.925 325.089 417.925C324.211 417.925 323.395 417.532 322.846 416.936C322.281 416.34 321.936 415.524 321.936 414.614C321.936 413.704 322.281 412.904 322.846 412.292C323.41 411.68 324.211 411.319 325.089 411.319C325.936 411.319 326.737 411.696 327.286 412.292ZM327.16 414.614C327.16 413.987 326.909 413.406 326.533 413.014C326.14 412.606 325.638 412.355 325.089 412.355C324.509 412.355 323.991 412.59 323.599 413.014C323.206 413.422 322.971 414.002 322.971 414.614C322.971 415.226 323.206 415.822 323.599 416.215C323.991 416.622 324.493 416.874 325.089 416.874C325.638 416.874 326.156 416.622 326.533 416.215C326.909 415.822 327.16 415.242 327.16 414.614Z" fill="white"/>
<path d="M329.733 414.63C329.733 412.778 331.255 411.319 333.122 411.319C333.907 411.319 334.644 411.586 335.209 412.041C335.444 412.214 335.491 412.559 335.303 412.778C335.131 412.998 334.785 413.045 334.566 412.857C334.174 412.559 333.672 412.355 333.122 412.355C332.463 412.355 331.883 412.606 331.475 413.03C331.051 413.437 330.785 414.002 330.785 414.63C330.785 415.242 331.036 415.791 331.475 416.215C331.883 416.638 332.463 416.889 333.122 416.889C333.577 416.889 334.017 416.748 334.378 416.544V415.289H333.06C332.777 415.289 332.542 415.053 332.542 414.771C332.542 414.473 332.777 414.253 333.06 414.253H334.864C334.88 414.253 334.88 414.253 334.88 414.253C334.895 414.253 334.895 414.253 334.895 414.253C335.193 414.253 335.429 414.473 335.429 414.771V416.795C335.429 416.858 335.413 416.889 335.397 416.952C335.382 416.968 335.382 416.983 335.382 416.999V417.015C335.35 417.093 335.303 417.172 335.209 417.234C334.629 417.689 333.907 417.956 333.122 417.956C331.255 417.925 329.733 416.466 329.733 414.63Z" fill="white"/>
<path d="M337.531 411.994C337.531 411.712 337.751 411.492 338.033 411.492C338.315 411.492 338.551 411.712 338.551 411.994V417.407C338.551 417.689 338.315 417.909 338.033 417.909C337.751 417.909 337.531 417.689 337.531 417.407V411.994Z" fill="white"/>
<path d="M341.281 417.407C341.281 417.689 341.045 417.909 340.779 417.909C340.496 417.909 340.277 417.674 340.277 417.407V412.073C340.277 412.073 340.277 412.072 340.277 412.057C340.261 411.9 340.339 411.727 340.481 411.633C340.716 411.476 341.03 411.523 341.171 411.743L344.136 415.838V412.057C344.136 411.79 344.356 411.555 344.638 411.555C344.921 411.555 345.14 411.79 345.14 412.057V417.391C345.14 417.674 344.905 417.893 344.638 417.893C344.497 417.893 344.356 417.815 344.262 417.705C344.246 417.689 344.23 417.674 344.215 417.658L341.281 413.579V417.407Z" fill="white"/>
<path d="M370.118 265.61C368.738 266.598 367.326 267.524 365.882 268.418C362.43 270.489 358.775 272.278 354.962 273.706C354.068 274.051 353.158 274.365 352.248 274.678C350.193 275.353 348.074 275.934 345.941 276.404C345.925 276.404 345.909 276.404 345.894 276.42C344.011 276.828 342.097 277.173 340.151 277.424C337.594 273.611 335.507 270.301 334.048 267.744C333.075 266.049 331.789 263.68 330.486 261.013C326.454 252.838 322.202 241.84 326.14 238.843C326.219 238.78 326.282 238.733 326.36 238.686C326.454 238.624 326.564 238.577 326.674 238.514C326.737 238.482 326.799 238.451 326.878 238.42C327.207 238.263 327.599 238.169 328.023 238.122C328.509 238.043 329.059 238.043 329.686 238.106C331.679 238.294 334.346 239.188 337.829 240.961V240.977C338.567 241.338 339.32 241.746 340.135 242.201C340.23 242.248 340.339 242.311 340.449 242.373C347.149 246.17 358.618 255.71 370.118 265.61Z" fill="#FFC4C0"/>
<path d="M372.472 263.853C371.703 264.464 370.918 265.045 370.118 265.61C368.738 266.598 367.326 267.524 365.882 268.418C362.43 270.489 358.775 272.278 354.962 273.706C354.068 274.051 353.158 274.365 352.248 274.678C350.192 275.353 348.074 275.934 345.941 276.404C345.925 276.404 345.909 276.404 345.894 276.42C344.011 276.828 342.097 277.173 340.151 277.424C339.775 277.471 339.382 277.518 338.99 277.565C334.895 271.133 331.443 265.327 329.043 260.793V260.777C328.902 260.511 328.76 260.26 328.635 260.009C327.788 258.361 327.05 256.808 326.423 255.349C325.952 254.25 325.544 253.199 325.199 252.195C324.979 251.536 324.775 250.893 324.587 250.265C324.43 249.716 324.305 249.198 324.179 248.696C324.069 248.179 323.975 247.677 323.897 247.19C323.677 245.888 323.614 244.711 323.708 243.676C323.771 242.734 323.959 241.903 324.258 241.197C324.414 240.82 324.587 240.475 324.807 240.161C324.916 240.004 325.026 239.863 325.136 239.722C325.262 239.581 325.387 239.439 325.528 239.314C325.654 239.188 325.795 239.079 325.952 238.969C326.015 238.922 326.077 238.875 326.14 238.843C326.219 238.78 326.281 238.733 326.36 238.686C326.454 238.624 326.564 238.577 326.674 238.514C326.736 238.482 326.799 238.451 326.878 238.42C326.893 238.404 326.909 238.404 326.925 238.388C327.239 238.247 327.568 238.122 327.929 238.027C329.969 237.494 332.714 237.792 336.025 238.937C336.025 238.937 336.025 238.953 336.04 238.953C337.39 239.408 338.849 240.004 340.386 240.757L340.402 240.773C342.85 241.95 345.501 243.503 348.372 245.417C355.511 250.187 364.093 256.949 372.472 263.853Z" fill="#0D0B5473"/>
<path d="M343.211 249.653C342.834 249.293 342.457 248.947 342.05 248.602H342.034C341.893 248.477 341.751 248.367 341.61 248.257C341.5 248.179 341.406 248.1 341.296 248.022C341.124 247.88 340.951 247.771 340.763 247.661C340.59 247.535 340.418 247.425 340.23 247.316C340.23 247.316 340.23 247.316 340.214 247.316C340.104 247.253 340.01 247.206 339.9 247.143C339.837 247.112 339.759 247.08 339.696 247.049C339.712 247.049 339.696 247.033 339.696 247.033C339.476 246.923 339.257 246.829 339.037 246.735C339.194 247.127 339.382 247.488 339.571 247.833C340.23 248.994 341.077 249.983 341.955 250.909C342.301 251.238 342.646 251.552 343.007 251.866C343.289 252.101 343.571 252.321 343.87 252.54C343.885 252.556 343.901 252.572 343.917 252.572C343.917 252.587 343.932 252.587 343.932 252.587C344.607 253.074 345.329 253.497 346.129 253.827C345.438 252.164 344.372 250.861 343.211 249.653ZM343.211 249.653C342.834 249.293 342.457 248.947 342.05 248.602H342.034C341.893 248.477 341.751 248.367 341.61 248.257C341.5 248.179 341.406 248.1 341.296 248.022C341.124 247.88 340.951 247.771 340.763 247.661C340.59 247.535 340.418 247.425 340.23 247.316C340.23 247.316 340.23 247.316 340.214 247.316C340.104 247.253 340.01 247.206 339.9 247.143C339.837 247.112 339.759 247.08 339.696 247.049C339.712 247.049 339.696 247.033 339.696 247.033C339.476 246.923 339.257 246.829 339.037 246.735C339.194 247.127 339.382 247.488 339.571 247.833C340.23 248.994 341.077 249.983 341.955 250.909C342.301 251.238 342.646 251.552 343.007 251.866C343.289 252.101 343.571 252.321 343.87 252.54C343.885 252.556 343.901 252.572 343.917 252.572C343.917 252.587 343.932 252.587 343.932 252.587C344.607 253.074 345.329 253.497 346.129 253.827C345.438 252.164 344.372 250.861 343.211 249.653Z" fill="white"/>
<path opacity="0.1" d="M365.882 268.418C362.43 270.489 358.775 272.278 354.962 273.706C354.068 274.051 353.158 274.365 352.248 274.678C350.193 275.353 348.074 275.934 345.941 276.404C345.925 276.404 345.909 276.404 345.894 276.42C344.011 276.828 342.097 277.173 340.151 277.424C339.775 277.471 339.382 277.518 338.99 277.565C334.895 271.133 331.443 265.327 329.043 260.793V260.777C328.902 260.511 328.761 260.26 328.635 260.009C327.788 258.361 327.05 256.808 326.423 255.349C325.952 254.251 325.544 253.199 325.199 252.195C324.979 251.536 324.775 250.893 324.587 250.265C324.43 249.716 324.305 249.198 324.179 248.696C324.069 248.179 323.975 247.677 323.897 247.19C323.693 245.888 323.63 244.711 323.708 243.676C323.771 242.734 323.959 241.903 324.258 241.197C324.414 240.82 324.587 240.475 324.807 240.161C324.917 240.004 325.026 239.863 325.136 239.722C325.262 239.581 325.387 239.44 325.528 239.314C325.654 239.188 325.795 239.079 325.952 238.969C326.015 238.922 326.078 238.875 326.14 238.843C326.219 238.781 326.282 238.734 326.36 238.686C326.454 238.624 326.564 238.577 326.674 238.514C326.737 238.482 326.799 238.451 326.878 238.42C326.893 238.404 326.909 238.404 326.925 238.388C327.239 238.247 327.584 238.137 327.945 238.043C328.368 237.933 328.839 237.855 329.341 237.823L329.686 238.106L335.24 242.781C335.24 242.781 335.256 242.797 335.272 242.797L339.775 246.563L341.924 248.367L365.882 268.418Z" fill="black"/>
<path d="M352.248 274.678C350.193 275.353 348.074 275.934 345.941 276.404C345.925 276.404 345.909 276.404 345.894 276.42C344.011 276.828 342.097 277.173 340.151 277.424C339.775 277.471 339.382 277.518 338.99 277.565C336.511 277.848 333.985 277.989 331.428 277.989C323.897 277.989 316.648 276.734 309.886 274.427C309.823 274.412 309.776 274.396 309.713 274.38C309.666 274.349 309.603 274.333 309.556 274.317C309.305 274.223 309.054 274.145 308.803 274.051C302.167 271.65 296.016 268.23 290.541 263.978C292.408 260.699 294.133 257.812 295.749 255.286C296.911 253.466 297.993 251.834 299.029 250.375C299.029 250.344 299.044 250.344 299.044 250.344L299.06 250.328C304.536 242.515 308.317 239.314 311.267 237.761C311.455 237.667 311.643 237.572 311.816 237.494C312.035 237.368 312.255 237.274 312.459 237.196C312.851 237.023 313.228 236.898 313.589 236.772C316.758 235.705 321.496 235.156 326.03 235.564C329.874 235.909 333.577 236.945 336.025 238.937C336.025 238.937 336.025 238.953 336.04 238.953C336.746 239.534 337.358 240.208 337.829 240.961V240.977C338.378 241.84 338.912 242.734 339.429 243.66C339.618 243.989 339.806 244.319 339.994 244.664C340.653 245.857 341.296 247.08 341.924 248.367C341.971 248.445 342.018 248.524 342.034 248.602H342.05C342.363 249.245 342.677 249.889 342.991 250.563C343.305 251.222 343.619 251.881 343.917 252.572C343.917 252.587 343.932 252.587 343.932 252.587C346.835 259.02 349.565 266.347 352.075 274.145C352.138 274.317 352.185 274.49 352.248 274.678Z" fill="#0D0B5473"/>
<path d="M329.482 271.933C327.819 271.964 326.156 272.121 324.477 272.811C326.156 273.517 327.819 273.659 329.482 273.69C331.161 273.659 332.84 273.502 334.503 272.811C332.84 272.121 331.161 271.964 329.482 271.933ZM300.99 249.089C300.755 249.198 300.535 249.34 300.315 249.465C300.096 249.591 299.876 249.732 299.672 249.889C299.562 249.952 299.468 250.014 299.39 250.093C299.28 250.171 299.17 250.25 299.06 250.328L299.044 250.344C299.044 250.344 299.029 250.344 299.029 250.375C298.997 250.391 298.982 250.407 298.966 250.422C298.464 250.814 298.009 251.238 297.554 251.662C296.393 252.87 295.326 254.172 294.62 255.835C295.012 255.678 295.389 255.49 295.75 255.286C296.895 254.643 297.883 253.795 298.793 252.917C299.954 251.724 301.021 250.406 301.712 248.743C301.461 248.853 301.225 248.963 300.99 249.089ZM342.991 250.563C342.677 249.904 342.363 249.245 342.034 248.602C341.893 248.477 341.752 248.367 341.61 248.257C341.5 248.179 341.406 248.1 341.297 248.022C341.124 247.88 340.951 247.771 340.763 247.661C340.59 247.535 340.418 247.425 340.23 247.316C340.23 247.316 340.23 247.316 340.214 247.316C340.104 247.253 340.01 247.206 339.9 247.143C339.837 247.112 339.759 247.065 339.696 247.033C339.477 246.923 339.257 246.829 339.037 246.735C339.194 247.127 339.382 247.488 339.571 247.833C340.23 248.994 341.077 249.983 341.955 250.909C342.301 251.238 342.646 251.552 343.007 251.866C343.289 252.101 343.572 252.321 343.87 252.54C343.885 252.556 343.901 252.572 343.917 252.572C343.619 251.881 343.305 251.222 342.991 250.563ZM342.991 250.563C342.677 249.904 342.363 249.245 342.034 248.602C341.893 248.477 341.752 248.367 341.61 248.257C341.5 248.179 341.406 248.1 341.297 248.022C341.124 247.88 340.951 247.771 340.763 247.661C340.59 247.535 340.418 247.425 340.23 247.316C340.23 247.316 340.23 247.316 340.214 247.316C340.104 247.253 340.01 247.206 339.9 247.143C339.837 247.112 339.759 247.065 339.696 247.033C339.477 246.923 339.257 246.829 339.037 246.735C339.194 247.127 339.382 247.488 339.571 247.833C340.23 248.994 341.077 249.983 341.955 250.909C342.301 251.238 342.646 251.552 343.007 251.866C343.289 252.101 343.572 252.321 343.87 252.54C343.885 252.556 343.901 252.572 343.917 252.572C343.619 251.881 343.305 251.222 342.991 250.563Z" fill="white"/>
<path d="M316.021 248.853C315.581 252.478 314.53 256.996 312.789 262.472C311.439 266.677 310.106 270.521 308.803 274.051C302.167 271.65 296.016 268.23 290.541 263.978C289.223 262.958 287.936 261.876 286.712 260.762C288.94 257.796 291.184 254.925 293.412 252.179C300.817 243.064 307.156 238.122 311.267 237.761C311.424 237.745 311.58 237.729 311.737 237.729C315.236 237.729 316.931 241.338 316.021 248.853Z" fill="#FFC4C0"/>
<path d="M316.899 250.171C316.46 254.188 315.597 257.781 315.393 258.581C314.656 261.546 313.181 265.704 311.376 270.301V270.317C310.843 271.635 310.278 273 309.713 274.38C309.666 274.349 309.603 274.333 309.556 274.317C309.305 274.223 309.054 274.145 308.803 274.051C302.167 271.65 296.016 268.23 290.541 263.978C289.223 262.958 287.936 261.876 286.712 260.762C286.273 260.369 285.849 259.977 285.441 259.585C290.195 253.529 294.792 248.445 298.934 244.79C304.991 239.455 309.117 237.321 311.894 237.196C312.098 237.18 312.286 237.18 312.459 237.196C317.244 237.463 317.542 244.288 316.899 250.171Z" fill="#0D0B5473"/>
<path d="M300.99 249.089C300.755 249.198 300.535 249.34 300.315 249.465C300.096 249.591 299.876 249.732 299.672 249.889C299.562 249.952 299.468 250.014 299.39 250.093C299.264 250.187 299.138 250.281 299.029 250.375C298.997 250.391 298.982 250.407 298.966 250.422C298.464 250.814 298.009 251.238 297.554 251.662C296.393 252.87 295.326 254.172 294.62 255.835C295.012 255.678 295.389 255.49 295.75 255.286C296.895 254.643 297.883 253.795 298.793 252.917C299.954 251.724 301.021 250.406 301.712 248.743C301.461 248.853 301.225 248.963 300.99 249.089Z" fill="white"/>
<path d="M311.376 270.301C311.376 270.332 311.376 270.332 311.376 270.348C310.89 271.713 310.388 273.078 309.886 274.427C309.823 274.412 309.776 274.396 309.713 274.38C309.666 274.349 309.603 274.333 309.556 274.317C310.137 272.984 310.717 271.65 311.267 270.301C311.282 270.238 311.361 270.254 311.376 270.301Z" fill="#263238"/>
<path d="M331.004 261.013C323.928 261.279 314.357 248.649 311.423 239.377C311.22 238.733 313.306 232.865 315.487 225.601C316.789 221.192 318.139 216.25 319.049 211.653C319.237 210.712 346.521 224.346 346.521 224.346C346.521 224.346 341.783 233.43 340.245 241.463C340.12 242.138 340.073 242.766 340.073 243.393C340.073 243.487 340.073 243.597 340.057 243.707C339.932 247.41 337.845 260.762 331.004 261.013Z" fill="#FFC4C0"/>
<path d="M320.806 212.124C320.618 220.157 321.747 239.91 337.06 243.283C338.127 243.519 339.116 243.66 340.041 243.707C340.073 243.582 340.057 243.472 340.073 243.378C340.073 242.75 340.12 242.122 340.245 241.463C341.783 233.415 346.521 224.346 346.521 224.346C346.521 224.346 326.831 214.509 320.806 212.124Z" fill="#263238"/>
<path d="M314.138 181.404C311.173 191.9 317.323 221.883 324.87 228.441C335.821 237.949 353.44 238.498 361.426 225.413C369.177 212.72 360.485 173.778 352.075 167.848C339.696 159.109 318.515 165.902 314.138 181.404Z" fill="#FFC4C0"/>
<path d="M340.403 200.341C340.371 200.262 340.261 200.466 340.293 200.561C340.842 202.553 341.124 204.922 339.461 206.021C339.414 206.052 339.445 206.162 339.508 206.13C341.642 205.283 341.234 202.145 340.403 200.341Z" fill="#263238"/>
<path d="M338.096 198.678C334.817 199.211 336.103 205.738 339.147 205.252C342.16 204.765 340.857 198.238 338.096 198.678Z" fill="#263238"/>
<path d="M351.997 198.019C351.997 197.94 352.17 198.082 352.185 198.16C352.53 200.2 353.252 202.475 355.213 202.773C355.276 202.788 355.292 202.883 355.213 202.883C352.923 203.024 351.981 199.996 351.997 198.019Z" fill="#263238"/>
<path d="M353.378 195.54C356.578 194.646 358.132 201.125 355.166 201.941C352.248 202.773 350.695 196.293 353.378 195.54Z" fill="#263238"/>
<path d="M335.036 195.477C335.884 195.085 336.605 194.567 337.39 194.096C338.284 193.563 339.053 193.218 339.524 192.229C339.775 191.696 339.477 190.896 338.975 190.598C337.829 189.923 336.558 190.3 335.444 190.911C334.236 191.57 333.483 192.386 332.965 193.657C332.479 194.881 333.923 195.995 335.036 195.477Z" fill="#263238"/>
<path d="M355.794 192.888C354.868 192.998 353.99 192.935 353.064 192.935C352.013 192.951 351.181 193.061 350.271 192.449C349.785 192.12 349.612 191.272 349.895 190.77C350.522 189.593 351.809 189.264 353.064 189.201C354.429 189.138 355.511 189.437 356.61 190.252C357.661 191.053 357.018 192.763 355.794 192.888Z" fill="#263238"/>
<path d="M341.642 218.07C342.05 218.619 342.442 219.357 343.164 219.529C343.87 219.702 344.748 219.514 345.439 219.357C345.501 219.341 345.564 219.419 345.517 219.482C344.874 220.188 343.681 220.502 342.756 220.188C341.862 219.89 341.532 219.012 341.438 218.133C341.422 218.007 341.579 217.992 341.642 218.07Z" fill="#263238"/>
<path d="M343.383 212.155C344.858 213.693 346.725 214.32 348.592 214.305C349.424 214.305 350.271 214.163 351.087 213.928C351.244 213.897 351.401 213.85 351.542 213.787C351.683 213.74 351.809 213.693 351.966 213.63C352.201 213.552 352.279 213.332 352.279 213.097V213.081C352.264 213.002 352.248 212.955 352.217 212.877C352.217 212.877 352.217 212.877 352.217 212.861L352.185 212.689C351.919 211.12 351.291 208.782 351.291 208.782C351.918 208.955 355.072 209.676 354.868 208.876C353.127 202.224 351.197 194.818 348.059 188.558C347.965 188.338 347.635 188.464 347.698 188.684C349.11 195.148 351.667 201.314 353.189 207.778C352.201 207.605 350.554 207.26 349.738 207.433C349.534 207.542 351.024 211.936 351.087 212.642C351.087 212.642 351.087 212.673 351.087 212.72C348.53 213.567 346.411 213.175 343.525 211.92C343.352 211.857 343.226 212.014 343.383 212.155Z" fill="#263238"/>
<path d="M312.961 204.875C320.916 205.267 324.87 195.697 322.846 188.119C322.846 188.119 344.042 190.472 344.701 173.48C344.701 173.48 349.016 180.76 358.602 180.807L361.097 187.02C363.246 186.346 365.427 180.133 360.03 175.41C360.03 175.41 359.481 166.953 353.142 162.011C346.804 157.069 340.669 160.536 340.669 160.536C340.669 160.536 335.617 156.504 327.851 157.665C320.084 158.826 317.025 165.996 317.025 165.996C317.025 165.996 306.591 168.224 304.975 175.692C303.343 183.161 307.297 188.072 307.297 188.072C307.297 188.072 304.724 191.053 306.199 197.376C307.14 201.423 310.561 204.75 312.961 204.875Z" fill="#263238"/>
<path d="M344.199 171.974C344.372 173.355 344.45 174.751 344.34 176.116C344.293 177.497 344.027 178.846 343.666 180.148C342.866 182.737 341.218 185.012 338.896 186.346C336.653 187.852 333.828 188.15 331.145 188.464C329.78 188.448 328.4 188.542 327.019 188.448C325.638 188.338 324.258 188.197 322.861 188.119C324.226 188.417 325.591 188.652 326.972 188.935C328.353 189.123 329.765 189.123 331.177 189.233C333.97 189.06 336.904 188.762 339.414 187.193C341.893 185.687 343.713 183.145 344.388 180.368C345.031 177.56 344.921 174.673 344.199 171.974Z" fill="#263238"/>
<path d="M355.292 181.56C352.923 180.76 350.695 179.709 348.812 178.25C347.839 177.544 347.023 176.665 346.286 175.724C345.517 174.782 345.015 173.684 344.435 172.555C344.607 173.794 344.952 175.049 345.658 176.147C346.302 177.261 347.18 178.25 348.216 179.034C349.251 179.819 350.381 180.446 351.589 180.87C352.781 181.262 354.037 181.545 355.292 181.56Z" fill="#263238"/>
<path d="M321.088 205.801C321.088 205.801 313.887 196.356 309.572 198.96C305.257 201.565 310.953 215.466 316.225 217.176C321.481 218.886 323.175 214.054 323.175 214.054L321.088 205.801Z" fill="#FFC4C0"/>
<path d="M311.314 202.898C311.235 202.898 311.219 203.008 311.298 203.04C315.001 204.357 317.04 207.652 318.531 211.088C317.401 209.786 315.895 209.111 314.138 210.476C314.044 210.555 314.138 210.696 314.248 210.665C315.722 210.288 316.805 210.492 317.856 211.653C318.609 212.469 319.127 213.52 319.676 214.462C319.864 214.775 320.445 214.587 320.304 214.211C320.288 214.179 320.288 214.148 320.272 214.132C320.178 209.504 316.303 203.165 311.314 202.898Z" fill="#263238"/>
<g opacity="0.2">
<path d="M330.643 208.609C330.628 208.876 330.408 209.08 330.141 209.064C329.875 209.049 329.671 208.829 329.686 208.562C329.702 208.296 329.922 208.092 330.188 208.107C330.439 208.123 330.643 208.343 330.643 208.609Z" fill="black"/>
<path d="M340.732 208.578C340.716 208.845 340.497 209.049 340.23 209.033C339.963 209.017 339.759 208.798 339.775 208.531C339.79 208.264 340.01 208.06 340.277 208.076C340.528 208.092 340.748 208.311 340.732 208.578Z" fill="black"/>
<path d="M337.029 211.951C337.014 212.218 336.794 212.422 336.527 212.406C336.26 212.391 336.056 212.171 336.072 211.904C336.088 211.637 336.307 211.433 336.574 211.449C336.841 211.465 337.045 211.684 337.029 211.951Z" fill="black"/>
<path d="M331.083 204.64C331.067 204.907 330.847 205.111 330.581 205.095C330.314 205.079 330.11 204.86 330.126 204.593C330.141 204.326 330.361 204.122 330.628 204.138C330.879 204.153 331.098 204.373 331.083 204.64Z" fill="black"/>
<path d="M335.711 207.558C335.695 207.825 335.476 208.029 335.209 208.013C334.942 207.997 334.738 207.778 334.754 207.511C334.77 207.244 334.989 207.04 335.256 207.056C335.523 207.072 335.727 207.291 335.711 207.558Z" fill="black"/>
<path d="M360.783 201.675C360.767 201.941 360.548 202.145 360.281 202.13C360.014 202.114 359.81 201.894 359.826 201.627C359.842 201.361 360.061 201.157 360.328 201.172C360.595 201.188 360.799 201.408 360.783 201.675Z" fill="black"/>
<path d="M356.923 204.248C356.908 204.514 356.688 204.718 356.421 204.703C356.155 204.687 355.951 204.467 355.966 204.201C355.982 203.934 356.202 203.73 356.468 203.746C356.72 203.761 356.923 203.981 356.923 204.248Z" fill="black"/>
<path d="M357.739 207.448C357.724 207.715 357.504 207.919 357.237 207.903C356.971 207.888 356.767 207.668 356.782 207.401C356.798 207.135 357.018 206.931 357.284 206.946C357.551 206.962 357.755 207.197 357.739 207.448Z" fill="black"/>
<path d="M361.113 205.393C361.097 205.66 360.877 205.864 360.611 205.848C360.344 205.832 360.14 205.613 360.156 205.346C360.171 205.079 360.391 204.875 360.658 204.891C360.909 204.907 361.113 205.126 361.113 205.393Z" fill="black"/>
</g>
<path d="M245.951 629.986C250.328 631.57 379.814 634.128 384.694 631.147C385.259 630.849 387.377 588 387.377 588C387.22 587.388 389.385 583.262 392.68 577.52C401.921 561.406 419.964 532.553 419.964 532.553L343.101 509.317L311.533 572.562L303.484 588.691C303.484 588.691 285.834 595.594 270.426 602.466C270.411 602.482 270.379 602.482 270.379 602.513C260.887 606.734 252.65 610.609 250.72 612.052C245.794 615.865 241.589 628.432 245.951 629.986Z" fill="#FFC4C0"/>
<path d="M245.951 629.986C250.328 631.57 379.814 634.128 384.694 631.147C385.259 630.849 387.377 588 387.377 588C387.22 587.388 389.385 583.262 392.68 577.52L311.533 572.546L303.484 588.675C303.484 588.675 285.834 595.578 270.426 602.45C270.411 602.466 270.379 602.466 270.379 602.498C260.887 606.718 252.65 610.593 250.72 612.037C245.794 615.865 241.589 628.432 245.951 629.986Z" fill="white"/>
<path d="M245.417 630.472C249.92 632.072 379.595 634.285 384.584 631.257C386.483 630.111 388.773 610.154 387.377 588.016L303.782 586.682C303.782 586.682 255.364 608.083 250.249 612.005C245.135 615.912 240.914 628.872 245.417 630.472Z" fill="#0D0B5473"/>
<path opacity="0.1" d="M384.568 631.241C382.748 632.339 364.313 632.763 341.438 632.763L385.321 587.969L385.337 587.953L387.377 588C388.773 610.138 386.482 630.095 384.568 631.241Z" fill="black"/>
<path d="M247.363 625.31C269.108 625.153 356.829 626.55 378.34 628.04C378.512 628.056 378.512 628.166 378.34 628.181C356.782 628.809 269.077 626.691 247.363 625.671C246.892 625.64 246.908 625.31 247.363 625.31Z" fill="#263238"/>
<path d="M258.659 607.471C263.821 607.346 268.81 609.887 271.572 613.01C274.223 616.006 276.467 620.195 276.231 624.698C276.231 624.824 275.98 624.824 275.965 624.698C274.866 616.179 267.257 608.569 258.643 607.754C258.471 607.722 258.486 607.471 258.659 607.471Z" fill="#263238"/>
<path d="M296.926 588.738C305.634 588.769 315.659 592.017 320.947 599.218C321.151 599.501 320.759 599.783 320.492 599.642C312.694 595.453 305.273 592.299 296.753 589.805C296.157 589.616 296.298 588.738 296.926 588.738Z" fill="#263238"/>
<path d="M290.164 591.232C298.872 591.264 308.897 594.511 314.185 601.713C314.389 601.995 313.996 602.278 313.73 602.137C305.932 597.948 298.511 594.794 289.991 592.299C289.395 592.127 289.536 591.232 290.164 591.232Z" fill="#263238"/>
<path d="M283.402 593.743C292.109 593.774 302.135 597.022 307.422 604.223C307.626 604.506 307.234 604.788 306.967 604.647C299.17 600.458 291.748 597.304 283.229 594.81C282.633 594.637 282.774 593.743 283.402 593.743Z" fill="#263238"/>
<path d="M276.639 596.237C285.347 596.269 295.373 599.516 300.66 606.718C300.864 607 300.472 607.283 300.205 607.142C292.407 602.952 284.986 599.799 276.467 597.304C275.871 597.132 276.012 596.237 276.639 596.237Z" fill="#263238"/>
<path d="M373.146 607.314C382.905 607.502 382.623 622.674 372.848 622.486C363.089 622.282 363.372 607.11 373.146 607.314Z" fill="#263238"/>
<path d="M288.391 578.116C292.988 584.25 300.064 588.189 306.183 592.582C306.811 593.037 307.564 592.535 307.768 591.907C307.909 591.923 308.05 591.844 308.05 591.656C307.689 584.156 304.818 575.496 300.519 569.267C297.868 565.423 292.376 561.767 287.92 565.344C283.7 568.733 285.708 574.539 288.391 578.116ZM288.109 570.899C289.128 561.453 297.554 568.859 299.389 571.777C300.566 573.644 301.555 575.684 302.465 577.692C304.379 581.897 305.665 586.306 307.14 590.668C304.269 588.33 301.209 586.259 298.26 584.015C294.745 581.364 287.544 576.123 288.109 570.899Z" fill="#263238"/>
<path d="M339.037 586.651C338.456 580.956 331.992 579.622 327.395 580.422C319.958 581.724 311.768 585.757 306.167 590.762C306.026 590.887 306.073 591.044 306.183 591.123C305.885 591.703 306.042 592.582 306.81 592.723C314.232 594.009 322.014 596.3 329.608 595.265C334.032 594.653 339.586 592.033 339.037 586.651ZM318.452 592.362C314.781 591.813 311.172 591.107 307.485 590.699C311.627 588.691 315.675 586.525 320.021 584.941C322.092 584.188 324.242 583.45 326.407 582.98C329.764 582.258 340.967 583.042 334.942 590.416C331.631 594.464 322.83 593.005 318.452 592.362Z" fill="#263238"/>
<path d="M398.532 576.688L307.36 562.865C307.36 562.865 351.181 475.521 378.324 428.107C393.402 401.749 434.681 400.462 454.748 432.045C481.562 474.235 502.366 513.757 514.29 535.675L534.969 537.448L530.513 571.244L461.777 586.635C435.45 589.789 416.967 542.908 416.544 543.708C413.186 549.859 398.532 576.688 398.532 576.688Z" fill="#263238"/>
<path d="M416.042 543.912C418.631 538.609 420.655 532.961 422.961 527.517C425.189 522.245 427.433 516.989 429.645 511.717C434.116 501.064 438.745 490.458 443.091 479.758C445.523 473.748 447.766 467.661 450.041 461.589C450.088 461.448 450.324 461.51 450.277 461.667C448.519 467.41 446.684 473.121 444.77 478.816C445.287 477.828 445.789 476.855 446.323 475.898C447.782 473.278 449.304 470.689 450.81 468.1C450.873 468.006 451.014 468.1 450.967 468.194C449.571 470.799 448.174 473.388 446.715 475.945C445.993 477.216 445.209 478.487 444.44 479.758C439.027 495.682 432.892 511.341 425.534 526.481C422.631 532.428 419.242 538.123 416.34 544.069C416.23 544.273 415.948 544.101 416.042 543.912Z" fill="#37474F"/>
<path d="M396.492 560.481C400.886 553.703 411.351 533.165 415.1 526.073C422.678 511.717 429.629 497.063 436.187 482.221C439.89 473.827 443.357 465.37 446.793 456.866C446.809 456.804 446.903 456.835 446.888 456.898C441.726 472.211 435.575 487.226 428.892 501.943C422.208 516.675 400.635 556.386 396.759 560.669C396.634 560.81 396.383 560.653 396.492 560.481Z" fill="#37474F"/>
<path d="M453.101 468.194C460.961 482.221 468.979 496.153 476.871 510.164C480.856 517.24 484.841 524.332 488.795 531.423C490.646 534.765 492.45 538.154 494.38 541.449C496.2 544.571 498.381 547.16 501.582 548.917C505.112 550.863 509.175 551.789 513.019 552.903C517.46 554.205 521.853 555.601 526.309 556.825C526.513 556.888 526.418 557.186 526.214 557.139C522.245 556.072 518.228 555.162 514.243 554.173C510.619 553.279 506.885 552.526 503.37 551.239C500.185 550.078 497.44 548.353 495.306 545.67C493.031 542.798 491.415 539.441 489.658 536.24C481.781 521.837 473.968 507.371 466.233 492.89C461.824 484.653 457.462 476.4 453.007 468.194C453.007 468.194 453.069 468.147 453.101 468.194Z" fill="#37474F"/>
<path d="M400.603 563.901C395.143 562.913 389.542 562.426 384.035 561.72C378.512 561.014 372.989 560.292 367.467 559.571C356.453 558.127 318.939 552.165 316.114 551.224C315.942 551.161 316.005 550.879 316.177 550.863C318.86 550.784 343.43 554.048 348.937 554.864C359.951 556.48 370.903 558.441 381.885 560.292C385.023 560.826 388.146 561.422 391.268 561.971C394.39 562.52 397.512 563.195 400.666 563.603C400.854 563.619 400.791 563.932 400.603 563.901Z" fill="#37474F"/>
<path d="M342.897 649.504C344.544 645.158 427.119 545.372 432.548 543.614C433.175 543.379 467.002 569.738 467.002 569.738C468.351 571.714 535.315 560.59 535.315 560.59L532.49 640.67L411.727 632.841C411.727 632.841 394.987 641.737 379.705 648.892C379.673 648.892 379.673 648.907 379.658 648.892C370.26 653.332 361.944 657.066 359.606 657.568C353.487 658.855 341.218 653.818 342.897 649.504Z" fill="#FFC4C0"/>
<path d="M359.606 657.568C361.96 657.066 370.26 653.348 379.658 648.892C379.673 648.907 379.689 648.892 379.72 648.892C394.986 641.722 411.727 632.826 411.727 632.826L438.604 634.567L483.664 568.435C474.344 569.675 467.41 570.349 466.986 569.722C466.986 569.722 433.175 543.363 432.547 543.614C427.134 545.372 344.56 645.142 342.897 649.488C341.234 653.818 353.487 658.87 359.606 657.568Z" fill="white"/>
<path d="M342.175 649.598C343.901 645.142 426.836 545.434 432.391 543.63C434.493 542.94 451.108 554.22 466.986 569.722L413.453 633.939C413.453 633.939 365.647 656.658 359.324 657.992C353.032 659.31 340.449 654.054 342.175 649.598Z" fill="#0D0B5473"/>
<path d="M347.353 651.496C361.662 635.116 417.846 567.729 430.743 550.471C430.853 550.33 430.759 550.251 430.633 550.377C416.089 566.302 360.469 634.144 347.07 651.277C346.804 651.622 347.055 651.841 347.353 651.496Z" fill="#263238"/>
<path d="M368.251 654.571C371.703 650.743 373.052 645.299 372.487 641.172C371.954 637.203 370.228 632.778 366.667 630.017C366.572 629.939 366.415 630.127 366.494 630.221C372.236 636.622 373.037 647.338 368.032 654.399C367.937 654.54 368.126 654.697 368.251 654.571Z" fill="#263238"/>
<path d="M407.413 637.799C413.076 631.194 417.156 621.466 415.147 612.758C415.069 612.413 414.598 612.539 414.536 612.821C412.621 621.466 410.158 629.138 406.502 637.234C406.236 637.799 407.005 638.286 407.413 637.799Z" fill="#263238"/>
<path d="M401.105 641.298C406.769 634.693 410.849 624.965 408.84 616.257C408.762 615.928 408.291 616.038 408.228 616.32C406.314 624.965 403.851 632.637 400.195 640.733C399.929 641.298 400.697 641.769 401.105 641.298Z" fill="#263238"/>
<path d="M394.798 644.781C400.462 638.176 404.541 628.448 402.533 619.74C402.455 619.411 401.984 619.521 401.921 619.803C400.007 628.448 397.544 636.12 393.888 644.216C393.621 644.781 394.39 645.252 394.798 644.781Z" fill="#263238"/>
<path d="M388.491 648.28C394.155 641.675 398.234 631.947 396.226 623.239C396.147 622.894 395.677 623.02 395.614 623.302C393.7 631.947 391.237 639.619 387.581 647.715C387.314 648.28 388.083 648.751 388.491 648.28Z" fill="#263238"/>
<path d="M443.075 567.918C449.288 560.387 437.615 550.706 431.386 558.253C425.173 565.768 436.846 575.449 443.075 567.918Z" fill="#263238"/>
<path d="M419.258 659.874C424.875 658.823 425.691 652.281 424.514 647.762C422.6 640.451 417.925 632.622 412.465 627.46C412.323 627.334 412.182 627.397 412.104 627.507C411.508 627.256 410.629 627.475 410.566 628.26C409.891 635.759 408.26 643.698 409.907 651.182C410.864 655.56 413.939 660.879 419.258 659.874ZM411.853 639.855C412.088 636.152 412.512 632.496 412.606 628.793C414.944 632.763 417.438 636.607 419.384 640.812C420.309 642.82 421.219 644.891 421.863 647.009C422.867 650.304 422.992 661.522 415.163 656.125C410.864 653.144 411.57 644.248 411.853 639.855Z" fill="#263238"/>
<path d="M423.792 608.773C418.05 613.857 414.708 621.247 410.848 627.711C410.441 628.385 411.021 629.076 411.649 629.233C411.649 629.374 411.727 629.515 411.915 629.484C419.368 628.511 427.762 624.934 433.598 620.148C437.207 617.183 440.408 611.425 436.47 607.267C432.751 603.329 427.15 605.808 423.792 608.773ZM430.963 607.91C440.471 608.161 433.771 617.152 431.025 619.223C429.268 620.556 427.307 621.702 425.377 622.784C421.345 625.043 417.062 626.691 412.825 628.511C414.928 625.451 416.732 622.251 418.725 619.113C421.078 615.379 425.722 607.769 430.963 607.91Z" fill="#263238"/>
<path d="M496.388 540.367C496.388 540.367 599.94 526.466 633.83 535.597C681.102 548.337 686.515 605.118 650.115 626.722C603.988 654.101 443.985 638.85 443.985 638.85L488.653 563.572C488.653 563.572 555.68 551.083 615.771 555.931L494.537 570.93L496.388 540.367Z" fill="#263238"/>
<path d="M485.563 568.624C485.626 568.529 485.641 568.325 485.673 568.216C485.704 568.106 485.735 567.996 485.767 567.886C485.829 567.635 485.908 567.368 485.986 567.117C486.143 566.584 486.347 566.082 486.551 565.564C486.755 565.046 486.991 564.56 487.226 564.058C487.477 563.54 487.791 563.132 488.089 562.677C488.12 562.63 488.167 562.63 488.214 562.599C488.246 562.583 488.261 562.567 488.293 562.536C488.324 562.52 488.356 562.489 488.403 562.489C488.434 562.473 488.465 562.458 488.512 562.442C495.871 561.265 545.811 555.601 553.216 555.005C560.685 554.393 568.184 553.954 575.668 553.593C590.605 552.871 605.588 552.84 620.494 553.766C621.89 553.86 623.286 553.969 624.683 554.095C624.981 554.001 625.31 553.954 625.608 553.891C626.33 553.734 627.052 553.562 627.789 553.452C629.154 553.232 630.519 553.075 631.884 552.903C634.724 552.557 637.58 552.338 640.404 551.883C640.576 551.851 640.623 552.134 640.451 552.181C637.595 552.746 634.787 553.53 631.931 554.079C631.115 554.236 630.284 554.393 629.452 554.55C634.912 555.099 640.357 555.805 645.801 556.59C645.973 556.621 645.958 556.903 645.785 556.888C638.38 556.088 630.88 555.695 623.443 555.507C616.038 555.319 608.648 555.178 601.242 555.319C586.274 555.617 571.291 556.433 556.339 557.5C547.945 558.096 497.032 564.027 488.638 564.042C488.607 564.042 488.575 564.026 488.528 564.026C488.45 564.23 488.371 564.45 488.261 564.654C488.01 565.14 487.759 565.627 487.493 566.113C487.226 566.568 486.975 567.039 486.677 567.478C486.536 567.698 486.379 567.918 486.237 568.122C486.159 568.231 486.096 568.341 486.018 568.451C485.955 568.545 485.814 568.686 485.782 568.796C485.735 568.953 485.453 568.812 485.563 568.624Z" fill="#37474F"/>
<path d="M466.939 634.143C469.575 629.813 471.866 625.169 474.313 620.697C476.761 616.21 479.208 611.723 481.656 607.236C486.551 598.293 504.014 568.231 505.708 566.16C505.818 566.035 506.022 566.192 505.959 566.349C505.096 568.702 494.145 588.612 491.619 593.052C486.582 601.933 481.326 610.625 476.133 619.38C474.643 621.874 473.121 624.353 471.615 626.832C470.124 629.311 468.524 631.759 467.143 634.316C467.065 634.457 466.845 634.3 466.939 634.143Z" fill="#37474F"/>
<path d="M508.423 574.397C512.878 573.425 517.413 572.86 521.916 572.138C526.419 571.401 530.922 570.679 535.424 569.957C544.43 568.514 553.452 567.164 562.473 565.894C580.469 563.368 598.528 561.391 616.634 560.277C626.864 559.649 637.093 559.382 647.323 559.006C647.543 559.006 647.511 559.382 647.292 559.382C629.092 559.492 610.845 561.406 592.739 563.477C574.805 565.517 556.919 567.839 539.033 570.365C533.981 571.071 528.945 571.809 523.893 572.546C518.778 573.299 513.632 574.272 508.485 574.758C508.297 574.743 508.219 574.444 508.423 574.397Z" fill="#37474F"/>
<path d="M508.407 444.785C498.491 462.091 459 515.483 446.574 517.256C433.645 519.107 385.98 515.012 377.288 504.782C373.036 499.777 379.893 456.804 386.498 459.204C393.103 461.605 433.881 471.458 439.121 470.689C444.33 469.936 486.614 429.002 502.193 420.184C529.054 404.934 513.757 435.45 508.407 444.785Z" fill="#FFC4C0"/>
<path d="M396.995 460.553L386.938 513.804C386.938 513.804 434.681 523.594 448.755 519.468C462.844 515.342 502.178 459.408 513.647 437.286C525.116 415.163 515.09 409.358 494.506 423.134C473.905 436.909 440.878 467.818 437.678 467.959C434.477 468.069 396.995 460.553 396.995 460.553Z" fill="#0D0B5473"/>
<path d="M499.51 427.229C498.397 428.39 497.345 429.661 496.671 431.277C498.287 430.602 499.558 429.566 500.719 428.437C501.833 427.276 502.884 426.005 503.558 424.389C501.942 425.063 500.687 426.115 499.51 427.229ZM396.508 508.375C394.876 508.407 393.26 508.564 391.644 509.223C393.26 509.897 394.876 510.054 396.508 510.086C398.124 510.054 399.74 509.897 401.372 509.223C399.74 508.564 398.124 508.407 396.508 508.375ZM474.533 492.466C472.901 492.498 471.285 492.654 469.653 493.313C471.285 493.988 472.901 494.145 474.533 494.176C474.737 494.176 474.972 494.161 475.176 494.161C475.584 493.643 476.007 493.125 476.431 492.592C475.772 492.513 475.16 492.482 474.533 492.466ZM440.549 505.222C439.874 506.838 439.733 508.47 439.702 510.086C439.733 511.702 439.874 513.333 440.549 514.949C441.224 513.333 441.365 511.702 441.412 510.086C441.38 508.47 441.224 506.838 440.549 505.222ZM480.542 453.179C479.867 454.795 479.71 456.411 479.694 458.043C479.726 459.659 479.867 461.291 480.542 462.907C481.216 461.291 481.358 459.659 481.389 458.043C481.389 456.411 481.216 454.795 480.542 453.179ZM499.51 427.229C498.397 428.39 497.345 429.661 496.671 431.277C498.287 430.602 499.558 429.566 500.719 428.437C501.833 427.276 502.884 426.005 503.558 424.389C501.942 425.063 500.687 426.115 499.51 427.229ZM448.158 471.113C447.044 472.274 445.993 473.529 445.318 475.16C446.935 474.47 448.205 473.45 449.366 472.305C450.48 471.144 451.532 469.889 452.206 468.257C450.59 468.947 449.319 469.983 448.158 471.113ZM399.96 461.15H399.944C399.803 461.275 399.662 461.416 399.505 461.558C398.391 462.719 397.34 463.974 396.665 465.605C398.281 464.931 399.536 463.895 400.713 462.75C401.089 462.342 401.466 461.95 401.811 461.51C401.137 461.385 400.509 461.259 399.96 461.15ZM419.18 487.508C418.019 486.394 416.763 485.343 415.132 484.668C415.806 486.284 416.842 487.555 417.987 488.716C419.148 489.83 420.403 490.881 422.019 491.556C421.345 489.94 420.294 488.685 419.18 487.508ZM474.533 492.466C472.901 492.498 471.285 492.654 469.653 493.313C471.285 493.988 472.901 494.145 474.533 494.176C474.737 494.176 474.972 494.161 475.176 494.161C475.584 493.643 476.007 493.125 476.431 492.592C475.772 492.513 475.16 492.482 474.533 492.466ZM480.542 453.179C479.867 454.795 479.71 456.411 479.694 458.043C479.726 459.659 479.867 461.291 480.542 462.907C481.216 461.291 481.358 459.659 481.389 458.043C481.389 456.411 481.216 454.795 480.542 453.179Z" fill="white"/>
<path d="M405.624 489.579C406.44 485.359 409.562 468.477 410.017 464.24C410.017 464.178 409.923 464.131 409.891 464.209C408.668 468.179 405.09 484.747 404.259 488.967C402.627 497.377 400.807 505.802 400.101 514.369C400.085 514.526 400.321 514.604 400.368 514.447C402.69 506.289 404.024 497.895 405.624 489.579Z" fill="#263238"/>
<path opacity="0.1" d="M513.663 437.27C502.178 459.408 462.86 515.342 448.77 519.452C438.101 522.574 408.15 517.726 394.233 515.185L512.972 415.744C519.64 416.23 520.707 423.667 513.663 437.27Z" fill="black"/>
<path d="M472.038 542.846L589.428 549.655C589.287 547.254 570.914 479.93 557.719 454.293C540.79 421.423 533.275 416.403 528.254 414.724C521.821 412.575 508.626 412.59 504.735 418.788C483.758 452.316 470.438 541.355 472.038 542.846Z" fill="#0D0B5473"/>
<path d="M500.656 426.209C500.028 427.464 499.417 428.735 498.82 430.084C499.511 429.582 500.138 429.033 500.734 428.452C501.848 427.291 502.9 426.021 503.574 424.404C502.46 424.859 501.519 425.487 500.656 426.209ZM535.989 534.969C534.875 536.13 533.824 537.386 533.149 539.017C534.765 538.343 536.036 537.307 537.197 536.177C538.311 535.001 539.362 533.746 540.037 532.13C538.437 532.804 537.166 533.855 535.989 534.969ZM500.656 426.209C500.028 427.464 499.417 428.735 498.82 430.084C499.511 429.582 500.138 429.033 500.734 428.452C501.848 427.291 502.9 426.021 503.574 424.404C502.46 424.859 501.519 425.487 500.656 426.209ZM569.612 483.554H569.596C569.314 483.398 569 483.241 568.686 483.099C569.141 484.182 569.753 485.108 570.443 485.955C570.177 485.155 569.879 484.339 569.612 483.554ZM543.803 429.19C543.332 428.735 542.877 428.311 542.359 427.903L542.343 427.888C541.575 427.291 540.743 426.758 539.77 426.35C540.445 427.966 541.48 429.237 542.61 430.398C543.489 431.245 544.43 432.045 545.544 432.673C545.889 432.877 546.266 433.081 546.658 433.238C545.968 431.622 544.948 430.351 543.803 429.19ZM512 484.072C510.839 482.958 509.583 481.907 507.952 481.232C508.642 482.848 509.662 484.119 510.807 485.28C511.968 486.394 513.223 487.445 514.855 488.12C514.165 486.504 513.129 485.233 512 484.072ZM541.465 500.311C539.849 500.342 538.217 500.499 536.601 501.174C538.217 501.833 539.849 501.99 541.465 502.021C543.096 501.99 544.712 501.833 546.329 501.174C544.712 500.515 543.096 500.358 541.465 500.311ZM512.831 448.833C511.199 448.865 509.583 449.022 507.967 449.696C509.583 450.355 511.199 450.512 512.831 450.543C514.447 450.512 516.063 450.371 517.695 449.696C516.063 449.037 514.447 448.88 512.831 448.833ZM500.123 518.966C499.448 520.582 499.291 522.198 499.26 523.83C499.307 525.446 499.448 527.062 500.123 528.693C500.797 527.062 500.938 525.446 500.97 523.83C500.938 522.198 500.797 520.582 500.123 518.966ZM567.29 514.086C566.615 515.718 566.458 517.334 566.427 518.966C566.458 520.582 566.615 522.198 567.29 523.83C567.949 522.198 568.106 520.582 568.137 518.966C568.106 517.334 567.949 515.718 567.29 514.086ZM543.222 461.589C542.547 463.205 542.39 464.821 542.359 466.453C542.39 468.069 542.547 469.685 543.222 471.316C543.881 469.685 544.038 468.069 544.069 466.453C544.038 464.821 543.881 463.205 543.222 461.589Z" fill="white"/>
<path d="M547.835 429.676C577.504 466.155 609.903 526.717 594.041 538.437C579.543 549.137 529.415 535.55 498.208 521.398C492.262 518.699 519.734 466.343 525.744 469.857C536.303 476.039 544.634 479.742 545.434 480.009C547.16 480.573 538.201 468.367 529.023 439.655C519.719 410.503 530.89 408.84 547.835 429.676Z" fill="#FFC4C0"/>
<path d="M448.504 461.746C448.143 467.975 463.597 467.582 463.597 467.582C463.597 467.582 459.8 469.638 458.576 473.607C457.164 478.141 463.66 482.331 463.66 482.331C463.66 482.331 460.255 485.218 459.376 489.532C458.466 494.004 464.413 499.166 464.413 499.166C464.413 499.166 462.718 503.59 464.633 507.858C467.912 515.153 480.197 515.969 487.712 517.962C495.761 520.096 507.418 524.818 512.203 527.219L529.305 471.928C529.305 471.928 497.408 450.622 488.167 450.559C480.401 450.528 449.053 452.207 448.504 461.746Z" fill="#FFC4C0"/>
<path d="M463.722 467.394C472.007 465.464 480.73 465.511 489.14 465.653C489.328 465.653 489.312 465.951 489.124 465.951C480.746 465.715 472.116 467.708 463.754 467.802C463.534 467.802 463.503 467.457 463.722 467.394Z" fill="#263238"/>
<path d="M463.926 481.703C465.809 481.326 467.817 481.562 469.716 481.687C471.771 481.829 473.811 482.001 475.85 482.205C479.945 482.613 484.025 483.115 488.088 483.743C488.261 483.774 488.277 484.056 488.073 484.041C483.993 483.649 479.914 483.303 475.819 483.068C473.779 482.958 471.724 482.864 469.669 482.77C467.77 482.692 465.746 482.77 463.895 482.268C463.628 482.189 463.644 481.766 463.926 481.703Z" fill="#263238"/>
<path d="M464.601 499.166C466.233 498.773 468.178 499.228 469.826 499.432C471.693 499.652 473.544 499.872 475.411 500.076C479.13 500.484 482.864 500.891 486.598 501.174C486.786 501.19 486.771 501.472 486.582 501.472C482.785 501.205 478.988 501.001 475.192 500.703C473.325 500.562 471.457 500.405 469.606 500.232C468.021 500.091 466.029 500.091 464.585 499.37C464.491 499.323 464.523 499.197 464.601 499.166Z" fill="#263238"/>
<path d="M530.827 471.379L515.483 531.031C515.483 531.031 589.915 554.738 598.748 536.068C607.597 517.381 566.992 444.126 542.485 422.522C517.978 400.933 525.869 433.316 526.513 435.905C529.368 447.405 543.881 477.796 543.881 477.796L530.827 471.379Z" fill="#0D0B5473"/>
<path d="M543.222 461.589C542.547 463.205 542.39 464.821 542.359 466.453C542.39 468.069 542.547 469.685 543.222 471.316C543.881 469.685 544.038 468.069 544.069 466.453C544.038 464.821 543.881 463.205 543.222 461.589ZM567.29 514.086C566.615 515.718 566.458 517.334 566.427 518.966C566.458 520.582 566.615 522.198 567.29 523.83C567.949 522.198 568.106 520.582 568.137 518.966C568.106 517.334 567.949 515.718 567.29 514.086ZM541.465 500.311C539.849 500.342 538.217 500.499 536.601 501.174C538.217 501.833 539.849 501.99 541.465 502.021C543.097 501.99 544.713 501.833 546.329 501.174C544.713 500.515 543.097 500.358 541.465 500.311ZM543.803 429.19C542.642 428.076 541.386 427.025 539.77 426.35C540.445 427.966 541.48 429.237 542.61 430.398C543.771 431.512 545.042 432.563 546.658 433.238C545.968 431.622 544.948 430.351 543.803 429.19ZM595.359 531.533C594.198 530.419 592.943 529.368 591.326 528.693C592.001 530.31 593.037 531.58 594.166 532.741C595.327 533.855 596.598 534.907 598.214 535.581C597.524 533.965 596.504 532.694 595.359 531.533ZM572.734 485.939C571.573 484.825 570.302 483.774 568.686 483.099C569.361 484.715 570.396 485.986 571.526 487.147C572.687 488.261 573.958 489.312 575.574 489.987C574.899 488.371 573.848 487.116 572.734 485.939ZM535.989 534.969C535.55 535.44 535.126 535.895 534.718 536.397C535.314 536.538 535.879 536.679 536.491 536.836C536.727 536.632 536.978 536.413 537.197 536.193C538.311 535.016 539.362 533.761 540.037 532.145C538.437 532.804 537.166 533.855 535.989 534.969Z" fill="white"/>
<path d="M532.13 471.489C540.633 475.004 562.74 487.54 567.478 492.45C567.619 492.592 567.447 492.827 567.29 492.701C562.567 488.983 535.22 473.748 530.921 471.834C530.921 471.834 530.686 472.368 530.576 472.493C530.419 472.697 530.31 472.572 530.325 472.368C530.341 472.227 530.67 470.987 530.733 470.909C530.733 470.924 531.188 471.113 532.13 471.489Z" fill="#263238"/>
<path d="M536.789 505.567C537.825 501.409 541.873 484.715 542.563 480.495C542.579 480.432 542.469 480.385 542.438 480.464C540.994 484.355 536.523 500.703 535.471 504.877C533.385 513.192 531.094 521.508 529.933 530.011C529.917 530.168 530.153 530.262 530.2 530.09C532.93 522.072 534.734 513.773 536.789 505.567Z" fill="#263238"/>
<path d="M544.461 478.173C542.359 472.917 539.739 467.865 537.417 462.719C535.095 457.588 532.663 452.473 530.513 447.264C530.482 447.202 530.372 447.249 530.388 447.311C531.674 450.857 532.961 454.387 534.342 457.886C533.902 457.321 533.479 456.741 533.071 456.145C532.333 455.078 531.643 453.964 530.984 452.834C530.937 452.756 530.843 452.818 530.874 452.897C531.376 454.152 532.019 455.313 532.788 456.427C533.353 457.259 534.012 458.012 534.687 458.749C535.252 460.177 535.848 461.589 536.475 463.001C538.782 468.21 540.508 473.356 543.583 478.157C543.693 478.298 544.54 478.345 544.461 478.173Z" fill="#263238"/>
<path d="M587.671 542.296C572.295 544.462 523.986 533.259 515.749 531.11C515.906 530.231 515.891 529.917 516.095 528.678C516.126 528.521 515.875 528.427 515.828 528.599C515.53 529.76 514.62 532.082 514.934 532.224C518.84 534.012 572.656 546.282 587.639 542.657C587.89 542.61 587.906 542.249 587.671 542.296Z" fill="#263238"/>
<path d="M468.398 519.546L405.53 526.654L383.596 439.012L446.464 431.904L468.398 519.546Z" fill="#37474F"/>
<path d="M465.307 519.892L402.439 526.999L380.521 439.357L443.389 432.265L465.307 519.892Z" fill="#455A64"/>
<path d="M414.222 476.667C414.896 480.009 418.191 482.409 421.565 482.033C424.938 481.656 427.134 478.628 426.46 475.286C425.785 471.944 422.49 469.544 419.117 469.92C415.728 470.297 413.531 473.325 414.222 476.667Z" fill="white"/>
<path d="M380.756 457.337C377.994 464.617 370.307 473.999 370.087 479.773C369.883 484.998 374.323 486.473 374.323 486.473C374.323 486.473 368.832 489.783 369.491 495.055C369.836 497.769 374.464 499.621 374.464 499.621C374.464 499.621 370.181 502.46 371.06 507.12C371.75 510.839 376.3 512.125 376.3 512.125C376.3 512.125 373.46 516.769 375.39 520.315C379.297 527.532 411.617 524.928 415.65 512.627C417.532 506.885 409.672 507.952 409.672 507.952C409.672 507.952 420.608 503.7 420.247 497.016C419.886 490.332 409.75 492.341 409.75 492.341C409.75 492.341 420.309 488.12 419.242 481.232C418.129 474.062 408.338 477.796 408.338 477.796C408.338 477.796 415.132 472.352 413.108 467.269C409.75 458.875 397.01 470.783 389.777 469.669L384.914 458.263L380.756 457.337Z" fill="#FFC4C0"/>
<path d="M375.092 468.037C377.116 460.914 367.859 453.069 368.816 445.978C370.103 436.391 381.446 444.785 384.898 458.263L385.745 469.214L375.092 468.037Z" fill="#FFC4C0"/>
<path d="M376.99 512.439C376.88 512.439 376.865 512.596 376.975 512.612C387.816 514.353 400.258 512.941 410.111 507.952C410.441 507.795 410.315 507.199 409.923 507.309C398.783 510.493 388.632 512.439 376.99 512.439Z" fill="#263238"/>
<path d="M374.307 499.699C374.182 499.699 374.182 499.903 374.307 499.934C385.494 501.66 399.458 499.683 410.142 492.607C410.503 492.372 410.597 491.776 410.158 492.027C402.706 496.185 384.788 499.746 374.307 499.699Z" fill="#263238"/>
<path d="M408.95 477.043C398.438 483.429 386.937 485.814 374.778 486.567C374.621 486.582 374.652 486.802 374.778 486.834C380.834 488.089 388.538 486.802 394.437 485.296C400.101 483.853 404.918 481.421 409.17 477.42C409.326 477.247 409.17 476.902 408.95 477.043Z" fill="#263238"/>
<path d="M511.356 438.258C518.228 438.509 527.501 426.272 530.356 417.266C530.545 416.654 528.536 410.943 526.418 403.898C525.148 399.615 523.845 394.83 522.967 390.358C522.794 389.448 496.326 402.674 496.326 402.674C496.326 402.674 500.923 411.492 502.413 419.274C502.523 419.933 502.586 420.545 502.586 421.141C502.586 421.22 502.586 421.329 502.602 421.455C502.696 425.063 504.72 438.007 511.356 438.258Z" fill="#FFC4C0"/>
<path d="M521.257 390.829C521.445 398.626 520.347 417.783 505.488 421.063C504.453 421.298 503.496 421.423 502.602 421.471C502.57 421.345 502.586 421.251 502.57 421.157C502.57 420.561 502.523 419.949 502.413 419.29C500.923 411.492 496.326 402.674 496.326 402.674C496.326 402.674 515.404 393.135 521.257 390.829Z" fill="#263238"/>
<path d="M527.721 361.018C530.592 371.201 524.63 400.29 517.303 406.66C506.681 415.885 489.579 416.418 481.828 403.726C474.313 391.409 482.738 353.629 490.897 347.87C502.931 339.398 523.484 345.972 527.721 361.018Z" fill="#FFC4C0"/>
<path d="M498.742 378.246C498.773 378.183 498.867 378.371 498.852 378.45C498.318 380.379 498.052 382.686 499.652 383.753C499.699 383.784 499.668 383.878 499.605 383.863C497.534 383.047 497.926 380.003 498.742 378.246Z" fill="#263238"/>
<path d="M500.97 376.63C504.155 377.147 502.9 383.47 499.95 383C497.032 382.545 498.287 376.206 500.97 376.63Z" fill="#263238"/>
<path d="M487.743 376.128C487.743 376.049 487.571 376.19 487.555 376.269C487.225 378.246 486.519 380.458 484.621 380.756C484.558 380.772 484.543 380.866 484.621 380.866C486.849 380.991 487.759 378.057 487.743 376.128Z" fill="#263238"/>
<path d="M486.394 373.727C483.288 372.864 481.781 379.14 484.668 379.94C487.508 380.74 488.999 374.464 486.394 373.727Z" fill="#263238"/>
<path d="M504.029 373.099C503.213 372.707 502.507 372.221 501.738 371.766C500.86 371.248 500.122 370.919 499.667 369.961C499.432 369.444 499.714 368.659 500.201 368.377C501.315 367.718 502.539 368.094 503.621 368.675C504.782 369.318 505.52 370.103 506.022 371.326C506.508 372.519 505.112 373.617 504.029 373.099Z" fill="#263238"/>
<path d="M484.056 369.977C484.951 370.071 485.814 370.024 486.708 370.024C487.728 370.04 488.528 370.15 489.422 369.554C489.893 369.24 490.05 368.424 489.799 367.922C489.187 366.776 487.947 366.463 486.724 366.4C485.39 366.337 484.354 366.62 483.288 367.42C482.252 368.189 482.88 369.852 484.056 369.977Z" fill="#263238"/>
<path d="M499.181 396.587C498.773 397.12 498.412 397.842 497.706 397.999C497.032 398.171 496.169 397.983 495.51 397.826C495.447 397.811 495.384 397.889 495.447 397.936C496.074 398.611 497.235 398.925 498.13 398.611C498.993 398.313 499.322 397.465 499.416 396.618C499.401 396.524 499.244 396.508 499.181 396.587Z" fill="#263238"/>
<path d="M497.503 390.844C496.059 392.335 494.271 392.947 492.451 392.931C491.635 392.931 490.819 392.79 490.019 392.57C489.862 392.539 489.705 392.492 489.564 392.429C489.422 392.382 489.297 392.335 489.14 392.272C488.92 392.194 488.826 391.974 488.826 391.754V391.739C488.842 391.66 488.858 391.613 488.889 391.535C488.889 391.535 488.889 391.535 488.889 391.519L488.92 391.346C489.171 389.825 489.783 387.565 489.783 387.565C489.171 387.738 486.112 388.444 486.316 387.659C488.01 381.195 489.877 374.025 492.921 367.953C493.015 367.749 493.329 367.859 493.266 368.079C491.886 374.355 489.422 380.332 487.948 386.608C488.92 386.451 490.505 386.106 491.29 386.279C491.493 386.389 490.05 390.64 489.987 391.331C489.987 391.331 489.987 391.362 489.987 391.409C492.466 392.241 494.522 391.849 497.33 390.64C497.518 390.562 497.66 390.719 497.503 390.844Z" fill="#263238"/>
<path d="M491.666 392.743C491.666 392.743 492.843 394.531 494.553 395.237C495.18 395.504 495.871 395.63 496.608 395.473C498.114 395.159 498.224 393.794 498.02 392.617C497.848 391.645 497.455 390.797 497.455 390.797C497.455 390.797 495.165 392.711 491.666 392.743Z" fill="#263238"/>
<path d="M494.553 395.237C495.18 395.504 495.871 395.63 496.608 395.473C498.114 395.159 498.224 393.794 498.02 392.617C496.404 392.696 494.772 393.7 494.553 395.237Z" fill="#FF9BBC"/>
<path d="M528.866 383.784C521.147 384.161 517.303 374.888 519.28 367.514C519.28 367.514 498.711 369.805 498.083 353.315C498.083 353.315 493.91 360.375 484.59 360.422L482.174 366.447C480.087 365.788 477.969 359.763 483.209 355.182C483.209 355.182 483.743 346.976 489.893 342.191C496.043 337.39 501.99 340.763 501.99 340.763C501.99 340.763 506.885 336.856 514.416 337.97C521.947 339.1 524.912 346.05 524.912 346.05C524.912 346.05 535.032 348.2 536.601 355.464C538.186 362.713 534.342 367.483 534.342 367.483C534.342 367.483 536.836 370.369 535.409 376.504C534.514 380.442 531.188 383.674 528.866 383.784Z" fill="#263238"/>
<path d="M498.569 351.871C498.412 353.205 498.318 354.554 498.444 355.888C498.491 357.222 498.742 358.539 499.103 359.795C499.872 362.305 501.472 364.517 503.731 365.804C505.912 367.263 508.642 367.545 511.247 367.859C512.58 367.843 513.914 367.922 515.247 367.843C516.581 367.734 517.93 367.592 519.28 367.514C517.962 367.812 516.628 368.032 515.295 368.298C513.945 368.487 512.58 368.487 511.215 368.581C508.517 368.408 505.661 368.126 503.229 366.604C500.813 365.145 499.056 362.681 498.397 359.983C497.738 357.3 497.848 354.476 498.569 351.871Z" fill="#263238"/>
<path d="M487.791 361.16C490.097 360.375 492.246 359.371 494.082 357.943C495.023 357.253 495.808 356.406 496.53 355.496C497.283 354.586 497.769 353.503 498.318 352.42C498.146 353.613 497.816 354.852 497.142 355.904C496.514 356.986 495.667 357.943 494.663 358.696C493.658 359.449 492.56 360.061 491.399 360.469C490.238 360.877 489.014 361.16 487.791 361.16Z" fill="#263238"/>
<path d="M520.974 384.694C520.974 384.694 527.972 375.531 532.145 378.057C536.334 380.583 530.796 394.061 525.697 395.74C520.598 397.403 518.95 392.711 518.95 392.711L520.974 384.694Z" fill="#FFC4C0"/>
<path d="M530.466 381.87C530.545 381.87 530.56 381.98 530.482 382.011C526.889 383.298 524.912 386.483 523.469 389.825C524.567 388.569 526.026 387.91 527.721 389.228C527.815 389.291 527.721 389.432 527.611 389.417C526.183 389.056 525.132 389.26 524.096 390.374C523.375 391.158 522.857 392.178 522.323 393.104C522.151 393.417 521.586 393.214 521.711 392.868C521.727 392.837 521.727 392.821 521.743 392.79C521.868 388.271 525.618 382.121 530.466 381.87Z" fill="#263238"/>
<g opacity="0.2">
<path d="M509.866 387.408C509.881 387.659 510.101 387.863 510.352 387.848C510.603 387.832 510.807 387.612 510.791 387.361C510.776 387.11 510.556 386.906 510.305 386.922C510.054 386.938 509.85 387.157 509.866 387.408Z" fill="black"/>
<path d="M500.076 387.377C500.091 387.628 500.311 387.832 500.562 387.816C500.813 387.801 501.017 387.581 501.001 387.33C500.986 387.079 500.766 386.875 500.515 386.891C500.264 386.906 500.06 387.126 500.076 387.377Z" fill="black"/>
<path d="M503.668 390.656C503.684 390.907 503.904 391.111 504.155 391.095C504.406 391.08 504.61 390.86 504.594 390.609C504.578 390.358 504.359 390.154 504.108 390.17C503.857 390.185 503.653 390.405 503.668 390.656Z" fill="black"/>
<path d="M509.442 383.564C509.458 383.815 509.678 384.019 509.929 384.004C510.18 383.988 510.384 383.768 510.368 383.517C510.352 383.266 510.133 383.062 509.882 383.078C509.631 383.094 509.427 383.313 509.442 383.564Z" fill="black"/>
<path d="M504.939 386.389C504.955 386.64 505.175 386.844 505.426 386.828C505.677 386.812 505.881 386.593 505.865 386.341C505.849 386.09 505.63 385.886 505.379 385.902C505.128 385.918 504.924 386.138 504.939 386.389Z" fill="black"/>
<path d="M480.605 380.678C480.62 380.929 480.84 381.133 481.091 381.117C481.342 381.101 481.546 380.881 481.53 380.63C481.515 380.379 481.295 380.175 481.044 380.191C480.809 380.207 480.605 380.426 480.605 380.678Z" fill="black"/>
<path d="M484.37 383.172C484.386 383.423 484.605 383.627 484.856 383.611C485.107 383.596 485.311 383.376 485.296 383.125C485.28 382.874 485.06 382.67 484.809 382.686C484.558 382.701 484.354 382.921 484.37 383.172Z" fill="black"/>
<path d="M483.57 386.294C483.586 386.545 483.805 386.749 484.056 386.734C484.307 386.718 484.511 386.498 484.496 386.247C484.48 385.996 484.26 385.792 484.009 385.808C483.758 385.824 483.554 386.028 483.57 386.294Z" fill="black"/>
<path d="M480.307 384.286C480.322 384.537 480.542 384.741 480.793 384.725C481.044 384.71 481.248 384.49 481.232 384.239C481.217 383.988 480.997 383.784 480.746 383.8C480.495 383.815 480.291 384.035 480.307 384.286Z" fill="black"/>
</g>
<path d="M623.145 317.291C623.145 338.661 605.808 356.013 584.423 356.013C575.778 356.013 567.808 353.174 561.359 348.373L542.391 353.221L550.283 335.554C547.349 330.11 545.701 323.881 545.701 317.291C545.701 295.922 563.038 278.569 584.423 278.569C605.808 278.585 623.145 295.922 623.145 317.291Z" fill="white"/>
<path d="M623.145 317.291C623.412 339.68 603.329 358.163 581.066 356.233C573.88 355.7 566.867 353.095 561.03 348.828L561.501 348.922L542.563 353.895L541.183 354.256L541.763 352.938L549.592 335.256L549.624 335.915C540.712 320.053 545.042 298.621 559.116 287.246C584.596 266.269 623.051 284.327 623.145 317.291ZM623.145 317.291C623.271 292.549 599.046 273.643 575.119 280.201C558.08 284.359 545.576 301.225 546.486 318.719C546.721 324.462 548.259 330.141 550.942 335.209L551.114 335.538L550.957 335.868L543.003 353.503L542.202 352.562L561.203 347.839L561.469 347.776C568.483 353.174 577.504 356.123 586.4 355.59C606.577 355.088 623.286 337.374 623.145 317.291Z" fill="#263238"/>
<path d="M583.309 296.032C577.52 301.821 577.52 311.204 583.309 316.993C589.099 322.783 598.481 322.783 604.271 316.993C610.06 311.204 610.06 301.837 604.271 296.032C598.481 290.242 589.115 290.227 583.309 296.032ZM601.258 302.967C600.176 304.049 598.434 304.049 597.336 302.951C596.253 301.868 596.253 300.127 597.336 299.044C598.419 297.962 600.176 297.962 601.258 299.029C602.357 300.127 602.357 301.884 601.258 302.967Z" fill="#455A64"/>
<path d="M581.279 309.411L578.117 312.573L587.736 322.192L590.898 319.03L581.279 309.411Z" fill="#455A64"/>
<path d="M579.654 314.091L586.18 320.618L584.564 322.218L581.881 321.386L582.713 324.085L580.061 326.721L576.484 325.983L577.222 329.561L576.625 330.173L573.927 329.341L574.758 332.04L572.06 331.208L572.891 333.891L570.789 335.993L567.212 335.256L567.949 338.833L566.113 340.669L558.849 341.406L559.587 334.158L579.654 314.091Z" fill="#EBEBEB"/>
<path d="M581.603 317.822L562.91 336.516L563.365 336.971L582.058 318.277L581.603 317.822Z" fill="#DBDBDB"/>
<g opacity="0.1">
<path d="M606.671 306.513C606.812 317.935 592.55 323.944 584.439 315.864C579.277 310.984 579.261 302.041 584.439 297.162C592.566 289.081 606.828 295.075 606.671 306.513ZM606.671 306.513C606.734 295.247 592.707 289.552 584.909 297.648C580.108 302.339 580.108 310.702 584.909 315.393C592.707 323.473 606.734 317.762 606.671 306.513Z" fill="black"/>
</g>
</g>
<defs>
<clipPath id="clip0_2_76">
<rect width="673.885" height="660" fill="white"/>
</clipPath>
</defs>
</svg>
