<svg width="823" height="807" viewBox="0 0 823 807" fill="none" xmlns="http://www.w3.org/2000/svg">
<g clip-path="url(#clip0_188_1123)">
<path d="M125.629 324.421C120.916 327.353 115.685 329.576 110.013 330.955C95.316 334.538 80.5809 331.779 68.6817 324.402C57.0316 317.197 48.0641 305.586 44.5575 291.215C37.4678 262.147 55.2496 232.83 84.3174 225.759C113.366 218.65 142.683 236.451 149.773 265.519C155.483 288.915 145.04 312.445 125.629 324.421Z" fill="#171F3F"/>
<path d="M111.366 272.168C111.366 281.27 103.989 288.647 94.887 288.647C85.7853 288.647 78.4082 281.27 78.4082 272.168C78.4082 263.066 85.7853 255.689 94.887 255.689C103.989 255.689 111.366 263.066 111.366 272.168Z" fill="#2C3557"/>
<path d="M123.361 317.619V324.421C118.647 327.353 113.416 329.576 107.744 330.955C93.0474 334.538 78.3123 331.779 66.4131 324.402V317.619C66.4131 301.926 79.1554 289.145 94.8869 289.145C110.618 289.145 123.361 301.926 123.361 317.619Z" fill="#2C3557"/>
<path d="M51.0268 99.5816C52.9621 98.3745 55.3956 98.4511 57.3501 99.6199C57.8866 99.9457 58.4231 100.252 58.9788 100.54C59.5345 100.846 60.0901 101.115 60.665 101.383C62.7344 102.36 64.114 104.334 64.1907 106.614L64.4398 114.393L89.7903 113.608L89.5412 105.828C89.4645 103.548 90.7292 101.459 92.7219 100.367C93.8333 99.7732 94.9063 99.1026 95.941 98.3745C97.8189 97.0715 100.233 96.899 102.245 97.9721L109.086 101.651L121.081 79.2897L114.24 75.6107C112.228 74.5377 111.04 72.4108 111.098 70.1498C111.117 68.8851 111.079 67.6205 110.983 66.375C110.791 64.0948 111.845 61.8912 113.78 60.7032L120.391 56.6027L107.016 35.0461L100.367 39.1658C98.432 40.373 96.0177 40.2963 94.0632 39.1275C93.5267 38.8018 92.9902 38.4952 92.4345 38.2078C91.8788 37.9203 91.3232 37.6329 90.7675 37.3647C88.6981 36.3874 87.2993 34.3946 87.2226 32.1144L86.9927 24.3158L61.623 25.1014L61.8721 32.8617C61.9488 35.1419 60.7033 37.2305 58.6913 38.3419C57.58 38.9551 56.507 39.6065 55.4722 40.3347C53.5944 41.6376 51.1801 41.8101 49.1681 40.7371L42.3275 37.0581L30.3325 59.4194L37.1731 63.0984C39.1851 64.1714 40.3731 66.2983 40.3156 68.5785C40.2964 69.8432 40.3348 71.1078 40.4306 72.3725C40.6222 74.6527 39.5683 76.8371 37.633 78.0442L31.0223 82.1256L44.397 103.682L51.0268 99.5816ZM57.3692 59.5535C62.7919 49.4363 75.4001 45.6232 85.5173 51.065C95.6345 56.4877 99.4284 69.0959 94.0058 79.2131C88.5831 89.3303 75.9941 93.1242 65.8769 87.7016C55.7788 82.2597 51.9465 69.6516 57.3692 59.5535Z" fill="#171F3F"/>
<path d="M750.206 555.929C751.011 554.549 752.524 553.783 754.134 553.859C754.575 553.878 754.996 553.898 755.437 553.898C755.878 553.898 756.318 553.878 756.759 553.859C758.35 553.783 759.863 554.53 760.668 555.929L763.389 560.662L778.776 551.771L776.055 547.038C775.25 545.658 775.326 543.953 776.208 542.612C776.687 541.883 777.128 541.117 777.53 540.312C778.258 538.894 779.695 537.975 781.286 537.975H786.727V520.193H781.286C779.695 520.193 778.258 519.273 777.53 517.855C777.128 517.07 776.687 516.303 776.208 515.556C775.326 514.214 775.25 512.509 776.055 511.13L778.776 506.397L763.389 497.506L760.649 502.258C759.844 503.637 758.33 504.404 756.74 504.308C756.299 504.289 755.878 504.27 755.437 504.27C754.996 504.27 754.556 504.289 754.134 504.308C752.544 504.385 751.011 503.618 750.206 502.239L747.485 497.506L732.098 506.397L734.819 511.11C735.624 512.49 735.547 514.195 734.666 515.537C734.187 516.284 733.746 517.05 733.344 517.836C732.616 519.254 731.179 520.174 729.588 520.174H724.146V537.955H729.588C731.179 537.955 732.616 538.875 733.344 540.293C733.746 541.079 734.187 541.845 734.666 542.592C735.547 543.934 735.624 545.639 734.819 547.019L732.098 551.732L747.485 560.623L750.206 555.929ZM740.874 529.103C740.874 521.055 747.408 514.54 755.437 514.54C763.466 514.54 769.98 521.074 769.98 529.103C769.98 537.131 763.466 543.646 755.437 543.646C747.408 543.646 740.874 537.151 740.874 529.103Z" fill="#171F3F"/>
<path d="M116.022 144.745C117.402 145.55 118.168 147.063 118.091 148.673C118.072 149.114 118.053 149.535 118.053 149.976C118.053 150.417 118.072 150.857 118.091 151.298C118.168 152.889 117.421 154.402 116.022 155.207L111.289 157.928L120.18 173.315L124.913 170.594C126.292 169.789 127.998 169.866 129.339 170.747C130.067 171.226 130.834 171.667 131.638 172.069C133.056 172.797 133.976 174.234 133.976 175.825V181.267H151.758V175.825C151.758 174.234 152.678 172.797 154.096 172.069C154.881 171.667 155.648 171.226 156.395 170.747C157.736 169.866 159.442 169.789 160.821 170.594L165.554 173.315L174.445 157.928L169.693 155.188C168.313 154.383 167.547 152.869 167.643 151.279C167.662 150.838 167.681 150.417 167.681 149.976C167.681 149.535 167.662 149.095 167.643 148.673C167.566 147.083 168.332 145.55 169.712 144.745L174.445 142.024L165.554 126.637L160.84 129.358C159.461 130.163 157.755 130.087 156.414 129.205C155.667 128.726 154.9 128.285 154.115 127.883C152.697 127.155 151.777 125.718 151.777 124.127V118.686H133.995V124.127C133.995 125.718 133.076 127.155 131.658 127.883C130.872 128.285 130.106 128.726 129.358 129.205C128.017 130.087 126.312 130.163 124.932 129.358L120.218 126.637L111.327 142.024L116.022 144.745ZM142.848 135.413C150.896 135.413 157.41 141.947 157.41 149.976C157.41 158.005 150.876 164.52 142.848 164.52C134.8 164.52 128.304 158.005 128.304 149.976C128.304 141.947 134.8 135.413 142.848 135.413Z" fill="#171F3F"/>
<path d="M784.275 9.10165H678.025V137.981H784.275V9.10165Z" fill="#171F3F"/>
<path d="M772.127 20.8476H690.154V126.197H772.127V20.8476Z" fill="#171F3F"/>
<path d="M693.354 20.8476H690.154V126.197H693.354V20.8476Z" fill="#2C3557"/>
<path opacity="0.8" d="M787.455 9.10165H784.255V137.981H787.455V9.10165Z" fill="#171F3F"/>
<path d="M732.966 102.792H752.3V45.2122H732.966V102.792Z" fill="#2C3557"/>
<path d="M709.193 63.5997L760.718 63.5997V35.3941L709.193 35.3941V63.5997Z" fill="#2C3557" stroke="#E1E5FA" stroke-miterlimit="10"/>
<path d="M784.275 326.682H678.025V455.562H784.275V326.682Z" fill="#171F3F"/>
<path d="M772.126 338.447H690.154V443.796H772.126V338.447Z" fill="#171F3F"/>
<path d="M693.354 338.447H690.154V443.796H693.354V338.447Z" fill="#2C3557"/>
<path opacity="0.4" d="M787.455 326.682H784.255V455.562H787.455V326.682Z" fill="#171F3F"/>
<path d="M736.965 362.801H717.631V420.381H736.965V362.801Z" fill="#E1E5FA"/>
<path d="M760.725 352.972H709.2V381.177H760.725V352.972Z" stroke="#2C3557" stroke-miterlimit="10"/>
<path d="M784.275 168.467H678.025V297.346H784.275V168.467Z" fill="#171F3F"/>
<path d="M772.126 180.232H690.154V285.581H772.126V180.232Z" fill="#2C3557"/>
<path opacity="0.4" d="M693.354 180.232H690.154V285.581H693.354V180.232Z" fill="#171F3F"/>
<path opacity="0.4" d="M787.455 168.467H784.255V297.346H787.455V168.467Z" fill="#171F3F"/>
<path d="M723.708 248.828V207.96H739.263V248.828H723.708Z" fill="#2C3557" stroke="#171F3F"/>
<path d="M757.181 232.906H712.707V261.763H757.181V232.906Z" fill="#2C3557" stroke="#171F3F" stroke-miterlimit="10"/>
<path d="M66.9116 494.133V770.919H234.229V494.133H66.9116ZM82.1066 596.723H219.053V668.77H82.1066V596.723ZM82.1066 507.508H219.053V579.555H82.1066V507.508Z" fill="#171F3F"/>
<path d="M0.0020752 770.927H66.9136L66.9136 494.141H0.0020752L0.0020752 770.927Z" fill="#2C3557"/>
<path d="M186.521 579.554H219.057V507.508H186.521V579.554Z" fill="#171F3F"/>
<path d="M82.1122 753.545H218.196V684.851H82.1122V753.545Z" stroke="#2C3557" stroke-width="0.75" stroke-miterlimit="10"/>
<path d="M168.866 704.681V717.362H142.83V704.681H168.866Z" fill="#171F3F" stroke="#2C3557"/>
<path d="M134.339 716.827H161.375V705.215H134.339V716.827Z" stroke="#2C3557" stroke-width="0.75" stroke-miterlimit="10"/>
<path d="M186.521 668.79H219.057V596.743H186.521V668.79Z" fill="#DBDBDB"/>
<path d="M68.77 663.98C68.77 663.98 84.4057 607.875 96.8798 588.81C109.373 569.744 132.635 548.82 132.635 548.82C132.635 548.82 132.098 635.334 68.77 663.98Z" fill="#0D0B54" fill-opacity="0.45"/>
<path d="M69.9006 663.022C75.2658 654.322 79.807 645.125 84.1566 635.832C86.0728 625.868 88.4105 615.846 91.917 606.323C91.9745 606.151 92.2427 606.247 92.1853 606.419C90.1158 615.291 87.7015 624.067 85.4979 632.9C91.802 619.238 97.7995 605.423 105.33 592.508C106.844 586.242 109.718 580.225 112.573 574.554C112.65 574.381 112.937 574.477 112.841 574.649C110.829 579.037 109.392 583.579 107.955 588.12C111.5 582.41 115.409 576.891 119.835 571.718C120.103 571.392 120.659 571.756 120.391 572.101C110.35 584.92 103.414 599.521 96.8032 614.294C103.95 606.668 110.446 598.314 116.424 589.768C116.482 589.672 116.616 589.768 116.559 589.864C110.389 599.674 103.28 608.488 95.5577 617.092C90.7482 627.918 86.0153 638.783 80.2861 649.072C91.7446 639.377 100.559 626.845 109.296 614.754C109.488 614.486 109.91 614.773 109.718 615.042C100.98 628.321 91.9553 640.814 79.3855 650.643C76.8178 655.146 74.0586 659.534 70.9928 663.75C70.4946 664.478 69.4407 663.75 69.9006 663.022Z" fill="#2C3557"/>
<path d="M65.8001 664.056C65.8001 664.056 93.8906 612.321 85.7279 562.156C77.5651 511.992 68.8275 494.133 68.8275 494.133C68.8275 494.133 24.6606 572.158 65.8001 664.056Z" fill="#0D0B54" fill-opacity="0.45"/>
<path d="M54.2649 582.716C56.5068 597.202 60.4348 610.769 65.1102 624.488C65.1869 606.074 65.5318 587.66 66.03 569.265C62.7917 558.075 61.163 546.616 60.7223 534.985C60.7031 534.641 61.2205 534.66 61.2396 534.985C62.0636 545.007 63.8264 554.76 66.1641 564.494C66.5856 549.299 67.103 534.123 67.6395 518.947C67.6395 518.698 68.0419 518.698 68.0419 518.947C68.0227 542.669 68.0227 566.391 67.8886 590.113C71.5101 580.973 73.7903 571.565 75.9939 561.926C76.013 561.831 76.1663 561.85 76.1663 561.945C75.3232 573.021 71.9508 583.732 67.8695 594.022C67.7545 609.178 67.6012 624.354 67.2563 639.511C72.0083 623.396 77.0861 607.779 78.4657 590.745C78.4849 590.515 78.8298 590.515 78.8298 590.745C78.4657 609.523 73.6179 628.608 67.4096 646.275C67.3329 646.466 67.218 646.6 67.103 646.715C66.9689 652.253 66.7964 657.791 66.624 663.347C66.6048 664.133 65.3976 664.114 65.3976 663.328C65.1869 651.985 65.1102 640.66 65.1294 629.317C58.8253 614.754 55.4529 598.486 54.0541 582.755C54.0158 582.621 54.2457 582.582 54.2649 582.716Z" fill="#2C3557"/>
<path d="M56.2 574.726C57.0814 579.172 57.9245 583.866 58.1545 588.388C58.1545 588.541 57.9245 588.561 57.8862 588.426C56.7174 584.039 56.0851 579.306 55.5677 574.803C55.5294 574.439 56.1234 574.381 56.2 574.726Z" fill="#2C3557"/>
<path d="M72.6213 536.902C72.6405 536.748 72.8896 536.787 72.8896 536.94C72.9279 540.044 72.2956 543.378 71.4716 546.367C71.395 546.616 71.0501 546.501 71.0884 546.252C71.7207 543.148 72.0848 540.025 72.6213 536.902Z" fill="#2C3557"/>
<path d="M55.5296 664.056C55.5296 664.056 56.6793 610.04 41.1778 583.195C25.6954 556.369 0 542.688 0 542.688C0 542.688 10.3663 637.882 55.5296 664.056Z" fill="#0D0B54" fill-opacity="0.45"/>
<path d="M27.3049 617.877C33.8197 627.247 40.2963 636.292 48.2674 644.454C45.1824 633.417 41.5801 622.553 37.537 611.88C28.8569 604.273 20.2343 596.378 14.9075 585.955C14.8308 585.782 15.0608 585.648 15.1566 585.801C20.8858 595.037 28.5504 602.414 36.6173 609.523C30.4282 593.485 23.2235 577.83 15.0416 562.559C14.8308 562.175 15.4057 561.831 15.6356 562.214C20.5984 570.166 25.1013 578.405 29.1635 586.855C27.7073 581.088 26.5576 575.186 25.063 569.457C25.0247 569.303 25.2546 569.246 25.3121 569.38C28.0522 576.604 30.7922 584.575 31.6737 592.278C37.0963 604.254 41.6567 616.613 45.3166 629.24C44.9142 621.135 44.416 613.087 43.5729 605.001C43.5537 604.848 43.822 604.809 43.8411 604.963C45.5273 613.93 46.4088 623.051 46.1788 632.172C48.4207 640.22 50.2985 648.363 51.7931 656.564C51.8314 656.775 51.5057 656.89 51.4482 656.66C50.6051 653.23 49.6854 649.82 48.7656 646.409C48.7081 646.39 48.6506 646.39 48.5932 646.332C40.2771 638.016 32.3826 628.512 27.2091 617.897C27.1899 617.858 27.2665 617.82 27.3049 617.877Z" fill="#2C3557"/>
<path d="M9.35063 573.921C11.0751 575.78 12.6655 577.754 14.3326 579.67C15.808 581.375 17.6092 582.966 18.7972 584.882C18.8355 584.958 18.7589 585.054 18.6822 584.997C16.6894 583.732 15.0799 581.682 13.5278 579.919C11.8991 578.06 10.4237 576.221 9.12069 574.113C9.00572 573.979 9.23566 573.806 9.35063 573.921Z" fill="#2C3557"/>
<path opacity="0.8" d="M99.7158 668.023L97.7613 693.603L91.8788 770.939H40.5455L34.663 693.603L32.7085 668.023C34.8929 668.023 66.2026 668.023 66.2026 668.023C66.2026 668.023 97.5314 668.023 99.7158 668.023Z" fill="#171F3F"/>
<path d="M99.7157 668.023L98.5277 683.582L34.1072 686.169L32.7275 668.023C34.9119 668.023 66.2216 668.023 66.2216 668.023C66.2216 668.023 97.5313 668.023 99.7157 668.023Z" fill="#2C3557"/>
<path opacity="0.8" d="M28.1439 675.082H104.272V655.461H28.1439V675.082Z" fill="#171F3F"/>
<path d="M0 770.939C261.744 769.77 555.335 769.751 817.079 770.939C555.335 772.107 261.725 772.107 0 770.939Z" fill="#263238"/>
<path d="M146.642 746.22V24.699C146.642 11.0561 157.698 0 171.341 0H637.709C651.352 0 662.408 11.0561 662.408 24.699V746.22C662.408 759.863 651.352 770.919 637.709 770.919H171.341C157.698 770.939 146.642 759.863 146.642 746.22Z" fill="#171F3F"/>
<path d="M640.66 53.9584H169.003V717.44H640.66V53.9584Z" fill="#171F3F"/>
<path d="M348.411 32.9192V29.7001C348.411 28.378 349.484 27.305 350.806 27.305H458.263C459.585 27.305 460.658 28.378 460.658 29.7001V32.9192C460.658 34.2414 459.585 35.3144 458.263 35.3144H350.806C349.484 35.3144 348.411 34.2414 348.411 32.9192Z" fill="#E1E5FA"/>
<path d="M404.535 758.024C412.556 758.024 419.059 751.521 419.059 743.5C419.059 735.478 412.556 728.975 404.535 728.975C396.513 728.975 390.01 735.478 390.01 743.5C390.01 751.521 396.513 758.024 404.535 758.024Z" fill="#263238"/>
<path d="M640.66 53.9584H169.003V717.44H640.66V53.9584Z" fill="#2C3557"/>
<path d="M404.846 340.872C449.822 340.872 486.282 304.412 486.282 259.436C486.282 214.46 449.822 178 404.846 178C359.871 178 323.411 214.46 323.411 259.436C323.411 304.412 359.871 340.872 404.846 340.872Z" fill="#E1E5FA"/>
<path d="M505.673 408.128H304V437.349H505.673V408.128Z" fill="#171F3F"/>
<path d="M335.156 417C335.156 416.789 335.329 416.617 335.54 416.617C335.769 416.617 335.942 416.789 335.942 417V423.246C335.942 425.297 337.609 426.945 339.64 426.964C341.709 426.945 343.376 425.297 343.376 423.246V417C343.376 416.789 343.549 416.617 343.76 416.617C343.99 416.617 344.162 416.789 344.162 417V423.246C344.162 425.718 342.15 427.749 339.659 427.749C337.187 427.749 335.175 425.737 335.175 423.246V417H335.156Z" fill="#E1E5FA"/>
<path d="M347.362 426.121C347.496 425.967 347.726 425.929 347.898 426.063C348.435 426.465 349.297 426.964 350.274 426.964C350.888 426.964 351.405 426.772 351.75 426.485C352.133 426.236 352.344 425.871 352.344 425.527C352.325 425.163 352.191 424.913 351.788 424.569C351.462 424.319 350.907 424.128 350.14 423.994L350.102 423.975C349.412 423.84 348.78 423.687 348.339 423.361C347.841 423.074 347.496 422.576 347.496 421.963C347.496 421.349 347.841 420.794 348.339 420.43C348.799 420.104 349.45 419.912 350.255 419.912C351.252 419.912 351.98 420.372 352.574 420.755C352.746 420.89 352.804 421.119 352.689 421.292C352.574 421.464 352.344 421.522 352.171 421.407C351.597 421.024 351.022 420.621 350.255 420.621C349.623 420.621 349.106 420.794 348.78 421.062C348.454 421.311 348.282 421.637 348.282 421.943C348.282 422.269 348.416 422.48 348.722 422.729C349.067 422.959 349.604 423.151 350.313 423.266H350.351C351.098 423.38 351.692 423.591 352.248 423.898C352.765 424.224 353.129 424.837 353.129 425.488C353.129 426.14 352.765 426.657 352.248 427.059C351.711 427.462 351.079 427.673 350.313 427.673C349.048 427.653 348.071 427.059 347.439 426.561C347.247 426.485 347.228 426.293 347.362 426.121Z" fill="#E1E5FA"/>
<path d="M355.161 423.86C355.161 421.694 356.847 419.951 358.935 419.951C360.928 419.951 362.519 421.541 362.691 423.572V423.591V423.63C362.691 423.84 362.519 423.975 362.308 423.975H355.927C356.004 425.68 357.345 426.964 358.955 426.964C359.989 426.964 360.947 426.427 361.465 425.546C361.58 425.354 361.81 425.316 361.982 425.412C362.155 425.546 362.212 425.757 362.116 425.948C361.446 427.002 360.296 427.711 358.974 427.711C356.847 427.749 355.161 426.006 355.161 423.86ZM355.965 423.246H361.867C361.618 421.79 360.373 420.717 358.935 420.717C357.479 420.717 356.253 421.771 355.965 423.246Z" fill="#E1E5FA"/>
<path d="M365.048 420.353C365.048 420.123 365.22 419.97 365.45 419.97C365.642 419.97 365.814 420.123 365.814 420.353V422.078C365.853 422.02 365.872 421.943 365.929 421.886C366.523 420.966 367.558 419.97 369.053 419.97C369.263 419.97 369.436 420.123 369.436 420.353C369.436 420.564 369.263 420.736 369.053 420.736C368.037 420.736 367.328 421.311 366.792 422.001C366.274 422.71 365.968 423.495 365.853 423.821C365.814 423.879 365.814 423.917 365.814 423.955V427.366C365.814 427.596 365.642 427.749 365.45 427.749C365.22 427.749 365.048 427.596 365.048 427.366V420.353Z" fill="#E1E5FA"/>
<path d="M377.58 423.131C377.58 421.809 376.507 420.736 375.185 420.736C373.862 420.736 372.809 421.809 372.77 423.131V427.366V427.424C372.751 427.481 372.732 427.558 372.694 427.596C372.636 427.692 372.521 427.73 372.406 427.73H372.31C372.195 427.692 372.1 427.615 372.061 427.519C372.042 427.5 372.042 427.481 372.042 427.462C372.042 427.443 372.023 427.424 372.023 427.424V427.328V423.093V422.959V420.296C372.023 420.085 372.176 419.912 372.406 419.912C372.617 419.912 372.77 420.085 372.77 420.296V421.043C373.345 420.353 374.226 419.912 375.185 419.912C376.928 419.912 378.346 421.349 378.346 423.074V427.309C378.346 427.539 378.174 427.692 377.963 427.692C377.752 427.692 377.58 427.539 377.58 427.309V423.131Z" fill="#E1E5FA"/>
<path d="M388.291 420.334V427.366C388.291 427.577 388.118 427.749 387.907 427.749C387.697 427.749 387.524 427.577 387.524 427.366V426.197C386.854 427.117 385.8 427.73 384.593 427.73C382.542 427.73 380.914 425.967 380.914 423.84C380.914 421.713 382.542 419.951 384.593 419.951C385.781 419.951 386.854 420.564 387.524 421.484V420.334C387.524 420.104 387.697 419.951 387.907 419.951C388.118 419.97 388.291 420.123 388.291 420.334ZM387.524 423.86C387.524 422.116 386.202 420.717 384.593 420.717C383.002 420.717 381.661 422.116 381.661 423.86C381.661 425.603 383.002 426.983 384.593 426.983C386.202 426.983 387.524 425.603 387.524 423.86Z" fill="#E1E5FA"/>
<path d="M402.719 423.131C402.681 421.809 401.646 420.717 400.305 420.717C398.983 420.717 397.91 421.809 397.91 423.131V427.366V427.424C397.91 427.443 397.891 427.462 397.891 427.462V427.5C397.852 427.596 397.776 427.653 397.699 427.711C397.641 427.749 397.565 427.768 397.507 427.768H397.469H397.431C397.411 427.768 397.392 427.749 397.392 427.749C397.354 427.749 397.335 427.711 397.297 427.692C397.277 427.692 397.258 427.673 397.258 427.653L397.22 427.615C397.201 427.596 397.201 427.577 397.182 427.577C397.182 427.558 397.182 427.558 397.162 427.539C397.162 427.539 397.162 427.519 397.143 427.5C397.143 427.481 397.143 427.462 397.124 427.443V427.385V427.347V423.112C397.124 421.79 396.07 420.698 394.729 420.698C393.388 420.698 392.334 421.79 392.334 423.112V427.347C392.334 427.481 392.276 427.577 392.161 427.653C392.142 427.673 392.104 427.711 392.065 427.711C392.046 427.73 392.027 427.73 392.008 427.73H391.97H391.912C391.778 427.711 391.644 427.596 391.586 427.443V427.366V423.131V422.997V420.334C391.586 420.123 391.759 419.97 391.95 419.97C392.18 419.97 392.334 420.123 392.334 420.334V421.081C392.909 420.391 393.771 419.97 394.729 419.97C395.936 419.97 396.971 420.64 397.507 421.618C398.063 420.64 399.117 419.97 400.305 419.97C402.049 419.97 403.466 421.388 403.466 423.131V427.366C403.466 427.558 403.313 427.73 403.083 427.73C402.872 427.73 402.719 427.558 402.719 427.366V423.131Z" fill="#E1E5FA"/>
<path d="M406.13 423.86C406.13 421.694 407.816 419.951 409.905 419.951C411.897 419.951 413.488 421.541 413.66 423.572V423.591V423.63C413.66 423.84 413.488 423.975 413.277 423.975H406.896C406.973 425.68 408.314 426.964 409.924 426.964C410.959 426.964 411.917 426.427 412.434 425.546C412.549 425.354 412.779 425.316 412.932 425.412C413.105 425.546 413.162 425.757 413.066 425.948C412.396 427.002 411.246 427.711 409.924 427.711C407.816 427.749 406.13 426.006 406.13 423.86ZM406.935 423.246H412.836C412.587 421.79 411.342 420.717 409.905 420.717C408.448 420.717 407.222 421.771 406.935 423.246Z" fill="#E1E5FA"/>
<path d="M320.977 420.296C320.977 421.848 319.731 423.093 318.179 423.093C316.627 423.093 315.382 421.848 315.382 420.296C315.382 418.743 316.627 417.498 318.179 417.498C319.731 417.498 320.977 418.743 320.977 420.296Z" fill="#E1E5FA"/>
<path d="M323.027 427.979H313.351C313.37 425.316 315.535 423.189 318.179 423.189C320.862 423.189 322.989 425.316 323.027 427.979Z" fill="#E1E5FA"/>
<path d="M505.673 450.551H304V479.772H505.673V450.551Z" fill="#171F3F"/>
<path d="M341.824 461.703C339.985 464.462 337.686 466.781 334.926 468.601C336.766 465.842 339.065 463.543 341.824 461.703Z" fill="#E1E5FA"/>
<path d="M334.926 461.703C337.686 463.543 340.004 465.842 341.824 468.601C339.065 466.781 336.766 464.462 334.926 461.703Z" fill="#E1E5FA"/>
<path d="M343.261 465.152C340.004 465.804 336.747 465.804 333.508 465.152C336.747 464.501 340.004 464.501 343.261 465.152Z" fill="#E1E5FA"/>
<path d="M338.375 460.285C339.027 463.543 339.027 466.8 338.375 470.038C337.724 466.8 337.724 463.524 338.375 460.285Z" fill="#E1E5FA"/>
<path d="M358.667 461.703C356.828 464.462 354.528 466.781 351.769 468.601C353.589 465.842 355.908 463.543 358.667 461.703Z" fill="#E1E5FA"/>
<path d="M351.769 461.703C354.528 463.543 356.847 465.842 358.667 468.601C355.908 466.781 353.589 464.462 351.769 461.703Z" fill="#E1E5FA"/>
<path d="M360.104 465.152C356.847 465.804 353.589 465.804 350.351 465.152C353.589 464.501 356.847 464.501 360.104 465.152Z" fill="#E1E5FA"/>
<path d="M355.218 460.285C355.869 463.543 355.869 466.8 355.218 470.038C354.547 466.8 354.567 463.524 355.218 460.285Z" fill="#E1E5FA"/>
<path d="M375.51 461.703C373.67 464.462 371.371 466.781 368.612 468.601C370.432 465.842 372.751 463.543 375.51 461.703Z" fill="#E1E5FA"/>
<path d="M368.593 461.703C371.352 463.543 373.671 465.842 375.491 468.601C372.732 466.781 370.432 464.462 368.593 461.703Z" fill="#E1E5FA"/>
<path d="M376.928 465.152C373.671 465.804 370.413 465.804 367.175 465.152C370.413 464.501 373.69 464.501 376.928 465.152Z" fill="#E1E5FA"/>
<path d="M372.061 460.285C372.713 463.543 372.713 466.8 372.061 470.038C371.39 466.8 371.39 463.524 372.061 460.285Z" fill="#E1E5FA"/>
<path d="M392.334 461.703C390.494 464.462 388.195 466.781 385.436 468.601C387.275 465.842 389.574 463.543 392.334 461.703Z" fill="#E1E5FA"/>
<path d="M385.436 461.703C388.195 463.543 390.513 465.842 392.334 468.601C389.574 466.781 387.275 464.462 385.436 461.703Z" fill="#E1E5FA"/>
<path d="M393.771 465.152C390.513 465.804 387.256 465.804 384.018 465.152C387.256 464.501 390.513 464.501 393.771 465.152Z" fill="#E1E5FA"/>
<path d="M388.885 460.285C389.536 463.543 389.536 466.8 388.885 470.038C388.233 466.8 388.233 463.524 388.885 460.285Z" fill="#E1E5FA"/>
<path d="M321.456 462.01V465.536H320.46V462.01C320.46 460.669 319.444 459.576 318.179 459.576C316.915 459.576 315.899 460.669 315.899 462.01V465.536H314.903V462.01C314.903 460.094 316.378 458.522 318.179 458.522C319.981 458.522 321.456 460.094 321.456 462.01Z" fill="#E1E5FA"/>
<path d="M313.638 464.252V471.801H322.74V464.252H313.638ZM318.946 469.77H317.317L317.7 467.969C317.47 467.835 317.317 467.567 317.317 467.279C317.317 466.838 317.681 466.474 318.122 466.474C318.563 466.474 318.927 466.838 318.927 467.279C318.927 467.567 318.773 467.816 318.543 467.969L318.946 469.77Z" fill="#E1E5FA"/>
<path d="M370.643 385.671V372.469C370.643 371.798 371.18 371.242 371.869 371.242C372.559 371.242 373.115 371.798 373.115 372.469V384.425H379.17C379.821 384.425 380.396 384.981 380.396 385.671C380.396 386.342 379.821 386.897 379.17 386.897H371.927C371.889 386.897 371.889 386.897 371.889 386.897C371.869 386.897 371.869 386.897 371.869 386.897C371.18 386.916 370.643 386.342 370.643 385.671Z" fill="#E1E5FA"/>
<path d="M394.71 373.197C396.089 374.672 396.971 376.646 396.971 378.849C396.971 381.053 396.108 383.065 394.71 384.502C393.387 385.958 391.414 386.897 389.364 386.897C387.217 386.897 385.244 385.958 383.883 384.502C382.504 383.046 381.661 381.053 381.661 378.849C381.661 376.646 382.485 374.672 383.883 373.197C385.244 371.721 387.217 370.802 389.364 370.802C391.414 370.802 393.387 371.721 394.71 373.197ZM394.422 378.849C394.422 377.336 393.809 375.918 392.908 374.941C391.969 373.925 390.724 373.35 389.383 373.35C387.946 373.35 386.7 373.925 385.761 374.941C384.822 375.918 384.247 377.336 384.247 378.849C384.247 380.363 384.822 381.781 385.761 382.739C386.7 383.755 387.946 384.349 389.383 384.349C390.724 384.349 391.969 383.736 392.908 382.739C393.809 381.781 394.422 380.382 394.422 378.849Z" fill="#E1E5FA"/>
<path d="M400.688 378.869C400.688 374.366 404.405 370.783 408.947 370.783C410.844 370.783 412.664 371.434 414.043 372.526C414.618 372.948 414.714 373.772 414.293 374.347C413.871 374.883 413.047 374.998 412.472 374.538C411.514 373.81 410.288 373.331 408.947 373.331C407.337 373.331 405.919 373.944 404.923 374.96C403.869 375.975 403.236 377.336 403.236 378.849C403.236 380.325 403.869 381.685 404.923 382.701C405.938 383.736 407.337 384.33 408.947 384.33C410.058 384.33 411.112 383.985 412.012 383.487V380.421H408.812C408.123 380.421 407.548 379.846 407.548 379.137C407.548 378.428 408.123 377.891 408.812 377.891H413.22C413.239 377.891 413.239 377.891 413.239 377.891C413.258 377.891 413.258 377.891 413.258 377.891C413.967 377.891 414.561 378.428 414.561 379.137V384.081C414.561 384.234 414.522 384.33 414.503 384.464C414.484 384.502 414.484 384.521 414.465 384.579V384.598C414.408 384.809 414.273 384.981 414.043 385.134C412.625 386.227 410.863 386.878 408.966 386.878C404.405 386.916 400.688 383.352 400.688 378.869Z" fill="#E1E5FA"/>
<path d="M419.754 372.469C419.754 371.779 420.29 371.242 420.98 371.242C421.651 371.242 422.226 371.779 422.226 372.469V385.671C422.226 386.361 421.651 386.897 420.98 386.897C420.29 386.897 419.754 386.361 419.754 385.671V372.469Z" fill="#E1E5FA"/>
<path d="M428.893 385.671C428.893 386.342 428.338 386.897 427.686 386.897C426.996 386.897 426.46 386.342 426.46 385.671V372.68C426.46 372.68 426.46 372.68 426.46 372.66C426.441 372.277 426.613 371.875 426.958 371.626C427.514 371.242 428.28 371.357 428.663 371.894L435.887 381.896V372.68C435.887 372.028 436.424 371.472 437.095 371.472C437.765 371.472 438.321 372.028 438.321 372.68V385.671C438.321 386.342 437.765 386.897 437.095 386.897C436.73 386.897 436.405 386.725 436.175 386.457C436.136 386.418 436.079 386.361 436.06 386.322L428.893 376.378V385.671Z" fill="#E1E5FA"/>
<path d="M438.264 497.65H371.429V518.44H438.264V497.65Z" fill="#FFC700"/>
<path d="M387.754 511.14V504.529C387.754 504.184 388.023 503.916 388.368 503.916C388.712 503.916 389 504.203 389 504.529V510.507H392.027C392.353 510.507 392.641 510.795 392.641 511.14C392.641 511.485 392.353 511.753 392.027 511.753H388.406C388.387 511.753 388.387 511.753 388.387 511.753C388.368 511.753 388.368 511.753 388.368 511.753C388.023 511.772 387.754 511.485 387.754 511.14Z" fill="#2C3557"/>
<path d="M399.788 504.893C400.478 505.64 400.918 506.618 400.918 507.729C400.918 508.84 400.478 509.837 399.788 510.565C399.136 511.293 398.14 511.772 397.105 511.772C396.032 511.772 395.036 511.293 394.365 510.565C393.675 509.837 393.254 508.84 393.254 507.729C393.254 506.618 393.675 505.64 394.365 504.893C395.055 504.146 396.032 503.705 397.105 503.705C398.14 503.705 399.117 504.165 399.788 504.893ZM399.635 507.729C399.635 506.962 399.328 506.253 398.868 505.774C398.389 505.276 397.776 504.97 397.105 504.97C396.396 504.97 395.764 505.257 395.285 505.774C394.806 506.273 394.519 506.982 394.519 507.729C394.519 508.476 394.806 509.204 395.285 509.683C395.764 510.182 396.377 510.488 397.105 510.488C397.776 510.488 398.408 510.182 398.868 509.683C399.328 509.204 399.635 508.495 399.635 507.729Z" fill="#2C3557"/>
<path d="M402.777 507.748C402.777 505.487 404.636 503.705 406.916 503.705C407.874 503.705 408.774 504.031 409.464 504.586C409.752 504.797 409.809 505.219 409.579 505.487C409.368 505.755 408.947 505.813 408.679 505.583C408.2 505.219 407.586 504.97 406.916 504.97C406.111 504.97 405.402 505.276 404.904 505.794C404.386 506.292 404.061 506.982 404.061 507.748C404.061 508.495 404.367 509.166 404.904 509.683C405.402 510.201 406.111 510.507 406.916 510.507C407.471 510.507 408.008 510.335 408.449 510.086V508.553H406.839C406.494 508.553 406.207 508.265 406.207 507.92C406.207 507.556 406.494 507.288 406.839 507.288H409.043C409.062 507.288 409.062 507.288 409.062 507.288C409.081 507.288 409.081 507.288 409.081 507.288C409.445 507.288 409.732 507.556 409.732 507.92V510.392C409.732 510.469 409.713 510.507 409.694 510.584C409.675 510.603 409.675 510.622 409.675 510.641V510.661C409.637 510.756 409.579 510.852 409.464 510.929C408.755 511.484 407.874 511.81 406.916 511.81C404.636 511.772 402.777 509.99 402.777 507.748Z" fill="#2C3557"/>
<path d="M412.3 504.529C412.3 504.184 412.569 503.916 412.913 503.916C413.258 503.916 413.546 504.184 413.546 504.529V511.14C413.546 511.485 413.258 511.753 412.913 511.753C412.569 511.753 412.3 511.485 412.3 511.14V504.529Z" fill="#2C3557"/>
<path d="M416.88 511.14C416.88 511.485 416.592 511.753 416.266 511.753C415.922 511.753 415.653 511.465 415.653 511.14V504.625C415.653 504.625 415.653 504.625 415.653 504.606C415.634 504.414 415.73 504.203 415.902 504.088C416.19 503.897 416.573 503.954 416.745 504.222L420.367 509.223V504.606C420.367 504.28 420.635 503.992 420.98 503.992C421.325 503.992 421.593 504.28 421.593 504.606V511.12C421.593 511.465 421.306 511.734 420.98 511.734C420.808 511.734 420.635 511.638 420.52 511.504C420.501 511.485 420.482 511.465 420.463 511.446L416.88 506.464V511.14Z" fill="#2C3557"/>
<path d="M452.016 324.383C450.33 325.59 448.606 326.721 446.843 327.813C442.627 330.342 438.163 332.526 433.506 334.27C432.414 334.692 431.303 335.075 430.191 335.458C427.681 336.282 425.095 336.991 422.489 337.566C422.469 337.566 422.45 337.566 422.431 337.585C420.132 338.083 417.794 338.505 415.418 338.811C412.295 334.155 409.746 330.112 407.964 326.989C406.776 324.919 405.205 322.026 403.615 318.769C398.69 308.785 393.497 295.353 398.307 291.694C398.403 291.617 398.479 291.559 398.575 291.502C398.69 291.425 398.824 291.368 398.958 291.291C399.035 291.253 399.112 291.214 399.208 291.176C399.61 290.985 400.089 290.87 400.606 290.812C401.2 290.716 401.871 290.716 402.637 290.793C405.071 291.023 408.328 292.115 412.582 294.28V294.299C413.483 294.74 414.403 295.238 415.399 295.794C415.514 295.852 415.648 295.928 415.782 296.005C423.964 300.642 437.971 312.292 452.016 324.383Z" fill="#9291B2"/>
<path d="M454.89 322.237C453.951 322.984 452.993 323.693 452.016 324.383C450.33 325.59 448.605 326.721 446.843 327.813C442.627 330.342 438.163 332.526 433.506 334.27C432.414 334.692 431.303 335.075 430.191 335.458C427.681 336.282 425.094 336.991 422.489 337.566C422.469 337.566 422.45 337.566 422.431 337.585C420.132 338.083 417.794 338.505 415.418 338.811C414.958 338.869 414.479 338.926 414 338.984C408.999 331.128 404.783 324.038 401.852 318.5V318.481C401.679 318.155 401.507 317.849 401.354 317.542C400.319 315.53 399.418 313.633 398.652 311.851C398.077 310.51 397.579 309.226 397.157 308C396.889 307.195 396.64 306.409 396.41 305.643C396.218 304.972 396.065 304.34 395.912 303.727C395.778 303.095 395.663 302.481 395.567 301.887C395.299 300.297 395.222 298.86 395.337 297.595C395.414 296.446 395.643 295.43 396.008 294.568C396.199 294.108 396.41 293.686 396.678 293.303C396.812 293.111 396.946 292.939 397.081 292.767C397.234 292.594 397.387 292.422 397.56 292.268C397.713 292.115 397.885 291.981 398.077 291.847C398.154 291.789 398.23 291.732 398.307 291.694C398.403 291.617 398.479 291.559 398.575 291.502C398.69 291.425 398.824 291.368 398.958 291.291C399.035 291.253 399.112 291.215 399.207 291.176C399.227 291.157 399.246 291.157 399.265 291.138C399.648 290.965 400.051 290.812 400.491 290.697C402.982 290.046 406.336 290.41 410.379 291.808C410.379 291.808 410.379 291.828 410.398 291.828C412.046 292.383 413.828 293.111 415.705 294.031L415.725 294.05C418.714 295.488 421.952 297.384 425.459 299.722C434.177 305.547 444.658 313.806 454.89 322.237Z" fill="#0D0B54" fill-opacity="0.45"/>
<path d="M419.155 304.896C418.695 304.455 418.235 304.033 417.737 303.612H417.717C417.545 303.459 417.373 303.324 417.2 303.19C417.066 303.095 416.951 302.999 416.817 302.903C416.606 302.73 416.395 302.596 416.165 302.462C415.955 302.309 415.744 302.175 415.514 302.041C415.514 302.041 415.514 302.041 415.495 302.041C415.361 301.964 415.246 301.907 415.111 301.83C415.035 301.792 414.939 301.753 414.862 301.715C414.882 301.715 414.862 301.696 414.862 301.696C414.594 301.562 414.326 301.447 414.058 301.332C414.249 301.811 414.479 302.251 414.709 302.673C415.514 304.091 416.549 305.298 417.622 306.429C418.043 306.831 418.465 307.214 418.905 307.597C419.25 307.885 419.595 308.153 419.959 308.421C419.978 308.441 419.998 308.46 420.017 308.46C420.017 308.479 420.036 308.479 420.036 308.479C420.86 309.073 421.741 309.59 422.719 309.993C421.875 307.962 420.572 306.371 419.155 304.896ZM419.155 304.896C418.695 304.455 418.235 304.033 417.737 303.612H417.717C417.545 303.459 417.373 303.324 417.2 303.19C417.066 303.095 416.951 302.999 416.817 302.903C416.606 302.73 416.395 302.596 416.165 302.462C415.955 302.309 415.744 302.175 415.514 302.041C415.514 302.041 415.514 302.041 415.495 302.041C415.361 301.964 415.246 301.907 415.111 301.83C415.035 301.792 414.939 301.753 414.862 301.715C414.882 301.715 414.862 301.696 414.862 301.696C414.594 301.562 414.326 301.447 414.058 301.332C414.249 301.811 414.479 302.251 414.709 302.673C415.514 304.091 416.549 305.298 417.622 306.429C418.043 306.831 418.465 307.214 418.905 307.597C419.25 307.885 419.595 308.153 419.959 308.421C419.978 308.441 419.998 308.46 420.017 308.46C420.017 308.479 420.036 308.479 420.036 308.479C420.86 309.073 421.741 309.59 422.719 309.993C421.875 307.962 420.572 306.371 419.155 304.896Z" fill="#171F3F"/>
<path opacity="0.1" d="M446.843 327.813C442.627 330.342 438.162 332.526 433.506 334.27C432.414 334.692 431.303 335.075 430.191 335.458C427.681 336.282 425.094 336.991 422.488 337.566C422.469 337.566 422.45 337.566 422.431 337.585C420.132 338.083 417.794 338.505 415.418 338.811C414.958 338.869 414.479 338.926 414 338.984C408.999 331.128 404.783 324.038 401.852 318.5V318.481C401.679 318.155 401.507 317.849 401.353 317.542C400.319 315.53 399.418 313.633 398.652 311.851C398.077 310.51 397.579 309.226 397.157 308C396.889 307.195 396.64 306.41 396.41 305.643C396.218 304.972 396.065 304.34 395.912 303.727C395.777 303.095 395.663 302.481 395.567 301.887C395.318 300.297 395.241 298.86 395.337 297.595C395.413 296.446 395.643 295.43 396.007 294.568C396.199 294.108 396.41 293.686 396.678 293.303C396.812 293.112 396.946 292.939 397.08 292.767C397.234 292.594 397.387 292.422 397.559 292.268C397.713 292.115 397.885 291.981 398.077 291.847C398.154 291.789 398.23 291.732 398.307 291.694C398.403 291.617 398.479 291.56 398.575 291.502C398.69 291.425 398.824 291.368 398.958 291.291C399.035 291.253 399.112 291.215 399.207 291.176C399.227 291.157 399.246 291.157 399.265 291.138C399.648 290.965 400.07 290.831 400.51 290.716C401.028 290.582 401.603 290.486 402.216 290.448L402.637 290.793L409.42 296.503C409.42 296.503 409.44 296.522 409.459 296.522L414.958 301.121L417.583 303.325L446.843 327.813Z" fill="black"/>
<path d="M430.192 335.458C427.682 336.282 425.095 336.991 422.489 337.566C422.47 337.566 422.451 337.566 422.431 337.585C420.132 338.083 417.794 338.505 415.418 338.811C414.958 338.869 414.479 338.926 414 338.984C410.973 339.329 407.888 339.501 404.765 339.501C395.567 339.501 386.715 337.968 378.456 335.152C378.379 335.132 378.322 335.113 378.245 335.094C378.188 335.056 378.111 335.037 378.054 335.017C377.747 334.902 377.441 334.807 377.134 334.692C369.029 331.76 361.517 327.583 354.83 322.39C357.11 318.385 359.218 314.86 361.192 311.775C362.61 309.552 363.932 307.559 365.196 305.777C365.196 305.739 365.216 305.739 365.216 305.739L365.235 305.72C371.922 296.177 376.54 292.268 380.142 290.371C380.372 290.256 380.602 290.141 380.813 290.046C381.081 289.892 381.349 289.777 381.599 289.682C382.078 289.471 382.537 289.318 382.978 289.164C386.849 287.861 392.635 287.191 398.173 287.689C402.868 288.11 407.39 289.375 410.379 291.808C410.379 291.808 410.379 291.828 410.398 291.828C411.26 292.537 412.008 293.361 412.582 294.28V294.299C413.253 295.353 413.905 296.446 414.537 297.576C414.767 297.978 414.997 298.381 415.227 298.802C416.032 300.259 416.817 301.753 417.584 303.324C417.641 303.42 417.699 303.516 417.718 303.612H417.737C418.12 304.398 418.503 305.183 418.887 306.007C419.27 306.812 419.653 307.617 420.017 308.46C420.017 308.479 420.036 308.479 420.036 308.479C423.581 316.335 426.915 325.283 429.981 334.807C430.058 335.017 430.115 335.228 430.192 335.458Z" fill="#0D0B54" fill-opacity="0.45"/>
<path d="M402.389 332.105C400.357 332.143 398.326 332.335 396.276 333.178C398.326 334.04 400.357 334.213 402.389 334.251C404.439 334.213 406.489 334.021 408.52 333.178C406.489 332.335 404.439 332.143 402.389 332.105ZM367.592 304.206C367.304 304.34 367.036 304.512 366.768 304.666C366.499 304.819 366.231 304.992 365.982 305.183C365.848 305.26 365.733 305.336 365.637 305.432C365.503 305.528 365.369 305.624 365.235 305.72L365.216 305.739C365.216 305.739 365.196 305.739 365.196 305.777C365.158 305.796 365.139 305.815 365.12 305.835C364.507 306.314 363.951 306.831 363.395 307.348C361.977 308.824 360.674 310.414 359.812 312.445C360.291 312.254 360.751 312.024 361.192 311.775C362.59 310.989 363.798 309.954 364.909 308.881C366.327 307.425 367.63 305.815 368.473 303.784C368.166 303.918 367.879 304.053 367.592 304.206ZM418.887 306.007C418.503 305.202 418.12 304.398 417.718 303.612C417.545 303.459 417.373 303.324 417.2 303.19C417.066 303.095 416.951 302.999 416.817 302.903C416.606 302.73 416.396 302.596 416.166 302.462C415.955 302.309 415.744 302.175 415.514 302.041C415.514 302.041 415.514 302.041 415.495 302.041C415.361 301.964 415.246 301.907 415.112 301.83C415.035 301.792 414.939 301.734 414.863 301.696C414.594 301.562 414.326 301.447 414.058 301.332C414.249 301.811 414.479 302.251 414.709 302.673C415.514 304.091 416.549 305.298 417.622 306.429C418.043 306.831 418.465 307.214 418.906 307.597C419.251 307.885 419.595 308.153 419.96 308.421C419.979 308.441 419.998 308.46 420.017 308.46C419.653 307.617 419.27 306.812 418.887 306.007ZM418.887 306.007C418.503 305.202 418.12 304.398 417.718 303.612C417.545 303.459 417.373 303.324 417.2 303.19C417.066 303.095 416.951 302.999 416.817 302.903C416.606 302.73 416.396 302.596 416.166 302.462C415.955 302.309 415.744 302.175 415.514 302.041C415.514 302.041 415.514 302.041 415.495 302.041C415.361 301.964 415.246 301.907 415.112 301.83C415.035 301.792 414.939 301.734 414.863 301.696C414.594 301.562 414.326 301.447 414.058 301.332C414.249 301.811 414.479 302.251 414.709 302.673C415.514 304.091 416.549 305.298 417.622 306.429C418.043 306.831 418.465 307.214 418.906 307.597C419.251 307.885 419.595 308.153 419.96 308.421C419.979 308.441 419.998 308.46 420.017 308.46C419.653 307.617 419.27 306.812 418.887 306.007Z" fill="#171F3F"/>
<path d="M385.948 303.918C385.412 308.345 384.128 313.863 382.001 320.551C380.353 325.686 378.724 330.38 377.134 334.692C369.029 331.76 361.517 327.583 354.83 322.39C353.221 321.145 351.649 319.822 350.155 318.462C352.876 314.84 355.616 311.334 358.337 307.981C367.381 296.848 375.122 290.812 380.142 290.371C380.334 290.352 380.526 290.333 380.717 290.333C384.99 290.333 387.06 294.74 385.948 303.918Z" fill="#9291B2"/>
<path d="M387.021 305.528C386.485 310.433 385.431 314.821 385.182 315.799C384.281 319.42 382.48 324.498 380.276 330.112V330.131C379.625 331.741 378.935 333.408 378.245 335.094C378.188 335.056 378.111 335.037 378.054 335.017C377.747 334.902 377.44 334.807 377.134 334.692C369.029 331.76 361.517 327.583 354.83 322.39C353.22 321.145 351.649 319.822 350.155 318.462C349.618 317.983 349.101 317.504 348.603 317.025C354.408 309.629 360.023 303.42 365.081 298.956C372.478 292.441 377.517 289.835 380.909 289.682C381.158 289.662 381.388 289.662 381.598 289.682C387.443 290.007 387.807 298.342 387.021 305.528Z" fill="#0D0B54" fill-opacity="0.45"/>
<path d="M367.592 304.206C367.304 304.34 367.036 304.512 366.768 304.666C366.499 304.819 366.231 304.992 365.982 305.183C365.848 305.26 365.733 305.336 365.637 305.432C365.484 305.547 365.33 305.662 365.196 305.777C365.158 305.796 365.139 305.815 365.12 305.835C364.507 306.314 363.951 306.831 363.395 307.348C361.977 308.824 360.674 310.414 359.812 312.445C360.291 312.254 360.751 312.024 361.192 311.775C362.59 310.989 363.798 309.954 364.909 308.881C366.327 307.425 367.63 305.815 368.473 303.784C368.166 303.918 367.879 304.053 367.592 304.206Z" fill="#171F3F"/>
<path d="M380.276 330.112C380.276 330.15 380.276 330.15 380.276 330.17C379.682 331.837 379.069 333.504 378.456 335.152C378.379 335.132 378.322 335.113 378.245 335.094C378.188 335.056 378.111 335.037 378.054 335.017C378.763 333.389 379.472 331.76 380.142 330.112C380.161 330.035 380.257 330.055 380.276 330.112Z" fill="#263238"/>
<path d="M404.247 318.769C395.605 319.094 383.917 303.669 380.334 292.345C380.085 291.559 382.633 284.393 385.297 275.521C386.887 270.137 388.535 264.101 389.646 258.487C389.876 257.337 423.198 273.988 423.198 273.988C423.198 273.988 417.411 285.083 415.533 294.893C415.38 295.717 415.322 296.484 415.322 297.25C415.322 297.365 415.322 297.499 415.303 297.634C415.15 302.156 412.602 318.462 404.247 318.769Z" fill="#FFC4C0"/>
<path d="M391.792 259.062C391.562 268.872 392.942 292.996 411.643 297.116C412.946 297.404 414.154 297.576 415.284 297.634C415.322 297.48 415.303 297.346 415.322 297.231C415.322 296.465 415.38 295.698 415.533 294.893C417.411 285.064 423.198 273.988 423.198 273.988C423.198 273.988 399.15 261.974 391.792 259.062Z" fill="#263238"/>
<path d="M383.648 221.544C380.027 234.363 387.538 270.98 396.755 278.99C410.129 290.601 431.647 291.272 441.401 275.291C450.866 259.79 440.251 212.231 429.98 204.988C414.862 194.315 388.994 202.612 383.648 221.544Z" fill="#FFC4C0"/>
<path d="M415.725 244.672C415.686 244.576 415.552 244.825 415.591 244.94C416.261 247.373 416.606 250.267 414.575 251.608C414.518 251.646 414.556 251.78 414.633 251.742C417.238 250.707 416.74 246.875 415.725 244.672Z" fill="#263238"/>
<path d="M412.908 242.64C408.903 243.292 410.474 251.263 414.192 250.669C417.871 250.075 416.28 242.104 412.908 242.64Z" fill="#263238"/>
<path d="M429.885 241.836C429.885 241.74 430.095 241.912 430.114 242.008C430.536 244.499 431.417 247.277 433.813 247.642C433.889 247.661 433.908 247.776 433.813 247.776C431.015 247.948 429.865 244.25 429.885 241.836Z" fill="#263238"/>
<path d="M431.571 238.808C435.48 237.716 437.377 245.63 433.755 246.626C430.191 247.642 428.294 239.728 431.571 238.808Z" fill="#263238"/>
<path d="M409.171 238.732C410.206 238.252 411.087 237.62 412.045 237.045C413.138 236.394 414.077 235.972 414.651 234.765C414.958 234.114 414.594 233.136 413.981 232.772C412.582 231.948 411.03 232.408 409.669 233.156C408.194 233.96 407.274 234.957 406.642 236.509C406.048 238.003 407.811 239.364 409.171 238.732Z" fill="#263238"/>
<path d="M434.522 235.57C433.391 235.704 432.318 235.627 431.188 235.627C429.904 235.647 428.888 235.781 427.777 235.033C427.183 234.631 426.972 233.596 427.317 232.983C428.083 231.546 429.655 231.144 431.188 231.067C432.855 230.99 434.177 231.354 435.518 232.351C436.802 233.328 436.016 235.417 434.522 235.57Z" fill="#263238"/>
<path d="M417.238 266.324C417.736 266.995 418.215 267.895 419.097 268.106C419.959 268.317 421.032 268.087 421.875 267.895C421.952 267.876 422.029 267.972 421.971 268.048C421.185 268.911 419.729 269.294 418.599 268.911C417.507 268.547 417.104 267.474 416.989 266.401C416.97 266.247 417.162 266.228 417.238 266.324Z" fill="#263238"/>
<path d="M419.365 259.1C421.166 260.978 423.447 261.744 425.727 261.725C426.742 261.725 427.777 261.553 428.773 261.265C428.965 261.227 429.157 261.169 429.329 261.093C429.502 261.035 429.655 260.978 429.847 260.901C430.134 260.805 430.23 260.537 430.23 260.25V260.231C430.211 260.135 430.191 260.077 430.153 259.981C430.153 259.981 430.153 259.981 430.153 259.962L430.115 259.752C429.789 257.835 429.023 254.98 429.023 254.98C429.789 255.191 433.64 256.073 433.391 255.095C431.264 246.971 428.908 237.927 425.075 230.281C424.96 230.013 424.558 230.166 424.635 230.435C426.359 238.329 429.482 245.86 431.341 253.754C430.134 253.543 428.122 253.122 427.126 253.332C426.877 253.467 428.697 258.832 428.773 259.694C428.773 259.694 428.773 259.732 428.773 259.79C425.65 260.825 423.063 260.346 419.538 258.813C419.327 258.736 419.174 258.928 419.365 259.1Z" fill="#263238"/>
<path d="M382.211 250.209C391.926 250.688 396.755 239 394.283 229.745C394.283 229.745 420.17 232.619 420.975 211.867C420.975 211.867 426.244 220.758 437.952 220.816L440.998 228.404C443.624 227.58 446.287 219.992 439.695 214.224C439.695 214.224 439.025 203.896 431.284 197.86C423.542 191.824 416.05 196.059 416.05 196.059C416.05 196.059 409.88 191.135 400.396 192.553C390.911 193.971 387.174 202.727 387.174 202.727C387.174 202.727 374.432 205.448 372.458 214.569C370.465 223.69 375.294 229.687 375.294 229.687C375.294 229.687 372.152 233.328 373.953 241.05C375.102 245.994 379.28 250.056 382.211 250.209Z" fill="#263238"/>
<path d="M420.362 210.028C420.572 211.714 420.668 213.419 420.534 215.086C420.477 216.773 420.151 218.42 419.71 220.011C418.733 223.172 416.721 225.951 413.885 227.58C411.145 229.419 407.696 229.783 404.419 230.166C402.752 230.147 401.066 230.262 399.38 230.147C397.694 230.013 396.008 229.841 394.302 229.745C395.969 230.109 397.636 230.396 399.323 230.741C401.009 230.971 402.733 230.971 404.458 231.105C407.869 230.895 411.452 230.53 414.517 228.614C417.545 226.775 419.768 223.671 420.592 220.279C421.377 216.849 421.243 213.324 420.362 210.028Z" fill="#263238"/>
<path d="M433.909 221.735C431.015 220.758 428.294 219.474 425.995 217.692C424.807 216.83 423.811 215.757 422.91 214.607C421.971 213.458 421.358 212.116 420.649 210.737C420.86 212.25 421.281 213.783 422.144 215.125C422.929 216.485 424.002 217.692 425.267 218.65C426.531 219.608 427.911 220.375 429.387 220.892C430.843 221.371 432.376 221.716 433.909 221.735Z" fill="#263238"/>
<path d="M392.137 251.34C392.137 251.34 383.342 239.805 378.073 242.985C372.803 246.166 379.759 263.143 386.197 265.232C392.616 267.32 394.685 261.419 394.685 261.419L392.137 251.34Z" fill="#FFC4C0"/>
<path d="M380.199 247.795C380.104 247.795 380.084 247.929 380.18 247.967C384.702 249.577 387.193 253.601 389.014 257.797C387.634 256.207 385.794 255.383 383.648 257.05C383.533 257.146 383.648 257.318 383.782 257.28C385.584 256.82 386.906 257.069 388.19 258.487C389.109 259.483 389.742 260.767 390.412 261.917C390.642 262.3 391.351 262.07 391.179 261.61C391.16 261.572 391.16 261.534 391.14 261.514C391.026 255.862 386.293 248.121 380.199 247.795Z" fill="#263238"/>
<g opacity="0.2">
<path d="M403.806 254.77C403.787 255.095 403.519 255.344 403.193 255.325C402.867 255.306 402.618 255.038 402.637 254.712C402.656 254.386 402.925 254.137 403.25 254.156C403.557 254.176 403.806 254.444 403.806 254.77Z" fill="black"/>
<path d="M416.127 254.731C416.108 255.057 415.84 255.306 415.514 255.287C415.188 255.268 414.939 255 414.958 254.674C414.977 254.348 415.246 254.099 415.571 254.118C415.878 254.137 416.146 254.406 416.127 254.731Z" fill="black"/>
<path d="M411.605 258.851C411.586 259.177 411.318 259.426 410.992 259.407C410.666 259.387 410.417 259.119 410.436 258.793C410.455 258.468 410.724 258.219 411.049 258.238C411.375 258.257 411.624 258.525 411.605 258.851Z" fill="black"/>
<path d="M404.343 249.922C404.324 250.247 404.055 250.497 403.73 250.477C403.404 250.458 403.155 250.19 403.174 249.864C403.193 249.539 403.461 249.289 403.787 249.309C404.094 249.328 404.362 249.596 404.343 249.922Z" fill="black"/>
<path d="M409.995 253.486C409.976 253.811 409.708 254.061 409.382 254.041C409.056 254.022 408.807 253.754 408.826 253.428C408.845 253.103 409.114 252.853 409.439 252.873C409.765 252.892 410.014 253.16 409.995 253.486Z" fill="black"/>
<path d="M440.615 246.3C440.596 246.626 440.328 246.875 440.002 246.856C439.676 246.837 439.427 246.569 439.446 246.243C439.466 245.917 439.734 245.668 440.06 245.687C440.385 245.706 440.634 245.974 440.615 246.3Z" fill="black"/>
<path d="M435.901 249.443C435.882 249.768 435.614 250.018 435.288 249.998C434.962 249.979 434.713 249.711 434.732 249.385C434.752 249.059 435.02 248.81 435.346 248.83C435.652 248.849 435.901 249.117 435.901 249.443Z" fill="black"/>
<path d="M436.898 253.352C436.879 253.677 436.611 253.926 436.285 253.907C435.959 253.888 435.71 253.62 435.729 253.294C435.748 252.968 436.016 252.719 436.342 252.738C436.668 252.758 436.917 253.045 436.898 253.352Z" fill="black"/>
<path d="M441.018 250.842C440.998 251.167 440.73 251.416 440.404 251.397C440.079 251.378 439.83 251.11 439.849 250.784C439.868 250.458 440.136 250.209 440.462 250.228C440.768 250.247 441.018 250.516 441.018 250.842Z" fill="black"/>
</g>
<path d="M300.374 769.386C305.72 771.322 463.859 774.445 469.818 770.804C470.508 770.44 473.094 718.111 473.094 718.111C472.903 717.363 475.547 712.324 479.571 705.311C490.857 685.632 512.893 650.394 512.893 650.394L419.021 622.016L380.468 699.256L370.639 718.954C370.639 718.954 349.082 727.385 330.266 735.777C330.246 735.797 330.208 735.797 330.208 735.835C318.616 740.989 308.556 745.722 306.199 747.485C300.182 752.141 295.047 767.489 300.374 769.386Z" fill="#FFC4C0"/>
<path d="M300.374 769.386C305.72 771.322 463.859 774.445 469.818 770.804C470.508 770.44 473.094 718.111 473.094 718.111C472.903 717.363 475.547 712.324 479.571 705.311L380.468 699.237L370.639 718.935C370.639 718.935 349.082 727.366 330.266 735.758C330.246 735.777 330.208 735.777 330.208 735.816C318.616 740.97 308.556 745.703 306.199 747.466C300.182 752.141 295.047 767.489 300.374 769.386Z" fill="#171F3F"/>
<path d="M299.722 769.98C305.222 771.935 463.59 774.637 469.684 770.939C472.002 769.54 474.8 745.166 473.094 718.13L371.003 716.501C371.003 716.501 311.871 742.637 305.624 747.428C299.377 752.199 294.223 768.026 299.722 769.98Z" fill="#0D0B54" fill-opacity="0.45"/>
<path opacity="0.1" d="M469.664 770.919C467.442 772.261 444.927 772.778 416.99 772.778L470.584 718.072L470.603 718.053L473.094 718.111C474.8 745.147 472.002 769.521 469.664 770.919Z" fill="#171F3F"/>
<path d="M302.098 763.676C328.656 763.485 435.787 765.19 462.057 767.01C462.268 767.03 462.268 767.164 462.057 767.183C435.73 767.949 328.618 765.363 302.098 764.117C301.523 764.079 301.543 763.676 302.098 763.676Z" fill="#E1E5FA"/>
<path d="M315.895 741.89C322.199 741.737 328.292 744.841 331.664 748.654C334.903 752.314 337.643 757.43 337.355 762.929C337.355 763.082 337.049 763.082 337.03 762.929C335.688 752.524 326.395 743.231 315.875 742.235C315.665 742.196 315.684 741.89 315.895 741.89Z" fill="#E1E5FA"/>
<path d="M362.629 719.011C373.264 719.05 385.508 723.016 391.965 731.811C392.214 732.156 391.735 732.501 391.409 732.328C381.886 727.212 372.823 723.361 362.418 720.314C361.69 720.084 361.863 719.011 362.629 719.011Z" fill="#E1E5FA"/>
<path d="M354.37 722.058C365.005 722.096 377.249 726.063 383.706 734.858C383.955 735.203 383.476 735.547 383.151 735.375C373.627 730.259 364.564 726.408 354.16 723.361C353.431 723.15 353.604 722.058 354.37 722.058Z" fill="#E1E5FA"/>
<path d="M346.112 725.124C356.747 725.162 368.991 729.128 375.448 737.923C375.697 738.268 375.218 738.613 374.892 738.441C365.369 733.325 356.306 729.473 345.901 726.427C345.173 726.216 345.346 725.124 346.112 725.124Z" fill="#E1E5FA"/>
<path d="M337.853 728.17C348.488 728.209 360.732 732.175 367.189 740.97C367.438 741.315 366.959 741.66 366.634 741.487C357.11 736.371 348.047 732.52 337.642 729.473C336.914 729.263 337.087 728.17 337.853 728.17Z" fill="#E1E5FA"/>
<path d="M455.715 741.698C467.633 741.928 467.288 760.457 455.351 760.227C443.432 759.978 443.777 741.449 455.715 741.698Z" fill="#E1E5FA"/>
<path d="M352.205 706.039C357.82 713.531 366.461 718.341 373.934 723.706C374.701 724.261 375.62 723.648 375.87 722.882C376.042 722.901 376.214 722.805 376.214 722.575C375.774 713.416 372.267 702.839 367.017 695.232C363.779 690.537 357.072 686.073 351.63 690.442C346.476 694.58 348.929 701.67 352.205 706.039ZM351.86 697.225C353.106 685.69 363.395 694.734 365.637 698.298C367.074 700.578 368.282 703.069 369.393 705.522C371.731 710.657 373.302 716.041 375.103 721.368C371.597 718.513 367.86 715.984 364.258 713.244C359.966 710.005 351.171 703.605 351.86 697.225Z" fill="#E1E5FA"/>
<path d="M414.058 716.463C413.349 709.507 405.455 707.878 399.841 708.856C390.758 710.446 380.756 715.371 373.915 721.483C373.743 721.636 373.8 721.828 373.934 721.924C373.57 722.633 373.762 723.706 374.701 723.878C383.764 725.449 393.268 728.247 402.542 726.982C407.946 726.235 414.729 723.035 414.058 716.463ZM388.919 723.437C384.435 722.767 380.028 721.905 375.525 721.406C380.583 718.954 385.527 716.309 390.835 714.374C393.364 713.454 395.989 712.554 398.633 711.979C402.734 711.098 416.415 712.056 409.057 721.061C405.014 726.005 394.265 724.223 388.919 723.437Z" fill="#E1E5FA"/>
<path d="M486.718 704.295L375.371 687.414C375.371 687.414 428.889 580.743 462.038 522.837C480.452 490.646 530.866 489.075 555.373 527.647C588.12 579.172 613.528 627.439 628.09 654.207L653.345 656.373L647.903 697.646L563.957 716.444C531.805 720.295 509.232 663.041 508.715 664.018C504.615 671.529 486.718 704.295 486.718 704.295Z" fill="#262F52"/>
<path d="M508.102 664.267C511.264 657.791 513.736 650.893 516.552 644.244C519.273 637.805 522.013 631.386 524.715 624.948C530.176 611.937 535.829 598.984 541.136 585.916C544.106 578.578 546.846 571.143 549.625 563.728C549.682 563.555 549.97 563.632 549.912 563.823C547.766 570.836 545.524 577.811 543.187 584.767C543.819 583.559 544.432 582.372 545.084 581.203C546.866 578.003 548.724 574.841 550.564 571.679C550.64 571.565 550.813 571.679 550.755 571.794C549.05 574.975 547.345 578.137 545.563 581.26C544.681 582.812 543.723 584.364 542.784 585.916C536.174 605.365 528.681 624.488 519.695 642.979C516.15 650.241 512.011 657.197 508.466 664.459C508.332 664.708 507.987 664.497 508.102 664.267Z" fill="#E1E5FA"/>
<path d="M484.227 684.502C489.592 676.224 502.373 651.142 506.952 642.481C516.207 624.948 524.696 607.051 532.705 588.925C537.227 578.673 541.462 568.345 545.658 557.96C545.677 557.883 545.792 557.922 545.773 557.998C539.469 576.7 531.958 595.037 523.795 613.011C515.632 631.003 489.286 679.5 484.553 684.732C484.399 684.904 484.093 684.712 484.227 684.502Z" fill="#E1E5FA"/>
<path d="M553.361 571.794C562.961 588.925 572.752 605.94 582.391 623.051C587.258 631.693 592.125 640.354 596.953 649.015C599.214 653.096 601.418 657.235 603.775 661.259C605.997 665.072 608.661 668.234 612.57 670.38C616.881 672.756 621.844 673.886 626.538 675.247C631.961 676.837 637.326 678.542 642.768 680.037C643.017 680.114 642.902 680.478 642.653 680.42C637.805 679.117 632.9 678.006 628.033 676.799C623.607 675.707 619.046 674.787 614.754 673.216C610.864 671.798 607.511 669.69 604.905 666.413C602.127 662.907 600.153 658.806 598.007 654.897C588.388 637.307 578.846 619.64 569.399 601.954C564.015 591.895 558.688 581.816 553.246 571.794C553.246 571.794 553.323 571.737 553.361 571.794Z" fill="#E1E5FA"/>
<path d="M489.247 688.679C482.579 687.472 475.739 686.878 469.013 686.015C462.268 685.153 455.523 684.272 448.779 683.39C435.327 681.627 389.512 674.346 386.063 673.196C385.853 673.12 385.929 672.775 386.14 672.756C389.417 672.66 419.423 676.645 426.149 677.642C439.6 679.615 452.975 682.011 466.388 684.272C470.22 684.923 474.033 685.651 477.846 686.322C481.659 686.993 485.473 687.817 489.324 688.315C489.554 688.334 489.477 688.717 489.247 688.679Z" fill="#E1E5FA"/>
<path d="M418.772 793.223C420.784 787.916 521.63 666.049 528.26 663.903C529.026 663.616 570.338 695.807 570.338 695.807C571.986 698.221 653.767 684.636 653.767 684.636L650.318 782.435L502.833 772.874C502.833 772.874 482.388 783.738 463.724 792.476C463.686 792.476 463.686 792.495 463.667 792.476C452.189 797.899 442.034 802.459 439.179 803.072C431.706 804.643 416.722 798.493 418.772 793.223Z" fill="#FFC4C0"/>
<path d="M439.178 803.072C442.053 802.459 452.189 797.918 463.667 792.476C463.686 792.495 463.705 792.476 463.743 792.476C482.387 783.719 502.833 772.855 502.833 772.855L535.656 774.982L590.687 694.216C579.306 695.73 570.836 696.554 570.319 695.788C570.319 695.788 529.026 663.597 528.26 663.903C521.649 666.049 420.803 787.896 418.772 793.204C416.741 798.493 431.706 804.663 439.178 803.072Z" fill="#171F3F"/>
<path d="M417.89 793.338C419.998 787.896 521.285 666.126 528.068 663.922C530.636 663.079 550.928 676.856 570.319 695.788L504.941 774.215C504.941 774.215 446.556 801.961 438.834 803.59C431.15 805.199 415.783 798.78 417.89 793.338Z" fill="#0D0B54" fill-opacity="0.45"/>
<path d="M424.214 795.657C441.689 775.652 510.306 693.354 526.057 672.277C526.191 672.104 526.076 672.008 525.922 672.162C508.16 691.611 440.233 774.464 423.869 795.389C423.543 795.81 423.85 796.078 424.214 795.657Z" fill="#E1E5FA"/>
<path d="M449.737 799.412C453.952 794.737 455.6 788.088 454.91 783.049C454.259 778.201 452.151 772.797 447.801 769.425C447.686 769.329 447.495 769.559 447.59 769.674C454.603 777.492 455.581 790.579 449.468 799.202C449.353 799.374 449.583 799.566 449.737 799.412Z" fill="#E1E5FA"/>
<path d="M497.564 778.929C504.481 770.862 509.463 758.982 507.01 748.347C506.915 747.926 506.34 748.079 506.263 748.424C503.925 758.982 500.917 768.352 496.452 778.239C496.127 778.929 497.066 779.523 497.564 778.929Z" fill="#E1E5FA"/>
<path d="M489.861 783.202C496.778 775.135 501.76 763.255 499.307 752.62C499.211 752.218 498.637 752.352 498.56 752.697C496.222 763.255 493.214 772.625 488.749 782.512C488.424 783.202 489.362 783.777 489.861 783.202Z" fill="#E1E5FA"/>
<path d="M482.158 787.456C489.075 779.389 494.057 767.509 491.605 756.874C491.509 756.472 490.934 756.606 490.857 756.951C488.52 767.509 485.511 776.879 481.047 786.766C480.721 787.456 481.66 788.03 482.158 787.456Z" fill="#E1E5FA"/>
<path d="M474.455 791.729C481.372 783.662 486.354 771.782 483.901 761.147C483.806 760.726 483.231 760.879 483.154 761.224C480.816 771.782 477.808 781.152 473.344 791.039C473.018 791.729 473.957 792.303 474.455 791.729Z" fill="#E1E5FA"/>
<path d="M541.117 693.584C548.705 684.387 534.449 672.564 526.842 681.781C519.254 690.959 533.51 702.782 541.117 693.584Z" fill="#E1E5FA"/>
<path d="M512.03 805.889C518.89 804.605 519.886 796.615 518.449 791.096C516.112 782.167 510.402 772.606 503.733 766.302C503.561 766.148 503.389 766.225 503.293 766.359C502.565 766.052 501.492 766.321 501.415 767.279C500.591 776.438 498.598 786.134 500.61 795.273C501.779 800.62 505.535 807.115 512.03 805.889ZM502.986 781.439C503.274 776.917 503.791 772.452 503.906 767.93C506.761 772.778 509.808 777.473 512.184 782.608C513.314 785.06 514.425 787.59 515.211 790.177C516.437 794.2 516.591 807.901 507.029 801.309C501.779 797.669 502.641 786.804 502.986 781.439Z" fill="#E1E5FA"/>
<path d="M517.568 743.48C510.555 749.689 506.474 758.714 501.76 766.608C501.262 767.432 501.971 768.275 502.737 768.467C502.737 768.639 502.833 768.812 503.063 768.773C512.165 767.585 522.416 763.217 529.544 757.372C533.951 753.751 537.86 746.719 533.05 741.641C528.509 736.831 521.669 739.859 517.568 743.48ZM526.325 742.426C537.937 742.733 529.755 753.713 526.401 756.242C524.255 757.871 521.86 759.269 519.503 760.591C514.579 763.351 509.348 765.363 504.174 767.585C506.742 763.849 508.945 759.94 511.379 756.108C514.253 751.547 519.925 742.254 526.325 742.426Z" fill="#E1E5FA"/>
<path d="M606.227 659.937C606.227 659.937 732.693 642.96 774.081 654.112C831.814 669.671 838.425 739.016 793.971 765.401C737.636 798.838 542.229 780.213 542.229 780.213L596.781 688.276C596.781 688.276 678.638 673.024 752.026 678.945L603.966 697.263L606.227 659.937Z" fill="#262F52"/>
<path d="M593.006 694.446C593.083 694.331 593.102 694.082 593.14 693.948C593.179 693.814 593.217 693.68 593.255 693.546C593.332 693.239 593.428 692.913 593.524 692.607C593.715 691.955 593.964 691.342 594.213 690.71C594.463 690.078 594.75 689.484 595.037 688.87C595.344 688.238 595.727 687.74 596.091 687.184C596.13 687.127 596.187 687.127 596.245 687.088C596.283 687.069 596.302 687.05 596.34 687.012C596.379 686.993 596.417 686.954 596.475 686.954C596.513 686.935 596.551 686.916 596.609 686.897C605.595 685.46 666.586 678.542 675.63 677.814C684.751 677.067 693.91 676.53 703.05 676.09C721.292 675.208 739.591 675.17 757.794 676.301C759.499 676.416 761.205 676.55 762.91 676.703C763.274 676.588 763.677 676.53 764.041 676.454C764.922 676.262 765.804 676.051 766.704 675.917C768.371 675.649 770.038 675.457 771.705 675.247C775.173 674.825 778.661 674.557 782.11 674.001C782.321 673.963 782.378 674.308 782.167 674.365C778.68 675.055 775.25 676.013 771.763 676.684C770.766 676.875 769.751 677.067 768.735 677.259C775.403 677.929 782.052 678.792 788.701 679.75C788.912 679.788 788.893 680.133 788.682 680.114C779.638 679.136 770.479 678.657 761.396 678.427C752.352 678.197 743.327 678.025 734.283 678.198C716.003 678.562 697.704 679.558 679.443 680.861C669.192 681.589 607.013 688.832 596.762 688.851C596.724 688.851 596.685 688.832 596.628 688.832C596.532 689.081 596.436 689.349 596.302 689.599C595.995 690.193 595.689 690.787 595.363 691.381C595.037 691.936 594.731 692.511 594.367 693.048C594.194 693.316 594.003 693.584 593.83 693.833C593.734 693.967 593.658 694.101 593.562 694.236C593.485 694.351 593.313 694.523 593.275 694.657C593.217 694.849 592.872 694.676 593.006 694.446Z" fill="#E1E5FA"/>
<path d="M570.262 774.464C573.481 769.176 576.278 763.504 579.267 758.043C582.257 752.563 585.246 747.083 588.235 741.602C594.213 730.681 615.54 693.967 617.609 691.438C617.743 691.285 617.993 691.476 617.916 691.668C616.862 694.542 603.487 718.858 600.402 724.281C594.252 735.126 587.833 745.741 581.49 756.433C579.67 759.48 577.811 762.508 575.972 765.535C574.151 768.563 572.197 771.552 570.511 774.675C570.415 774.847 570.147 774.656 570.262 774.464Z" fill="#E1E5FA"/>
<path d="M620.924 701.498C626.366 700.31 631.904 699.62 637.403 698.739C642.902 697.838 648.402 696.956 653.901 696.075C664.9 694.312 675.917 692.664 686.935 691.112C708.913 688.027 730.968 685.613 753.08 684.253C765.574 683.486 778.067 683.16 790.56 682.7C790.828 682.7 790.79 683.16 790.522 683.16C768.294 683.294 746.01 685.632 723.898 688.161C701.996 690.652 680.152 693.488 658.308 696.573C652.138 697.436 645.987 698.336 639.817 699.237C633.571 700.156 627.286 701.344 621.001 701.938C620.771 701.919 620.675 701.555 620.924 701.498Z" fill="#E1E5FA"/>
<path d="M620.905 543.206C608.795 564.341 560.566 629.547 545.39 631.712C529.601 633.973 471.389 628.972 460.773 616.479C455.581 610.366 463.954 557.883 472.021 560.815C480.088 563.747 529.888 575.78 536.288 574.841C542.65 573.921 594.29 523.929 613.317 513.161C646.121 494.536 627.439 531.805 620.905 543.206Z" fill="#9291B2"/>
<path d="M484.84 562.463L472.558 627.497C472.558 627.497 530.866 639.453 548.053 634.414C565.26 629.374 613.298 561.064 627.305 534.047C641.312 507.029 629.068 499.939 603.928 516.763C578.769 533.587 538.434 571.335 534.525 571.507C530.617 571.641 484.84 562.463 484.84 562.463Z" fill="#0D0B54" fill-opacity="0.45"/>
<path d="M610.041 521.764C608.68 523.182 607.396 524.734 606.572 526.708C608.546 525.884 610.098 524.619 611.516 523.24C612.876 521.822 614.16 520.269 614.984 518.296C613.011 519.12 611.478 520.404 610.041 521.764ZM484.246 620.867C482.253 620.905 480.28 621.097 478.306 621.901C480.28 622.725 482.253 622.917 484.246 622.955C486.22 622.917 488.193 622.725 490.186 621.901C488.193 621.097 486.22 620.905 484.246 620.867ZM579.536 601.437C577.543 601.475 575.569 601.667 573.576 602.472C575.569 603.296 577.543 603.487 579.536 603.526C579.785 603.526 580.072 603.506 580.321 603.506C580.819 602.874 581.337 602.242 581.854 601.59C581.049 601.495 580.302 601.456 579.536 601.437ZM538.032 617.015C537.208 618.989 537.036 620.982 536.997 622.955C537.036 624.929 537.208 626.922 538.032 628.895C538.856 626.922 539.029 624.929 539.086 622.955C539.048 620.982 538.856 618.989 538.032 617.015ZM586.874 553.457C586.051 555.431 585.859 557.404 585.84 559.397C585.878 561.371 586.051 563.363 586.874 565.337C587.698 563.363 587.871 561.371 587.909 559.397C587.909 557.404 587.698 555.431 586.874 553.457ZM610.041 521.764C608.68 523.182 607.396 524.734 606.572 526.708C608.546 525.884 610.098 524.619 611.516 523.24C612.876 521.822 614.16 520.269 614.984 518.296C613.011 519.12 611.478 520.404 610.041 521.764ZM547.325 575.358C545.965 576.776 544.681 578.309 543.857 580.302C545.831 579.459 547.383 578.213 548.801 576.815C550.161 575.397 551.445 573.864 552.269 571.871C550.295 572.714 548.743 573.979 547.325 575.358ZM488.462 563.191H488.443C488.27 563.344 488.098 563.517 487.906 563.689C486.546 565.107 485.262 566.64 484.438 568.633C486.411 567.809 487.944 566.544 489.381 565.145C489.841 564.647 490.301 564.168 490.723 563.632C489.899 563.478 489.132 563.325 488.462 563.191ZM511.934 595.382C510.516 594.022 508.984 592.738 506.991 591.914C507.815 593.887 509.079 595.44 510.478 596.857C511.896 598.218 513.429 599.502 515.403 600.326C514.579 598.352 513.295 596.819 511.934 595.382ZM579.536 601.437C577.543 601.475 575.569 601.667 573.576 602.472C575.569 603.296 577.543 603.487 579.536 603.526C579.785 603.526 580.072 603.506 580.321 603.506C580.819 602.874 581.337 602.242 581.854 601.59C581.049 601.495 580.302 601.456 579.536 601.437ZM586.874 553.457C586.051 555.431 585.859 557.404 585.84 559.397C585.878 561.371 586.051 563.363 586.874 565.337C587.698 563.363 587.871 561.371 587.909 559.397C587.909 557.404 587.698 555.431 586.874 553.457Z" fill="#171F3F"/>
<path d="M495.379 597.911C496.375 592.757 500.189 572.139 500.744 566.966C500.744 566.889 500.629 566.832 500.591 566.927C499.096 571.775 494.728 592.01 493.712 597.164C491.719 607.435 489.496 617.724 488.634 628.186C488.615 628.378 488.902 628.474 488.96 628.282C491.796 618.318 493.425 608.067 495.379 597.911Z" fill="#263238"/>
<path opacity="0.1" d="M627.324 534.027C613.298 561.064 565.28 629.374 548.073 634.395C535.043 638.208 498.464 632.287 481.468 629.183L626.481 507.738C634.625 508.332 635.928 517.414 627.324 534.027Z" fill="black"/>
<path d="M576.489 662.964L719.855 671.28C719.682 668.349 697.244 586.127 681.129 554.817C660.454 514.674 651.276 508.543 645.144 506.492C637.288 503.867 621.174 503.887 616.422 511.455C590.803 552.403 574.535 661.144 576.489 662.964Z" fill="#0D0B54" fill-opacity="0.45"/>
<path d="M611.44 520.519C610.673 522.052 609.926 523.604 609.198 525.251C610.041 524.638 610.807 523.968 611.535 523.259C612.896 521.841 614.18 520.289 615.004 518.315C613.643 518.871 612.494 519.637 611.44 520.519ZM654.591 653.345C653.231 654.763 651.947 656.296 651.123 658.289C653.096 657.465 654.649 656.2 656.067 654.821C657.427 653.384 658.711 651.851 659.535 649.877C657.58 650.701 656.028 651.985 654.591 653.345ZM611.44 520.519C610.673 522.052 609.926 523.604 609.198 525.251C610.041 524.638 610.807 523.968 611.535 523.259C612.896 521.841 614.18 520.289 615.004 518.315C613.643 518.871 612.494 519.637 611.44 520.519ZM695.654 590.553H695.635C695.29 590.362 694.907 590.17 694.523 589.998C695.079 591.32 695.826 592.45 696.669 593.485C696.344 592.508 695.98 591.512 695.654 590.553ZM664.133 524.159C663.559 523.604 663.003 523.086 662.371 522.588L662.351 522.569C661.413 521.841 660.397 521.189 659.209 520.691C660.033 522.665 661.298 524.217 662.677 525.635C663.75 526.669 664.9 527.647 666.26 528.413C666.682 528.662 667.142 528.911 667.621 529.103C666.778 527.129 665.532 525.577 664.133 524.159ZM625.293 591.186C623.875 589.825 622.342 588.541 620.35 587.718C621.193 589.691 622.438 591.243 623.837 592.661C625.255 594.022 626.788 595.305 628.781 596.129C627.938 594.156 626.673 592.604 625.293 591.186ZM661.278 611.018C659.305 611.056 657.312 611.248 655.338 612.072C657.312 612.876 659.305 613.068 661.278 613.106C663.271 613.068 665.245 612.876 667.218 612.072C665.245 611.267 663.271 611.075 661.278 611.018ZM626.309 548.149C624.316 548.188 622.342 548.379 620.369 549.203C622.342 550.008 624.316 550.2 626.309 550.238C628.282 550.2 630.256 550.027 632.249 549.203C630.256 548.398 628.282 548.207 626.309 548.149ZM610.788 633.801C609.964 635.774 609.773 637.748 609.734 639.741C609.792 641.714 609.964 643.688 610.788 645.681C611.612 643.688 611.785 641.714 611.823 639.741C611.785 637.748 611.612 635.774 610.788 633.801ZM692.818 627.841C691.994 629.834 691.802 631.808 691.764 633.801C691.802 635.774 691.994 637.748 692.818 639.741C693.623 637.748 693.814 635.774 693.853 633.801C693.814 631.808 693.623 629.834 692.818 627.841ZM663.424 563.728C662.601 565.701 662.409 567.675 662.371 569.667C662.409 571.641 662.601 573.615 663.424 575.608C664.229 573.615 664.421 571.641 664.459 569.667C664.421 567.675 664.229 565.701 663.424 563.728Z" fill="#171F3F"/>
<path d="M669.058 524.753C705.292 569.303 744.86 643.266 725.488 657.58C707.783 670.648 646.562 654.054 608.45 636.771C601.188 633.475 634.74 569.533 642.078 573.826C654.974 581.375 665.149 585.897 666.126 586.223C668.234 586.913 657.292 572.005 646.083 536.94C634.72 501.338 648.363 499.307 669.058 524.753Z" fill="#9291B2"/>
<path d="M547.747 563.919C547.306 571.526 566.18 571.047 566.18 571.047C566.18 571.047 561.543 573.557 560.048 578.405C558.324 583.943 566.257 589.059 566.257 589.059C566.257 589.059 562.099 592.585 561.026 597.854C559.914 603.315 567.177 609.619 567.177 609.619C567.177 609.619 565.107 615.022 567.445 620.234C571.45 629.144 586.453 630.141 595.631 632.574C605.461 635.18 619.698 640.948 625.542 643.879L646.428 576.355C646.428 576.355 607.473 550.334 596.187 550.257C586.702 550.219 548.418 552.269 547.747 563.919Z" fill="#FFC4C0"/>
<path d="M566.333 570.817C576.451 568.46 587.104 568.518 597.375 568.69C597.605 568.69 597.586 569.054 597.356 569.054C587.124 568.767 576.585 571.2 566.372 571.315C566.103 571.315 566.065 570.894 566.333 570.817Z" fill="#263238"/>
<path d="M566.583 588.292C568.882 587.832 571.335 588.12 573.653 588.273C576.163 588.446 578.654 588.656 581.145 588.905C586.146 589.404 591.128 590.017 596.091 590.783C596.302 590.822 596.321 591.167 596.072 591.147C591.09 590.668 586.108 590.247 581.107 589.959C578.616 589.825 576.106 589.71 573.596 589.595C571.277 589.5 568.805 589.595 566.544 588.982C566.219 588.886 566.238 588.369 566.583 588.292Z" fill="#263238"/>
<path d="M567.406 609.619C569.399 609.14 571.775 609.696 573.787 609.945C576.067 610.213 578.328 610.481 580.609 610.73C585.15 611.229 589.71 611.727 594.271 612.072C594.501 612.091 594.482 612.436 594.252 612.436C589.615 612.11 584.977 611.861 580.34 611.497C578.06 611.324 575.78 611.133 573.519 610.922C571.584 610.749 569.15 610.749 567.387 609.868C567.272 609.811 567.311 609.657 567.406 609.619Z" fill="#263238"/>
<path d="M648.287 575.684L629.547 648.536C629.547 648.536 720.448 677.489 731.236 654.687C742.043 631.865 692.454 542.401 662.524 516.016C632.594 489.65 642.232 529.199 643.017 532.36C646.505 546.406 664.229 583.521 664.229 583.521L648.287 575.684Z" fill="#0D0B54" fill-opacity="0.45"/>
<path d="M663.424 563.728C662.6 565.701 662.408 567.675 662.37 569.667C662.408 571.641 662.6 573.615 663.424 575.608C664.229 573.615 664.42 571.641 664.459 569.667C664.42 567.675 664.229 565.701 663.424 563.728ZM692.818 627.841C691.994 629.834 691.802 631.808 691.764 633.801C691.802 635.774 691.994 637.748 692.818 639.741C693.622 637.748 693.814 635.774 693.852 633.801C693.814 631.808 693.622 629.834 692.818 627.841ZM661.278 611.018C659.304 611.056 657.312 611.248 655.338 612.072C657.312 612.876 659.304 613.068 661.278 613.106C663.271 613.068 665.244 612.876 667.218 612.072C665.244 611.267 663.271 611.075 661.278 611.018ZM664.133 524.159C662.715 522.799 661.182 521.515 659.209 520.691C660.032 522.665 661.297 524.217 662.677 525.635C664.095 526.995 665.647 528.279 667.62 529.103C666.777 527.129 665.532 525.577 664.133 524.159ZM727.097 649.149C725.679 647.788 724.146 646.505 722.173 645.681C722.997 647.654 724.261 649.206 725.641 650.624C727.059 651.985 728.611 653.269 730.585 654.092C729.742 652.119 728.496 650.567 727.097 649.149ZM699.467 593.466C698.049 592.105 696.497 590.822 694.523 589.998C695.347 591.971 696.612 593.523 697.991 594.941C699.409 596.302 700.961 597.586 702.935 598.41C702.111 596.436 700.827 594.903 699.467 593.466ZM654.591 653.345C654.054 653.92 653.537 654.476 653.039 655.089C653.767 655.261 654.457 655.434 655.204 655.625C655.491 655.376 655.798 655.108 656.066 654.84C657.427 653.403 658.71 651.87 659.534 649.896C657.58 650.701 656.028 651.985 654.591 653.345Z" fill="#171F3F"/>
<path d="M649.877 575.818C660.263 580.11 687.261 595.42 693.048 601.418C693.22 601.59 693.009 601.878 692.818 601.724C687.05 597.183 653.652 578.578 648.402 576.24C648.402 576.24 648.114 576.891 647.98 577.045C647.789 577.294 647.655 577.14 647.674 576.891C647.693 576.719 648.095 575.205 648.172 575.109C648.172 575.129 648.728 575.358 649.877 575.818Z" fill="#263238"/>
<path d="M655.568 617.437C656.832 612.359 661.776 591.971 662.619 586.817C662.638 586.74 662.504 586.683 662.466 586.779C660.703 591.531 655.242 611.497 653.958 616.594C651.41 626.749 648.612 636.905 647.194 647.29C647.175 647.482 647.463 647.597 647.52 647.386C650.854 637.595 653.058 627.458 655.568 617.437Z" fill="#263238"/>
<path d="M664.938 583.981C662.37 577.562 659.17 571.392 656.334 565.107C653.498 558.841 650.528 552.595 647.903 546.233C647.865 546.157 647.731 546.214 647.75 546.291C649.321 550.621 650.892 554.932 652.579 559.205C652.042 558.516 651.525 557.807 651.027 557.078C650.126 555.776 649.283 554.415 648.478 553.035C648.421 552.94 648.306 553.016 648.344 553.112C648.957 554.645 649.743 556.063 650.682 557.423C651.371 558.439 652.176 559.359 653 560.259C653.69 562.003 654.418 563.727 655.185 565.452C658.001 571.814 660.109 578.099 663.865 583.962C663.999 584.134 665.033 584.192 664.938 583.981Z" fill="#263238"/>
<path d="M717.708 662.294C698.93 664.938 639.932 651.257 629.873 648.632C630.064 647.558 630.045 647.175 630.294 645.661C630.332 645.47 630.026 645.355 629.968 645.566C629.604 646.984 628.493 649.819 628.876 649.992C633.647 652.176 699.371 667.161 717.67 662.734C717.977 662.677 717.996 662.236 717.708 662.294Z" fill="#263238"/>
<path d="M572.044 634.51L495.264 643.19L468.477 536.154L545.256 527.474L572.044 634.51Z" fill="#37474F"/>
<path d="M568.269 634.931L491.489 643.611L464.721 536.576L541.5 527.915L568.269 634.931Z" fill="#455A64"/>
<path d="M505.88 582.142C506.703 586.223 510.727 589.155 514.847 588.695C518.967 588.235 521.649 584.537 520.825 580.455C520.001 576.374 515.978 573.442 511.858 573.902C507.719 574.362 505.036 578.06 505.88 582.142Z" fill="#171F3F"/>
<path d="M465.008 558.535C461.636 567.426 452.247 578.884 451.978 585.936C451.729 592.316 457.152 594.117 457.152 594.117C457.152 594.117 450.445 598.16 451.25 604.599C451.672 607.914 457.324 610.175 457.324 610.175C457.324 610.175 452.093 613.643 453.166 619.334C454.009 623.875 459.566 625.446 459.566 625.446C459.566 625.446 456.098 631.118 458.455 635.448C463.226 644.263 502.698 641.082 507.623 626.059C509.922 619.046 500.322 620.349 500.322 620.349C500.322 620.349 513.678 615.157 513.237 606.994C512.796 598.831 500.418 601.284 500.418 601.284C500.418 601.284 513.314 596.129 512.011 587.718C510.65 578.961 498.694 583.521 498.694 583.521C498.694 583.521 506.991 576.872 504.519 570.664C500.418 560.413 484.859 574.956 476.026 573.596L470.086 559.665L465.008 558.535Z" fill="#FFC4C0"/>
<path d="M458.091 571.603C460.563 562.904 449.258 553.323 450.426 544.662C451.998 532.954 465.851 543.206 470.067 559.665L471.101 573.04L458.091 571.603Z" fill="#FFC4C0"/>
<path d="M460.41 625.829C460.275 625.829 460.256 626.021 460.39 626.04C473.631 628.167 488.826 626.443 500.859 620.349C501.262 620.158 501.108 619.43 500.629 619.564C487.025 623.453 474.627 625.829 460.41 625.829Z" fill="#263238"/>
<path d="M457.133 610.27C456.98 610.27 456.98 610.52 457.133 610.558C470.795 612.666 487.849 610.251 500.898 601.609C501.338 601.322 501.453 600.594 500.917 600.901C491.815 605.978 469.933 610.328 457.133 610.27Z" fill="#263238"/>
<path d="M499.441 582.601C486.603 590.4 472.558 593.313 457.708 594.232C457.516 594.252 457.555 594.52 457.708 594.558C465.104 596.091 474.512 594.52 481.717 592.68C488.634 590.917 494.517 587.947 499.71 583.061C499.901 582.851 499.71 582.429 499.441 582.601Z" fill="#263238"/>
<path d="M624.508 535.235C632.9 535.541 644.225 520.595 647.712 509.597C647.942 508.849 645.489 501.875 642.902 493.271C641.35 488.04 639.76 482.196 638.687 476.735C638.476 475.624 606.151 491.777 606.151 491.777C606.151 491.777 611.765 502.545 613.585 512.049C613.72 512.854 613.796 513.601 613.796 514.33C613.796 514.425 613.796 514.559 613.815 514.713C613.93 519.12 616.402 534.928 624.508 535.235Z" fill="#FFC4C0"/>
<path d="M636.598 477.31C636.828 486.833 635.487 510.229 617.341 514.234C616.076 514.521 614.908 514.674 613.815 514.732C613.777 514.579 613.796 514.464 613.777 514.349C613.777 513.62 613.72 512.873 613.585 512.068C611.765 502.545 606.151 491.777 606.151 491.777C606.151 491.777 629.451 480.126 636.598 477.31Z" fill="#263238"/>
<path d="M644.493 440.903C647.999 453.339 640.718 488.864 631.77 496.644C618.797 507.91 597.912 508.562 588.446 493.06C579.268 478.019 589.557 431.878 599.521 424.846C614.218 414.499 639.319 422.527 644.493 440.903Z" fill="#FFC4C0"/>
<path d="M609.102 461.942C609.14 461.866 609.255 462.096 609.236 462.191C608.584 464.548 608.258 467.365 610.213 468.668C610.27 468.706 610.232 468.821 610.155 468.802C607.626 467.806 608.105 464.088 609.102 461.942Z" fill="#263238"/>
<path d="M611.822 459.969C615.712 460.601 614.179 468.323 610.577 467.748C607.013 467.193 608.546 459.451 611.822 459.969Z" fill="#263238"/>
<path d="M595.67 459.356C595.67 459.26 595.459 459.432 595.44 459.528C595.038 461.942 594.175 464.644 591.857 465.008C591.78 465.027 591.761 465.142 591.857 465.142C594.578 465.296 595.689 461.712 595.67 459.356Z" fill="#263238"/>
<path d="M594.022 456.424C590.228 455.37 588.388 463.034 591.914 464.012C595.382 464.989 597.203 457.324 594.022 456.424Z" fill="#263238"/>
<path d="M615.559 455.657C614.563 455.178 613.701 454.584 612.762 454.029C611.689 453.396 610.788 452.994 610.232 451.825C609.945 451.193 610.29 450.235 610.884 449.89C612.244 449.085 613.739 449.545 615.061 450.254C616.479 451.039 617.38 451.998 617.993 453.492C618.587 454.948 616.881 456.29 615.559 455.657Z" fill="#263238"/>
<path d="M591.167 451.844C592.259 451.959 593.313 451.902 594.405 451.902C595.65 451.921 596.628 452.055 597.72 451.327C598.295 450.944 598.486 449.947 598.18 449.334C597.432 447.935 595.919 447.552 594.424 447.475C592.795 447.399 591.531 447.744 590.228 448.721C588.963 449.66 589.73 451.691 591.167 451.844Z" fill="#263238"/>
<path d="M609.638 484.342C609.14 484.993 608.699 485.875 607.837 486.066C607.013 486.277 605.959 486.047 605.154 485.856C605.078 485.837 605.001 485.932 605.078 485.99C605.844 486.814 607.262 487.197 608.354 486.814C609.408 486.45 609.81 485.415 609.925 484.38C609.906 484.265 609.715 484.246 609.638 484.342Z" fill="#263238"/>
<path d="M607.588 477.329C605.825 479.149 603.641 479.897 601.418 479.877C600.422 479.877 599.425 479.705 598.448 479.437C598.256 479.398 598.065 479.341 597.892 479.264C597.72 479.207 597.567 479.149 597.375 479.073C597.107 478.977 596.992 478.708 596.992 478.44V478.421C597.011 478.325 597.03 478.268 597.068 478.172C597.068 478.172 597.068 478.172 597.068 478.153L597.107 477.942C597.413 476.083 598.161 473.324 598.161 473.324C597.413 473.535 593.677 474.397 593.926 473.439C595.995 465.545 598.276 456.788 601.993 449.372C602.108 449.123 602.491 449.257 602.414 449.526C600.728 457.19 597.72 464.491 595.919 472.155C597.107 471.964 599.042 471.542 600 471.753C600.249 471.887 598.486 477.08 598.41 477.923C598.41 477.923 598.41 477.961 598.41 478.019C601.437 479.034 603.947 478.555 607.377 477.08C607.607 476.984 607.78 477.176 607.588 477.329Z" fill="#263238"/>
<path d="M600.46 479.647C600.46 479.647 601.897 481.832 603.986 482.694C604.752 483.02 605.595 483.173 606.496 482.981C608.335 482.598 608.469 480.931 608.22 479.494C608.01 478.306 607.531 477.271 607.531 477.271C607.531 477.271 604.733 479.609 600.46 479.647Z" fill="#263238"/>
<path d="M603.986 482.694C604.752 483.02 605.595 483.173 606.496 482.981C608.335 482.598 608.47 480.931 608.221 479.494C606.247 479.59 604.254 480.816 603.986 482.694Z" fill="#FF9BBC"/>
<path d="M645.892 468.706C636.464 469.166 631.77 457.842 634.184 448.836C634.184 448.836 609.064 451.633 608.297 431.495C608.297 431.495 603.2 440.117 591.818 440.175L588.868 447.533C586.319 446.728 583.732 439.37 590.132 433.775C590.132 433.775 590.784 423.754 598.295 417.909C605.806 412.046 613.068 416.166 613.068 416.166C613.068 416.166 619.047 411.395 628.244 412.755C637.442 414.135 641.063 422.623 641.063 422.623C641.063 422.623 653.422 425.248 655.338 434.12C657.274 442.973 652.579 448.798 652.579 448.798C652.579 448.798 655.626 452.323 653.882 459.815C652.79 464.625 648.728 468.572 645.892 468.706Z" fill="#263238"/>
<path d="M608.891 429.732C608.7 431.361 608.585 433.009 608.738 434.637C608.795 436.266 609.102 437.876 609.543 439.409C610.482 442.474 612.436 445.176 615.195 446.747C617.859 448.529 621.193 448.874 624.374 449.257C626.002 449.238 627.631 449.334 629.26 449.238C630.889 449.104 632.536 448.932 634.184 448.836C632.575 449.2 630.946 449.468 629.317 449.794C627.669 450.024 626.002 450.024 624.335 450.139C621.04 449.928 617.552 449.583 614.582 447.725C611.631 445.943 609.485 442.934 608.681 439.638C607.876 436.362 608.01 432.913 608.891 429.732Z" fill="#263238"/>
<path d="M595.728 441.076C598.544 440.117 601.169 438.891 603.411 437.147C604.561 436.304 605.519 435.27 606.4 434.158C607.32 433.047 607.914 431.725 608.585 430.403C608.374 431.859 607.972 433.373 607.148 434.656C606.381 435.979 605.347 437.147 604.12 438.067C602.894 438.987 601.553 439.734 600.135 440.232C598.717 440.731 597.222 441.076 595.728 441.076Z" fill="#263238"/>
<path d="M636.254 469.818C636.254 469.818 644.8 458.627 649.896 461.712C655.013 464.797 648.249 481.257 642.021 483.307C635.794 485.338 633.782 479.609 633.782 479.609L636.254 469.818Z" fill="#FFC4C0"/>
<path d="M647.846 466.369C647.942 466.369 647.961 466.503 647.865 466.541C643.477 468.112 641.063 472.002 639.3 476.083C640.641 474.55 642.423 473.746 644.493 475.355C644.608 475.432 644.493 475.604 644.359 475.585C642.615 475.144 641.331 475.394 640.066 476.754C639.185 477.712 638.553 478.958 637.901 480.088C637.69 480.471 637.001 480.222 637.154 479.801C637.173 479.762 637.173 479.743 637.192 479.705C637.346 474.186 641.925 466.675 647.846 466.369Z" fill="#263238"/>
<g opacity="0.2">
<path d="M622.688 473.133C622.707 473.439 622.975 473.688 623.282 473.669C623.588 473.65 623.837 473.382 623.818 473.075C623.799 472.768 623.531 472.519 623.224 472.539C622.917 472.558 622.668 472.826 622.688 473.133Z" fill="black"/>
<path d="M610.731 473.094C610.75 473.401 611.018 473.65 611.325 473.631C611.632 473.612 611.881 473.343 611.862 473.037C611.842 472.73 611.574 472.481 611.268 472.5C610.961 472.519 610.712 472.788 610.731 473.094Z" fill="black"/>
<path d="M615.119 477.099C615.138 477.406 615.406 477.655 615.713 477.635C616.019 477.616 616.268 477.348 616.249 477.041C616.23 476.735 615.962 476.486 615.655 476.505C615.349 476.524 615.1 476.792 615.119 477.099Z" fill="black"/>
<path d="M622.17 468.438C622.189 468.745 622.457 468.994 622.764 468.975C623.071 468.955 623.32 468.687 623.3 468.381C623.281 468.074 623.013 467.825 622.706 467.844C622.4 467.863 622.151 468.131 622.17 468.438Z" fill="black"/>
<path d="M616.671 471.887C616.69 472.194 616.958 472.443 617.265 472.424C617.572 472.404 617.821 472.136 617.802 471.83C617.782 471.523 617.514 471.274 617.207 471.293C616.901 471.312 616.652 471.58 616.671 471.887Z" fill="black"/>
<path d="M586.952 464.912C586.971 465.219 587.239 465.468 587.546 465.449C587.852 465.43 588.101 465.161 588.082 464.855C588.063 464.548 587.795 464.299 587.488 464.318C587.201 464.337 586.952 464.606 586.952 464.912Z" fill="black"/>
<path d="M591.55 467.959C591.57 468.266 591.838 468.515 592.144 468.496C592.451 468.476 592.7 468.208 592.681 467.902C592.662 467.595 592.393 467.346 592.087 467.365C591.78 467.384 591.531 467.652 591.55 467.959Z" fill="black"/>
<path d="M590.573 471.772C590.592 472.079 590.86 472.328 591.167 472.309C591.473 472.289 591.722 472.021 591.703 471.715C591.684 471.408 591.416 471.159 591.109 471.178C590.803 471.197 590.554 471.446 590.573 471.772Z" fill="black"/>
<path d="M586.587 469.319C586.607 469.626 586.875 469.875 587.181 469.856C587.488 469.837 587.737 469.569 587.718 469.262C587.699 468.955 587.431 468.706 587.124 468.725C586.817 468.745 586.568 469.013 586.587 469.319Z" fill="black"/>
</g>
<path d="M761.032 387.5C761.032 413.598 739.859 434.791 713.742 434.791C703.184 434.791 693.45 431.322 685.575 425.459L662.409 431.38L672.047 409.804C668.464 403.155 666.452 395.548 666.452 387.5C666.452 361.403 687.625 340.21 713.742 340.21C739.859 340.229 761.032 361.403 761.032 387.5Z" fill="#171F3F"/>
<path d="M761.032 387.5C761.358 414.844 736.831 437.416 709.641 435.059C700.865 434.407 692.3 431.227 685.172 426.015L685.747 426.13L662.619 432.204L660.933 432.645L661.642 431.035L671.204 409.44L671.242 410.245C660.358 390.873 665.647 364.698 682.835 350.806C713.953 325.188 760.917 347.242 761.032 387.5ZM761.032 387.5C761.185 357.283 731.6 334.193 702.379 342.203C681.57 347.281 666.298 367.879 667.41 389.244C667.697 396.257 669.575 403.194 672.851 409.383L673.062 409.785L672.871 410.187L663.156 431.725L662.179 430.575L685.383 424.808L685.709 424.731C694.274 431.322 705.292 434.925 716.156 434.273C740.798 433.66 761.205 412.027 761.032 387.5Z" fill="#2C3557"/>
<path d="M712.382 361.537C705.311 368.607 705.311 380.066 712.382 387.136C719.452 394.207 730.911 394.207 737.981 387.136C745.052 380.066 745.052 368.626 737.981 361.537C730.911 354.466 719.471 354.447 712.382 361.537ZM734.302 370.006C732.98 371.328 730.853 371.328 729.512 369.987C728.19 368.665 728.19 366.538 729.512 365.216C730.834 363.894 732.98 363.894 734.302 365.197C735.643 366.538 735.643 368.684 734.302 370.006Z" fill="#2C3557"/>
<path d="M709.902 377.877L706.041 381.738L717.788 393.485L721.649 389.624L709.902 377.877Z" fill="#2C3557"/>
<path d="M707.917 383.591L715.888 391.563L713.914 393.517L710.638 392.501L711.653 395.797L708.415 399.016L704.046 398.116L704.947 402.485L704.219 403.232L700.923 402.216L701.938 405.512L698.643 404.497L699.658 407.773L697.091 410.341L692.722 409.44L693.622 413.809L691.381 416.051L682.509 416.951L683.409 408.099L707.917 383.591Z" fill="#E1E5FA"/>
<path d="M710.298 388.149L687.468 410.979L688.023 411.534L710.853 388.704L710.298 388.149Z" fill="#DBDBDB"/>
<g opacity="0.1">
<path d="M740.913 374.337C741.085 388.286 723.668 395.625 713.761 385.757C707.457 379.798 707.438 368.876 713.761 362.916C723.687 353.048 741.104 360.368 740.913 374.337ZM740.913 374.337C740.989 360.579 723.859 353.623 714.336 363.51C708.473 369.24 708.473 379.453 714.336 385.182C723.859 395.05 740.989 388.075 740.913 374.337Z" fill="#171F3F"/>
</g>
</g>
<defs>
<clipPath id="clip0_188_1123">
<rect width="823" height="806.042" fill="white"/>
</clipPath>
</defs>
</svg>
