<svg width="823" height="807" viewBox="0 0 823 807" fill="none" xmlns="http://www.w3.org/2000/svg">
<g clip-path="url(#clip0_188_1123)">
<path d="M82.9701 390.321C79.6631 392.378 75.9932 393.938 72.014 394.906C61.7033 397.42 51.3656 395.484 43.0175 390.308C34.8441 385.253 28.5528 377.106 26.0927 367.023C21.1188 346.628 33.5939 326.058 53.987 321.097C74.3666 316.109 94.9344 328.599 99.9083 348.994C103.914 365.409 96.5879 381.919 82.9701 390.321Z" fill="#171F3F"/>
<path d="M73 353.5C73 359.852 67.8517 365 61.5 365C55.1483 365 50 359.852 50 353.5C50 347.148 55.1483 342 61.5 342C67.8517 342 73 347.148 73 353.5Z" fill="#2C3557"/>
<path d="M81 385.353V390.215C77.7719 392.31 74.1894 393.899 70.3052 394.885C60.2402 397.446 50.1491 395.474 42 390.201V385.353C42 374.135 50.7264 365 61.5 365C72.2736 365 81 374.135 81 385.353Z" fill="#2C3557"/>
<g filter="url(#filter0_d_188_1123)">
<path d="M776 327H686C681.582 327 678 330.582 678 335V429C678 433.418 681.582 437 686 437H776C780.418 437 784 433.418 784 429V335C784 330.582 780.418 327 776 327Z" fill="#213157"/>
</g>
<g filter="url(#filter1_d_188_1123)">
<path d="M776 178H686C681.582 178 678 181.582 678 186V280C678 284.418 681.582 288 686 288H776C780.418 288 784 284.418 784 280V186C784 181.582 780.418 178 776 178Z" fill="#213157"/>
</g>
<path d="M764 188H698C693.582 188 690 191.582 690 196V270C690 274.418 693.582 278 698 278H764C768.418 278 772 274.418 772 270V196C772 191.582 768.418 188 764 188Z" fill="#213157"/>
<path d="M186.521 579.554H219.057V507.508H186.521V579.554Z" fill="#171F3F"/>
<path d="M186.521 668.79H219.057V596.743H186.521V668.79Z" fill="#DBDBDB"/>
<path d="M68.77 663.98C68.77 663.98 84.4057 607.875 96.8798 588.81C109.373 569.744 132.635 548.82 132.635 548.82C132.635 548.82 132.098 635.334 68.77 663.98Z" fill="#1C2651"/>
<path d="M69.9006 663.022C75.2658 654.322 79.807 645.125 84.1566 635.832C86.0728 625.868 88.4105 615.846 91.917 606.323C91.9745 606.151 92.2427 606.247 92.1853 606.419C90.1158 615.291 87.7015 624.067 85.4979 632.9C91.802 619.238 97.7995 605.423 105.33 592.508C106.844 586.242 109.718 580.225 112.573 574.554C112.65 574.381 112.937 574.477 112.841 574.649C110.829 579.037 109.392 583.579 107.955 588.12C111.5 582.41 115.409 576.891 119.835 571.718C120.103 571.392 120.659 571.756 120.391 572.101C110.35 584.92 103.414 599.521 96.8032 614.294C103.95 606.668 110.446 598.314 116.424 589.768C116.482 589.672 116.616 589.768 116.559 589.864C110.389 599.674 103.28 608.488 95.5577 617.092C90.7482 627.918 86.0153 638.783 80.2861 649.072C91.7446 639.377 100.559 626.845 109.296 614.754C109.488 614.486 109.91 614.773 109.718 615.042C100.98 628.321 91.9553 640.814 79.3855 650.643C76.8178 655.146 74.0586 659.534 70.9928 663.75C70.4946 664.478 69.4407 663.75 69.9006 663.022Z" fill="#0A142D"/>
<path d="M65.8001 664.056C65.8001 664.056 93.8906 612.321 85.7279 562.156C77.5651 511.992 68.8275 494.133 68.8275 494.133C68.8275 494.133 24.6606 572.158 65.8001 664.056Z" fill="#1C2651"/>
<path d="M54.2649 582.716C56.5068 597.202 60.4348 610.769 65.1102 624.488C65.1869 606.074 65.5318 587.66 66.03 569.265C62.7917 558.075 61.163 546.616 60.7223 534.985C60.7031 534.641 61.2205 534.66 61.2396 534.985C62.0636 545.007 63.8264 554.76 66.1641 564.494C66.5856 549.299 67.103 534.123 67.6395 518.947C67.6395 518.698 68.0419 518.698 68.0419 518.947C68.0227 542.669 68.0227 566.391 67.8886 590.113C71.5101 580.973 73.7903 571.565 75.9939 561.926C76.013 561.831 76.1663 561.85 76.1663 561.945C75.3232 573.021 71.9508 583.732 67.8695 594.022C67.7545 609.178 67.6012 624.354 67.2563 639.511C72.0083 623.396 77.0861 607.779 78.4657 590.745C78.4849 590.515 78.8298 590.515 78.8298 590.745C78.4657 609.523 73.6179 628.608 67.4096 646.275C67.3329 646.466 67.218 646.6 67.103 646.715C66.9689 652.253 66.7964 657.791 66.624 663.347C66.6048 664.133 65.3976 664.114 65.3976 663.328C65.1869 651.985 65.1102 640.66 65.1294 629.317C58.8253 614.754 55.4529 598.486 54.0541 582.755C54.0158 582.621 54.2457 582.582 54.2649 582.716Z" fill="#0A142D"/>
<path d="M56.2 574.726C57.0814 579.172 57.9245 583.866 58.1545 588.388C58.1545 588.541 57.9245 588.561 57.8862 588.426C56.7174 584.039 56.0851 579.306 55.5677 574.803C55.5294 574.439 56.1234 574.381 56.2 574.726Z" fill="#2C3557"/>
<path d="M72.6213 536.902C72.6405 536.748 72.8896 536.787 72.8896 536.94C72.9279 540.044 72.2956 543.378 71.4716 546.367C71.395 546.616 71.0501 546.501 71.0884 546.252C71.7207 543.148 72.0848 540.025 72.6213 536.902Z" fill="#2C3557"/>
<path d="M55.5296 664.056C55.5296 664.056 56.6793 610.04 41.1778 583.195C25.6954 556.369 0 542.688 0 542.688C0 542.688 10.3663 637.882 55.5296 664.056Z" fill="#1C2651"/>
<path d="M27.3049 617.877C33.8197 627.247 40.2963 636.292 48.2674 644.454C45.1824 633.417 41.5801 622.553 37.537 611.88C28.8569 604.273 20.2343 596.378 14.9075 585.955C14.8308 585.782 15.0608 585.648 15.1566 585.801C20.8858 595.037 28.5504 602.414 36.6173 609.523C30.4282 593.485 23.2235 577.83 15.0416 562.559C14.8308 562.175 15.4057 561.83 15.6356 562.214C20.5984 570.166 25.1013 578.405 29.1635 586.855C27.7073 581.088 26.5576 575.186 25.063 569.457C25.0247 569.303 25.2546 569.246 25.3121 569.38C28.0522 576.604 30.7922 584.575 31.6737 592.278C37.0963 604.254 41.6567 616.613 45.3166 629.24C44.9142 621.135 44.416 613.087 43.5729 605.001C43.5537 604.848 43.822 604.809 43.8411 604.963C45.5273 613.93 46.4088 623.051 46.1788 632.172C48.4207 640.22 50.2985 648.363 51.7931 656.564C51.8314 656.775 51.5057 656.89 51.4482 656.66C50.6051 653.23 49.6854 649.82 48.7656 646.409C48.7081 646.39 48.6506 646.39 48.5932 646.332C40.2771 638.016 32.3826 628.512 27.2091 617.897C27.1899 617.858 27.2665 617.82 27.3049 617.877Z" fill="#0A142D"/>
<path d="M9.35063 573.921C11.0751 575.78 12.6655 577.754 14.3326 579.67C15.808 581.375 17.6092 582.965 18.7972 584.882C18.8355 584.958 18.7589 585.054 18.6822 584.997C16.6894 583.732 15.0799 581.682 13.5278 579.919C11.8991 578.06 10.4237 576.221 9.12069 574.113C9.00572 573.979 9.23566 573.806 9.35063 573.921Z" fill="#2C3557"/>
<path opacity="0.8" d="M99.7158 668.023L97.7613 693.603L91.8788 770.939H40.5455L34.663 693.603L32.7085 668.023C34.8929 668.023 66.2026 668.023 66.2026 668.023C66.2026 668.023 97.5314 668.023 99.7158 668.023Z" fill="#0D1731"/>
<path opacity="0.8" d="M28.1439 675.082H104.272V655.461H28.1439V675.082Z" fill="#0B162F"/>
<path d="M0 770.939C261.744 769.77 555.335 769.751 817.079 770.939C555.335 772.107 261.725 772.107 0 770.939Z" fill="#263238"/>
<path d="M146.642 746.22V24.699C146.642 11.0561 157.698 0 171.341 0H637.709C651.352 0 662.408 11.0561 662.408 24.699V746.22C662.408 759.863 651.352 770.919 637.709 770.919H171.341C157.698 770.939 146.642 759.863 146.642 746.22Z" fill="#0C1733"/>
<path d="M640.66 53.9584H169.003V717.44H640.66V53.9584Z" fill="#171F3F"/>
<path d="M348.411 32.9192V29.7001C348.411 28.378 349.484 27.305 350.806 27.305H458.263C459.585 27.305 460.658 28.378 460.658 29.7001V32.9192C460.658 34.2414 459.585 35.3144 458.263 35.3144H350.806C349.484 35.3144 348.411 34.2414 348.411 32.9192Z" fill="#3A4871"/>
<path d="M404.535 758.024C412.556 758.024 419.059 751.521 419.059 743.5C419.059 735.478 412.556 728.975 404.535 728.975C396.513 728.975 390.01 735.478 390.01 743.5C390.01 751.521 396.513 758.024 404.535 758.024Z" fill="#263238"/>
<path d="M640.66 53.9584H169.003V717.44H640.66V53.9584Z" fill="#15203F"/>
<path d="M404.846 340.872C449.822 340.872 486.282 304.412 486.282 259.436C486.282 214.46 449.822 178 404.846 178C359.871 178 323.411 214.46 323.411 259.436C323.411 304.412 359.871 340.872 404.846 340.872Z" fill="#C0CBEC"/>
<path d="M526.543 415.857H283.13V451.126H526.543V415.857Z" fill="#171F3F"/>
<path d="M320.735 426.565C320.735 426.311 320.943 426.103 321.197 426.103C321.475 426.103 321.683 426.311 321.683 426.565V434.105C321.683 436.579 323.695 438.568 326.147 438.591C328.644 438.568 330.656 436.579 330.656 434.105V426.565C330.656 426.311 330.865 426.103 331.119 426.103C331.396 426.103 331.605 426.311 331.605 426.565V434.105C331.605 437.088 329.176 439.539 326.17 439.539C323.186 439.539 320.758 437.111 320.758 434.105V426.565H320.735Z" fill="#485A83"/>
<path d="M335.467 437.574C335.629 437.389 335.906 437.342 336.114 437.504C336.762 437.99 337.803 438.591 338.982 438.591C339.722 438.591 340.346 438.36 340.763 438.013C341.225 437.712 341.48 437.273 341.48 436.857C341.457 436.417 341.295 436.117 340.809 435.7C340.416 435.4 339.745 435.168 338.82 435.007L338.774 434.983C337.941 434.822 337.178 434.636 336.646 434.243C336.045 433.896 335.629 433.295 335.629 432.555C335.629 431.815 336.045 431.144 336.646 430.705C337.201 430.312 337.988 430.08 338.959 430.08C340.161 430.08 341.04 430.635 341.757 431.098C341.965 431.26 342.035 431.537 341.896 431.746C341.757 431.954 341.48 432.023 341.272 431.884C340.578 431.422 339.884 430.936 338.959 430.936C338.196 430.936 337.571 431.144 337.178 431.468C336.785 431.769 336.577 432.162 336.577 432.532C336.577 432.925 336.739 433.179 337.109 433.48C337.525 433.758 338.173 433.989 339.028 434.128H339.075C339.976 434.266 340.693 434.521 341.364 434.891C341.989 435.284 342.428 436.024 342.428 436.81C342.428 437.597 341.989 438.221 341.364 438.707C340.717 439.193 339.953 439.447 339.028 439.447C337.502 439.424 336.322 438.707 335.559 438.106C335.328 438.013 335.305 437.782 335.467 437.574Z" fill="#485A83"/>
<path d="M344.879 434.845C344.879 432.231 346.915 430.127 349.435 430.127C351.841 430.127 353.76 432.046 353.968 434.498V434.521V434.567C353.968 434.821 353.76 434.983 353.506 434.983H345.804C345.897 437.042 347.516 438.591 349.459 438.591C350.707 438.591 351.864 437.944 352.488 436.88C352.627 436.649 352.904 436.602 353.113 436.718C353.321 436.88 353.39 437.134 353.275 437.365C352.465 438.637 351.077 439.493 349.482 439.493C346.915 439.539 344.879 437.435 344.879 434.845ZM345.851 434.105H352.974C352.673 432.347 351.17 431.052 349.435 431.052C347.678 431.052 346.198 432.324 345.851 434.105Z" fill="#485A83"/>
<path d="M356.813 430.612C356.813 430.335 357.021 430.15 357.299 430.15C357.53 430.15 357.738 430.335 357.738 430.612V432.694C357.784 432.624 357.807 432.532 357.877 432.463C358.594 431.352 359.843 430.15 361.647 430.15C361.901 430.15 362.109 430.335 362.109 430.612C362.109 430.867 361.901 431.075 361.647 431.075C360.421 431.075 359.565 431.769 358.918 432.601C358.293 433.457 357.923 434.405 357.784 434.798C357.738 434.868 357.738 434.914 357.738 434.96V439.077C357.738 439.354 357.53 439.539 357.299 439.539C357.021 439.539 356.813 439.354 356.813 439.077V430.612Z" fill="#485A83"/>
<path d="M371.938 433.966C371.938 432.37 370.643 431.075 369.047 431.075C367.452 431.075 366.18 432.37 366.133 433.966V439.077V439.146C366.11 439.216 366.087 439.308 366.041 439.354C365.972 439.47 365.833 439.516 365.694 439.516H365.578C365.44 439.47 365.324 439.378 365.278 439.262C365.255 439.239 365.255 439.216 365.255 439.193C365.255 439.169 365.231 439.146 365.231 439.146V439.031V433.92V433.758V430.543C365.231 430.289 365.416 430.08 365.694 430.08C365.948 430.08 366.133 430.289 366.133 430.543V431.445C366.827 430.612 367.891 430.08 369.047 430.08C371.152 430.08 372.863 431.815 372.863 433.896V439.007C372.863 439.285 372.655 439.47 372.401 439.47C372.146 439.47 371.938 439.285 371.938 439.007V433.966Z" fill="#485A83"/>
<path d="M384.866 430.589V439.077C384.866 439.331 384.658 439.539 384.404 439.539C384.149 439.539 383.941 439.331 383.941 439.077V437.666C383.132 438.776 381.86 439.516 380.403 439.516C377.928 439.516 375.962 437.389 375.962 434.821C375.962 432.254 377.928 430.127 380.403 430.127C381.837 430.127 383.132 430.867 383.941 431.977V430.589C383.941 430.312 384.149 430.127 384.404 430.127C384.658 430.15 384.866 430.335 384.866 430.589ZM383.941 434.845C383.941 432.74 382.345 431.052 380.403 431.052C378.483 431.052 376.864 432.74 376.864 434.845C376.864 436.949 378.483 438.614 380.403 438.614C382.345 438.614 383.941 436.949 383.941 434.845Z" fill="#485A83"/>
<path d="M402.281 433.966C402.235 432.37 400.986 431.052 399.367 431.052C397.771 431.052 396.476 432.37 396.476 433.966V439.077V439.146C396.476 439.169 396.453 439.193 396.453 439.193V439.239C396.407 439.354 396.314 439.424 396.222 439.493C396.152 439.539 396.06 439.563 395.991 439.563H395.944H395.898C395.875 439.563 395.852 439.539 395.852 439.539C395.805 439.539 395.782 439.493 395.736 439.47C395.713 439.47 395.69 439.447 395.69 439.424L395.644 439.378C395.62 439.354 395.62 439.331 395.597 439.331C395.597 439.308 395.597 439.308 395.574 439.285C395.574 439.285 395.574 439.262 395.551 439.239C395.551 439.216 395.551 439.193 395.528 439.169V439.1V439.054V433.943C395.528 432.347 394.256 431.029 392.637 431.029C391.018 431.029 389.746 432.347 389.746 433.943V439.054C389.746 439.216 389.677 439.331 389.538 439.424C389.515 439.447 389.469 439.493 389.422 439.493C389.399 439.516 389.376 439.516 389.353 439.516H389.307H389.237C389.076 439.493 388.914 439.354 388.844 439.169V439.077V433.966V433.804V430.589C388.844 430.335 389.052 430.15 389.284 430.15C389.561 430.15 389.746 430.335 389.746 430.589V431.491C390.44 430.659 391.481 430.15 392.637 430.15C394.094 430.15 395.343 430.959 395.991 432.139C396.661 430.959 397.933 430.15 399.367 430.15C401.472 430.15 403.183 431.861 403.183 433.966V439.077C403.183 439.308 402.998 439.516 402.72 439.516C402.466 439.516 402.281 439.308 402.281 439.077V433.966Z" fill="#485A83"/>
<path d="M406.397 434.845C406.397 432.231 408.433 430.127 410.954 430.127C413.359 430.127 415.278 432.046 415.486 434.498V434.521V434.567C415.486 434.821 415.278 434.983 415.024 434.983H407.323C407.415 437.042 409.034 438.591 410.977 438.591C412.225 438.591 413.382 437.944 414.006 436.88C414.145 436.649 414.423 436.602 414.608 436.718C414.816 436.88 414.885 437.134 414.769 437.365C413.96 438.637 412.572 439.493 410.977 439.493C408.433 439.539 406.397 437.435 406.397 434.845ZM407.369 434.105H414.492C414.191 432.347 412.688 431.052 410.954 431.052C409.196 431.052 407.716 432.324 407.369 434.105Z" fill="#485A83"/>
<path d="M303.621 430.543C303.621 432.416 302.118 433.92 300.244 433.92C298.371 433.92 296.868 432.416 296.868 430.543C296.868 428.67 298.371 427.166 300.244 427.166C302.118 427.166 303.621 428.67 303.621 430.543Z" fill="#4A5A84"/>
<path d="M306.095 439.817H294.416C294.439 436.602 297.052 434.035 300.244 434.035C303.482 434.035 306.049 436.602 306.095 439.817Z" fill="#4A5A84"/>
<path d="M526.543 467.061H283.13V502.329H526.543V467.061Z" fill="#171F3F"/>
<path d="M328.783 480.521C326.563 483.851 323.787 486.649 320.457 488.846C322.677 485.516 325.452 482.741 328.783 480.521Z" fill="#495A83"/>
<path d="M320.457 480.521C323.787 482.741 326.586 485.516 328.783 488.846C325.452 486.649 322.677 483.851 320.457 480.521Z" fill="#495A83"/>
<path d="M330.517 484.683C326.586 485.47 322.654 485.47 318.746 484.683C322.654 483.897 326.586 483.897 330.517 484.683Z" fill="#495A83"/>
<path d="M324.62 478.809C325.406 482.741 325.406 486.672 324.62 490.581C323.834 486.672 323.834 482.718 324.62 478.809Z" fill="#495A83"/>
<path d="M349.112 480.521C346.892 483.851 344.116 486.649 340.786 488.846C342.983 485.516 345.782 482.741 349.112 480.521Z" fill="#495A83"/>
<path d="M340.786 480.521C344.116 482.741 346.915 485.516 349.112 488.846C345.782 486.649 342.983 483.851 340.786 480.521Z" fill="#495A83"/>
<path d="M350.846 484.683C346.914 485.47 342.983 485.47 339.074 484.683C342.983 483.897 346.914 483.897 350.846 484.683Z" fill="#495A83"/>
<path d="M344.949 478.809C345.735 482.741 345.735 486.672 344.949 490.581C344.139 486.672 344.162 482.718 344.949 478.809Z" fill="#495A83"/>
<path d="M369.44 480.521C367.22 483.851 364.445 486.649 361.115 488.846C363.312 485.516 366.11 482.741 369.44 480.521Z" fill="#495A83"/>
<path d="M361.091 480.521C364.422 482.741 367.22 485.516 369.417 488.846C366.087 486.649 363.312 483.851 361.091 480.521Z" fill="#495A83"/>
<path d="M371.152 484.683C367.22 485.47 363.288 485.47 359.38 484.683C363.288 483.897 367.243 483.897 371.152 484.683Z" fill="#495A83"/>
<path d="M365.277 478.809C366.064 482.741 366.064 486.672 365.277 490.581C364.468 486.672 364.468 482.718 365.277 478.809Z" fill="#495A83"/>
<path d="M389.746 480.521C387.526 483.851 384.751 486.649 381.42 488.846C383.641 485.516 386.416 482.741 389.746 480.521Z" fill="#495A83"/>
<path d="M381.42 480.521C384.751 482.741 387.549 485.516 389.746 488.846C386.416 486.649 383.641 483.851 381.42 480.521Z" fill="#495A83"/>
<path d="M391.481 484.683C387.549 485.47 383.617 485.47 379.709 484.683C383.617 483.897 387.549 483.897 391.481 484.683Z" fill="#495A83"/>
<path d="M385.583 478.809C386.369 482.741 386.369 486.672 385.583 490.581C384.797 486.672 384.797 482.718 385.583 478.809Z" fill="#495A83"/>
<path d="M304.199 480.891V485.146H302.996V480.891C302.996 479.272 301.771 477.954 300.244 477.954C298.718 477.954 297.492 479.272 297.492 480.891V485.146H296.29V480.891C296.29 478.578 298.07 476.682 300.244 476.682C302.418 476.682 304.199 478.578 304.199 480.891Z" fill="#495A83"/>
<path d="M294.763 483.597V492.709H305.749V483.597H294.763ZM301.169 490.257H299.204L299.666 488.083C299.389 487.921 299.204 487.598 299.204 487.251C299.204 486.719 299.643 486.279 300.175 486.279C300.707 486.279 301.146 486.719 301.146 487.251C301.146 487.598 300.961 487.898 300.684 488.083L301.169 490.257Z" fill="#495A83"/>
<path d="M363.566 388.752V372.818C363.566 372.008 364.214 371.338 365.047 371.338C365.879 371.338 366.55 372.008 366.55 372.818V387.249H373.858C374.644 387.249 375.338 387.92 375.338 388.752C375.338 389.562 374.644 390.232 373.858 390.232H365.116C365.07 390.232 365.07 390.232 365.07 390.232C365.047 390.232 365.047 390.232 365.047 390.232C364.214 390.256 363.566 389.562 363.566 388.752Z" fill="#E1E5FA"/>
<path d="M392.614 373.697C394.279 375.477 395.343 377.859 395.343 380.519C395.343 383.179 394.302 385.607 392.614 387.342C391.018 389.099 388.636 390.232 386.161 390.232C383.571 390.232 381.189 389.099 379.547 387.342C377.882 385.584 376.864 383.179 376.864 380.519C376.864 377.859 377.859 375.477 379.547 373.697C381.189 371.916 383.571 370.806 386.161 370.806C388.636 370.806 391.018 371.916 392.614 373.697ZM392.267 380.519C392.267 378.692 391.527 376.981 390.44 375.801C389.307 374.575 387.803 373.882 386.184 373.882C384.45 373.882 382.947 374.575 381.813 375.801C380.68 376.981 379.986 378.692 379.986 380.519C379.986 382.346 380.68 384.057 381.813 385.214C382.947 386.44 384.45 387.157 386.184 387.157C387.803 387.157 389.307 386.416 390.44 385.214C391.527 384.057 392.267 382.369 392.267 380.519Z" fill="#E1E5FA"/>
<path d="M399.83 380.542C399.83 375.107 404.316 370.783 409.797 370.783C412.087 370.783 414.284 371.569 415.949 372.887C416.643 373.396 416.759 374.39 416.25 375.084C415.741 375.732 414.747 375.871 414.053 375.315C412.896 374.437 411.416 373.858 409.797 373.858C407.855 373.858 406.143 374.599 404.941 375.824C403.669 377.05 402.905 378.692 402.905 380.519C402.905 382.3 403.669 383.942 404.941 385.168C406.166 386.416 407.855 387.133 409.797 387.133C411.139 387.133 412.411 386.717 413.498 386.116V382.415H409.635C408.803 382.415 408.109 381.722 408.109 380.866C408.109 380.01 408.803 379.363 409.635 379.363H414.955C414.978 379.363 414.978 379.363 414.978 379.363C415.001 379.363 415.001 379.363 415.001 379.363C415.857 379.363 416.574 380.01 416.574 380.866V386.833C416.574 387.018 416.527 387.133 416.504 387.295C416.481 387.342 416.481 387.365 416.458 387.434V387.457C416.389 387.712 416.227 387.92 415.949 388.105C414.238 389.423 412.11 390.209 409.82 390.209C404.316 390.256 399.83 385.954 399.83 380.542Z" fill="#E1E5FA"/>
<path d="M422.841 372.818C422.841 371.985 423.489 371.338 424.321 371.338C425.131 371.338 425.825 371.985 425.825 372.818V388.752C425.825 389.585 425.131 390.232 424.321 390.232C423.489 390.232 422.841 389.585 422.841 388.752V372.818Z" fill="#E1E5FA"/>
<path d="M433.872 388.752C433.872 389.562 433.202 390.232 432.415 390.232C431.583 390.232 430.935 389.562 430.935 388.752V373.072C430.935 373.072 430.935 373.072 430.935 373.049C430.912 372.586 431.12 372.101 431.537 371.8C432.207 371.338 433.132 371.476 433.595 372.124L442.314 384.196V373.072C442.314 372.286 442.961 371.615 443.771 371.615C444.58 371.615 445.251 372.286 445.251 373.072V388.752C445.251 389.562 444.58 390.232 443.771 390.232C443.331 390.232 442.938 390.024 442.661 389.701C442.615 389.654 442.545 389.585 442.522 389.539L433.872 377.536V388.752Z" fill="#E1E5FA"/>
<path d="M477.329 523.907H332.367V569H477.329V523.907Z" fill="#FFC700"/>
<path d="M367.776 553.166V538.827C367.776 538.079 368.358 537.497 369.106 537.497C369.854 537.497 370.478 538.121 370.478 538.827V551.794H377.044C377.751 551.794 378.374 552.417 378.374 553.166C378.374 553.914 377.751 554.495 377.044 554.495H369.189C369.148 554.495 369.148 554.495 369.148 554.495C369.106 554.495 369.106 554.495 369.106 554.495C368.358 554.537 367.776 553.914 367.776 553.166Z" fill="#2C3557"/>
<path d="M393.877 539.617C395.373 541.238 396.329 543.357 396.329 545.768C396.329 548.178 395.373 550.339 393.877 551.919C392.464 553.498 390.302 554.537 388.058 554.537C385.731 554.537 383.57 553.498 382.115 551.919C380.619 550.339 379.705 548.178 379.705 545.768C379.705 543.357 380.619 541.238 382.115 539.617C383.611 537.996 385.731 537.04 388.058 537.04C390.302 537.04 392.422 538.038 393.877 539.617ZM393.544 545.768C393.544 544.105 392.879 542.568 391.882 541.529C390.843 540.448 389.513 539.783 388.058 539.783C386.52 539.783 385.149 540.406 384.11 541.529C383.071 542.609 382.448 544.147 382.448 545.768C382.448 547.389 383.071 548.968 384.11 550.007C385.149 551.088 386.479 551.753 388.058 551.753C389.513 551.753 390.884 551.088 391.882 550.007C392.879 548.968 393.544 547.43 393.544 545.768Z" fill="#2C3557"/>
<path d="M400.36 545.809C400.36 540.905 404.391 537.04 409.337 537.04C411.415 537.04 413.368 537.747 414.864 538.952C415.488 539.409 415.612 540.323 415.114 540.905C414.657 541.487 413.742 541.612 413.16 541.113C412.121 540.323 410.792 539.783 409.337 539.783C407.591 539.783 406.054 540.448 404.973 541.57C403.851 542.651 403.144 544.147 403.144 545.809C403.144 547.43 403.809 548.885 404.973 550.007C406.054 551.129 407.591 551.794 409.337 551.794C410.542 551.794 411.706 551.42 412.662 550.88V547.555H409.171C408.423 547.555 407.799 546.931 407.799 546.183C407.799 545.394 408.423 544.812 409.171 544.812H413.95C413.992 544.812 413.992 544.812 413.992 544.812C414.033 544.812 414.033 544.812 414.033 544.812C414.823 544.812 415.446 545.394 415.446 546.183V551.545C415.446 551.711 415.405 551.794 415.363 551.96C415.322 552.002 415.322 552.043 415.322 552.085V552.127C415.238 552.334 415.114 552.542 414.864 552.708C413.327 553.914 411.415 554.62 409.337 554.62C404.391 554.537 400.36 550.672 400.36 545.809Z" fill="#2C3557"/>
<path d="M421.016 538.827C421.016 538.079 421.598 537.497 422.346 537.497C423.094 537.497 423.718 538.079 423.718 538.827V553.166C423.718 553.914 423.094 554.495 422.346 554.495C421.598 554.495 421.016 553.914 421.016 553.166V538.827Z" fill="#2C3557"/>
<path d="M430.948 553.166C430.948 553.914 430.325 554.495 429.618 554.495C428.87 554.495 428.288 553.872 428.288 553.166V539.035C428.288 539.035 428.288 539.035 428.288 538.994C428.247 538.578 428.455 538.121 428.829 537.871C429.452 537.456 430.283 537.58 430.657 538.162L438.512 549.01V538.994C438.512 538.287 439.094 537.664 439.842 537.664C440.59 537.664 441.172 538.287 441.172 538.994V553.124C441.172 553.872 440.549 554.454 439.842 554.454C439.468 554.454 439.094 554.246 438.845 553.955C438.803 553.914 438.762 553.872 438.72 553.831L430.948 543.025V553.166Z" fill="#2C3557"/>
<path d="M452.016 324.383C450.33 325.59 448.606 326.721 446.843 327.813C442.627 330.342 438.163 332.526 433.506 334.27C432.414 334.692 431.303 335.075 430.191 335.458C427.681 336.282 425.095 336.991 422.489 337.566C422.469 337.566 422.45 337.566 422.431 337.585C420.132 338.083 417.794 338.505 415.418 338.811C412.295 334.155 409.746 330.112 407.964 326.989C406.776 324.919 405.205 322.026 403.615 318.769C398.69 308.785 393.497 295.353 398.307 291.694C398.403 291.617 398.479 291.559 398.575 291.502C398.69 291.425 398.824 291.368 398.958 291.291C399.035 291.253 399.112 291.215 399.208 291.176C399.61 290.985 400.089 290.87 400.606 290.812C401.2 290.716 401.871 290.716 402.637 290.793C405.071 291.023 408.328 292.115 412.582 294.28V294.299C413.483 294.74 414.403 295.238 415.399 295.794C415.514 295.852 415.648 295.928 415.782 296.005C423.964 300.642 437.971 312.292 452.016 324.383Z" fill="#9291B2"/>
<path d="M454.89 322.237C453.951 322.984 452.993 323.693 452.016 324.383C450.33 325.59 448.605 326.721 446.843 327.813C442.627 330.342 438.163 332.526 433.506 334.27C432.414 334.692 431.303 335.075 430.191 335.458C427.681 336.282 425.094 336.991 422.489 337.566C422.469 337.566 422.45 337.566 422.431 337.585C420.132 338.083 417.794 338.505 415.418 338.811C414.958 338.869 414.479 338.926 414 338.984C408.999 331.128 404.783 324.038 401.852 318.5V318.481C401.679 318.155 401.507 317.849 401.354 317.542C400.319 315.53 399.418 313.633 398.652 311.851C398.077 310.51 397.579 309.226 397.157 308C396.889 307.195 396.64 306.409 396.41 305.643C396.218 304.972 396.065 304.34 395.912 303.727C395.778 303.095 395.663 302.481 395.567 301.887C395.299 300.297 395.222 298.86 395.337 297.595C395.414 296.446 395.643 295.43 396.008 294.568C396.199 294.108 396.41 293.686 396.678 293.303C396.812 293.111 396.946 292.939 397.081 292.767C397.234 292.594 397.387 292.422 397.56 292.268C397.713 292.115 397.885 291.981 398.077 291.847C398.154 291.789 398.23 291.732 398.307 291.694C398.403 291.617 398.479 291.559 398.575 291.502C398.69 291.425 398.824 291.368 398.958 291.291C399.035 291.253 399.112 291.215 399.207 291.176C399.227 291.157 399.246 291.157 399.265 291.138C399.648 290.965 400.051 290.812 400.491 290.697C402.982 290.046 406.336 290.41 410.379 291.808C410.379 291.808 410.379 291.828 410.398 291.828C412.046 292.383 413.828 293.111 415.705 294.031L415.725 294.05C418.714 295.488 421.952 297.384 425.459 299.722C434.177 305.547 444.658 313.806 454.89 322.237Z" fill="#0D0B54" fill-opacity="0.45"/>
<path d="M419.155 304.896C418.695 304.455 418.235 304.033 417.737 303.612H417.717C417.545 303.459 417.373 303.324 417.2 303.19C417.066 303.095 416.951 302.999 416.817 302.903C416.606 302.73 416.395 302.596 416.165 302.462C415.955 302.309 415.744 302.175 415.514 302.041C415.514 302.041 415.514 302.041 415.495 302.041C415.361 301.964 415.246 301.907 415.111 301.83C415.035 301.792 414.939 301.753 414.862 301.715C414.882 301.715 414.862 301.696 414.862 301.696C414.594 301.562 414.326 301.447 414.058 301.332C414.249 301.811 414.479 302.251 414.709 302.673C415.514 304.091 416.549 305.298 417.622 306.429C418.043 306.831 418.465 307.214 418.905 307.597C419.25 307.885 419.595 308.153 419.959 308.421C419.978 308.441 419.998 308.46 420.017 308.46C420.017 308.479 420.036 308.479 420.036 308.479C420.86 309.073 421.741 309.59 422.719 309.993C421.875 307.962 420.572 306.371 419.155 304.896ZM419.155 304.896C418.695 304.455 418.235 304.033 417.737 303.612H417.717C417.545 303.459 417.373 303.324 417.2 303.19C417.066 303.095 416.951 302.999 416.817 302.903C416.606 302.73 416.395 302.596 416.165 302.462C415.955 302.309 415.744 302.175 415.514 302.041C415.514 302.041 415.514 302.041 415.495 302.041C415.361 301.964 415.246 301.907 415.111 301.83C415.035 301.792 414.939 301.753 414.862 301.715C414.882 301.715 414.862 301.696 414.862 301.696C414.594 301.562 414.326 301.447 414.058 301.332C414.249 301.811 414.479 302.251 414.709 302.673C415.514 304.091 416.549 305.298 417.622 306.429C418.043 306.831 418.465 307.214 418.905 307.597C419.25 307.885 419.595 308.153 419.959 308.421C419.978 308.441 419.998 308.46 420.017 308.46C420.017 308.479 420.036 308.479 420.036 308.479C420.86 309.073 421.741 309.59 422.719 309.993C421.875 307.962 420.572 306.371 419.155 304.896Z" fill="#171F3F"/>
<path opacity="0.1" d="M446.843 327.813C442.627 330.342 438.162 332.527 433.506 334.27C432.414 334.692 431.303 335.075 430.191 335.458C427.681 336.282 425.094 336.991 422.488 337.566C422.469 337.566 422.45 337.566 422.431 337.585C420.132 338.083 417.794 338.505 415.418 338.811C414.958 338.869 414.479 338.926 414 338.984C408.999 331.128 404.783 324.038 401.852 318.5V318.481C401.679 318.155 401.507 317.849 401.353 317.542C400.319 315.53 399.418 313.633 398.652 311.851C398.077 310.51 397.579 309.226 397.157 308C396.889 307.195 396.64 306.41 396.41 305.643C396.218 304.972 396.065 304.34 395.912 303.727C395.777 303.095 395.663 302.481 395.567 301.887C395.318 300.297 395.241 298.86 395.337 297.595C395.413 296.446 395.643 295.43 396.007 294.568C396.199 294.108 396.41 293.686 396.678 293.303C396.812 293.112 396.946 292.939 397.08 292.767C397.234 292.594 397.387 292.422 397.559 292.268C397.713 292.115 397.885 291.981 398.077 291.847C398.154 291.789 398.23 291.732 398.307 291.694C398.403 291.617 398.479 291.56 398.575 291.502C398.69 291.425 398.824 291.368 398.958 291.291C399.035 291.253 399.112 291.215 399.207 291.176C399.227 291.157 399.246 291.157 399.265 291.138C399.648 290.966 400.07 290.831 400.51 290.716C401.028 290.582 401.603 290.486 402.216 290.448L402.637 290.793L409.42 296.503C409.42 296.503 409.44 296.522 409.459 296.522L414.958 301.121L417.583 303.325L446.843 327.813Z" fill="black"/>
<path d="M430.192 335.458C427.682 336.282 425.095 336.991 422.489 337.566C422.47 337.566 422.451 337.566 422.431 337.585C420.132 338.083 417.794 338.505 415.418 338.811C414.958 338.869 414.479 338.926 414 338.984C410.973 339.329 407.888 339.501 404.765 339.501C395.567 339.501 386.715 337.968 378.456 335.152C378.379 335.132 378.322 335.113 378.245 335.094C378.188 335.056 378.111 335.037 378.054 335.017C377.747 334.902 377.441 334.807 377.134 334.692C369.029 331.76 361.517 327.583 354.83 322.39C357.11 318.385 359.218 314.86 361.192 311.775C362.61 309.552 363.932 307.559 365.196 305.777C365.196 305.739 365.216 305.739 365.216 305.739L365.235 305.72C371.922 296.177 376.54 292.268 380.142 290.371C380.372 290.256 380.602 290.141 380.813 290.046C381.081 289.892 381.349 289.777 381.599 289.682C382.078 289.471 382.537 289.318 382.978 289.164C386.849 287.861 392.635 287.191 398.173 287.689C402.868 288.11 407.39 289.375 410.379 291.808C410.379 291.808 410.379 291.828 410.398 291.828C411.26 292.537 412.008 293.361 412.582 294.28V294.299C413.253 295.353 413.905 296.446 414.537 297.576C414.767 297.978 414.997 298.381 415.227 298.802C416.032 300.259 416.817 301.753 417.584 303.324C417.641 303.42 417.699 303.516 417.718 303.612H417.737C418.12 304.398 418.503 305.183 418.887 306.007C419.27 306.812 419.653 307.617 420.017 308.46C420.017 308.479 420.036 308.479 420.036 308.479C423.581 316.335 426.915 325.283 429.981 334.807C430.058 335.017 430.115 335.228 430.192 335.458Z" fill="#0D0B54" fill-opacity="0.45"/>
<path d="M402.389 332.105C400.357 332.143 398.326 332.335 396.276 333.178C398.326 334.04 400.357 334.213 402.389 334.251C404.439 334.213 406.489 334.021 408.52 333.178C406.489 332.335 404.439 332.143 402.389 332.105ZM367.592 304.206C367.304 304.34 367.036 304.512 366.768 304.666C366.499 304.819 366.231 304.992 365.982 305.183C365.848 305.26 365.733 305.336 365.637 305.432C365.503 305.528 365.369 305.624 365.235 305.72L365.216 305.739C365.216 305.739 365.196 305.739 365.196 305.777C365.158 305.796 365.139 305.815 365.12 305.835C364.507 306.314 363.951 306.831 363.395 307.348C361.977 308.824 360.674 310.414 359.812 312.445C360.291 312.254 360.751 312.024 361.192 311.775C362.59 310.989 363.798 309.954 364.909 308.881C366.327 307.425 367.63 305.815 368.473 303.784C368.166 303.918 367.879 304.053 367.592 304.206ZM418.887 306.007C418.503 305.202 418.12 304.398 417.718 303.612C417.545 303.459 417.373 303.324 417.2 303.19C417.066 303.095 416.951 302.999 416.817 302.903C416.606 302.73 416.396 302.596 416.166 302.462C415.955 302.309 415.744 302.175 415.514 302.041C415.514 302.041 415.514 302.041 415.495 302.041C415.361 301.964 415.246 301.907 415.112 301.83C415.035 301.792 414.939 301.734 414.863 301.696C414.594 301.562 414.326 301.447 414.058 301.332C414.249 301.811 414.479 302.251 414.709 302.673C415.514 304.091 416.549 305.298 417.622 306.429C418.043 306.831 418.465 307.214 418.906 307.597C419.251 307.885 419.595 308.153 419.96 308.421C419.979 308.441 419.998 308.46 420.017 308.46C419.653 307.617 419.27 306.812 418.887 306.007ZM418.887 306.007C418.503 305.202 418.12 304.398 417.718 303.612C417.545 303.459 417.373 303.324 417.2 303.19C417.066 303.095 416.951 302.999 416.817 302.903C416.606 302.73 416.396 302.596 416.166 302.462C415.955 302.309 415.744 302.175 415.514 302.041C415.514 302.041 415.514 302.041 415.495 302.041C415.361 301.964 415.246 301.907 415.112 301.83C415.035 301.792 414.939 301.734 414.863 301.696C414.594 301.562 414.326 301.447 414.058 301.332C414.249 301.811 414.479 302.251 414.709 302.673C415.514 304.091 416.549 305.298 417.622 306.429C418.043 306.831 418.465 307.214 418.906 307.597C419.251 307.885 419.595 308.153 419.96 308.421C419.979 308.441 419.998 308.46 420.017 308.46C419.653 307.617 419.27 306.812 418.887 306.007Z" fill="#171F3F"/>
<path d="M385.948 303.918C385.412 308.345 384.128 313.863 382.001 320.551C380.353 325.686 378.724 330.38 377.134 334.692C369.029 331.76 361.517 327.583 354.83 322.39C353.221 321.145 351.649 319.822 350.155 318.462C352.876 314.84 355.616 311.334 358.337 307.981C367.381 296.848 375.122 290.812 380.142 290.371C380.334 290.352 380.526 290.333 380.717 290.333C384.99 290.333 387.06 294.74 385.948 303.918Z" fill="#9291B2"/>
<path d="M387.021 305.528C386.485 310.433 385.431 314.821 385.182 315.799C384.281 319.42 382.48 324.498 380.276 330.112V330.131C379.625 331.741 378.935 333.408 378.245 335.094C378.188 335.056 378.111 335.037 378.054 335.017C377.747 334.902 377.44 334.807 377.134 334.692C369.029 331.76 361.517 327.583 354.83 322.39C353.22 321.145 351.649 319.822 350.155 318.462C349.618 317.983 349.101 317.504 348.603 317.025C354.408 309.629 360.023 303.42 365.081 298.956C372.478 292.441 377.517 289.835 380.909 289.682C381.158 289.662 381.388 289.662 381.598 289.682C387.443 290.007 387.807 298.342 387.021 305.528Z" fill="#0D0B54" fill-opacity="0.45"/>
<path d="M367.592 304.206C367.304 304.34 367.036 304.512 366.768 304.666C366.499 304.819 366.231 304.992 365.982 305.183C365.848 305.26 365.733 305.336 365.637 305.432C365.484 305.547 365.33 305.662 365.196 305.777C365.158 305.796 365.139 305.815 365.12 305.835C364.507 306.314 363.951 306.831 363.395 307.348C361.977 308.824 360.674 310.414 359.812 312.445C360.291 312.254 360.751 312.024 361.192 311.775C362.59 310.989 363.798 309.954 364.909 308.881C366.327 307.425 367.63 305.815 368.473 303.784C368.166 303.918 367.879 304.053 367.592 304.206Z" fill="#171F3F"/>
<path d="M380.276 330.112C380.276 330.15 380.276 330.15 380.276 330.17C379.682 331.837 379.069 333.504 378.456 335.152C378.379 335.132 378.322 335.113 378.245 335.094C378.188 335.056 378.111 335.037 378.054 335.017C378.763 333.389 379.472 331.76 380.142 330.112C380.161 330.035 380.257 330.055 380.276 330.112Z" fill="#263238"/>
<path d="M404.247 318.769C395.605 319.094 383.917 303.669 380.334 292.345C380.085 291.559 382.633 284.393 385.297 275.521C386.887 270.137 388.535 264.101 389.646 258.487C389.876 257.337 423.198 273.988 423.198 273.988C423.198 273.988 417.411 285.083 415.533 294.893C415.38 295.717 415.322 296.484 415.322 297.25C415.322 297.365 415.322 297.499 415.303 297.634C415.15 302.156 412.602 318.462 404.247 318.769Z" fill="#FFC4C0"/>
<path d="M391.792 259.062C391.562 268.872 392.942 292.996 411.643 297.116C412.946 297.404 414.154 297.576 415.284 297.634C415.322 297.48 415.303 297.346 415.322 297.231C415.322 296.465 415.38 295.698 415.533 294.893C417.411 285.064 423.198 273.988 423.198 273.988C423.198 273.988 399.15 261.974 391.792 259.062Z" fill="#263238"/>
<path d="M383.648 221.544C380.027 234.363 387.538 270.98 396.755 278.99C410.129 290.601 431.647 291.272 441.401 275.291C450.866 259.79 440.251 212.231 429.98 204.988C414.862 194.315 388.994 202.612 383.648 221.544Z" fill="#FFC4C0"/>
<path d="M415.725 244.672C415.686 244.576 415.552 244.825 415.591 244.94C416.261 247.373 416.606 250.267 414.575 251.608C414.518 251.646 414.556 251.78 414.633 251.742C417.238 250.707 416.74 246.875 415.725 244.672Z" fill="#263238"/>
<path d="M412.908 242.64C408.903 243.292 410.474 251.263 414.192 250.669C417.871 250.075 416.28 242.104 412.908 242.64Z" fill="#263238"/>
<path d="M429.885 241.836C429.885 241.74 430.095 241.912 430.114 242.008C430.536 244.499 431.417 247.277 433.813 247.642C433.889 247.661 433.908 247.776 433.813 247.776C431.015 247.948 429.865 244.25 429.885 241.836Z" fill="#263238"/>
<path d="M431.571 238.808C435.48 237.716 437.377 245.63 433.755 246.626C430.191 247.642 428.294 239.728 431.571 238.808Z" fill="#263238"/>
<path d="M409.171 238.732C410.206 238.252 411.087 237.62 412.045 237.045C413.138 236.394 414.077 235.972 414.651 234.765C414.958 234.114 414.594 233.136 413.981 232.772C412.582 231.948 411.03 232.408 409.669 233.156C408.194 233.96 407.274 234.957 406.642 236.509C406.048 238.003 407.811 239.364 409.171 238.732Z" fill="#263238"/>
<path d="M434.522 235.57C433.391 235.704 432.318 235.627 431.188 235.627C429.904 235.647 428.888 235.781 427.777 235.033C427.183 234.631 426.972 233.596 427.317 232.983C428.083 231.546 429.655 231.144 431.188 231.067C432.855 230.99 434.177 231.354 435.518 232.351C436.802 233.328 436.016 235.417 434.522 235.57Z" fill="#263238"/>
<path d="M417.238 266.324C417.736 266.995 418.215 267.895 419.097 268.106C419.959 268.317 421.032 268.087 421.875 267.895C421.952 267.876 422.029 267.972 421.971 268.048C421.185 268.911 419.729 269.294 418.599 268.911C417.507 268.547 417.104 267.474 416.989 266.401C416.97 266.247 417.162 266.228 417.238 266.324Z" fill="#263238"/>
<path d="M419.365 259.1C421.166 260.978 423.447 261.744 425.727 261.725C426.742 261.725 427.777 261.553 428.773 261.265C428.965 261.227 429.157 261.169 429.329 261.093C429.502 261.035 429.655 260.978 429.847 260.901C430.134 260.805 430.23 260.537 430.23 260.25V260.231C430.211 260.135 430.191 260.077 430.153 259.981C430.153 259.981 430.153 259.981 430.153 259.962L430.115 259.752C429.789 257.835 429.023 254.98 429.023 254.98C429.789 255.191 433.64 256.073 433.391 255.095C431.264 246.971 428.908 237.927 425.075 230.281C424.96 230.013 424.558 230.166 424.635 230.435C426.359 238.329 429.482 245.86 431.341 253.754C430.134 253.543 428.122 253.122 427.126 253.332C426.877 253.467 428.697 258.832 428.773 259.694C428.773 259.694 428.773 259.732 428.773 259.79C425.65 260.825 423.063 260.346 419.538 258.813C419.327 258.736 419.174 258.928 419.365 259.1Z" fill="#263238"/>
<path d="M382.211 250.209C391.926 250.688 396.755 239 394.283 229.745C394.283 229.745 420.17 232.619 420.975 211.867C420.975 211.867 426.244 220.758 437.952 220.816L440.998 228.404C443.624 227.58 446.287 219.992 439.695 214.224C439.695 214.224 439.025 203.896 431.284 197.86C423.542 191.824 416.05 196.059 416.05 196.059C416.05 196.059 409.88 191.135 400.396 192.553C390.911 193.971 387.174 202.727 387.174 202.727C387.174 202.727 374.432 205.448 372.458 214.569C370.465 223.69 375.294 229.687 375.294 229.687C375.294 229.687 372.152 233.328 373.953 241.05C375.102 245.994 379.28 250.056 382.211 250.209Z" fill="#263238"/>
<path d="M420.362 210.028C420.572 211.714 420.668 213.419 420.534 215.086C420.477 216.773 420.151 218.42 419.71 220.011C418.733 223.172 416.721 225.951 413.885 227.58C411.145 229.419 407.696 229.783 404.419 230.166C402.752 230.147 401.066 230.262 399.38 230.147C397.694 230.013 396.008 229.841 394.302 229.745C395.969 230.109 397.636 230.396 399.323 230.741C401.009 230.971 402.733 230.971 404.458 231.105C407.869 230.895 411.452 230.53 414.517 228.614C417.545 226.775 419.768 223.671 420.592 220.279C421.377 216.849 421.243 213.324 420.362 210.028Z" fill="#263238"/>
<path d="M433.909 221.735C431.015 220.758 428.294 219.474 425.995 217.692C424.807 216.83 423.811 215.757 422.91 214.607C421.971 213.458 421.358 212.116 420.649 210.737C420.86 212.251 421.281 213.783 422.144 215.125C422.929 216.485 424.002 217.692 425.267 218.65C426.531 219.608 427.911 220.375 429.387 220.892C430.843 221.371 432.376 221.716 433.909 221.735Z" fill="#263238"/>
<path d="M392.137 251.34C392.137 251.34 383.342 239.805 378.073 242.985C372.803 246.166 379.759 263.143 386.197 265.232C392.616 267.32 394.685 261.419 394.685 261.419L392.137 251.34Z" fill="#FFC4C0"/>
<path d="M380.199 247.795C380.104 247.795 380.084 247.929 380.18 247.967C384.702 249.577 387.193 253.601 389.014 257.797C387.634 256.207 385.794 255.383 383.648 257.05C383.533 257.146 383.648 257.318 383.782 257.28C385.584 256.82 386.906 257.069 388.19 258.487C389.109 259.483 389.742 260.767 390.412 261.917C390.642 262.3 391.351 262.07 391.179 261.61C391.16 261.572 391.16 261.534 391.14 261.514C391.026 255.862 386.293 248.121 380.199 247.795Z" fill="#263238"/>
<g opacity="0.2">
<path d="M403.806 254.77C403.787 255.095 403.519 255.344 403.193 255.325C402.867 255.306 402.618 255.038 402.637 254.712C402.656 254.386 402.925 254.137 403.25 254.156C403.557 254.176 403.806 254.444 403.806 254.77Z" fill="black"/>
<path d="M416.127 254.731C416.108 255.057 415.84 255.306 415.514 255.287C415.188 255.268 414.939 255 414.958 254.674C414.977 254.348 415.246 254.099 415.571 254.118C415.878 254.137 416.146 254.406 416.127 254.731Z" fill="black"/>
<path d="M411.605 258.851C411.586 259.177 411.318 259.426 410.992 259.407C410.666 259.387 410.417 259.119 410.436 258.793C410.455 258.468 410.724 258.219 411.049 258.238C411.375 258.257 411.624 258.525 411.605 258.851Z" fill="black"/>
<path d="M404.343 249.922C404.324 250.247 404.055 250.497 403.73 250.477C403.404 250.458 403.155 250.19 403.174 249.864C403.193 249.539 403.461 249.289 403.787 249.309C404.094 249.328 404.362 249.596 404.343 249.922Z" fill="black"/>
<path d="M409.995 253.486C409.976 253.812 409.708 254.061 409.382 254.041C409.056 254.022 408.807 253.754 408.826 253.428C408.845 253.103 409.114 252.853 409.439 252.873C409.765 252.892 410.014 253.16 409.995 253.486Z" fill="black"/>
<path d="M440.615 246.3C440.596 246.626 440.328 246.875 440.002 246.856C439.676 246.837 439.427 246.569 439.446 246.243C439.466 245.917 439.734 245.668 440.06 245.687C440.385 245.706 440.634 245.975 440.615 246.3Z" fill="black"/>
<path d="M435.901 249.443C435.882 249.768 435.614 250.018 435.288 249.998C434.962 249.979 434.713 249.711 434.732 249.385C434.752 249.059 435.02 248.81 435.346 248.83C435.652 248.849 435.901 249.117 435.901 249.443Z" fill="black"/>
<path d="M436.898 253.352C436.879 253.677 436.611 253.926 436.285 253.907C435.959 253.888 435.71 253.62 435.729 253.294C435.748 252.968 436.016 252.719 436.342 252.738C436.668 252.758 436.917 253.045 436.898 253.352Z" fill="black"/>
<path d="M441.018 250.842C440.998 251.167 440.73 251.416 440.404 251.397C440.079 251.378 439.83 251.11 439.849 250.784C439.868 250.458 440.136 250.209 440.462 250.228C440.768 250.248 441.018 250.516 441.018 250.842Z" fill="black"/>
</g>
<path d="M905.617 769.386C900.271 771.322 742.132 774.445 736.173 770.804C735.483 770.44 732.896 718.111 732.896 718.111C733.088 717.363 730.444 712.324 726.42 705.311C715.134 685.632 693.098 650.394 693.098 650.394L786.97 622.016L825.522 699.256L835.352 718.954C835.352 718.954 856.909 727.385 875.725 735.777C875.744 735.797 875.783 735.797 875.783 735.835C887.375 740.989 897.435 745.722 899.792 747.485C905.808 752.141 910.944 767.49 905.617 769.386Z" fill="#FFC4C0"/>
<path d="M905.617 769.386C900.271 771.322 742.132 774.445 736.173 770.804C735.483 770.44 732.896 718.111 732.896 718.111C733.088 717.363 730.444 712.324 726.42 705.311L825.522 699.237L835.352 718.935C835.352 718.935 856.909 727.366 875.725 735.758C875.744 735.777 875.783 735.777 875.783 735.816C887.375 740.97 897.435 745.703 899.792 747.466C905.808 752.141 910.944 767.489 905.617 769.386Z" fill="#171F3F"/>
<path d="M906.268 769.98C900.769 771.935 742.4 774.637 736.307 770.939C733.989 769.54 731.191 745.166 732.896 718.13L834.988 716.501C834.988 716.501 894.12 742.637 900.367 747.428C906.613 752.199 911.768 768.026 906.268 769.98Z" fill="#0D0B54" fill-opacity="0.45"/>
<path opacity="0.1" d="M736.326 770.919C738.549 772.261 761.064 772.778 789.001 772.778L735.407 718.072L735.387 718.053L732.896 718.111C731.191 745.147 733.989 769.521 736.326 770.919Z" fill="#171F3F"/>
<path d="M903.892 763.676C877.335 763.485 770.204 765.19 743.933 767.01C743.723 767.03 743.723 767.164 743.933 767.183C770.261 767.949 877.373 765.363 903.892 764.117C904.467 764.079 904.448 763.676 903.892 763.676Z" fill="#E1E5FA"/>
<path d="M843.362 719.011C832.727 719.05 820.483 723.016 814.026 731.811C813.776 732.156 814.256 732.501 814.581 732.328C824.104 727.212 833.168 723.361 843.572 720.314C844.301 720.084 844.128 719.011 843.362 719.011Z" fill="#E1E5FA"/>
<path d="M851.62 722.058C840.986 722.096 828.742 726.063 822.284 734.858C822.035 735.203 822.514 735.547 822.84 735.375C832.363 730.259 841.427 726.408 851.831 723.361C852.559 723.15 852.387 722.058 851.62 722.058Z" fill="#E1E5FA"/>
<path d="M750.276 741.698C738.357 741.928 738.702 760.457 750.64 760.227C762.558 759.978 762.213 741.449 750.276 741.698Z" fill="#E1E5FA"/>
<path d="M791.932 716.463C792.641 709.507 800.536 707.878 806.15 708.856C815.233 710.446 825.235 715.371 832.075 721.483C832.248 721.636 832.19 721.828 832.056 721.924C832.42 722.633 832.229 723.706 831.29 723.878C822.227 725.449 812.722 728.247 803.448 726.982C798.045 726.235 791.262 723.035 791.932 716.463ZM817.072 723.437C821.556 722.767 825.963 721.905 830.466 721.406C825.407 718.954 820.464 716.309 815.156 714.374C812.627 713.454 810.002 712.554 807.357 711.979C803.257 711.098 789.576 712.056 796.934 721.061C800.977 726.005 811.726 724.223 817.072 723.437Z" fill="#E1E5FA"/>
<path d="M719.272 704.295L830.619 687.414C830.619 687.414 777.101 580.743 743.952 522.837C725.538 490.646 675.125 489.075 650.617 527.647C617.87 579.172 592.462 627.439 577.9 654.207L552.645 656.373L558.087 697.646L642.033 716.444C674.186 720.295 696.758 663.041 697.275 664.018C701.376 671.529 719.272 704.295 719.272 704.295Z" fill="#262F52"/>
<path d="M697.888 664.267C694.726 657.791 692.255 650.893 689.438 644.244C686.717 637.805 683.977 631.386 681.275 624.948C675.814 611.937 670.162 598.984 664.854 585.916C661.884 578.578 659.144 571.143 656.365 563.728C656.308 563.555 656.02 563.632 656.078 563.823C658.224 570.836 660.466 577.811 662.804 584.767C662.171 583.559 661.558 582.372 660.907 581.203C659.125 578.003 657.266 574.841 655.426 571.679C655.35 571.564 655.177 571.679 655.235 571.794C656.94 574.975 658.646 578.137 660.428 581.26C661.309 582.812 662.267 584.364 663.206 585.916C669.817 605.365 677.309 624.488 686.295 642.979C689.84 650.241 693.979 657.197 697.524 664.459C697.658 664.708 698.003 664.497 697.888 664.267Z" fill="#E1E5FA"/>
<path d="M721.763 684.502C716.398 676.224 703.617 651.142 699.038 642.481C689.783 624.948 681.294 607.051 673.285 588.925C668.763 578.673 664.528 568.345 660.332 557.96C660.313 557.883 660.198 557.922 660.217 557.998C666.521 576.7 674.032 595.037 682.195 613.011C690.358 631.003 716.705 679.5 721.438 684.732C721.591 684.904 721.897 684.712 721.763 684.502Z" fill="#E1E5FA"/>
<path d="M652.629 571.794C643.029 588.925 633.238 605.94 623.6 623.051C618.733 631.693 613.866 640.354 609.037 649.015C606.776 653.096 604.572 657.235 602.216 661.259C599.993 665.072 597.329 668.234 593.421 670.38C589.109 672.756 584.146 673.886 579.452 675.247C574.029 676.837 568.664 678.542 563.222 680.037C562.973 680.114 563.088 680.478 563.337 680.42C568.185 679.117 573.09 678.006 577.957 676.799C582.384 675.706 586.944 674.787 591.236 673.216C595.126 671.798 598.479 669.69 601.085 666.413C603.863 662.907 605.837 658.806 607.983 654.897C617.602 637.307 627.145 619.64 636.591 601.954C641.975 591.895 647.302 581.816 652.744 571.794C652.744 571.794 652.667 571.737 652.629 571.794Z" fill="#E1E5FA"/>
<path d="M716.743 688.679C723.411 687.472 730.252 686.878 736.977 686.015C743.722 685.153 750.467 684.272 757.212 683.39C770.663 681.627 816.478 674.346 819.927 673.196C820.138 673.12 820.061 672.775 819.85 672.756C816.574 672.66 786.567 676.645 779.841 677.642C766.39 679.615 753.015 682.011 739.602 684.272C735.77 684.923 731.957 685.651 728.144 686.322C724.331 686.993 720.518 687.817 716.666 688.315C716.436 688.334 716.513 688.717 716.743 688.679Z" fill="#E1E5FA"/>
<path d="M787.219 793.223C785.207 787.916 684.361 666.049 677.731 663.903C676.964 663.616 635.652 695.807 635.652 695.807C634.005 698.221 552.224 684.636 552.224 684.636L555.673 782.435L703.158 772.874C703.158 772.874 723.603 783.738 742.266 792.476C742.305 792.476 742.305 792.495 742.324 792.476C753.801 797.899 763.957 802.459 766.812 803.072C774.285 804.643 789.269 798.493 787.219 793.223Z" fill="#FFC4C0"/>
<path d="M766.812 803.072C763.938 802.459 753.802 797.918 742.324 792.476C742.305 792.495 742.286 792.476 742.247 792.476C723.603 783.719 703.158 772.855 703.158 772.855L670.335 774.982L615.303 694.216C626.685 695.73 635.154 696.554 635.672 695.788C635.672 695.788 676.965 663.597 677.731 663.903C684.342 666.049 785.188 787.896 787.219 793.204C789.25 798.493 774.285 804.663 766.812 803.072Z" fill="#171F3F"/>
<path d="M788.1 793.338C785.993 787.896 684.706 666.126 677.922 663.922C675.355 663.079 655.063 676.856 635.672 695.788L701.05 774.215C701.05 774.215 759.435 801.961 767.157 803.589C774.841 805.199 790.208 798.78 788.1 793.338Z" fill="#0D0B54" fill-opacity="0.45"/>
<path d="M781.777 795.657C764.302 775.652 695.685 693.354 679.934 672.277C679.8 672.104 679.915 672.008 680.068 672.162C697.831 691.611 765.758 774.464 782.122 795.388C782.448 795.81 782.141 796.078 781.777 795.657Z" fill="#E1E5FA"/>
<path d="M756.254 799.412C752.039 794.737 750.391 788.088 751.081 783.049C751.732 778.201 753.84 772.797 758.19 769.425C758.304 769.329 758.496 769.559 758.4 769.674C751.387 777.492 750.41 790.579 756.522 799.202C756.637 799.374 756.407 799.566 756.254 799.412Z" fill="#E1E5FA"/>
<path d="M708.427 778.929C701.51 770.862 696.528 758.982 698.98 748.347C699.076 747.926 699.651 748.079 699.728 748.424C702.065 758.982 705.074 768.352 709.538 778.239C709.864 778.929 708.925 779.523 708.427 778.929Z" fill="#E1E5FA"/>
<path d="M716.13 783.202C709.213 775.135 704.231 763.255 706.684 752.62C706.779 752.218 707.354 752.352 707.431 752.697C709.769 763.255 712.777 772.625 717.241 782.512C717.567 783.202 716.628 783.777 716.13 783.202Z" fill="#E1E5FA"/>
<path d="M723.833 787.456C716.915 779.389 711.934 767.509 714.386 756.874C714.482 756.472 715.057 756.606 715.133 756.951C717.471 767.509 720.479 776.879 724.944 786.766C725.27 787.456 724.331 788.03 723.833 787.456Z" fill="#E1E5FA"/>
<path d="M731.536 791.729C724.619 783.662 719.637 771.782 722.089 761.147C722.185 760.726 722.76 760.879 722.837 761.224C725.174 771.782 728.183 781.152 732.647 791.039C732.973 791.729 732.034 792.303 731.536 791.729Z" fill="#E1E5FA"/>
<path d="M664.874 693.584C657.286 684.387 671.542 672.564 679.149 681.781C686.737 690.959 672.481 702.782 664.874 693.584Z" fill="#E1E5FA"/>
<path d="M693.96 805.889C687.101 804.605 686.104 796.615 687.541 791.096C689.879 782.167 695.589 772.606 702.257 766.302C702.43 766.148 702.602 766.225 702.698 766.359C703.426 766.052 704.499 766.321 704.576 767.279C705.4 776.438 707.393 786.134 705.381 795.273C704.212 800.62 700.456 807.115 693.96 805.889ZM703.005 781.439C702.717 776.917 702.2 772.452 702.085 767.93C699.23 772.778 696.183 777.473 693.807 782.608C692.677 785.06 691.565 787.59 690.78 790.177C689.553 794.2 689.4 807.901 698.962 801.309C704.212 797.669 703.349 786.804 703.005 781.439Z" fill="#E1E5FA"/>
<path d="M688.423 743.48C695.436 749.689 699.517 758.714 704.231 766.608C704.729 767.432 704.02 768.275 703.254 768.467C703.254 768.639 703.158 768.812 702.928 768.773C693.826 767.585 683.575 763.217 676.447 757.372C672.04 753.751 668.131 746.719 672.94 741.641C677.481 736.831 684.322 739.859 688.423 743.48ZM679.666 742.426C668.054 742.733 676.236 753.712 679.589 756.242C681.735 757.871 684.131 759.269 686.487 760.591C691.412 763.351 696.643 765.363 701.816 767.585C699.249 763.849 697.045 759.94 694.612 756.108C691.738 751.547 686.066 742.254 679.666 742.426Z" fill="#E1E5FA"/>
<path d="M599.763 659.937C599.763 659.937 473.298 642.96 431.91 654.112C374.176 669.671 367.566 739.016 412.02 765.401C468.355 798.838 663.762 780.213 663.762 780.213L609.21 688.276C609.21 688.276 527.352 673.024 453.964 678.945L602.024 697.263L599.763 659.937Z" fill="#262F52"/>
<path d="M612.984 694.446C612.908 694.331 612.889 694.082 612.85 693.948C612.812 693.814 612.774 693.68 612.735 693.546C612.659 693.239 612.563 692.913 612.467 692.607C612.275 691.955 612.026 691.342 611.777 690.71C611.528 690.078 611.241 689.484 610.953 688.87C610.647 688.238 610.264 687.74 609.899 687.184C609.861 687.127 609.804 687.127 609.746 687.088C609.708 687.069 609.689 687.05 609.65 687.012C609.612 686.993 609.574 686.954 609.516 686.954C609.478 686.935 609.44 686.916 609.382 686.897C600.395 685.46 539.405 678.542 530.361 677.814C521.24 677.067 512.081 676.53 502.941 676.09C484.699 675.208 466.4 675.17 448.197 676.301C446.491 676.416 444.786 676.55 443.081 676.703C442.717 676.588 442.314 676.53 441.95 676.454C441.069 676.262 440.187 676.051 439.287 675.917C437.62 675.649 435.953 675.457 434.286 675.247C430.817 674.825 427.33 674.557 423.881 674.001C423.67 673.963 423.613 674.308 423.823 674.365C427.311 675.055 430.741 676.013 434.228 676.684C435.224 676.875 436.24 677.067 437.256 677.259C430.587 677.929 423.938 678.792 417.289 679.75C417.079 679.788 417.098 680.133 417.309 680.114C426.353 679.136 435.512 678.657 444.594 678.427C453.639 678.197 462.663 678.025 471.708 678.198C489.988 678.562 508.287 679.558 526.547 680.861C536.799 681.589 598.977 688.832 609.229 688.851C609.267 688.851 609.305 688.832 609.363 688.832C609.459 689.081 609.555 689.349 609.689 689.599C609.995 690.193 610.302 690.787 610.628 691.381C610.953 691.936 611.26 692.511 611.624 693.048C611.796 693.316 611.988 693.584 612.16 693.833C612.256 693.967 612.333 694.101 612.429 694.236C612.505 694.351 612.678 694.523 612.716 694.657C612.774 694.849 613.119 694.676 612.984 694.446Z" fill="#E1E5FA"/>
<path d="M635.729 774.464C632.51 769.176 629.712 763.504 626.723 758.043C623.734 752.563 620.745 747.083 617.756 741.602C611.777 730.68 590.451 693.967 588.381 691.438C588.247 691.285 587.998 691.476 588.075 691.668C589.129 694.542 602.503 718.858 605.588 724.281C611.739 735.126 618.158 745.741 624.501 756.433C626.321 759.48 628.18 762.507 630.019 765.535C631.839 768.562 633.794 771.552 635.48 774.675C635.576 774.847 635.844 774.656 635.729 774.464Z" fill="#E1E5FA"/>
<path d="M585.066 701.498C579.625 700.31 574.087 699.62 568.588 698.739C563.088 697.838 557.589 696.956 552.09 696.075C541.091 694.312 530.073 692.664 519.055 691.112C497.077 688.027 475.023 685.613 452.91 684.253C440.417 683.486 427.924 683.16 415.431 682.7C415.163 682.7 415.201 683.16 415.469 683.16C437.696 683.294 459.981 685.632 482.093 688.161C503.995 690.652 525.839 693.488 547.683 696.573C553.853 697.436 560.003 698.336 566.173 699.237C572.42 700.156 578.705 701.344 584.99 701.938C585.22 701.919 585.315 701.555 585.066 701.498Z" fill="#E1E5FA"/>
<path d="M585.086 543.206C597.196 564.341 645.425 629.547 660.601 631.712C676.39 633.973 734.602 628.972 745.217 616.479C750.41 610.366 742.037 557.883 733.97 560.815C725.903 563.747 676.102 575.78 669.702 574.841C663.341 573.921 611.701 523.929 592.674 513.161C559.869 494.536 578.552 531.805 585.086 543.206Z" fill="#9291B2"/>
<path d="M721.151 562.463L733.433 627.497C733.433 627.497 675.125 639.453 657.937 634.414C640.73 629.374 592.693 561.064 578.686 534.047C564.679 507.029 576.923 499.939 602.063 516.763C627.222 533.587 667.556 571.335 671.465 571.507C675.374 571.641 721.151 562.463 721.151 562.463Z" fill="#0D0B54" fill-opacity="0.45"/>
<path d="M595.95 521.764C597.311 523.182 598.594 524.734 599.418 526.708C597.445 525.884 595.893 524.619 594.475 523.24C593.114 521.822 591.83 520.269 591.007 518.296C592.98 519.12 594.513 520.404 595.95 521.764ZM721.745 620.867C723.737 620.905 725.711 621.097 727.685 621.901C725.711 622.725 723.737 622.917 721.745 622.955C719.771 622.917 717.797 622.725 715.804 621.901C717.797 621.097 719.771 620.905 721.745 620.867ZM626.455 601.437C628.448 601.475 630.421 601.667 632.414 602.472C630.421 603.296 628.448 603.487 626.455 603.526C626.206 603.526 625.919 603.506 625.669 603.506C625.171 602.874 624.654 602.242 624.137 601.59C624.941 601.495 625.689 601.456 626.455 601.437ZM667.959 617.015C668.783 618.989 668.955 620.982 668.993 622.955C668.955 624.929 668.783 626.922 667.959 628.895C667.135 626.922 666.962 624.929 666.905 622.955C666.943 620.982 667.135 618.989 667.959 617.015ZM619.116 553.457C619.94 555.431 620.132 557.404 620.151 559.397C620.113 561.371 619.94 563.363 619.116 565.337C618.292 563.363 618.12 561.371 618.082 559.397C618.082 557.404 618.292 555.431 619.116 553.457ZM595.95 521.764C597.311 523.182 598.594 524.734 599.418 526.708C597.445 525.884 595.893 524.619 594.475 523.24C593.114 521.822 591.83 520.269 591.007 518.296C592.98 519.12 594.513 520.404 595.95 521.764ZM658.665 575.358C660.026 576.776 661.31 578.309 662.134 580.302C660.16 579.459 658.608 578.213 657.19 576.815C655.829 575.397 654.546 573.864 653.722 571.871C655.695 572.714 657.247 573.979 658.665 575.358ZM717.529 563.191H717.548C717.721 563.344 717.893 563.517 718.085 563.689C719.445 565.107 720.729 566.64 721.553 568.633C719.579 567.809 718.046 566.544 716.609 565.145C716.149 564.647 715.69 564.168 715.268 563.632C716.092 563.478 716.858 563.325 717.529 563.191ZM694.056 595.382C695.474 594.022 697.007 592.738 699 591.914C698.176 593.887 696.911 595.44 695.513 596.857C694.095 598.218 692.562 599.502 690.588 600.326C691.412 598.352 692.696 596.819 694.056 595.382ZM626.455 601.437C628.448 601.475 630.421 601.667 632.414 602.472C630.421 603.296 628.448 603.487 626.455 603.526C626.206 603.526 625.919 603.506 625.669 603.506C625.171 602.874 624.654 602.242 624.137 601.59C624.941 601.495 625.689 601.456 626.455 601.437ZM619.116 553.457C619.94 555.431 620.132 557.404 620.151 559.397C620.113 561.371 619.94 563.363 619.116 565.337C618.292 563.363 618.12 561.371 618.082 559.397C618.082 557.404 618.292 555.431 619.116 553.457Z" fill="#171F3F"/>
<path d="M710.612 597.911C709.615 592.757 705.802 572.139 705.247 566.966C705.247 566.889 705.361 566.832 705.4 566.927C706.894 571.775 711.263 592.01 712.279 597.164C714.272 607.435 716.494 617.724 717.357 628.186C717.376 628.378 717.088 628.474 717.031 628.282C714.195 618.318 712.566 608.067 710.612 597.911Z" fill="#263238"/>
<path opacity="0.1" d="M578.667 534.027C592.693 561.064 640.711 629.374 657.918 634.395C670.948 638.208 707.527 632.287 724.523 629.183L579.51 507.738C571.366 508.332 570.063 517.414 578.667 534.027Z" fill="black"/>
<path d="M629.502 662.964L486.136 671.28C486.309 668.349 508.747 586.127 524.861 554.817C545.536 514.674 554.715 508.543 560.846 506.492C568.702 503.867 584.817 503.887 589.569 511.455C615.188 552.403 631.456 661.144 629.502 662.964Z" fill="#0D0B54" fill-opacity="0.45"/>
<path d="M594.551 520.519C595.318 522.051 596.065 523.604 596.793 525.251C595.95 524.638 595.183 523.968 594.455 523.259C593.095 521.841 591.811 520.289 590.987 518.315C592.348 518.871 593.497 519.637 594.551 520.519ZM551.4 653.345C552.76 654.763 554.044 656.296 554.868 658.289C552.894 657.465 551.342 656.2 549.924 654.821C548.564 653.384 547.28 651.851 546.456 649.877C548.41 650.701 549.963 651.985 551.4 653.345ZM594.551 520.519C595.318 522.051 596.065 523.604 596.793 525.251C595.95 524.638 595.183 523.968 594.455 523.259C593.095 521.841 591.811 520.289 590.987 518.315C592.348 518.871 593.497 519.637 594.551 520.519ZM510.337 590.553H510.356C510.701 590.362 511.084 590.17 511.467 589.998C510.912 591.32 510.164 592.45 509.321 593.485C509.647 592.508 510.011 591.511 510.337 590.553ZM541.857 524.159C542.432 523.604 542.988 523.086 543.62 522.588L543.639 522.569C544.578 521.841 545.594 521.189 546.782 520.691C545.958 522.665 544.693 524.217 543.314 525.635C542.241 526.669 541.091 527.647 539.73 528.413C539.309 528.662 538.849 528.911 538.37 529.103C539.213 527.129 540.459 525.577 541.857 524.159ZM580.697 591.186C582.115 589.825 583.648 588.541 585.641 587.718C584.798 589.691 583.552 591.243 582.154 592.661C580.736 594.022 579.203 595.305 577.21 596.129C578.053 594.156 579.318 592.604 580.697 591.186ZM544.712 611.018C546.686 611.056 548.679 611.248 550.652 612.072C548.679 612.876 546.686 613.068 544.712 613.106C542.72 613.068 540.746 612.876 538.772 612.072C540.746 611.267 542.72 611.075 544.712 611.018ZM579.682 548.149C581.675 548.188 583.648 548.379 585.622 549.203C583.648 550.008 581.675 550.2 579.682 550.238C577.708 550.2 575.735 550.027 573.742 549.203C575.735 548.398 577.708 548.207 579.682 548.149ZM595.203 633.801C596.026 635.774 596.218 637.748 596.256 639.741C596.199 641.714 596.026 643.688 595.203 645.681C594.379 643.688 594.206 641.714 594.168 639.741C594.206 637.748 594.379 635.774 595.203 633.801ZM513.173 627.841C513.997 629.834 514.188 631.808 514.227 633.801C514.188 635.774 513.997 637.748 513.173 639.741C512.368 637.748 512.176 635.774 512.138 633.801C512.176 631.808 512.368 629.834 513.173 627.841ZM542.566 563.728C543.39 565.701 543.582 567.675 543.62 569.667C543.582 571.641 543.39 573.615 542.566 575.608C541.761 573.615 541.57 571.641 541.532 569.667C541.57 567.675 541.761 565.701 542.566 563.728Z" fill="#171F3F"/>
<path d="M536.933 524.753C500.699 569.303 461.131 643.266 480.503 657.58C498.208 670.648 559.429 654.054 597.541 636.771C604.803 633.475 571.251 569.533 563.912 573.826C551.017 581.375 540.842 585.897 539.865 586.223C537.757 586.913 548.698 572.005 559.908 536.94C571.27 501.338 557.627 499.307 536.933 524.753Z" fill="#9291B2"/>
<path d="M658.244 563.919C658.685 571.526 639.811 571.047 639.811 571.047C639.811 571.047 644.448 573.557 645.942 578.405C647.667 583.943 639.734 589.059 639.734 589.059C639.734 589.059 643.892 592.585 644.965 597.854C646.076 603.315 638.814 609.619 638.814 609.619C638.814 609.619 640.884 615.022 638.546 620.234C634.541 629.144 619.538 630.141 610.36 632.574C600.53 635.18 586.293 640.948 580.449 643.879L559.563 576.355C559.563 576.355 598.518 550.334 609.804 550.257C619.289 550.219 657.573 552.269 658.244 563.919Z" fill="#FFC4C0"/>
<path d="M639.657 570.817C629.54 568.46 618.886 568.518 608.616 568.69C608.386 568.69 608.405 569.054 608.635 569.054C618.867 568.767 629.406 571.2 639.619 571.315C639.887 571.315 639.926 570.894 639.657 570.817Z" fill="#263238"/>
<path d="M639.408 588.292C637.109 587.832 634.656 588.12 632.338 588.273C629.827 588.446 627.336 588.656 624.845 588.906C619.844 589.404 614.862 590.017 609.9 590.783C609.689 590.822 609.67 591.167 609.919 591.147C614.901 590.668 619.883 590.247 624.884 589.959C627.375 589.825 629.885 589.71 632.395 589.595C634.714 589.5 637.185 589.595 639.446 588.982C639.772 588.886 639.753 588.369 639.408 588.292Z" fill="#263238"/>
<path d="M638.584 609.619C636.591 609.14 634.215 609.696 632.203 609.945C629.923 610.213 627.662 610.481 625.382 610.73C620.841 611.229 616.28 611.727 611.72 612.072C611.49 612.091 611.509 612.436 611.739 612.436C616.376 612.11 621.013 611.861 625.65 611.497C627.931 611.324 630.211 611.133 632.472 610.922C634.407 610.749 636.841 610.749 638.603 609.868C638.718 609.811 638.68 609.657 638.584 609.619Z" fill="#263238"/>
<path d="M557.704 575.684L576.444 648.536C576.444 648.536 485.542 677.489 474.754 654.687C463.947 631.865 513.537 542.401 543.467 516.016C573.397 489.65 563.759 529.199 562.973 532.36C559.486 546.406 541.762 583.521 541.762 583.521L557.704 575.684Z" fill="#0D0B54" fill-opacity="0.45"/>
<path d="M542.567 563.728C543.391 565.701 543.582 567.675 543.621 569.667C543.582 571.641 543.391 573.615 542.567 575.608C541.762 573.615 541.57 571.641 541.532 569.667C541.57 567.675 541.762 565.701 542.567 563.728ZM513.173 627.841C513.997 629.834 514.189 631.808 514.227 633.801C514.189 635.774 513.997 637.748 513.173 639.741C512.368 637.748 512.177 635.774 512.138 633.801C512.177 631.808 512.368 629.834 513.173 627.841ZM544.713 611.018C546.686 611.056 548.679 611.248 550.653 612.072C548.679 612.876 546.686 613.068 544.713 613.106C542.72 613.068 540.746 612.876 538.773 612.072C540.746 611.267 542.72 611.075 544.713 611.018ZM541.858 524.159C543.276 522.799 544.809 521.515 546.782 520.691C545.958 522.665 544.694 524.217 543.314 525.635C541.896 526.995 540.344 528.279 538.37 529.103C539.213 527.129 540.459 525.577 541.858 524.159ZM478.893 649.149C480.311 647.788 481.844 646.505 483.818 645.681C482.994 647.654 481.729 649.206 480.35 650.624C478.932 651.985 477.38 653.269 475.406 654.092C476.249 652.119 477.495 650.567 478.893 649.149ZM506.524 593.466C507.942 592.105 509.494 590.822 511.468 589.998C510.644 591.971 509.379 593.523 508 594.941C506.582 596.302 505.03 597.586 503.056 598.41C503.88 596.436 505.164 594.903 506.524 593.466ZM551.4 653.345C551.937 653.92 552.454 654.476 552.952 655.089C552.224 655.261 551.534 655.434 550.787 655.625C550.499 655.376 550.193 655.108 549.925 654.84C548.564 653.403 547.28 651.87 546.456 649.896C548.411 650.701 549.963 651.985 551.4 653.345Z" fill="#171F3F"/>
<path d="M556.113 575.818C545.728 580.11 518.73 595.42 512.943 601.418C512.77 601.59 512.981 601.878 513.173 601.724C518.94 597.183 552.339 578.578 557.589 576.24C557.589 576.24 557.876 576.891 558.01 577.045C558.202 577.294 558.336 577.14 558.317 576.891C558.298 576.719 557.896 575.205 557.819 575.109C557.819 575.129 557.263 575.358 556.113 575.818Z" fill="#263238"/>
<path d="M550.423 617.437C549.158 612.359 544.215 591.971 543.372 586.817C543.352 586.74 543.487 586.683 543.525 586.779C545.288 591.531 550.749 611.497 552.032 616.594C554.581 626.749 557.379 636.905 558.796 647.29C558.816 647.482 558.528 647.597 558.471 647.386C555.137 637.595 552.933 627.458 550.423 617.437Z" fill="#263238"/>
<path d="M541.053 583.981C543.621 577.562 546.821 571.392 549.656 565.107C552.492 558.841 555.462 552.595 558.087 546.233C558.126 546.157 558.26 546.214 558.241 546.291C556.67 550.621 555.098 554.932 553.412 559.205C553.949 558.516 554.466 557.807 554.964 557.079C555.865 555.776 556.708 554.415 557.513 553.035C557.57 552.94 557.685 553.016 557.647 553.112C557.034 554.645 556.248 556.063 555.309 557.423C554.619 558.439 553.814 559.359 552.991 560.259C552.301 562.003 551.573 563.727 550.806 565.452C547.989 571.814 545.882 578.099 542.126 583.962C541.992 584.134 540.957 584.192 541.053 583.981Z" fill="#263238"/>
<path d="M488.282 662.294C507.061 664.938 566.058 651.257 576.118 648.632C575.927 647.558 575.946 647.175 575.697 645.661C575.658 645.47 575.965 645.355 576.022 645.566C576.386 646.984 577.498 649.82 577.115 649.992C572.343 652.176 506.62 667.161 488.321 662.734C488.014 662.677 487.995 662.236 488.282 662.294Z" fill="#263238"/>
<path d="M633.947 634.51L710.727 643.19L737.514 536.154L660.735 527.474L633.947 634.51Z" fill="#0D162C"/>
<path d="M637.722 634.931L714.502 643.611L741.27 536.576L664.49 527.915L637.722 634.931Z" fill="#1C2D4D"/>
<path d="M700.111 582.142C699.287 586.223 695.263 589.155 691.144 588.695C687.024 588.235 684.341 584.537 685.165 580.455C685.989 576.374 690.013 573.442 694.133 573.902C698.272 574.362 700.954 578.06 700.111 582.142Z" fill="#213157"/>
<path d="M740.983 558.535C744.355 567.426 753.744 578.884 754.012 585.936C754.262 592.316 748.839 594.117 748.839 594.117C748.839 594.117 755.545 598.16 754.741 604.599C754.319 607.914 748.666 610.175 748.666 610.175C748.666 610.175 753.897 613.643 752.824 619.334C751.981 623.875 746.425 625.446 746.425 625.446C746.425 625.446 749.893 631.118 747.536 635.449C742.765 644.263 703.292 641.082 698.368 626.059C696.068 619.046 705.668 620.349 705.668 620.349C705.668 620.349 692.313 615.157 692.754 606.994C693.194 598.831 705.572 601.284 705.572 601.284C705.572 601.284 692.677 596.129 693.98 587.718C695.34 578.961 707.297 583.521 707.297 583.521C707.297 583.521 699 576.872 701.472 570.664C705.573 560.413 721.132 574.956 729.965 573.596L735.905 559.665L740.983 558.535Z" fill="#FFC4C0"/>
<path d="M747.9 571.603C745.428 562.904 756.733 553.323 755.564 544.662C753.993 532.954 740.139 543.206 735.924 559.665L734.889 573.04L747.9 571.603Z" fill="#FFC4C0"/>
<path d="M745.581 625.829C745.715 625.829 745.734 626.021 745.6 626.04C732.36 628.167 717.165 626.443 705.132 620.349C704.729 620.158 704.882 619.43 705.362 619.564C718.966 623.453 731.363 625.829 745.581 625.829Z" fill="#263238"/>
<path d="M748.858 610.27C749.011 610.27 749.011 610.52 748.858 610.558C735.196 612.666 718.142 610.251 705.093 601.61C704.652 601.322 704.537 600.594 705.074 600.901C714.176 605.978 736.058 610.328 748.858 610.27Z" fill="#263238"/>
<path d="M706.549 582.601C719.388 590.4 733.433 593.313 748.283 594.232C748.474 594.252 748.436 594.52 748.283 594.558C740.887 596.091 731.478 594.52 724.274 592.68C717.356 590.917 711.474 587.947 706.281 583.061C706.09 582.851 706.281 582.429 706.549 582.601Z" fill="#263238"/>
<path d="M581.484 535.235C573.091 535.541 561.767 520.595 558.279 509.597C558.049 508.849 560.502 501.875 563.089 493.271C564.641 488.04 566.231 482.196 567.304 476.735C567.515 475.624 599.84 491.777 599.84 491.777C599.84 491.777 594.226 502.545 592.406 512.049C592.272 512.854 592.195 513.601 592.195 514.33C592.195 514.425 592.195 514.559 592.176 514.713C592.061 519.12 589.589 534.928 581.484 535.235Z" fill="#FFC4C0"/>
<path d="M569.393 477.31C569.163 486.833 570.504 510.229 588.65 514.234C589.915 514.521 591.084 514.674 592.176 514.732C592.214 514.579 592.195 514.464 592.214 514.349C592.214 513.62 592.272 512.873 592.406 512.068C594.226 502.545 599.84 491.777 599.84 491.777C599.84 491.777 576.54 480.126 569.393 477.31Z" fill="#263238"/>
<path d="M561.498 440.903C557.992 453.339 565.273 488.864 574.221 496.644C587.194 507.91 608.08 508.562 617.545 493.06C626.724 478.019 616.434 431.878 606.47 424.846C591.773 414.499 566.672 422.527 561.498 440.903Z" fill="#FFC4C0"/>
<path d="M596.89 461.942C596.851 461.866 596.736 462.096 596.756 462.191C597.407 464.548 597.733 467.365 595.778 468.668C595.721 468.706 595.759 468.821 595.836 468.802C598.365 467.806 597.886 464.088 596.89 461.942Z" fill="#263238"/>
<path d="M594.169 459.969C590.279 460.601 591.812 468.323 595.414 467.748C598.978 467.193 597.446 459.451 594.169 459.969Z" fill="#263238"/>
<path d="M610.321 459.356C610.321 459.26 610.532 459.432 610.551 459.528C610.954 461.942 611.816 464.644 614.134 465.008C614.211 465.027 614.23 465.142 614.134 465.142C611.413 465.296 610.302 461.712 610.321 459.356Z" fill="#263238"/>
<path d="M611.969 456.424C615.763 455.37 617.603 463.034 614.077 464.012C610.609 464.989 608.789 457.324 611.969 456.424Z" fill="#263238"/>
<path d="M590.432 455.657C591.428 455.178 592.291 454.584 593.229 454.029C594.303 453.396 595.203 452.994 595.759 451.825C596.046 451.193 595.701 450.235 595.107 449.89C593.747 449.085 592.252 449.545 590.93 450.254C589.512 451.039 588.612 451.998 587.998 453.492C587.404 454.948 589.11 456.29 590.432 455.657Z" fill="#263238"/>
<path d="M614.825 451.844C613.732 451.959 612.679 451.902 611.586 451.902C610.341 451.921 609.364 452.055 608.271 451.327C607.697 450.944 607.505 449.947 607.812 449.334C608.559 447.935 610.073 447.552 611.567 447.475C613.196 447.399 614.461 447.744 615.763 448.721C617.028 449.66 616.262 451.691 614.825 451.844Z" fill="#263238"/>
<path d="M596.353 484.342C596.851 484.993 597.292 485.875 598.154 486.066C598.978 486.277 600.032 486.047 600.837 485.856C600.914 485.837 600.99 485.932 600.914 485.99C600.147 486.814 598.729 487.197 597.637 486.814C596.583 486.45 596.181 485.415 596.066 484.38C596.085 484.265 596.277 484.246 596.353 484.342Z" fill="#263238"/>
<path d="M598.403 477.329C600.166 479.149 602.35 479.897 604.573 479.877C605.57 479.877 606.566 479.705 607.543 479.437C607.735 479.398 607.926 479.341 608.099 479.264C608.271 479.207 608.425 479.149 608.616 479.073C608.884 478.977 608.999 478.709 608.999 478.44V478.421C608.98 478.325 608.961 478.268 608.923 478.172C608.923 478.172 608.923 478.172 608.923 478.153L608.884 477.942C608.578 476.083 607.831 473.324 607.831 473.324C608.578 473.535 612.314 474.397 612.065 473.439C609.996 465.545 607.716 456.788 603.998 449.372C603.883 449.123 603.5 449.257 603.577 449.526C605.263 457.19 608.271 464.491 610.072 472.155C608.884 471.964 606.949 471.542 605.991 471.753C605.742 471.887 607.505 477.08 607.581 477.923C607.581 477.923 607.581 477.961 607.581 478.019C604.554 479.034 602.044 478.555 598.614 477.08C598.384 476.984 598.212 477.176 598.403 477.329Z" fill="#263238"/>
<path d="M605.531 479.647C605.531 479.647 604.094 481.832 602.006 482.694C601.239 483.02 600.396 483.173 599.495 482.981C597.656 482.598 597.522 480.931 597.771 479.494C597.982 478.306 598.461 477.271 598.461 477.271C598.461 477.271 601.258 479.609 605.531 479.647Z" fill="#263238"/>
<path d="M602.005 482.694C601.239 483.02 600.396 483.173 599.495 482.981C597.656 482.598 597.522 480.931 597.771 479.494C599.744 479.59 601.737 480.816 602.005 482.694Z" fill="#FF9BBC"/>
<path d="M560.099 468.706C569.527 469.166 574.221 457.842 571.807 448.836C571.807 448.836 596.928 451.633 597.694 431.495C597.694 431.495 602.791 440.117 614.173 440.175L617.124 447.533C619.672 446.728 622.259 439.37 615.859 433.775C615.859 433.775 615.207 423.754 607.696 417.909C600.185 412.046 592.923 416.166 592.923 416.166C592.923 416.166 586.944 411.395 577.747 412.755C568.55 414.135 564.928 422.623 564.928 422.623C564.928 422.623 552.569 425.248 550.653 434.12C548.717 442.973 553.412 448.798 553.412 448.798C553.412 448.798 550.365 452.323 552.109 459.815C553.201 464.625 557.263 468.572 560.099 468.706Z" fill="#263238"/>
<path d="M597.1 429.732C597.292 431.361 597.407 433.009 597.253 434.637C597.196 436.266 596.889 437.876 596.448 439.409C595.51 442.474 593.555 445.176 590.796 446.747C588.132 448.529 584.798 448.874 581.618 449.257C579.989 449.238 578.36 449.334 576.731 449.238C575.103 449.104 573.455 448.932 571.807 448.836C573.416 449.2 575.045 449.468 576.674 449.794C578.322 450.024 579.989 450.024 581.656 450.139C584.952 449.928 588.439 449.583 591.409 447.725C594.36 445.943 596.506 442.934 597.311 439.638C598.115 436.362 597.981 432.913 597.1 429.732Z" fill="#263238"/>
<path d="M610.264 441.076C607.447 440.118 604.822 438.891 602.58 437.147C601.43 436.304 600.472 435.27 599.591 434.158C598.671 433.047 598.077 431.725 597.406 430.403C597.617 431.859 598.02 433.373 598.844 434.656C599.61 435.979 600.645 437.147 601.871 438.067C603.097 438.987 604.439 439.734 605.857 440.232C607.274 440.731 608.769 441.076 610.264 441.076Z" fill="#263238"/>
<path d="M569.738 469.818C569.738 469.818 561.192 458.627 556.095 461.712C550.979 464.797 557.743 481.257 563.97 483.307C570.198 485.338 572.209 479.609 572.209 479.609L569.738 469.818Z" fill="#FFC4C0"/>
<path d="M558.145 466.369C558.049 466.369 558.03 466.503 558.126 466.541C562.514 468.112 564.928 472.002 566.691 476.083C565.35 474.55 563.568 473.746 561.499 475.355C561.384 475.432 561.499 475.604 561.633 475.585C563.376 475.144 564.66 475.394 565.925 476.754C566.806 477.712 567.439 478.958 568.09 480.088C568.301 480.471 568.991 480.222 568.837 479.801C568.818 479.762 568.818 479.743 568.799 479.705C568.646 474.186 564.066 466.675 558.145 466.369Z" fill="#263238"/>
<g opacity="0.2">
<path d="M583.304 473.133C583.284 473.439 583.016 473.688 582.71 473.669C582.403 473.65 582.154 473.382 582.173 473.075C582.192 472.768 582.461 472.519 582.767 472.539C583.074 472.558 583.323 472.826 583.304 473.133Z" fill="black"/>
<path d="M595.26 473.094C595.241 473.401 594.973 473.65 594.666 473.631C594.36 473.612 594.111 473.343 594.13 473.037C594.149 472.73 594.417 472.481 594.724 472.5C595.03 472.519 595.279 472.788 595.26 473.094Z" fill="black"/>
<path d="M590.872 477.099C590.853 477.406 590.585 477.655 590.279 477.635C589.972 477.616 589.723 477.348 589.742 477.041C589.761 476.735 590.029 476.486 590.336 476.505C590.643 476.524 590.892 476.792 590.872 477.099Z" fill="black"/>
<path d="M583.821 468.438C583.802 468.745 583.534 468.994 583.227 468.975C582.921 468.955 582.672 468.687 582.691 468.381C582.71 468.074 582.978 467.825 583.285 467.844C583.591 467.863 583.84 468.131 583.821 468.438Z" fill="black"/>
<path d="M589.32 471.887C589.301 472.194 589.033 472.443 588.726 472.424C588.42 472.404 588.171 472.136 588.19 471.83C588.209 471.523 588.477 471.274 588.784 471.293C589.09 471.312 589.339 471.58 589.32 471.887Z" fill="black"/>
<path d="M619.04 464.912C619.02 465.219 618.752 465.468 618.446 465.449C618.139 465.43 617.89 465.161 617.909 464.855C617.928 464.548 618.196 464.299 618.503 464.318C618.79 464.337 619.04 464.606 619.04 464.912Z" fill="black"/>
<path d="M614.441 467.959C614.422 468.266 614.153 468.515 613.847 468.495C613.54 468.476 613.291 468.208 613.31 467.901C613.33 467.595 613.598 467.346 613.904 467.365C614.211 467.384 614.46 467.652 614.441 467.959Z" fill="black"/>
<path d="M615.418 471.772C615.399 472.079 615.131 472.328 614.824 472.309C614.518 472.289 614.269 472.021 614.288 471.715C614.307 471.408 614.575 471.159 614.882 471.178C615.188 471.197 615.438 471.446 615.418 471.772Z" fill="black"/>
<path d="M619.404 469.319C619.385 469.626 619.116 469.875 618.81 469.856C618.503 469.837 618.254 469.569 618.273 469.262C618.292 468.955 618.561 468.706 618.867 468.725C619.174 468.745 619.423 469.013 619.404 469.319Z" fill="black"/>
</g>
<path d="M730.873 357.31C723.802 364.381 723.802 375.839 730.873 382.91C737.943 389.98 749.402 389.98 756.472 382.91C763.543 375.839 763.543 364.4 756.472 357.31C749.402 350.24 737.962 350.22 730.873 357.31ZM752.793 365.779C751.471 367.102 749.344 367.102 748.003 365.76C746.681 364.438 746.681 362.311 748.003 360.989C749.325 359.667 751.471 359.667 752.793 360.97C754.135 362.311 754.135 364.457 752.793 365.779Z" fill="#172648"/>
<path d="M728.393 373.65L724.532 377.512L736.279 389.259L740.14 385.397L728.393 373.65Z" fill="#172648"/>
<path d="M726.408 379.365L734.379 387.336L732.405 389.29L729.129 388.275L730.144 391.571L726.906 394.79L722.537 393.889L723.438 398.258L722.71 399.005L719.414 397.99L720.43 401.285L717.134 400.27L718.149 403.546L715.582 406.114L711.213 405.214L712.114 409.582L709.872 411.824L701 412.725L701.901 403.872L726.408 379.365Z" fill="#172647"/>
<path d="M728.789 383.922L705.959 406.752L706.514 407.308L729.345 384.478L728.789 383.922Z" fill="#171F3F"/>
<g opacity="0.1">
<path d="M759.404 370.11C759.576 384.059 742.159 391.398 732.252 381.53C725.948 375.571 725.929 364.649 732.252 358.69C742.178 348.822 759.596 356.141 759.404 370.11ZM759.404 370.11C759.481 356.352 742.35 349.396 732.827 359.284C726.964 365.013 726.964 375.226 732.827 380.955C742.35 390.823 759.481 383.849 759.404 370.11Z" fill="#182547"/>
</g>
<path d="M747.917 230.583H714.083C711.414 230.583 709.25 232.747 709.25 235.417V252.333C709.25 255.003 711.414 257.167 714.083 257.167H747.917C750.586 257.167 752.75 255.003 752.75 252.333V235.417C752.75 232.747 750.586 230.583 747.917 230.583Z" fill="#19284A"/>
<path d="M718.917 230.583V220.917C718.917 217.712 720.19 214.639 722.456 212.372C724.722 210.106 727.795 208.833 731 208.833C734.205 208.833 737.278 210.106 739.544 212.372C741.81 214.639 743.083 217.712 743.083 220.917V230.583" fill="#19284A"/>
<path d="M735 242.5L728.25 246.397L728.25 238.603L735 242.5Z" fill="#3B4972"/>
</g>
<defs>
<filter id="filter0_d_188_1123" x="674" y="327" width="114" height="118" filterUnits="userSpaceOnUse" color-interpolation-filters="sRGB">
<feFlood flood-opacity="0" result="BackgroundImageFix"/>
<feColorMatrix in="SourceAlpha" type="matrix" values="0 0 0 0 0 0 0 0 0 0 0 0 0 0 0 0 0 0 127 0" result="hardAlpha"/>
<feOffset dy="4"/>
<feGaussianBlur stdDeviation="2"/>
<feComposite in2="hardAlpha" operator="out"/>
<feColorMatrix type="matrix" values="0 0 0 0 0 0 0 0 0 0 0 0 0 0 0 0 0 0 0.25 0"/>
<feBlend mode="normal" in2="BackgroundImageFix" result="effect1_dropShadow_188_1123"/>
<feBlend mode="normal" in="SourceGraphic" in2="effect1_dropShadow_188_1123" result="shape"/>
</filter>
<filter id="filter1_d_188_1123" x="674" y="178" width="114" height="118" filterUnits="userSpaceOnUse" color-interpolation-filters="sRGB">
<feFlood flood-opacity="0" result="BackgroundImageFix"/>
<feColorMatrix in="SourceAlpha" type="matrix" values="0 0 0 0 0 0 0 0 0 0 0 0 0 0 0 0 0 0 127 0" result="hardAlpha"/>
<feOffset dy="4"/>
<feGaussianBlur stdDeviation="2"/>
<feComposite in2="hardAlpha" operator="out"/>
<feColorMatrix type="matrix" values="0 0 0 0 0 0 0 0 0 0 0 0 0 0 0 0 0 0 0.25 0"/>
<feBlend mode="normal" in2="BackgroundImageFix" result="effect1_dropShadow_188_1123"/>
<feBlend mode="normal" in="SourceGraphic" in2="effect1_dropShadow_188_1123" result="shape"/>
</filter>
<clipPath id="clip0_188_1123">
<rect width="823" height="806.042" fill="white"/>
</clipPath>
</defs>
</svg>
