<svg width="918" height="806" viewBox="0 0 918 806" fill="none" xmlns="http://www.w3.org/2000/svg">
<g clip-path="url(#clip0_643_29)">
<path d="M82.9701 390.321C79.6631 392.378 75.9932 393.938 72.014 394.906C61.7033 397.42 51.3656 395.484 43.0175 390.308C34.8441 385.253 28.5528 377.106 26.0927 367.023C21.1188 346.628 33.5939 326.058 53.987 321.097C74.3666 316.109 94.9344 328.599 99.9083 348.994C103.914 365.409 96.5879 381.919 82.9701 390.321Z" fill="#EAF5FA"/>
<path d="M73 353.5C73 359.852 67.8517 365 61.5 365C55.1483 365 50 359.852 50 353.5C50 347.148 55.1483 342 61.5 342C67.8517 342 73 347.148 73 353.5Z" fill="#F1F7FC"/>
<path d="M81 385.353V390.215C77.7719 392.31 74.1894 393.899 70.3052 394.885C60.2402 397.446 50.1491 395.474 42 390.201V385.353C42 374.135 50.7264 365 61.5 365C72.2736 365 81 374.135 81 385.353Z" fill="#F1F7FC"/>
<g filter="url(#filter0_d_643_29)">
<path d="M776 327H686C681.582 327 678 330.582 678 335V429C678 433.418 681.582 437 686 437H776C780.418 437 784 433.418 784 429V335C784 330.582 780.418 327 776 327Z" fill="#F0F7FB"/>
</g>
<g filter="url(#filter1_d_643_29)">
<path d="M776 178H686C681.582 178 678 181.582 678 186V280C678 284.418 681.582 288 686 288H776C780.418 288 784 284.418 784 280V186C784 181.582 780.418 178 776 178Z" fill="#F0F7FB"/>
</g>
<path d="M764 188H698C693.582 188 690 191.582 690 196V270C690 274.418 693.582 278 698 278H764C768.418 278 772 274.418 772 270V196C772 191.582 768.418 188 764 188Z" fill="#F0F7FB"/>
<path d="M186.521 579.554H219.057V507.508H186.521V579.554Z" fill="#171F3F"/>
<path d="M186.521 668.79H219.057V596.743H186.521V668.79Z" fill="#DBDBDB"/>
<path d="M68.7705 663.98C68.7705 663.98 84.4062 607.875 96.8802 588.81C109.373 569.744 132.635 548.82 132.635 548.82C132.635 548.82 132.099 635.333 68.7705 663.98Z" fill="#B7E1F9"/>
<path d="M69.9006 663.021C75.2658 654.322 79.807 645.125 84.1566 635.831C86.0728 625.868 88.4105 615.846 91.917 606.323C91.9745 606.151 92.2427 606.246 92.1853 606.419C90.1158 615.291 87.7015 624.066 85.4979 632.9C91.802 619.238 97.7995 605.422 105.33 592.508C106.844 586.242 109.718 580.225 112.573 574.553C112.65 574.381 112.937 574.477 112.841 574.649C110.829 579.037 109.392 583.578 107.955 588.12C111.5 582.41 115.409 576.891 119.835 571.718C120.103 571.392 120.659 571.756 120.391 572.101C110.35 584.92 103.414 599.521 96.8032 614.294C103.95 606.668 110.446 598.314 116.424 589.768C116.482 589.672 116.616 589.768 116.559 589.863C110.389 599.674 103.28 608.488 95.5577 617.092C90.7482 627.918 86.0153 638.782 80.2861 649.072C91.7446 639.376 100.559 626.845 109.296 614.754C109.488 614.486 109.91 614.773 109.718 615.041C100.98 628.32 91.9553 640.813 79.3855 650.643C76.8178 655.146 74.0586 659.534 70.9928 663.75C70.4946 664.478 69.4407 663.75 69.9006 663.021Z" fill="#ACCEE1"/>
<path d="M65.8005 664.056C65.8005 664.056 93.8911 612.321 85.7284 562.156C77.5656 511.992 68.828 494.133 68.828 494.133C68.828 494.133 24.6611 572.158 65.8005 664.056Z" fill="#B7E1F9"/>
<path d="M54.2659 582.716C56.5077 597.202 60.4358 610.769 65.1112 624.488C65.1878 606.074 65.5327 587.66 66.0309 569.265C62.7927 558.075 61.164 546.616 60.7232 534.985C60.7041 534.641 61.2214 534.66 61.2406 534.985C62.0645 545.007 63.8274 554.76 66.1651 564.494C66.5866 549.299 67.104 534.123 67.6405 518.947C67.6405 518.698 68.0429 518.698 68.0429 518.947C68.0237 542.669 68.0237 566.391 67.8896 590.113C71.5111 580.973 73.7913 571.564 75.9949 561.926C76.014 561.831 76.1673 561.85 76.1673 561.945C75.3242 573.021 71.9518 583.732 67.8704 594.022C67.7555 609.178 67.6022 624.354 67.2573 639.511C72.0093 623.396 77.0871 607.779 78.4667 590.745C78.4858 590.515 78.8307 590.515 78.8307 590.745C78.4667 609.523 73.6188 628.608 67.4106 646.275C67.3339 646.466 67.2189 646.6 67.104 646.715C66.9698 652.253 66.7974 657.791 66.6249 663.347C66.6058 664.133 65.3986 664.114 65.3986 663.328C65.1878 651.985 65.1112 640.66 65.1304 629.317C58.8263 614.754 55.4539 598.486 54.0551 582.755C54.0168 582.621 54.2467 582.582 54.2659 582.716Z" fill="#ACCEE1"/>
<path d="M56.2015 574.726C57.0829 579.171 57.926 583.866 58.1559 588.388C58.1559 588.541 57.926 588.56 57.8877 588.426C56.7188 584.038 56.0865 579.306 55.5692 574.803C55.5308 574.439 56.1248 574.381 56.2015 574.726Z" fill="#ACCEE1"/>
<path d="M72.6228 536.902C72.642 536.748 72.891 536.787 72.891 536.94C72.9294 540.044 72.297 543.378 71.4731 546.367C71.3965 546.616 71.0516 546.501 71.0899 546.252C71.7222 543.148 72.0863 540.025 72.6228 536.902Z" fill="#ACCEE1"/>
<path d="M55.5296 664.056C55.5296 664.056 56.6793 610.04 41.1778 583.195C25.6954 556.369 0 542.688 0 542.688C0 542.688 10.3663 637.882 55.5296 664.056Z" fill="#B7E1F9"/>
<path d="M27.3054 617.877C33.8202 627.247 40.2968 636.291 48.2679 644.454C45.1829 633.417 41.5806 622.553 37.5375 611.88C28.8574 604.273 20.2348 596.378 14.908 585.955C14.8313 585.782 15.0612 585.648 15.157 585.801C20.8863 595.037 28.5508 602.414 36.6178 609.523C30.4287 593.485 23.224 577.83 15.0421 562.559C14.8313 562.175 15.4061 561.83 15.6361 562.214C20.5989 570.166 25.1018 578.405 29.164 586.855C27.7077 581.088 26.5581 575.186 25.0635 569.457C25.0252 569.303 25.2551 569.246 25.3126 569.38C28.0527 576.604 30.7927 584.575 31.6742 592.278C37.0968 604.254 41.6572 616.613 45.317 629.24C44.9147 621.135 44.4165 613.087 43.5734 605.001C43.5542 604.848 43.8225 604.809 43.8416 604.963C45.5278 613.93 46.4092 623.051 46.1793 632.172C48.4212 640.22 50.299 648.363 51.7936 656.564C51.8319 656.775 51.5062 656.89 51.4487 656.66C50.6056 653.23 49.6858 649.819 48.7661 646.409C48.7086 646.39 48.6511 646.39 48.5936 646.332C40.2776 638.016 32.3831 628.512 27.2096 617.897C27.1904 617.858 27.267 617.82 27.3054 617.877Z" fill="#ACCEE1"/>
<path d="M9.35111 573.921C11.0756 575.78 12.666 577.753 14.3331 579.67C15.8085 581.375 17.6097 582.965 18.7977 584.882C18.836 584.958 18.7593 585.054 18.6827 584.996C16.6899 583.732 15.0804 581.682 13.5283 579.919C11.8996 578.06 10.4242 576.221 9.12118 574.113C9.00621 573.979 9.23615 573.806 9.35111 573.921Z" fill="#ACCEE1"/>
<path opacity="0.8" d="M99.7153 668.023L97.7609 693.603L91.8783 770.938H40.545L34.6625 693.603L32.708 668.023C34.8924 668.023 66.2021 668.023 66.2021 668.023C66.2021 668.023 97.5309 668.023 99.7153 668.023Z" fill="#ABCEE0"/>
<path opacity="0.8" d="M28.1434 675.083H104.271V655.461H28.1434V675.083Z" fill="#BBD7E5"/>
<path d="M0 770.939C261.744 769.77 555.335 769.751 817.079 770.939C555.335 772.107 261.725 772.107 0 770.939Z" fill="#EFF5FB"/>
<path d="M146.642 746.22V24.699C146.642 11.0561 157.698 0 171.341 0H637.709C651.352 0 662.408 11.0561 662.408 24.699V746.22C662.408 759.863 651.352 770.919 637.709 770.919H171.341C157.698 770.939 146.642 759.863 146.642 746.22Z" fill="#6F97B8"/>
<path d="M640.66 53.9584H169.003V717.44H640.66V53.9584Z" fill="#171F3F"/>
<path d="M348.411 32.9192V29.7001C348.411 28.378 349.484 27.3049 350.806 27.3049H458.263C459.585 27.3049 460.658 28.378 460.658 29.7001V32.9192C460.658 34.2413 459.585 35.3144 458.263 35.3144H350.806C349.484 35.3144 348.411 34.2413 348.411 32.9192Z" fill="#A7CADC"/>
<path d="M404.535 758.024C412.557 758.024 419.059 751.521 419.059 743.499C419.059 735.478 412.557 728.975 404.535 728.975C396.514 728.975 390.011 735.478 390.011 743.499C390.011 751.521 396.514 758.024 404.535 758.024Z" fill="#263238"/>
<path d="M640.66 53.9584H169.003V717.44H640.66V53.9584Z" fill="#FDFFFF"/>
<path d="M404.847 340.872C449.823 340.872 486.283 304.412 486.283 259.436C486.283 214.46 449.823 178 404.847 178C359.871 178 323.411 214.46 323.411 259.436C323.411 304.412 359.871 340.872 404.847 340.872Z" fill="#E0EDFE"/>
<path d="M526.044 416.357V450.626H283.631V416.357H526.044Z" fill="#FEFFFF" stroke="#BBD7E5"/>
<path d="M320.735 426.565C320.735 426.311 320.944 426.103 321.198 426.103C321.475 426.103 321.684 426.311 321.684 426.565V434.105C321.684 436.579 323.696 438.568 326.147 438.591C328.645 438.568 330.657 436.579 330.657 434.105V426.565C330.657 426.311 330.865 426.103 331.119 426.103C331.397 426.103 331.605 426.311 331.605 426.565V434.105C331.605 437.088 329.177 439.54 326.17 439.54C323.187 439.54 320.759 437.111 320.759 434.105V426.565H320.735Z" fill="#00204F"/>
<path d="M335.467 437.574C335.629 437.389 335.906 437.342 336.114 437.504C336.762 437.99 337.803 438.591 338.982 438.591C339.722 438.591 340.346 438.36 340.763 438.013C341.225 437.712 341.48 437.273 341.48 436.857C341.457 436.417 341.295 436.117 340.809 435.7C340.416 435.4 339.745 435.168 338.82 435.007L338.774 434.983C337.941 434.822 337.178 434.636 336.646 434.243C336.045 433.896 335.629 433.295 335.629 432.555C335.629 431.815 336.045 431.144 336.646 430.705C337.201 430.312 337.988 430.08 338.959 430.08C340.161 430.08 341.04 430.636 341.757 431.098C341.965 431.26 342.035 431.537 341.896 431.746C341.757 431.954 341.48 432.023 341.272 431.884C340.578 431.422 339.884 430.936 338.959 430.936C338.196 430.936 337.571 431.144 337.178 431.468C336.785 431.769 336.577 432.162 336.577 432.532C336.577 432.925 336.739 433.179 337.109 433.48C337.525 433.758 338.173 433.989 339.028 434.128H339.075C339.976 434.266 340.693 434.521 341.364 434.891C341.989 435.284 342.428 436.024 342.428 436.81C342.428 437.597 341.989 438.221 341.364 438.707C340.717 439.193 339.953 439.447 339.028 439.447C337.502 439.424 336.322 438.707 335.559 438.106C335.328 438.013 335.305 437.782 335.467 437.574Z" fill="#00204F"/>
<path d="M344.88 434.845C344.88 432.231 346.915 430.127 349.436 430.127C351.841 430.127 353.761 432.046 353.969 434.498V434.521V434.567C353.969 434.822 353.761 434.983 353.506 434.983H345.805C345.897 437.042 347.516 438.591 349.459 438.591C350.708 438.591 351.864 437.944 352.489 436.88C352.627 436.649 352.905 436.602 353.113 436.718C353.321 436.88 353.391 437.134 353.275 437.366C352.466 438.637 351.078 439.493 349.482 439.493C346.915 439.539 344.88 437.435 344.88 434.845ZM345.851 434.105H352.974C352.674 432.347 351.17 431.052 349.436 431.052C347.678 431.052 346.198 432.324 345.851 434.105Z" fill="#00204F"/>
<path d="M356.813 430.612C356.813 430.335 357.022 430.15 357.299 430.15C357.53 430.15 357.739 430.335 357.739 430.612V432.694C357.785 432.624 357.808 432.532 357.877 432.463C358.594 431.353 359.843 430.15 361.647 430.15C361.901 430.15 362.11 430.335 362.11 430.612C362.11 430.867 361.901 431.075 361.647 431.075C360.421 431.075 359.566 431.769 358.918 432.601C358.294 433.457 357.924 434.405 357.785 434.798C357.739 434.868 357.739 434.914 357.739 434.96V439.077C357.739 439.354 357.53 439.54 357.299 439.54C357.022 439.54 356.813 439.354 356.813 439.077V430.612Z" fill="#00204F"/>
<path d="M371.939 433.966C371.939 432.37 370.644 431.075 369.048 431.075C367.453 431.075 366.181 432.37 366.134 433.966V439.077V439.146C366.111 439.216 366.088 439.308 366.042 439.354C365.973 439.47 365.834 439.516 365.695 439.516H365.579C365.441 439.47 365.325 439.378 365.279 439.262C365.256 439.239 365.256 439.216 365.256 439.193C365.256 439.169 365.232 439.146 365.232 439.146V439.031V433.92V433.758V430.543C365.232 430.289 365.417 430.08 365.695 430.08C365.949 430.08 366.134 430.289 366.134 430.543V431.445C366.828 430.612 367.892 430.08 369.048 430.08C371.153 430.08 372.864 431.815 372.864 433.896V439.008C372.864 439.285 372.656 439.47 372.402 439.47C372.147 439.47 371.939 439.285 371.939 439.008V433.966Z" fill="#00204F"/>
<path d="M384.867 430.589V439.077C384.867 439.331 384.659 439.539 384.404 439.539C384.15 439.539 383.942 439.331 383.942 439.077V437.666C383.132 438.776 381.86 439.516 380.403 439.516C377.929 439.516 375.963 437.389 375.963 434.822C375.963 432.254 377.929 430.127 380.403 430.127C381.837 430.127 383.132 430.867 383.942 431.977V430.589C383.942 430.312 384.15 430.127 384.404 430.127C384.659 430.15 384.867 430.335 384.867 430.589ZM383.942 434.845C383.942 432.74 382.346 431.052 380.403 431.052C378.484 431.052 376.865 432.74 376.865 434.845C376.865 436.949 378.484 438.614 380.403 438.614C382.346 438.614 383.942 436.949 383.942 434.845Z" fill="#00204F"/>
<path d="M402.282 433.966C402.235 432.37 400.986 431.052 399.368 431.052C397.772 431.052 396.477 432.37 396.477 433.966V439.077V439.146C396.477 439.169 396.454 439.193 396.454 439.193V439.239C396.407 439.354 396.315 439.424 396.222 439.493C396.153 439.539 396.06 439.563 395.991 439.563H395.945H395.898C395.875 439.563 395.852 439.54 395.852 439.54C395.806 439.54 395.783 439.493 395.737 439.47C395.713 439.47 395.69 439.447 395.69 439.424L395.644 439.378C395.621 439.354 395.621 439.331 395.598 439.331C395.598 439.308 395.598 439.308 395.575 439.285C395.575 439.285 395.575 439.262 395.552 439.239C395.552 439.216 395.552 439.193 395.528 439.169V439.1V439.054V433.943C395.528 432.347 394.256 431.029 392.638 431.029C391.019 431.029 389.747 432.347 389.747 433.943V439.054C389.747 439.216 389.677 439.331 389.539 439.424C389.515 439.447 389.469 439.493 389.423 439.493C389.4 439.516 389.377 439.516 389.353 439.516H389.307H389.238C389.076 439.493 388.914 439.354 388.845 439.169V439.077V433.966V433.804V430.589C388.845 430.335 389.053 430.15 389.284 430.15C389.562 430.15 389.747 430.335 389.747 430.589V431.491C390.44 430.659 391.481 430.15 392.638 430.15C394.095 430.15 395.343 430.959 395.991 432.139C396.662 430.959 397.934 430.15 399.368 430.15C401.472 430.15 403.184 431.861 403.184 433.966V439.077C403.184 439.308 402.999 439.516 402.721 439.516C402.467 439.516 402.282 439.308 402.282 439.077V433.966Z" fill="#00204F"/>
<path d="M406.398 434.845C406.398 432.231 408.434 430.127 410.954 430.127C413.36 430.127 415.279 432.046 415.487 434.498V434.521V434.567C415.487 434.822 415.279 434.983 415.025 434.983H407.324C407.416 437.042 409.035 438.591 410.978 438.591C412.226 438.591 413.383 437.944 414.007 436.88C414.146 436.649 414.424 436.602 414.609 436.718C414.817 436.88 414.886 437.134 414.77 437.366C413.961 438.637 412.573 439.493 410.978 439.493C408.434 439.539 406.398 437.435 406.398 434.845ZM407.37 434.105H414.493C414.192 432.347 412.689 431.052 410.954 431.052C409.197 431.052 407.717 432.324 407.37 434.105Z" fill="#00204F"/>
<path d="M303.622 430.543C303.622 432.416 302.119 433.92 300.246 433.92C298.372 433.92 296.869 432.416 296.869 430.543C296.869 428.67 298.372 427.167 300.246 427.167C302.119 427.167 303.622 428.67 303.622 430.543Z" fill="#255782"/>
<path d="M306.096 439.817H294.417C294.44 436.602 297.053 434.035 300.245 434.035C303.483 434.035 306.05 436.602 306.096 439.817Z" fill="#255782"/>
<path d="M526.044 467.561V501.829H283.631V467.561H526.044Z" fill="#FEFFFF" stroke="#BBD7E5"/>
<path d="M328.784 480.521C326.564 483.851 323.788 486.649 320.458 488.846C322.678 485.516 325.453 482.741 328.784 480.521Z" fill="#00204F"/>
<path d="M320.458 480.521C323.788 482.741 326.587 485.516 328.784 488.846C325.453 486.649 322.678 483.851 320.458 480.521Z" fill="#00204F"/>
<path d="M330.518 484.683C326.586 485.47 322.655 485.47 318.746 484.683C322.655 483.897 326.586 483.897 330.518 484.683Z" fill="#00204F"/>
<path d="M324.621 478.809C325.407 482.741 325.407 486.673 324.621 490.581C323.835 486.673 323.835 482.718 324.621 478.809Z" fill="#00204F"/>
<path d="M349.113 480.521C346.893 483.851 344.117 486.649 340.787 488.846C342.984 485.516 345.783 482.741 349.113 480.521Z" fill="#00204F"/>
<path d="M340.787 480.521C344.117 482.741 346.916 485.516 349.113 488.846C345.783 486.649 342.984 483.851 340.787 480.521Z" fill="#00204F"/>
<path d="M350.847 484.683C346.915 485.47 342.984 485.47 339.075 484.683C342.984 483.897 346.915 483.897 350.847 484.683Z" fill="#00204F"/>
<path d="M344.95 478.809C345.736 482.741 345.736 486.673 344.95 490.581C344.141 486.673 344.164 482.718 344.95 478.809Z" fill="#00204F"/>
<path d="M369.441 480.521C367.221 483.851 364.446 486.649 361.115 488.846C363.312 485.516 366.111 482.741 369.441 480.521Z" fill="#00204F"/>
<path d="M361.093 480.521C364.423 482.741 367.221 485.516 369.419 488.846C366.088 486.649 363.313 483.851 361.093 480.521Z" fill="#00204F"/>
<path d="M371.153 484.683C367.221 485.47 363.289 485.47 359.381 484.683C363.289 483.897 367.244 483.897 371.153 484.683Z" fill="#00204F"/>
<path d="M365.279 478.809C366.065 482.741 366.065 486.673 365.279 490.581C364.47 486.673 364.47 482.718 365.279 478.809Z" fill="#00204F"/>
<path d="M389.746 480.521C387.525 483.851 384.75 486.649 381.42 488.846C383.64 485.516 386.415 482.741 389.746 480.521Z" fill="#00204F"/>
<path d="M381.42 480.521C384.75 482.741 387.549 485.516 389.746 488.846C386.415 486.649 383.64 483.851 381.42 480.521Z" fill="#00204F"/>
<path d="M391.481 484.683C387.549 485.47 383.617 485.47 379.709 484.683C383.617 483.897 387.549 483.897 391.481 484.683Z" fill="#00204F"/>
<path d="M385.583 478.809C386.369 482.741 386.369 486.673 385.583 490.581C384.797 486.673 384.797 482.718 385.583 478.809Z" fill="#00204F"/>
<path d="M304.2 480.891V485.146H302.997V480.891C302.997 479.272 301.771 477.954 300.245 477.954C298.718 477.954 297.493 479.272 297.493 480.891V485.146H296.29V480.891C296.29 478.578 298.071 476.682 300.245 476.682C302.419 476.682 304.2 478.578 304.2 480.891Z" fill="#255782"/>
<path d="M294.764 483.597V492.709H305.749V483.597H294.764ZM301.17 490.257H299.204L299.667 488.083C299.389 487.921 299.204 487.598 299.204 487.251C299.204 486.719 299.643 486.279 300.175 486.279C300.707 486.279 301.147 486.719 301.147 487.251C301.147 487.598 300.962 487.898 300.684 488.083L301.17 490.257Z" fill="#255782"/>
<path d="M363.566 388.752V372.818C363.566 372.008 364.214 371.338 365.047 371.338C365.879 371.338 366.55 372.008 366.55 372.818V387.249H373.858C374.644 387.249 375.338 387.92 375.338 388.752C375.338 389.562 374.644 390.232 373.858 390.232H365.116C365.07 390.232 365.07 390.232 365.07 390.232C365.047 390.232 365.047 390.232 365.047 390.232C364.214 390.255 363.566 389.562 363.566 388.752Z" fill="#0C5C88"/>
<path d="M392.614 373.697C394.279 375.477 395.343 377.859 395.343 380.519C395.343 383.179 394.302 385.607 392.614 387.342C391.018 389.099 388.636 390.232 386.161 390.232C383.571 390.232 381.189 389.099 379.547 387.342C377.882 385.584 376.864 383.179 376.864 380.519C376.864 377.859 377.859 375.477 379.547 373.697C381.189 371.916 383.571 370.806 386.161 370.806C388.636 370.806 391.018 371.916 392.614 373.697ZM392.267 380.519C392.267 378.692 391.527 376.981 390.44 375.801C389.307 374.575 387.803 373.882 386.184 373.882C384.45 373.882 382.947 374.575 381.813 375.801C380.68 376.981 379.986 378.692 379.986 380.519C379.986 382.346 380.68 384.057 381.813 385.214C382.947 386.44 384.45 387.157 386.184 387.157C387.803 387.157 389.307 386.416 390.44 385.214C391.527 384.057 392.267 382.369 392.267 380.519Z" fill="#0C5C88"/>
<path d="M399.829 380.542C399.829 375.107 404.316 370.782 409.797 370.782C412.086 370.782 414.284 371.569 415.949 372.887C416.642 373.396 416.758 374.39 416.249 375.084C415.741 375.732 414.746 375.87 414.052 375.315C412.896 374.437 411.416 373.858 409.797 373.858C407.854 373.858 406.143 374.598 404.94 375.824C403.668 377.05 402.905 378.692 402.905 380.519C402.905 382.3 403.668 383.942 404.94 385.168C406.166 386.416 407.854 387.133 409.797 387.133C411.138 387.133 412.41 386.717 413.497 386.116V382.415H409.635C408.802 382.415 408.109 381.722 408.109 380.866C408.109 380.01 408.802 379.363 409.635 379.363H414.954C414.977 379.363 414.977 379.363 414.977 379.363C415 379.363 415 379.363 415 379.363C415.856 379.363 416.573 380.01 416.573 380.866V386.833C416.573 387.018 416.527 387.133 416.504 387.295C416.481 387.341 416.481 387.365 416.457 387.434V387.457C416.388 387.712 416.226 387.92 415.949 388.105C414.237 389.423 412.11 390.209 409.82 390.209C404.316 390.256 399.829 385.954 399.829 380.542Z" fill="#0C5C88"/>
<path d="M422.841 372.818C422.841 371.985 423.488 371.338 424.321 371.338C425.13 371.338 425.824 371.985 425.824 372.818V388.752C425.824 389.585 425.13 390.232 424.321 390.232C423.488 390.232 422.841 389.585 422.841 388.752V372.818Z" fill="#0C5C88"/>
<path d="M433.872 388.752C433.872 389.562 433.202 390.232 432.415 390.232C431.583 390.232 430.935 389.562 430.935 388.752V373.072C430.935 373.072 430.935 373.072 430.935 373.049C430.912 372.586 431.12 372.101 431.537 371.8C432.207 371.338 433.132 371.476 433.595 372.124L442.314 384.196V373.072C442.314 372.286 442.961 371.615 443.771 371.615C444.58 371.615 445.251 372.286 445.251 373.072V388.752C445.251 389.562 444.58 390.232 443.771 390.232C443.331 390.232 442.938 390.024 442.661 389.7C442.615 389.654 442.545 389.585 442.522 389.539L433.872 377.536V388.752Z" fill="#0C5C88"/>
<path d="M477.329 523.907H332.367V569H477.329V523.907Z" fill="#FFC700"/>
<path d="M367.776 553.165V538.827C367.776 538.079 368.358 537.497 369.106 537.497C369.854 537.497 370.478 538.121 370.478 538.827V551.794H377.044C377.751 551.794 378.374 552.417 378.374 553.165C378.374 553.913 377.751 554.495 377.044 554.495H369.189C369.148 554.495 369.148 554.495 369.148 554.495C369.106 554.495 369.106 554.495 369.106 554.495C368.358 554.537 367.776 553.913 367.776 553.165Z" fill="#2C3557"/>
<path d="M393.876 539.617C395.372 541.238 396.328 543.357 396.328 545.768C396.328 548.178 395.372 550.339 393.876 551.919C392.463 553.498 390.302 554.537 388.058 554.537C385.73 554.537 383.569 553.498 382.115 551.919C380.618 550.339 379.704 548.178 379.704 545.768C379.704 543.357 380.618 541.238 382.115 539.617C383.611 537.996 385.73 537.04 388.058 537.04C390.302 537.04 392.422 538.037 393.876 539.617ZM393.544 545.768C393.544 544.105 392.879 542.568 391.881 541.528C390.842 540.448 389.512 539.783 388.058 539.783C386.52 539.783 385.148 540.406 384.109 541.528C383.07 542.609 382.447 544.147 382.447 545.768C382.447 547.389 383.07 548.968 384.109 550.007C385.148 551.087 386.478 551.752 388.058 551.752C389.512 551.752 390.884 551.087 391.881 550.007C392.879 548.968 393.544 547.43 393.544 545.768Z" fill="#2C3557"/>
<path d="M400.359 545.809C400.359 540.905 404.391 537.04 409.336 537.04C411.414 537.04 413.368 537.747 414.864 538.952C415.487 539.409 415.612 540.323 415.113 540.905C414.656 541.487 413.742 541.612 413.16 541.113C412.121 540.323 410.791 539.783 409.336 539.783C407.591 539.783 406.053 540.448 404.973 541.57C403.85 542.651 403.144 544.147 403.144 545.809C403.144 547.43 403.809 548.885 404.973 550.007C406.053 551.129 407.591 551.794 409.336 551.794C410.542 551.794 411.705 551.42 412.661 550.88V547.555H409.17C408.422 547.555 407.799 546.931 407.799 546.183C407.799 545.394 408.422 544.812 409.17 544.812H413.95C413.991 544.812 413.991 544.812 413.991 544.812C414.033 544.812 414.033 544.812 414.033 544.812C414.822 544.812 415.446 545.394 415.446 546.183V551.545C415.446 551.711 415.404 551.794 415.363 551.96C415.321 552.002 415.321 552.043 415.321 552.085V552.126C415.238 552.334 415.113 552.542 414.864 552.708C413.326 553.913 411.414 554.62 409.336 554.62C404.391 554.537 400.359 550.672 400.359 545.809Z" fill="#2C3557"/>
<path d="M421.016 538.827C421.016 538.079 421.597 537.497 422.346 537.497C423.094 537.497 423.717 538.079 423.717 538.827V553.165C423.717 553.913 423.094 554.495 422.346 554.495C421.597 554.495 421.016 553.913 421.016 553.165V538.827Z" fill="#2C3557"/>
<path d="M430.948 553.165C430.948 553.914 430.325 554.495 429.618 554.495C428.87 554.495 428.288 553.872 428.288 553.165V539.035C428.288 539.035 428.288 539.035 428.288 538.993C428.247 538.578 428.455 538.121 428.829 537.871C429.452 537.456 430.283 537.58 430.657 538.162L438.512 549.009V538.993C438.512 538.287 439.094 537.663 439.842 537.663C440.59 537.663 441.172 538.287 441.172 538.993V553.124C441.172 553.872 440.549 554.454 439.842 554.454C439.468 554.454 439.094 554.246 438.845 553.955C438.803 553.914 438.762 553.872 438.72 553.83L430.948 543.025V553.165Z" fill="#2C3557"/>
<path d="M452.016 324.383C450.33 325.59 448.605 326.72 446.842 327.813C442.627 330.342 438.162 332.526 433.506 334.27C432.414 334.692 431.302 335.075 430.191 335.458C427.681 336.282 425.094 336.991 422.488 337.566C422.469 337.566 422.45 337.566 422.431 337.585C420.131 338.083 417.794 338.505 415.418 338.811C412.294 334.155 409.746 330.112 407.964 326.989C406.776 324.919 405.205 322.026 403.614 318.768C398.69 308.785 393.497 295.353 398.306 291.693C398.402 291.617 398.479 291.559 398.575 291.502C398.69 291.425 398.824 291.368 398.958 291.291C399.035 291.253 399.111 291.214 399.207 291.176C399.609 290.984 400.089 290.869 400.606 290.812C401.2 290.716 401.871 290.716 402.637 290.793C405.07 291.023 408.328 292.115 412.582 294.28V294.299C413.482 294.74 414.402 295.238 415.398 295.794C415.513 295.851 415.648 295.928 415.782 296.005C423.964 300.642 437.971 312.292 452.016 324.383Z" fill="#9291B2"/>
<path d="M454.89 322.237C453.952 322.984 452.993 323.693 452.016 324.383C450.33 325.59 448.605 326.72 446.843 327.813C442.627 330.342 438.163 332.526 433.506 334.27C432.414 334.692 431.303 335.075 430.191 335.458C427.681 336.282 425.095 336.991 422.489 337.566C422.469 337.566 422.45 337.566 422.431 337.585C420.132 338.083 417.794 338.505 415.418 338.811C414.958 338.869 414.479 338.926 414 338.984C408.999 331.128 404.783 324.038 401.852 318.5V318.481C401.679 318.155 401.507 317.849 401.354 317.542C400.319 315.53 399.418 313.633 398.652 311.851C398.077 310.51 397.579 309.226 397.157 308C396.889 307.195 396.64 306.409 396.41 305.643C396.218 304.972 396.065 304.34 395.912 303.727C395.778 303.094 395.663 302.481 395.567 301.887C395.299 300.297 395.222 298.86 395.337 297.595C395.414 296.445 395.643 295.43 396.008 294.568C396.199 294.108 396.41 293.686 396.678 293.303C396.812 293.111 396.946 292.939 397.081 292.767C397.234 292.594 397.387 292.422 397.56 292.268C397.713 292.115 397.885 291.981 398.077 291.847C398.154 291.789 398.23 291.732 398.307 291.693C398.403 291.617 398.479 291.559 398.575 291.502C398.69 291.425 398.824 291.368 398.958 291.291C399.035 291.253 399.112 291.214 399.207 291.176C399.227 291.157 399.246 291.157 399.265 291.138C399.648 290.965 400.051 290.812 400.491 290.697C402.982 290.046 406.336 290.41 410.379 291.808C410.379 291.808 410.379 291.828 410.398 291.828C412.046 292.383 413.828 293.111 415.705 294.031L415.725 294.05C418.714 295.487 421.952 297.384 425.459 299.722C434.177 305.547 444.658 313.806 454.89 322.237Z" fill="#0D0B54" fill-opacity="0.45"/>
<path d="M419.155 304.896C418.695 304.455 418.235 304.033 417.737 303.612H417.717C417.545 303.459 417.373 303.324 417.2 303.19C417.066 303.095 416.951 302.999 416.817 302.903C416.606 302.73 416.395 302.596 416.165 302.462C415.955 302.309 415.744 302.175 415.514 302.041C415.514 302.041 415.514 302.041 415.495 302.041C415.361 301.964 415.246 301.907 415.111 301.83C415.035 301.792 414.939 301.753 414.862 301.715C414.882 301.715 414.862 301.696 414.862 301.696C414.594 301.562 414.326 301.447 414.058 301.332C414.249 301.811 414.479 302.251 414.709 302.673C415.514 304.091 416.549 305.298 417.622 306.429C418.043 306.831 418.465 307.214 418.905 307.597C419.25 307.885 419.595 308.153 419.959 308.421C419.978 308.441 419.998 308.46 420.017 308.46C420.017 308.479 420.036 308.479 420.036 308.479C420.86 309.073 421.741 309.59 422.719 309.993C421.875 307.962 420.572 306.371 419.155 304.896ZM419.155 304.896C418.695 304.455 418.235 304.033 417.737 303.612H417.717C417.545 303.459 417.373 303.324 417.2 303.19C417.066 303.095 416.951 302.999 416.817 302.903C416.606 302.73 416.395 302.596 416.165 302.462C415.955 302.309 415.744 302.175 415.514 302.041C415.514 302.041 415.514 302.041 415.495 302.041C415.361 301.964 415.246 301.907 415.111 301.83C415.035 301.792 414.939 301.753 414.862 301.715C414.882 301.715 414.862 301.696 414.862 301.696C414.594 301.562 414.326 301.447 414.058 301.332C414.249 301.811 414.479 302.251 414.709 302.673C415.514 304.091 416.549 305.298 417.622 306.429C418.043 306.831 418.465 307.214 418.905 307.597C419.25 307.885 419.595 308.153 419.959 308.421C419.978 308.441 419.998 308.46 420.017 308.46C420.017 308.479 420.036 308.479 420.036 308.479C420.86 309.073 421.741 309.59 422.719 309.993C421.875 307.962 420.572 306.371 419.155 304.896Z" fill="#171F3F"/>
<path opacity="0.1" d="M446.843 327.813C442.627 330.342 438.162 332.526 433.506 334.27C432.414 334.692 431.303 335.075 430.191 335.458C427.681 336.282 425.094 336.991 422.488 337.566C422.469 337.566 422.45 337.566 422.431 337.585C420.132 338.083 417.794 338.505 415.418 338.811C414.958 338.869 414.479 338.926 414 338.984C408.999 331.128 404.783 324.038 401.852 318.5V318.481C401.679 318.155 401.507 317.849 401.353 317.542C400.319 315.53 399.418 313.633 398.652 311.851C398.077 310.51 397.579 309.226 397.157 308C396.889 307.195 396.64 306.41 396.41 305.643C396.218 304.972 396.065 304.34 395.912 303.727C395.777 303.095 395.663 302.481 395.567 301.887C395.318 300.297 395.241 298.86 395.337 297.595C395.413 296.446 395.643 295.43 396.007 294.568C396.199 294.108 396.41 293.686 396.678 293.303C396.812 293.112 396.946 292.939 397.08 292.767C397.234 292.594 397.387 292.422 397.559 292.268C397.713 292.115 397.885 291.981 398.077 291.847C398.154 291.789 398.23 291.732 398.307 291.694C398.403 291.617 398.479 291.559 398.575 291.502C398.69 291.425 398.824 291.368 398.958 291.291C399.035 291.253 399.112 291.215 399.207 291.176C399.227 291.157 399.246 291.157 399.265 291.138C399.648 290.965 400.07 290.831 400.51 290.716C401.028 290.582 401.603 290.486 402.216 290.448L402.637 290.793L409.42 296.503C409.42 296.503 409.44 296.522 409.459 296.522L414.958 301.121L417.583 303.325L446.843 327.813Z" fill="black"/>
<path d="M430.192 335.458C427.682 336.282 425.095 336.991 422.489 337.566C422.47 337.566 422.451 337.566 422.431 337.585C420.132 338.083 417.794 338.505 415.418 338.811C414.958 338.869 414.479 338.926 414 338.984C410.973 339.329 407.888 339.501 404.765 339.501C395.567 339.501 386.715 337.968 378.456 335.152C378.379 335.132 378.322 335.113 378.245 335.094C378.188 335.056 378.111 335.037 378.054 335.017C377.747 334.902 377.441 334.807 377.134 334.692C369.029 331.76 361.517 327.583 354.83 322.39C357.11 318.385 359.218 314.86 361.192 311.775C362.61 309.552 363.932 307.559 365.196 305.777C365.196 305.739 365.216 305.739 365.216 305.739L365.235 305.72C371.922 296.177 376.54 292.268 380.142 290.371C380.372 290.256 380.602 290.141 380.813 290.046C381.081 289.892 381.349 289.777 381.599 289.682C382.078 289.471 382.537 289.318 382.978 289.164C386.849 287.861 392.635 287.191 398.173 287.689C402.868 288.11 407.39 289.375 410.379 291.808C410.379 291.808 410.379 291.828 410.398 291.828C411.26 292.537 412.008 293.361 412.582 294.28V294.299C413.253 295.353 413.905 296.446 414.537 297.576C414.767 297.978 414.997 298.381 415.227 298.802C416.032 300.259 416.817 301.753 417.584 303.324C417.641 303.42 417.699 303.516 417.718 303.612H417.737C418.12 304.398 418.503 305.183 418.887 306.007C419.27 306.812 419.653 307.617 420.017 308.46C420.017 308.479 420.036 308.479 420.036 308.479C423.581 316.335 426.915 325.283 429.981 334.807C430.058 335.017 430.115 335.228 430.192 335.458Z" fill="#0D0B54" fill-opacity="0.45"/>
<path d="M402.389 332.105C400.358 332.143 398.327 332.335 396.277 333.178C398.327 334.04 400.358 334.213 402.389 334.251C404.439 334.213 406.49 334.021 408.521 333.178C406.49 332.335 404.439 332.143 402.389 332.105ZM367.592 304.206C367.305 304.34 367.036 304.512 366.768 304.666C366.5 304.819 366.232 304.992 365.982 305.183C365.848 305.26 365.733 305.336 365.638 305.432C365.503 305.528 365.369 305.624 365.235 305.72L365.216 305.739C365.216 305.739 365.197 305.739 365.197 305.777C365.159 305.796 365.139 305.815 365.12 305.835C364.507 306.314 363.951 306.831 363.396 307.348C361.978 308.824 360.675 310.414 359.812 312.445C360.292 312.254 360.751 312.024 361.192 311.775C362.591 310.989 363.798 309.954 364.909 308.881C366.327 307.425 367.63 305.815 368.473 303.784C368.167 303.918 367.879 304.053 367.592 304.206ZM418.887 306.007C418.504 305.202 418.121 304.397 417.718 303.612C417.546 303.459 417.373 303.324 417.201 303.19C417.067 303.095 416.952 302.999 416.818 302.903C416.607 302.73 416.396 302.596 416.166 302.462C415.955 302.309 415.745 302.175 415.515 302.041C415.515 302.041 415.515 302.041 415.495 302.041C415.361 301.964 415.246 301.907 415.112 301.83C415.036 301.792 414.94 301.734 414.863 301.696C414.595 301.562 414.327 301.447 414.058 301.332C414.25 301.811 414.48 302.251 414.71 302.673C415.515 304.091 416.549 305.298 417.622 306.429C418.044 306.831 418.465 307.214 418.906 307.597C419.251 307.885 419.596 308.153 419.96 308.421C419.979 308.441 419.998 308.46 420.018 308.46C419.653 307.617 419.27 306.812 418.887 306.007ZM418.887 306.007C418.504 305.202 418.121 304.397 417.718 303.612C417.546 303.459 417.373 303.324 417.201 303.19C417.067 303.095 416.952 302.999 416.818 302.903C416.607 302.73 416.396 302.596 416.166 302.462C415.955 302.309 415.745 302.175 415.515 302.041C415.515 302.041 415.515 302.041 415.495 302.041C415.361 301.964 415.246 301.907 415.112 301.83C415.036 301.792 414.94 301.734 414.863 301.696C414.595 301.562 414.327 301.447 414.058 301.332C414.25 301.811 414.48 302.251 414.71 302.673C415.515 304.091 416.549 305.298 417.622 306.429C418.044 306.831 418.465 307.214 418.906 307.597C419.251 307.885 419.596 308.153 419.96 308.421C419.979 308.441 419.998 308.46 420.018 308.46C419.653 307.617 419.27 306.812 418.887 306.007Z" fill="#171F3F"/>
<path d="M385.948 303.919C385.411 308.345 384.127 313.863 382 320.551C380.353 325.686 378.724 330.38 377.134 334.692C369.028 331.76 361.517 327.583 354.83 322.39C353.22 321.145 351.649 319.822 350.154 318.462C352.875 314.841 355.615 311.334 358.336 307.981C367.38 296.848 375.122 290.812 380.142 290.371C380.333 290.352 380.525 290.333 380.717 290.333C384.99 290.333 387.059 294.74 385.948 303.919Z" fill="#9291B2"/>
<path d="M387.021 305.528C386.485 310.433 385.431 314.821 385.182 315.799C384.281 319.42 382.48 324.498 380.276 330.112V330.131C379.625 331.741 378.935 333.408 378.245 335.094C378.188 335.056 378.111 335.037 378.054 335.017C377.747 334.902 377.44 334.807 377.134 334.692C369.029 331.76 361.517 327.583 354.83 322.39C353.22 321.145 351.649 319.822 350.155 318.462C349.618 317.983 349.101 317.504 348.603 317.025C354.408 309.629 360.023 303.42 365.081 298.956C372.478 292.441 377.517 289.835 380.909 289.682C381.158 289.662 381.388 289.662 381.598 289.682C387.443 290.007 387.807 298.343 387.021 305.528Z" fill="#0D0B54" fill-opacity="0.45"/>
<path d="M367.591 304.206C367.304 304.34 367.035 304.513 366.767 304.666C366.499 304.819 366.231 304.992 365.981 305.183C365.847 305.26 365.732 305.336 365.637 305.432C365.483 305.547 365.33 305.662 365.196 305.777C365.158 305.796 365.138 305.816 365.119 305.835C364.506 306.314 363.95 306.831 363.395 307.348C361.977 308.824 360.674 310.414 359.812 312.445C360.291 312.254 360.75 312.024 361.191 311.775C362.59 310.989 363.797 309.954 364.908 308.881C366.326 307.425 367.629 305.816 368.472 303.784C368.166 303.919 367.878 304.053 367.591 304.206Z" fill="#171F3F"/>
<path d="M380.276 330.112C380.276 330.15 380.276 330.15 380.276 330.17C379.682 331.837 379.069 333.504 378.456 335.152C378.379 335.132 378.322 335.113 378.245 335.094C378.188 335.056 378.111 335.037 378.054 335.017C378.763 333.389 379.472 331.76 380.142 330.112C380.161 330.035 380.257 330.055 380.276 330.112Z" fill="#263238"/>
<path d="M404.248 318.769C395.606 319.094 383.917 303.669 380.334 292.345C380.085 291.559 382.634 284.393 385.297 275.521C386.887 270.137 388.535 264.101 389.647 258.487C389.877 257.337 423.198 273.988 423.198 273.988C423.198 273.988 417.412 285.083 415.534 294.893C415.38 295.717 415.323 296.484 415.323 297.25C415.323 297.365 415.323 297.499 415.304 297.634C415.15 302.156 412.602 318.462 404.248 318.769Z" fill="#FFC4C0"/>
<path d="M391.793 259.062C391.563 268.872 392.943 292.996 411.644 297.116C412.947 297.404 414.154 297.576 415.285 297.633C415.323 297.48 415.304 297.346 415.323 297.231C415.323 296.465 415.381 295.698 415.534 294.893C417.412 285.064 423.199 273.988 423.199 273.988C423.199 273.988 399.151 261.974 391.793 259.062Z" fill="#263238"/>
<path d="M383.649 221.544C380.027 234.363 387.538 270.98 396.755 278.99C410.13 290.601 431.648 291.272 441.401 275.291C450.867 259.79 440.251 212.231 429.981 204.988C414.863 194.315 388.995 202.612 383.649 221.544Z" fill="#FFC4C0"/>
<path d="M415.725 244.671C415.687 244.576 415.553 244.825 415.591 244.94C416.262 247.373 416.607 250.267 414.576 251.608C414.518 251.646 414.556 251.78 414.633 251.742C417.239 250.707 416.741 246.875 415.725 244.671Z" fill="#263238"/>
<path d="M412.909 242.64C408.904 243.292 410.475 251.263 414.193 250.669C417.872 250.075 416.281 242.104 412.909 242.64Z" fill="#263238"/>
<path d="M429.886 241.836C429.886 241.74 430.097 241.912 430.116 242.008C430.537 244.499 431.419 247.277 433.814 247.641C433.891 247.661 433.91 247.776 433.814 247.776C431.016 247.948 429.867 244.25 429.886 241.836Z" fill="#263238"/>
<path d="M431.572 238.808C435.481 237.716 437.378 245.63 433.756 246.626C430.192 247.641 428.295 239.728 431.572 238.808Z" fill="#263238"/>
<path d="M409.172 238.731C410.207 238.252 411.088 237.62 412.046 237.045C413.139 236.394 414.078 235.972 414.652 234.765C414.959 234.114 414.595 233.136 413.982 232.772C412.583 231.948 411.031 232.408 409.67 233.155C408.195 233.96 407.275 234.957 406.643 236.509C406.049 238.003 407.812 239.364 409.172 238.731Z" fill="#263238"/>
<path d="M434.523 235.57C433.393 235.704 432.32 235.627 431.189 235.627C429.905 235.646 428.89 235.781 427.778 235.033C427.184 234.631 426.974 233.596 427.318 232.983C428.085 231.546 429.656 231.144 431.189 231.067C432.856 230.99 434.178 231.354 435.52 232.351C436.803 233.328 436.018 235.417 434.523 235.57Z" fill="#263238"/>
<path d="M417.239 266.324C417.737 266.994 418.216 267.895 419.097 268.106C419.96 268.317 421.033 268.087 421.876 267.895C421.952 267.876 422.029 267.972 421.972 268.048C421.186 268.911 419.73 269.294 418.599 268.911C417.507 268.547 417.105 267.473 416.99 266.4C416.97 266.247 417.162 266.228 417.239 266.324Z" fill="#263238"/>
<path d="M419.366 259.1C421.167 260.978 423.447 261.744 425.727 261.725C426.743 261.725 427.778 261.553 428.774 261.265C428.966 261.227 429.157 261.169 429.33 261.093C429.502 261.035 429.655 260.978 429.847 260.901C430.134 260.805 430.23 260.537 430.23 260.25V260.23C430.211 260.135 430.192 260.077 430.154 259.981C430.154 259.981 430.154 259.981 430.154 259.962L430.115 259.751C429.79 257.835 429.023 254.98 429.023 254.98C429.79 255.191 433.641 256.072 433.392 255.095C431.265 246.971 428.908 237.927 425.076 230.281C424.961 230.013 424.558 230.166 424.635 230.435C426.36 238.329 429.483 245.859 431.342 253.754C430.134 253.543 428.122 253.122 427.126 253.332C426.877 253.467 428.697 258.832 428.774 259.694C428.774 259.694 428.774 259.732 428.774 259.79C425.651 260.825 423.064 260.345 419.538 258.813C419.327 258.736 419.174 258.928 419.366 259.1Z" fill="#263238"/>
<path d="M382.212 250.209C391.927 250.688 396.755 239 394.284 229.745C394.284 229.745 420.171 232.619 420.975 211.867C420.975 211.867 426.245 220.758 437.952 220.816L440.999 228.404C443.624 227.58 446.287 219.992 439.696 214.224C439.696 214.224 439.025 203.896 431.284 197.86C423.543 191.824 416.051 196.059 416.051 196.059C416.051 196.059 409.881 191.135 400.396 192.553C390.911 193.971 387.175 202.727 387.175 202.727C387.175 202.727 374.432 205.448 372.459 214.569C370.466 223.69 375.295 229.687 375.295 229.687C375.295 229.687 372.152 233.328 373.953 241.05C375.103 245.994 379.28 250.056 382.212 250.209Z" fill="#263238"/>
<path d="M420.362 210.028C420.573 211.714 420.669 213.419 420.535 215.086C420.477 216.773 420.151 218.42 419.711 220.011C418.733 223.172 416.722 225.951 413.886 227.58C411.146 229.419 407.697 229.783 404.42 230.166C402.753 230.147 401.067 230.262 399.38 230.147C397.694 230.013 396.008 229.841 394.303 229.745C395.97 230.109 397.637 230.396 399.323 230.741C401.009 230.971 402.734 230.971 404.458 231.105C407.869 230.894 411.452 230.53 414.518 228.614C417.545 226.775 419.768 223.671 420.592 220.279C421.378 216.849 421.244 213.323 420.362 210.028Z" fill="#263238"/>
<path d="M433.909 221.735C431.016 220.758 428.295 219.474 425.995 217.692C424.807 216.83 423.811 215.757 422.91 214.607C421.972 213.458 421.358 212.116 420.649 210.737C420.86 212.25 421.282 213.783 422.144 215.125C422.93 216.485 424.003 217.692 425.267 218.65C426.532 219.608 427.912 220.375 429.387 220.892C430.843 221.371 432.376 221.716 433.909 221.735Z" fill="#263238"/>
<path d="M392.137 251.34C392.137 251.34 383.342 239.805 378.073 242.985C372.804 246.166 379.759 263.143 386.197 265.232C392.616 267.32 394.686 261.419 394.686 261.419L392.137 251.34Z" fill="#FFC4C0"/>
<path d="M380.2 247.795C380.105 247.795 380.085 247.929 380.181 247.967C384.703 249.577 387.194 253.601 389.015 257.797C387.635 256.207 385.795 255.383 383.649 257.05C383.534 257.146 383.649 257.318 383.783 257.28C385.585 256.82 386.907 257.069 388.191 258.487C389.11 259.483 389.743 260.767 390.413 261.917C390.643 262.3 391.352 262.07 391.18 261.61C391.161 261.572 391.161 261.533 391.141 261.514C391.026 255.862 386.294 248.121 380.2 247.795Z" fill="#263238"/>
<g opacity="0.2">
<path d="M403.807 254.77C403.787 255.095 403.519 255.344 403.193 255.325C402.868 255.306 402.619 255.038 402.638 254.712C402.657 254.386 402.925 254.137 403.251 254.156C403.557 254.176 403.807 254.444 403.807 254.77Z" fill="black"/>
<path d="M416.127 254.731C416.108 255.057 415.84 255.306 415.514 255.287C415.188 255.268 414.939 255 414.958 254.674C414.977 254.348 415.246 254.099 415.571 254.118C415.878 254.137 416.146 254.406 416.127 254.731Z" fill="black"/>
<path d="M411.605 258.851C411.586 259.177 411.318 259.426 410.992 259.407C410.667 259.387 410.417 259.119 410.437 258.793C410.456 258.468 410.724 258.219 411.05 258.238C411.376 258.257 411.625 258.525 411.605 258.851Z" fill="black"/>
<path d="M404.343 249.922C404.324 250.247 404.055 250.497 403.73 250.477C403.404 250.458 403.155 250.19 403.174 249.864C403.193 249.538 403.461 249.289 403.787 249.309C404.094 249.328 404.362 249.596 404.343 249.922Z" fill="black"/>
<path d="M409.996 253.486C409.977 253.812 409.709 254.061 409.383 254.041C409.057 254.022 408.808 253.754 408.827 253.428C408.846 253.103 409.115 252.853 409.44 252.873C409.766 252.892 410.015 253.16 409.996 253.486Z" fill="black"/>
<path d="M440.615 246.3C440.596 246.626 440.328 246.875 440.002 246.856C439.676 246.837 439.427 246.568 439.446 246.243C439.466 245.917 439.734 245.668 440.06 245.687C440.385 245.706 440.634 245.974 440.615 246.3Z" fill="black"/>
<path d="M435.902 249.443C435.883 249.768 435.615 250.018 435.289 249.998C434.963 249.979 434.714 249.711 434.733 249.385C434.753 249.059 435.021 248.81 435.347 248.83C435.653 248.849 435.902 249.117 435.902 249.443Z" fill="black"/>
<path d="M436.898 253.352C436.879 253.677 436.611 253.926 436.285 253.907C435.96 253.888 435.71 253.62 435.73 253.294C435.749 252.968 436.017 252.719 436.343 252.738C436.668 252.758 436.918 253.045 436.898 253.352Z" fill="black"/>
<path d="M441.018 250.842C440.998 251.167 440.73 251.416 440.404 251.397C440.079 251.378 439.83 251.11 439.849 250.784C439.868 250.458 440.136 250.209 440.462 250.228C440.768 250.247 441.018 250.516 441.018 250.842Z" fill="black"/>
</g>
<path d="M905.617 769.386C900.271 771.322 742.132 774.445 736.173 770.804C735.483 770.44 732.896 718.111 732.896 718.111C733.088 717.363 730.444 712.324 726.42 705.311C715.134 685.632 693.098 650.394 693.098 650.394L786.97 622.016L825.522 699.256L835.352 718.954C835.352 718.954 856.909 727.385 875.725 735.777C875.744 735.797 875.783 735.797 875.783 735.835C887.375 740.989 897.435 745.722 899.792 747.485C905.808 752.141 910.944 767.489 905.617 769.386Z" fill="#FFBCA0"/>
<path d="M905.617 769.387C900.271 771.322 742.132 774.445 736.173 770.804C735.483 770.44 732.896 718.111 732.896 718.111C733.088 717.363 730.444 712.324 726.42 705.311L825.522 699.237L835.352 718.935C835.352 718.935 856.909 727.366 875.725 735.758C875.744 735.778 875.783 735.778 875.783 735.816C887.375 740.97 897.435 745.703 899.792 747.466C905.808 752.141 910.944 767.49 905.617 769.387Z" fill="#171F3F"/>
<path d="M906.268 769.98C900.769 771.935 742.4 774.637 736.307 770.938C733.989 769.54 731.191 745.166 732.896 718.13L834.988 716.501C834.988 716.501 894.12 742.637 900.367 747.427C906.613 752.199 911.768 768.026 906.268 769.98Z" fill="#1A416F"/>
<path opacity="0.1" d="M736.326 770.919C738.549 772.26 761.064 772.778 789.001 772.778L735.407 718.072L735.387 718.053L732.896 718.11C731.191 745.147 733.989 769.52 736.326 770.919Z" fill="#171F3F"/>
<path d="M903.892 763.676C877.335 763.485 770.204 765.19 743.933 767.01C743.723 767.03 743.723 767.164 743.933 767.183C770.261 767.949 877.373 765.363 903.892 764.117C904.467 764.079 904.448 763.676 903.892 763.676Z" fill="#E1E5FA"/>
<path d="M890.097 741.89C883.793 741.737 877.699 744.841 874.327 748.654C871.089 752.314 868.349 757.43 868.636 762.929C868.636 763.082 868.943 763.082 868.962 762.929C870.303 752.525 879.596 743.231 890.116 742.235C890.327 742.197 890.307 741.89 890.097 741.89Z" fill="#E1E5FA"/>
<path d="M843.362 719.011C832.728 719.05 820.483 723.016 814.026 731.811C813.777 732.156 814.256 732.501 814.582 732.328C824.105 727.212 833.168 723.361 843.573 720.314C844.301 720.084 844.129 719.011 843.362 719.011Z" fill="white"/>
<path d="M851.62 722.058C840.985 722.096 828.741 726.063 822.284 734.858C822.035 735.203 822.514 735.547 822.84 735.375C832.363 730.259 841.426 726.408 851.831 723.361C852.559 723.15 852.386 722.058 851.62 722.058Z" fill="#E1E5FA"/>
<path d="M859.879 725.124C849.244 725.162 837 729.128 830.543 737.924C830.294 738.268 830.773 738.613 831.098 738.441C840.622 733.325 849.685 729.473 860.089 726.427C860.818 726.216 860.645 725.124 859.879 725.124Z" fill="#E1E5FA"/>
<path d="M868.138 728.17C857.503 728.209 845.259 732.175 838.801 740.97C838.552 741.315 839.031 741.66 839.357 741.488C848.88 736.371 857.944 732.52 868.348 729.473C869.076 729.263 868.904 728.17 868.138 728.17Z" fill="#E1E5FA"/>
<path d="M750.275 741.698C738.357 741.928 738.702 760.457 750.639 760.227C762.558 759.978 762.213 741.449 750.275 741.698Z" fill="#E1E5FA"/>
<path d="M853.786 706.039C848.171 713.531 839.529 718.341 832.057 723.706C831.29 724.261 830.37 723.648 830.121 722.882C829.949 722.901 829.776 722.805 829.776 722.575C830.217 713.416 833.724 702.839 838.974 695.232C842.212 690.537 848.919 686.073 854.36 690.442C859.515 694.58 857.062 701.67 853.786 706.039ZM854.13 697.225C852.885 685.69 842.595 694.734 840.353 698.298C838.916 700.578 837.709 703.069 836.598 705.522C834.26 710.657 832.689 716.041 830.888 721.368C834.394 718.513 838.131 715.984 841.733 713.244C846.025 710.005 854.82 703.605 854.13 697.225Z" fill="white"/>
<path d="M791.933 716.463C792.642 709.507 800.536 707.878 806.151 708.856C815.233 710.446 825.235 715.37 832.076 721.483C832.248 721.636 832.191 721.828 832.057 721.924C832.421 722.633 832.229 723.706 831.29 723.878C822.227 725.449 812.723 728.247 803.449 726.982C798.045 726.235 791.262 723.035 791.933 716.463ZM817.073 723.437C821.556 722.767 825.964 721.904 830.466 721.406C825.408 718.954 820.464 716.309 815.156 714.374C812.627 713.454 810.002 712.554 807.358 711.979C803.257 711.097 789.576 712.055 796.934 721.061C800.977 726.005 811.727 724.223 817.073 723.437Z" fill="white"/>
<path d="M719.272 704.295L830.619 687.414C830.619 687.414 777.101 580.743 743.952 522.837C725.538 490.646 675.125 489.075 650.617 527.647C617.87 579.172 592.462 627.439 577.9 654.208L552.645 656.373L558.087 697.646L642.033 716.444C674.186 720.295 696.758 663.041 697.275 664.018C701.376 671.529 719.272 704.295 719.272 704.295Z" fill="#033656"/>
<path d="M697.888 664.267C694.726 657.791 692.255 650.893 689.438 644.244C686.717 637.805 683.977 631.386 681.275 624.948C675.814 611.938 670.162 598.985 664.854 585.917C661.884 578.578 659.144 571.143 656.365 563.728C656.308 563.555 656.02 563.632 656.078 563.823C658.224 570.837 660.466 577.811 662.804 584.767C662.171 583.56 661.558 582.372 660.907 581.203C659.125 578.003 657.266 574.841 655.426 571.68C655.35 571.565 655.177 571.68 655.235 571.795C656.94 574.975 658.646 578.137 660.428 581.26C661.309 582.812 662.267 584.364 663.206 585.917C669.817 605.365 677.309 624.488 686.295 642.979C689.84 650.241 693.979 657.197 697.524 664.459C697.658 664.708 698.003 664.497 697.888 664.267Z" fill="#E1E5FA"/>
<path d="M721.763 684.502C716.398 676.224 703.617 651.142 699.037 642.481C689.782 624.948 681.294 607.051 673.285 588.925C668.762 578.673 664.528 568.345 660.331 557.96C660.312 557.883 660.197 557.922 660.216 557.998C666.521 576.7 674.032 595.037 682.195 613.011C690.357 631.003 716.704 679.501 721.437 684.732C721.59 684.904 721.897 684.712 721.763 684.502Z" fill="#E1E5FA"/>
<path d="M652.629 571.795C643.029 588.925 633.238 605.94 623.6 623.051C618.733 631.693 613.866 640.354 609.037 649.015C606.776 653.096 604.572 657.235 602.216 661.259C599.993 665.072 597.329 668.234 593.421 670.38C589.109 672.756 584.146 673.886 579.452 675.247C574.029 676.837 568.664 678.543 563.222 680.037C562.973 680.114 563.088 680.478 563.337 680.42C568.185 679.117 573.09 678.006 577.957 676.799C582.384 675.707 586.944 674.787 591.236 673.216C595.126 671.798 598.479 669.69 601.085 666.413C603.863 662.907 605.837 658.806 607.983 654.897C617.602 637.307 627.145 619.641 636.591 601.955C641.975 591.895 647.302 581.816 652.744 571.795C652.744 571.795 652.667 571.737 652.629 571.795Z" fill="#E1E5FA"/>
<path d="M716.743 688.679C723.411 687.472 730.252 686.878 736.977 686.015C743.722 685.153 750.467 684.272 757.212 683.39C770.663 681.628 816.478 674.346 819.927 673.197C820.138 673.12 820.061 672.775 819.85 672.756C816.574 672.66 786.567 676.646 779.841 677.642C766.39 679.616 753.015 682.011 739.602 684.272C735.77 684.923 731.957 685.651 728.144 686.322C724.331 686.993 720.518 687.817 716.666 688.315C716.436 688.334 716.513 688.717 716.743 688.679Z" fill="#E1E5FA"/>
<path d="M787.219 793.223C785.207 787.916 684.361 666.049 677.731 663.903C676.965 663.616 635.653 695.807 635.653 695.807C634.005 698.221 552.224 684.636 552.224 684.636L555.673 782.435L703.158 772.874C703.158 772.874 723.604 783.738 742.267 792.476C742.305 792.476 742.305 792.495 742.324 792.476C753.802 797.899 763.957 802.459 766.813 803.072C774.285 804.644 789.27 798.493 787.219 793.223Z" fill="#FFBCA0"/>
<path d="M766.812 803.072C763.938 802.459 753.801 797.918 742.324 792.476C742.304 792.495 742.285 792.476 742.247 792.476C723.603 783.719 703.158 772.855 703.158 772.855L670.334 774.982L615.303 694.217C626.685 695.73 635.154 696.554 635.671 695.788C635.671 695.788 676.964 663.597 677.731 663.903C684.341 666.049 785.188 787.896 787.219 793.204C789.25 798.493 774.285 804.663 766.812 803.072Z" fill="#171F3F"/>
<path d="M788.1 793.338C785.993 787.897 684.706 666.126 677.922 663.922C675.355 663.079 655.063 676.856 635.672 695.788L701.05 774.215C701.05 774.215 759.435 801.961 767.157 803.59C774.841 805.199 790.208 798.78 788.1 793.338Z" fill="#1A416F"/>
<path d="M781.777 795.657C764.302 775.653 695.685 693.354 679.934 672.277C679.8 672.105 679.915 672.009 680.068 672.162C697.831 691.611 765.758 774.465 782.122 795.389C782.448 795.81 782.141 796.079 781.777 795.657Z" fill="white"/>
<path d="M756.254 799.413C752.038 794.737 750.39 788.088 751.08 783.049C751.732 778.201 753.839 772.798 758.189 769.425C758.304 769.329 758.496 769.559 758.4 769.674C751.387 777.492 750.409 790.579 756.522 799.202C756.637 799.374 756.407 799.566 756.254 799.413Z" fill="white"/>
<path d="M708.427 778.929C701.51 770.862 696.528 758.982 698.98 748.347C699.076 747.926 699.651 748.079 699.728 748.424C702.065 758.982 705.074 768.352 709.538 778.239C709.864 778.929 708.925 779.523 708.427 778.929Z" fill="white"/>
<path d="M716.13 783.202C709.213 775.135 704.231 763.255 706.684 752.621C706.779 752.218 707.354 752.352 707.431 752.697C709.769 763.255 712.777 772.625 717.241 782.512C717.567 783.202 716.628 783.777 716.13 783.202Z" fill="white"/>
<path d="M723.833 787.456C716.916 779.389 711.934 767.509 714.387 756.874C714.482 756.472 715.057 756.606 715.134 756.951C717.472 767.509 720.48 776.879 724.945 786.766C725.27 787.456 724.331 788.031 723.833 787.456Z" fill="white"/>
<path d="M731.535 791.729C724.618 783.662 719.636 771.782 722.089 761.148C722.185 760.726 722.759 760.879 722.836 761.224C725.174 771.782 728.182 781.152 732.647 791.039C732.972 791.729 732.034 792.304 731.535 791.729Z" fill="white"/>
<path d="M664.873 693.584C657.285 684.387 671.541 672.564 679.148 681.781C686.736 690.959 672.48 702.782 664.873 693.584Z" fill="white"/>
<path d="M693.96 805.889C687.1 804.605 686.104 796.615 687.541 791.096C689.879 782.167 695.589 772.606 702.257 766.302C702.429 766.148 702.602 766.225 702.698 766.359C703.426 766.053 704.499 766.321 704.575 767.279C705.399 776.438 707.392 786.134 705.38 795.274C704.211 800.62 700.456 807.115 693.96 805.889ZM703.004 781.439C702.717 776.917 702.199 772.452 702.084 767.93C699.229 772.778 696.183 777.473 693.807 782.608C692.676 785.061 691.565 787.59 690.779 790.177C689.553 794.201 689.4 807.901 698.961 801.31C704.211 797.669 703.349 786.804 703.004 781.439Z" fill="white"/>
<path d="M688.423 743.481C695.436 749.689 699.518 758.714 704.231 766.608C704.729 767.432 704.02 768.275 703.254 768.467C703.254 768.639 703.158 768.812 702.928 768.774C693.827 767.586 683.575 763.217 676.447 757.373C672.04 753.751 668.131 746.719 672.941 741.641C677.482 736.832 684.323 739.859 688.423 743.481ZM679.666 742.427C668.055 742.733 676.236 753.713 679.59 756.242C681.736 757.871 684.131 759.27 686.488 760.592C691.412 763.351 696.643 765.363 701.817 767.586C699.249 763.849 697.046 759.94 694.612 756.108C691.738 751.548 686.066 742.254 679.666 742.427Z" fill="white"/>
<path d="M599.763 659.937C599.763 659.937 473.298 642.96 431.909 654.112C374.176 669.671 367.565 739.016 412.02 765.401C468.354 798.838 663.762 780.213 663.762 780.213L609.209 688.277C609.209 688.277 527.352 673.024 453.964 678.945L602.024 697.263L599.763 659.937Z" fill="#033656"/>
<path d="M612.984 694.446C612.907 694.331 612.888 694.082 612.85 693.948C612.812 693.814 612.773 693.68 612.735 693.546C612.658 693.239 612.562 692.914 612.467 692.607C612.275 691.955 612.026 691.342 611.777 690.71C611.528 690.078 611.24 689.484 610.953 688.87C610.646 688.238 610.263 687.74 609.899 687.184C609.861 687.127 609.803 687.127 609.746 687.088C609.707 687.069 609.688 687.05 609.65 687.012C609.612 686.993 609.573 686.954 609.516 686.954C609.477 686.935 609.439 686.916 609.382 686.897C600.395 685.46 539.404 678.542 530.36 677.814C521.239 677.067 512.08 676.531 502.94 676.09C484.699 675.208 466.399 675.17 448.196 676.301C446.491 676.416 444.785 676.55 443.08 676.703C442.716 676.588 442.314 676.531 441.95 676.454C441.068 676.262 440.187 676.052 439.286 675.917C437.619 675.649 435.952 675.458 434.285 675.247C430.817 674.825 427.329 674.557 423.88 674.001C423.67 673.963 423.612 674.308 423.823 674.365C427.31 675.055 430.74 676.013 434.228 676.684C435.224 676.875 436.239 677.067 437.255 677.259C430.587 677.929 423.938 678.792 417.289 679.75C417.078 679.788 417.097 680.133 417.308 680.114C426.352 679.137 435.511 678.657 444.594 678.428C453.638 678.198 462.663 678.025 471.707 678.198C489.987 678.562 508.286 679.558 526.547 680.861C536.798 681.589 598.977 688.832 609.228 688.851C609.267 688.851 609.305 688.832 609.362 688.832C609.458 689.081 609.554 689.35 609.688 689.599C609.995 690.193 610.301 690.787 610.627 691.381C610.953 691.936 611.259 692.511 611.623 693.048C611.796 693.316 611.988 693.584 612.16 693.833C612.256 693.967 612.332 694.102 612.428 694.236C612.505 694.351 612.677 694.523 612.716 694.657C612.773 694.849 613.118 694.676 612.984 694.446Z" fill="#E1E5FA"/>
<path d="M635.729 774.464C632.51 769.176 629.712 763.504 626.723 758.043C623.734 752.563 620.744 747.083 617.755 741.602C611.777 730.681 590.45 693.967 588.381 691.438C588.247 691.285 587.998 691.476 588.074 691.668C589.128 694.542 602.503 718.858 605.588 724.281C611.739 735.126 618.158 745.741 624.5 756.433C626.32 759.48 628.179 762.508 630.019 765.535C631.839 768.563 633.793 771.552 635.48 774.675C635.575 774.847 635.844 774.656 635.729 774.464Z" fill="#E1E5FA"/>
<path d="M585.066 701.498C579.624 700.31 574.086 699.62 568.587 698.738C563.088 697.838 557.588 696.956 552.089 696.075C541.091 694.312 530.073 692.664 519.055 691.112C497.077 688.027 475.022 685.613 452.91 684.253C440.417 683.486 427.924 683.16 415.43 682.7C415.162 682.7 415.2 683.16 415.469 683.16C437.696 683.294 459.98 685.632 482.093 688.161C503.994 690.652 525.838 693.488 547.682 696.573C553.852 697.436 560.003 698.336 566.173 699.237C572.419 700.156 578.704 701.344 584.989 701.938C585.219 701.919 585.315 701.555 585.066 701.498Z" fill="#E1E5FA"/>
<path d="M585.086 543.205C597.196 564.34 645.425 629.547 660.601 631.712C676.39 633.973 734.602 628.972 745.217 616.479C750.41 610.366 742.037 557.883 733.97 560.815C725.903 563.746 676.102 575.78 669.702 574.841C663.341 573.921 611.701 523.929 592.674 513.16C559.869 494.536 578.552 531.804 585.086 543.205Z" fill="#9291B2"/>
<path d="M721.151 562.463L733.434 627.496C733.434 627.496 675.126 639.453 657.938 634.414C640.731 629.374 592.693 561.064 578.686 534.046C564.679 507.029 576.924 499.939 602.063 516.763C627.222 533.587 667.557 571.334 671.466 571.507C675.375 571.641 721.151 562.463 721.151 562.463Z" fill="#006BC1"/>
<path d="M595.951 521.764C597.312 523.182 598.595 524.734 599.419 526.708C597.446 525.884 595.894 524.619 594.476 523.239C593.115 521.821 591.831 520.269 591.007 518.296C592.981 519.12 594.514 520.403 595.951 521.764ZM721.746 620.866C723.738 620.905 725.712 621.096 727.686 621.901C725.712 622.725 723.738 622.917 721.746 622.955C719.772 622.917 717.798 622.725 715.805 621.901C717.798 621.096 719.772 620.905 721.746 620.866ZM626.456 601.437C628.449 601.475 630.422 601.667 632.415 602.472C630.422 603.296 628.449 603.487 626.456 603.525C626.207 603.525 625.92 603.506 625.67 603.506C625.172 602.874 624.655 602.242 624.138 601.59C624.942 601.494 625.69 601.456 626.456 601.437ZM667.96 617.015C668.783 618.989 668.956 620.981 668.994 622.955C668.956 624.929 668.783 626.921 667.96 628.895C667.136 626.921 666.963 624.929 666.906 622.955C666.944 620.981 667.136 618.989 667.96 617.015ZM619.117 553.457C619.941 555.43 620.133 557.404 620.152 559.397C620.114 561.37 619.941 563.363 619.117 565.337C618.293 563.363 618.121 561.37 618.083 559.397C618.083 557.404 618.293 555.43 619.117 553.457ZM595.951 521.764C597.312 523.182 598.595 524.734 599.419 526.708C597.446 525.884 595.894 524.619 594.476 523.239C593.115 521.821 591.831 520.269 591.007 518.296C592.981 519.12 594.514 520.403 595.951 521.764ZM658.666 575.358C660.027 576.776 661.311 578.309 662.135 580.302C660.161 579.459 658.609 578.213 657.191 576.814C655.83 575.397 654.547 573.864 653.723 571.871C655.696 572.714 657.248 573.979 658.666 575.358ZM717.53 563.191H717.549C717.722 563.344 717.894 563.516 718.086 563.689C719.446 565.107 720.73 566.64 721.554 568.633C719.58 567.809 718.047 566.544 716.61 565.145C716.15 564.647 715.691 564.168 715.269 563.631C716.093 563.478 716.859 563.325 717.53 563.191ZM694.057 595.382C695.475 594.021 697.008 592.738 699.001 591.914C698.177 593.887 696.912 595.439 695.514 596.857C694.096 598.218 692.563 599.502 690.589 600.325C691.413 598.352 692.697 596.819 694.057 595.382ZM626.456 601.437C628.449 601.475 630.422 601.667 632.415 602.472C630.422 603.296 628.449 603.487 626.456 603.525C626.207 603.525 625.92 603.506 625.67 603.506C625.172 602.874 624.655 602.242 624.138 601.59C624.942 601.494 625.69 601.456 626.456 601.437ZM619.117 553.457C619.941 555.43 620.133 557.404 620.152 559.397C620.114 561.37 619.941 563.363 619.117 565.337C618.293 563.363 618.121 561.37 618.083 559.397C618.083 557.404 618.293 555.43 619.117 553.457Z" fill="#171F3F"/>
<path d="M710.613 597.911C709.616 592.757 705.803 572.139 705.248 566.966C705.248 566.889 705.362 566.832 705.401 566.927C706.895 571.775 711.264 592.01 712.28 597.164C714.272 607.435 716.495 617.724 717.357 628.186C717.377 628.378 717.089 628.474 717.032 628.282C714.196 618.318 712.567 608.067 710.613 597.911Z" fill="#263238"/>
<path opacity="0.1" d="M578.667 534.027C592.693 561.064 640.712 629.374 657.919 634.394C670.948 638.208 707.527 632.287 724.523 629.183L579.51 507.738C571.367 508.332 570.064 517.414 578.667 534.027Z" fill="black"/>
<path d="M629.502 662.964L486.136 671.28C486.309 668.349 508.747 586.127 524.861 554.817C545.536 514.674 554.715 508.543 560.846 506.492C568.702 503.867 584.817 503.887 589.569 511.455C615.188 552.403 631.456 661.144 629.502 662.964Z" fill="#006BC1"/>
<path d="M594.551 520.518C595.318 522.051 596.065 523.603 596.793 525.251C595.95 524.638 595.183 523.968 594.455 523.259C593.095 521.841 591.811 520.289 590.987 518.315C592.348 518.871 593.497 519.637 594.551 520.518ZM551.4 653.345C552.76 654.763 554.044 656.296 554.868 658.289C552.894 657.465 551.342 656.2 549.924 654.821C548.564 653.383 547.28 651.851 546.456 649.877C548.41 650.701 549.963 651.985 551.4 653.345ZM594.551 520.518C595.318 522.051 596.065 523.603 596.793 525.251C595.95 524.638 595.183 523.968 594.455 523.259C593.095 521.841 591.811 520.289 590.987 518.315C592.348 518.871 593.497 519.637 594.551 520.518ZM510.337 590.553H510.356C510.701 590.362 511.084 590.17 511.467 589.998C510.912 591.32 510.164 592.45 509.321 593.485C509.647 592.508 510.011 591.511 510.337 590.553ZM541.857 524.159C542.432 523.603 542.988 523.086 543.62 522.588L543.639 522.569C544.578 521.841 545.594 521.189 546.782 520.691C545.958 522.665 544.693 524.217 543.314 525.635C542.241 526.669 541.091 527.647 539.73 528.413C539.309 528.662 538.849 528.911 538.37 529.103C539.213 527.129 540.459 525.577 541.857 524.159ZM580.697 591.186C582.115 589.825 583.648 588.541 585.641 587.717C584.798 589.691 583.552 591.243 582.154 592.661C580.736 594.021 579.203 595.305 577.21 596.129C578.053 594.156 579.318 592.604 580.697 591.186ZM544.712 611.018C546.686 611.056 548.679 611.248 550.652 612.072C548.679 612.876 546.686 613.068 544.712 613.106C542.72 613.068 540.746 612.876 538.772 612.072C540.746 611.267 542.72 611.075 544.712 611.018ZM579.682 548.149C581.675 548.188 583.648 548.379 585.622 549.203C583.648 550.008 581.675 550.199 579.682 550.238C577.708 550.199 575.735 550.027 573.742 549.203C575.735 548.398 577.708 548.207 579.682 548.149ZM595.203 633.8C596.026 635.774 596.218 637.748 596.256 639.741C596.199 641.714 596.026 643.688 595.203 645.681C594.379 643.688 594.206 641.714 594.168 639.741C594.206 637.748 594.379 635.774 595.203 633.8ZM513.173 627.841C513.997 629.834 514.188 631.808 514.227 633.8C514.188 635.774 513.997 637.748 513.173 639.741C512.368 637.748 512.176 635.774 512.138 633.8C512.176 631.808 512.368 629.834 513.173 627.841ZM542.566 563.727C543.39 565.701 543.582 567.675 543.62 569.667C543.582 571.641 543.39 573.615 542.566 575.607C541.761 573.615 541.57 571.641 541.532 569.667C541.57 567.675 541.761 565.701 542.566 563.727Z" fill="#00406E"/>
<path d="M536.933 524.753C500.698 569.303 461.13 643.266 480.502 657.58C498.208 670.648 559.428 654.054 597.54 636.771C604.802 633.475 571.251 569.533 563.912 573.826C551.016 581.375 540.842 585.897 539.864 586.223C537.757 586.913 548.698 572.005 559.907 536.94C571.27 501.338 557.627 499.307 536.933 524.753Z" fill="#9291B2"/>
<path d="M658.243 563.919C658.684 571.526 639.81 571.047 639.81 571.047C639.81 571.047 644.447 573.557 645.942 578.405C647.666 583.943 639.733 589.059 639.733 589.059C639.733 589.059 643.891 592.585 644.965 597.854C646.076 603.315 638.814 609.619 638.814 609.619C638.814 609.619 640.883 615.023 638.545 620.234C634.541 629.144 619.537 630.141 610.359 632.574C600.529 635.18 586.292 640.948 580.448 643.88L559.562 576.355C559.562 576.355 598.517 550.334 609.803 550.257C619.288 550.219 657.573 552.269 658.243 563.919Z" fill="#FFBCA0"/>
<path d="M639.657 570.817C629.54 568.46 618.886 568.518 608.615 568.69C608.385 568.69 608.405 569.054 608.635 569.054C618.867 568.767 629.405 571.2 639.618 571.315C639.887 571.315 639.925 570.894 639.657 570.817Z" fill="#263238"/>
<path d="M639.408 588.292C637.108 587.832 634.656 588.12 632.337 588.273C629.827 588.446 627.336 588.656 624.845 588.905C619.844 589.404 614.862 590.017 609.899 590.783C609.688 590.822 609.669 591.167 609.918 591.147C614.9 590.668 619.882 590.247 624.883 589.959C627.374 589.825 629.884 589.71 632.395 589.595C634.713 589.499 637.185 589.595 639.446 588.982C639.772 588.886 639.753 588.369 639.408 588.292Z" fill="#263238"/>
<path d="M638.584 609.619C636.591 609.14 634.215 609.696 632.203 609.945C629.923 610.213 627.662 610.481 625.382 610.73C620.84 611.228 616.28 611.727 611.719 612.072C611.49 612.091 611.509 612.436 611.739 612.436C616.376 612.11 621.013 611.861 625.65 611.497C627.93 611.324 630.21 611.133 632.471 610.922C634.407 610.749 636.84 610.749 638.603 609.868C638.718 609.811 638.68 609.657 638.584 609.619Z" fill="#263238"/>
<path d="M557.704 575.684L576.443 648.536C576.443 648.536 485.542 677.489 474.754 654.687C463.947 631.865 513.537 542.401 543.467 516.016C573.397 489.65 563.759 529.199 562.973 532.36C559.486 546.406 541.761 583.521 541.761 583.521L557.704 575.684Z" fill="#006BC1"/>
<path d="M542.566 563.727C543.39 565.701 543.581 567.675 543.62 569.667C543.581 571.641 543.39 573.615 542.566 575.607C541.761 573.615 541.569 571.641 541.531 569.667C541.569 567.675 541.761 565.701 542.566 563.727ZM513.172 627.841C513.996 629.834 514.188 631.808 514.226 633.8C514.188 635.774 513.996 637.748 513.172 639.741C512.367 637.748 512.176 635.774 512.137 633.8C512.176 631.808 512.367 629.834 513.172 627.841ZM544.712 611.018C546.685 611.056 548.678 611.248 550.652 612.071C548.678 612.876 546.685 613.068 544.712 613.106C542.719 613.068 540.745 612.876 538.772 612.071C540.745 611.267 542.719 611.075 544.712 611.018ZM541.857 524.159C543.275 522.799 544.808 521.515 546.781 520.691C545.957 522.665 544.693 524.217 543.313 525.635C541.895 526.995 540.343 528.279 538.369 529.103C539.212 527.129 540.458 525.577 541.857 524.159ZM478.892 649.149C480.31 647.788 481.843 646.504 483.817 645.681C482.993 647.654 481.728 649.206 480.349 650.624C478.931 651.985 477.379 653.268 475.405 654.092C476.248 652.119 477.494 650.567 478.892 649.149ZM506.523 593.466C507.941 592.105 509.493 590.822 511.467 589.998C510.643 591.971 509.378 593.523 507.999 594.941C506.581 596.302 505.029 597.585 503.055 598.409C503.879 596.436 505.163 594.903 506.523 593.466ZM551.399 653.345C551.936 653.92 552.453 654.476 552.951 655.089C552.223 655.261 551.533 655.434 550.786 655.625C550.499 655.376 550.192 655.108 549.924 654.84C548.563 653.403 547.279 651.87 546.455 649.896C548.41 650.701 549.962 651.985 551.399 653.345Z" fill="#00406E"/>
<path d="M556.113 575.818C545.728 580.11 518.729 595.42 512.942 601.418C512.77 601.59 512.981 601.878 513.172 601.724C518.94 597.183 552.338 578.578 557.588 576.24C557.588 576.24 557.876 576.891 558.01 577.045C558.202 577.294 558.336 577.14 558.317 576.891C558.297 576.719 557.895 575.205 557.818 575.109C557.818 575.129 557.263 575.358 556.113 575.818Z" fill="#263238"/>
<path d="M550.422 617.437C549.158 612.359 544.214 591.971 543.371 586.817C543.352 586.74 543.486 586.683 543.524 586.779C545.287 591.531 550.748 611.497 552.032 616.594C554.58 626.749 557.378 636.905 558.796 647.29C558.815 647.482 558.528 647.597 558.47 647.386C555.136 637.595 552.933 627.458 550.422 617.437Z" fill="#263238"/>
<path d="M541.053 583.981C543.62 577.562 546.82 571.392 549.656 565.107C552.492 558.841 555.462 552.595 558.087 546.233C558.125 546.157 558.259 546.214 558.24 546.291C556.669 550.621 555.098 554.932 553.412 559.205C553.948 558.516 554.465 557.807 554.964 557.079C555.864 555.776 556.707 554.415 557.512 553.035C557.57 552.94 557.685 553.016 557.646 553.112C557.033 554.645 556.248 556.063 555.309 557.423C554.619 558.439 553.814 559.359 552.99 560.259C552.3 562.003 551.572 563.728 550.806 565.452C547.989 571.814 545.881 578.099 542.126 583.962C541.991 584.134 540.957 584.192 541.053 583.981Z" fill="#263238"/>
<path d="M488.282 662.294C507.06 664.938 566.058 651.257 576.118 648.632C575.926 647.559 575.945 647.175 575.696 645.662C575.658 645.47 575.964 645.355 576.022 645.566C576.386 646.984 577.497 649.82 577.114 649.992C572.343 652.176 506.619 667.161 488.32 662.734C488.014 662.677 487.995 662.236 488.282 662.294Z" fill="#263238"/>
<path d="M633.946 634.51L710.726 643.19L737.514 536.154L660.734 527.474L633.946 634.51Z" fill="#0D162C"/>
<path d="M637.721 634.931L714.501 643.611L741.27 536.576L664.49 527.915L637.721 634.931Z" fill="#164059"/>
<path d="M700.111 582.142C699.287 586.223 695.263 589.155 691.143 588.695C687.023 588.235 684.341 584.537 685.165 580.455C685.989 576.374 690.013 573.442 694.132 573.902C698.271 574.362 700.954 578.06 700.111 582.142Z" fill="#213157"/>
<path d="M740.983 558.535C744.355 567.426 753.744 578.884 754.012 585.935C754.262 592.316 748.839 594.117 748.839 594.117C748.839 594.117 755.545 598.16 754.741 604.599C754.319 607.914 748.666 610.175 748.666 610.175C748.666 610.175 753.897 613.643 752.824 619.334C751.981 623.875 746.425 625.446 746.425 625.446C746.425 625.446 749.893 631.118 747.536 635.448C742.765 644.263 703.292 641.082 698.368 626.059C696.068 619.046 705.668 620.349 705.668 620.349C705.668 620.349 692.313 615.157 692.754 606.994C693.194 598.831 705.572 601.284 705.572 601.284C705.572 601.284 692.677 596.129 693.98 587.717C695.34 578.961 707.297 583.521 707.297 583.521C707.297 583.521 699 576.872 701.472 570.664C705.573 560.413 721.132 574.956 729.965 573.596L735.905 559.665L740.983 558.535Z" fill="#FFBCA0"/>
<path d="M747.9 571.603C745.428 562.904 756.733 553.323 755.564 544.662C753.993 532.954 740.139 543.206 735.924 559.665L734.889 573.04L747.9 571.603Z" fill="#FFBCA0"/>
<path d="M745.581 625.829C745.715 625.829 745.734 626.021 745.6 626.04C732.359 628.167 717.164 626.443 705.131 620.349C704.729 620.158 704.882 619.43 705.361 619.564C718.966 623.453 731.363 625.829 745.581 625.829Z" fill="#263238"/>
<path d="M748.858 610.27C749.011 610.27 749.011 610.52 748.858 610.558C735.196 612.666 718.142 610.251 705.093 601.61C704.652 601.322 704.537 600.594 705.074 600.901C714.176 605.978 736.058 610.328 748.858 610.27Z" fill="#263238"/>
<path d="M706.55 582.602C719.388 590.4 733.433 593.313 748.283 594.232C748.475 594.252 748.437 594.52 748.283 594.558C740.887 596.091 731.479 594.52 724.274 592.68C717.357 590.918 711.474 587.948 706.282 583.061C706.09 582.851 706.282 582.429 706.55 582.602Z" fill="#263238"/>
<path d="M581.483 535.234C573.091 535.541 561.766 520.595 558.279 509.597C558.049 508.849 560.502 501.874 563.088 493.271C564.64 488.04 566.231 482.196 567.304 476.735C567.515 475.623 599.84 491.776 599.84 491.776C599.84 491.776 594.226 502.545 592.405 512.049C592.271 512.854 592.194 513.601 592.194 514.329C592.194 514.425 592.194 514.559 592.175 514.713C592.06 519.12 589.588 534.928 581.483 535.234Z" fill="#FFBCA0"/>
<path d="M569.392 477.31C569.162 486.833 570.504 510.229 588.65 514.234C589.914 514.521 591.083 514.674 592.175 514.732C592.214 514.578 592.194 514.463 592.214 514.348C592.214 513.62 592.271 512.873 592.405 512.068C594.226 502.545 599.84 491.776 599.84 491.776C599.84 491.776 576.54 480.126 569.392 477.31Z" fill="#263238"/>
<path d="M561.498 440.903C557.992 453.339 565.273 488.864 574.221 496.643C587.194 507.91 608.08 508.562 617.545 493.06C626.724 478.019 616.434 431.878 606.47 424.846C591.773 414.499 566.672 422.527 561.498 440.903Z" fill="#FFBCA0"/>
<path d="M596.889 461.942C596.851 461.866 596.736 462.096 596.755 462.191C597.407 464.548 597.732 467.365 595.778 468.668C595.72 468.706 595.759 468.821 595.835 468.802C598.365 467.806 597.886 464.088 596.889 461.942Z" fill="#263238"/>
<path d="M594.168 459.969C590.279 460.601 591.812 468.323 595.414 467.748C598.978 467.192 597.445 459.451 594.168 459.969Z" fill="#263238"/>
<path d="M610.321 459.355C610.321 459.26 610.532 459.432 610.551 459.528C610.954 461.942 611.816 464.644 614.134 465.008C614.211 465.027 614.23 465.142 614.134 465.142C611.413 465.295 610.302 461.712 610.321 459.355Z" fill="#263238"/>
<path d="M611.969 456.424C615.763 455.37 617.603 463.034 614.077 464.012C610.609 464.989 608.789 457.324 611.969 456.424Z" fill="#263238"/>
<path d="M590.432 455.657C591.429 455.178 592.291 454.584 593.23 454.029C594.303 453.396 595.204 452.994 595.759 451.825C596.047 451.193 595.702 450.235 595.108 449.89C593.747 449.085 592.253 449.545 590.931 450.254C589.513 451.039 588.612 451.997 587.999 453.492C587.405 454.948 589.11 456.29 590.432 455.657Z" fill="#263238"/>
<path d="M614.825 451.844C613.732 451.959 612.679 451.902 611.586 451.902C610.341 451.921 609.364 452.055 608.271 451.327C607.697 450.944 607.505 449.947 607.812 449.334C608.559 447.935 610.073 447.552 611.567 447.475C613.196 447.399 614.461 447.744 615.763 448.721C617.028 449.66 616.262 451.691 614.825 451.844Z" fill="#263238"/>
<path d="M596.353 484.342C596.851 484.993 597.292 485.875 598.154 486.066C598.978 486.277 600.032 486.047 600.837 485.856C600.914 485.836 600.99 485.932 600.914 485.99C600.147 486.814 598.729 487.197 597.637 486.814C596.583 486.45 596.181 485.415 596.066 484.38C596.085 484.265 596.277 484.246 596.353 484.342Z" fill="#263238"/>
<path d="M598.403 477.329C600.166 479.149 602.35 479.896 604.573 479.877C605.57 479.877 606.566 479.705 607.543 479.437C607.735 479.398 607.926 479.341 608.099 479.264C608.271 479.207 608.425 479.149 608.616 479.072C608.884 478.977 608.999 478.708 608.999 478.44V478.421C608.98 478.325 608.961 478.268 608.923 478.172C608.923 478.172 608.923 478.172 608.923 478.153L608.884 477.942C608.578 476.083 607.831 473.324 607.831 473.324C608.578 473.535 612.314 474.397 612.065 473.439C609.996 465.545 607.716 456.788 603.998 449.372C603.883 449.123 603.5 449.257 603.577 449.526C605.263 457.19 608.271 464.491 610.072 472.155C608.884 471.964 606.949 471.542 605.991 471.753C605.742 471.887 607.505 477.08 607.581 477.923C607.581 477.923 607.581 477.961 607.581 478.019C604.554 479.034 602.044 478.555 598.614 477.08C598.384 476.984 598.212 477.175 598.403 477.329Z" fill="#263238"/>
<path d="M605.531 479.647C605.531 479.647 604.094 481.832 602.006 482.694C601.239 483.02 600.396 483.173 599.495 482.981C597.656 482.598 597.522 480.931 597.771 479.494C597.982 478.306 598.461 477.271 598.461 477.271C598.461 477.271 601.258 479.609 605.531 479.647Z" fill="#263238"/>
<path d="M602.006 482.694C601.239 483.02 600.396 483.173 599.496 482.981C597.656 482.598 597.522 480.931 597.771 479.494C599.745 479.59 601.738 480.816 602.006 482.694Z" fill="#FFBDA0"/>
<path d="M560.1 468.706C569.527 469.166 574.222 457.842 571.807 448.836C571.807 448.836 596.928 451.633 597.694 431.495C597.694 431.495 602.791 440.117 614.173 440.175L617.124 447.533C619.673 446.728 622.259 439.37 615.859 433.775C615.859 433.775 615.208 423.754 607.697 417.909C600.185 412.046 592.923 416.166 592.923 416.166C592.923 416.166 586.945 411.395 577.747 412.755C568.55 414.135 564.928 422.623 564.928 422.623C564.928 422.623 552.569 425.248 550.653 434.12C548.718 442.973 553.412 448.798 553.412 448.798C553.412 448.798 550.366 452.323 552.11 459.815C553.202 464.625 557.264 468.572 560.1 468.706Z" fill="#263238"/>
<path d="M597.1 429.732C597.292 431.361 597.407 433.009 597.254 434.637C597.196 436.266 596.89 437.876 596.449 439.409C595.51 442.474 593.556 445.176 590.796 446.747C588.133 448.529 584.799 448.874 581.618 449.257C579.989 449.238 578.361 449.334 576.732 449.238C575.103 449.104 573.455 448.932 571.807 448.836C573.417 449.2 575.046 449.468 576.674 449.794C578.322 450.024 579.989 450.024 581.656 450.139C584.952 449.928 588.439 449.583 591.41 447.725C594.36 445.943 596.506 442.934 597.311 439.638C598.116 436.362 597.982 432.913 597.1 429.732Z" fill="#263238"/>
<path d="M610.265 441.075C607.448 440.117 604.823 438.891 602.581 437.147C601.431 436.304 600.473 435.27 599.592 434.158C598.672 433.047 598.078 431.725 597.407 430.403C597.618 431.859 598.021 433.373 598.844 434.656C599.611 435.979 600.646 437.147 601.872 438.067C603.098 438.987 604.44 439.734 605.857 440.232C607.275 440.731 608.77 441.075 610.265 441.075Z" fill="#263238"/>
<path d="M569.737 469.818C569.737 469.818 561.191 458.627 556.094 461.712C550.978 464.797 557.742 481.257 563.97 483.307C570.197 485.338 572.209 479.609 572.209 479.609L569.737 469.818Z" fill="#FFBCA0"/>
<path d="M558.144 466.369C558.048 466.369 558.029 466.503 558.125 466.541C562.513 468.112 564.927 472.002 566.69 476.083C565.349 474.55 563.567 473.746 561.498 475.355C561.383 475.432 561.498 475.604 561.632 475.585C563.375 475.144 564.659 475.394 565.924 476.754C566.805 477.712 567.438 478.958 568.089 480.088C568.3 480.471 568.99 480.222 568.836 479.801C568.817 479.762 568.817 479.743 568.798 479.705C568.645 474.186 564.065 466.675 558.144 466.369Z" fill="#263238"/>
<g opacity="0.2">
<path d="M583.305 473.133C583.285 473.439 583.017 473.688 582.711 473.669C582.404 473.65 582.155 473.382 582.174 473.075C582.193 472.769 582.462 472.519 582.768 472.539C583.075 472.558 583.324 472.826 583.305 473.133Z" fill="black"/>
<path d="M595.261 473.094C595.242 473.401 594.973 473.65 594.667 473.631C594.36 473.612 594.111 473.343 594.13 473.037C594.149 472.73 594.418 472.481 594.724 472.5C595.031 472.519 595.28 472.788 595.261 473.094Z" fill="black"/>
<path d="M590.873 477.099C590.854 477.406 590.586 477.655 590.279 477.635C589.972 477.616 589.723 477.348 589.742 477.041C589.762 476.735 590.03 476.486 590.336 476.505C590.643 476.524 590.892 476.792 590.873 477.099Z" fill="black"/>
<path d="M583.821 468.438C583.802 468.745 583.534 468.994 583.227 468.974C582.921 468.955 582.672 468.687 582.691 468.38C582.71 468.074 582.978 467.825 583.285 467.844C583.591 467.863 583.84 468.131 583.821 468.438Z" fill="black"/>
<path d="M589.321 471.887C589.302 472.194 589.034 472.443 588.727 472.424C588.421 472.404 588.171 472.136 588.191 471.83C588.21 471.523 588.478 471.274 588.785 471.293C589.091 471.312 589.34 471.58 589.321 471.887Z" fill="black"/>
<path d="M619.04 464.912C619.021 465.219 618.753 465.468 618.446 465.449C618.139 465.43 617.89 465.161 617.91 464.855C617.929 464.548 618.197 464.299 618.504 464.318C618.791 464.337 619.04 464.606 619.04 464.912Z" fill="black"/>
<path d="M614.441 467.959C614.422 468.266 614.154 468.515 613.847 468.495C613.541 468.476 613.292 468.208 613.311 467.901C613.33 467.595 613.598 467.346 613.905 467.365C614.211 467.384 614.461 467.652 614.441 467.959Z" fill="black"/>
<path d="M615.419 471.772C615.4 472.079 615.131 472.328 614.825 472.309C614.518 472.289 614.269 472.021 614.288 471.715C614.308 471.408 614.576 471.159 614.882 471.178C615.189 471.197 615.438 471.446 615.419 471.772Z" fill="black"/>
<path d="M619.404 469.319C619.385 469.626 619.117 469.875 618.81 469.856C618.504 469.837 618.255 469.568 618.274 469.262C618.293 468.955 618.561 468.706 618.868 468.725C619.174 468.745 619.423 469.013 619.404 469.319Z" fill="black"/>
</g>
<path d="M730.872 357.31C723.802 364.381 723.802 375.839 730.872 382.91C737.943 389.98 749.401 389.98 756.472 382.91C763.542 375.839 763.542 364.4 756.472 357.31C749.401 350.24 737.962 350.22 730.872 357.31ZM752.793 365.779C751.471 367.102 749.344 367.102 748.003 365.76C746.68 364.438 746.68 362.311 748.003 360.989C749.325 359.667 751.471 359.667 752.793 360.97C754.134 362.311 754.134 364.457 752.793 365.779Z" fill="#D8EBF7"/>
<path d="M728.393 373.65L724.531 377.512L736.278 389.259L740.14 385.397L728.393 373.65Z" fill="#D8EBF7"/>
<path d="M726.408 379.365L734.379 387.336L732.405 389.29L729.129 388.275L730.144 391.571L726.906 394.79L722.537 393.889L723.438 398.258L722.71 399.005L719.414 397.99L720.43 401.285L717.134 400.27L718.149 403.547L715.582 406.114L711.213 405.214L712.114 409.582L709.872 411.824L701 412.725L701.901 403.872L726.408 379.365Z" fill="#D8ECF7"/>
<path d="M728.789 383.922L705.959 406.752L706.514 407.308L729.345 384.478L728.789 383.922Z" fill="#D8EBF7"/>
<g opacity="0.1">
<path d="M759.404 370.11C759.576 384.059 742.158 391.398 732.252 381.53C725.948 375.571 725.929 364.649 732.252 358.69C742.177 348.822 759.595 356.141 759.404 370.11ZM759.404 370.11C759.48 356.352 742.35 349.397 732.827 359.284C726.963 365.013 726.963 375.226 732.827 380.955C742.35 390.823 759.48 383.849 759.404 370.11Z" fill="#D8EBF7"/>
</g>
<path d="M747.917 230.583H714.083C711.414 230.583 709.25 232.747 709.25 235.417V252.333C709.25 255.003 711.414 257.167 714.083 257.167H747.917C750.586 257.167 752.75 255.003 752.75 252.333V235.417C752.75 232.747 750.586 230.583 747.917 230.583Z" fill="#DBEDF7"/>
<path d="M718.917 230.583V220.917C718.917 217.712 720.19 214.639 722.456 212.373C724.722 210.106 727.795 208.833 731 208.833C734.205 208.833 737.278 210.106 739.544 212.373C741.81 214.639 743.083 217.712 743.083 220.917V230.583" fill="#DBEDF7"/>
<path d="M735 242.5L728.25 246.397L728.25 238.603L735 242.5Z" fill="#F0F7FB"/>
</g>
<defs>
<filter id="filter0_d_643_29" x="674" y="327" width="114" height="118" filterUnits="userSpaceOnUse" color-interpolation-filters="sRGB">
<feFlood flood-opacity="0" result="BackgroundImageFix"/>
<feColorMatrix in="SourceAlpha" type="matrix" values="0 0 0 0 0 0 0 0 0 0 0 0 0 0 0 0 0 0 127 0" result="hardAlpha"/>
<feOffset dy="4"/>
<feGaussianBlur stdDeviation="2"/>
<feComposite in2="hardAlpha" operator="out"/>
<feColorMatrix type="matrix" values="0 0 0 0 0 0 0 0 0 0 0 0 0 0 0 0 0 0 0.25 0"/>
<feBlend mode="normal" in2="BackgroundImageFix" result="effect1_dropShadow_643_29"/>
<feBlend mode="normal" in="SourceGraphic" in2="effect1_dropShadow_643_29" result="shape"/>
</filter>
<filter id="filter1_d_643_29" x="674" y="178" width="114" height="118" filterUnits="userSpaceOnUse" color-interpolation-filters="sRGB">
<feFlood flood-opacity="0" result="BackgroundImageFix"/>
<feColorMatrix in="SourceAlpha" type="matrix" values="0 0 0 0 0 0 0 0 0 0 0 0 0 0 0 0 0 0 127 0" result="hardAlpha"/>
<feOffset dy="4"/>
<feGaussianBlur stdDeviation="2"/>
<feComposite in2="hardAlpha" operator="out"/>
<feColorMatrix type="matrix" values="0 0 0 0 0 0 0 0 0 0 0 0 0 0 0 0 0 0 0.25 0"/>
<feBlend mode="normal" in2="BackgroundImageFix" result="effect1_dropShadow_643_29"/>
<feBlend mode="normal" in="SourceGraphic" in2="effect1_dropShadow_643_29" result="shape"/>
</filter>
<clipPath id="clip0_643_29">
<rect width="918" height="806" fill="white"/>
</clipPath>
</defs>
</svg>
