<svg width="20" height="16" viewBox="0 0 20 16" fill="none" xmlns="http://www.w3.org/2000/svg">
<g clip-path="url(#clip0_627_195)">
<path d="M6.67007 2.70414H0.757419C0.669307 2.70414 0.578156 2.70718 0.490044 2.7011C0.189246 2.68287 0.00390625 2.52791 0.00390625 2.22408C0.00390625 1.92024 0.195322 1.76529 0.493081 1.74402C0.644999 1.73187 0.799957 1.73794 0.951875 1.73794C4.84097 1.73794 8.73109 1.73997 12.6222 1.74402C12.8957 1.74402 13.0476 1.69844 13.1539 1.40372C13.473 0.540828 14.2994 0 15.2079 0C16.1163 0 16.9428 0.531713 17.2709 1.39157C17.3772 1.66502 17.5018 1.77136 17.7905 1.74402C18.0585 1.72377 18.3277 1.72478 18.5956 1.74706C18.8752 1.76833 19.0544 1.92632 19.0544 2.21496C19.0544 2.50361 18.8752 2.68591 18.5744 2.7011C18.2736 2.71629 17.9576 2.68287 17.6537 2.71325C17.5383 2.72541 17.3772 2.82871 17.3347 2.93202C16.9306 3.8891 16.1801 4.44512 15.2322 4.45423C14.2842 4.46335 13.4942 3.91037 13.1114 2.9229C13.0202 2.68895 12.8774 2.70414 12.6982 2.70414H6.67007ZM15.1957 3.48196C15.362 3.48518 15.5273 3.45531 15.682 3.39407C15.8366 3.33284 15.9776 3.24146 16.0966 3.12526C16.2156 3.00906 16.3104 2.87035 16.3753 2.71721C16.4402 2.56406 16.4741 2.39954 16.4749 2.23319C16.4761 2.06655 16.4444 1.90132 16.3816 1.74694C16.3189 1.59256 16.2263 1.45208 16.1091 1.33354C15.992 1.21501 15.8527 1.12074 15.699 1.05614C15.5454 0.991539 15.3806 0.957878 15.2139 0.957083C14.5212 0.954045 13.9561 1.52829 13.9561 2.23319C13.9568 2.56257 14.0874 2.87837 14.3195 3.11213C14.5515 3.34588 14.8663 3.47876 15.1957 3.48196Z" fill="#0D0B54"/>
<path d="M13.4022 13.2991H18.4702C18.7923 13.293 19.0263 13.4054 19.0536 13.7609C19.0779 14.0678 18.8591 14.2592 18.4702 14.2622C16.9328 14.2653 15.3984 14.2714 13.8641 14.2562C13.5329 14.2531 13.3597 14.3291 13.2169 14.6663C12.8402 15.5505 12.1292 15.9971 11.163 16.0002C10.2667 16.0032 9.45238 15.4594 9.14247 14.6147C9.03005 14.3109 8.87206 14.2562 8.58341 14.2592C6.00992 14.2683 3.43947 14.2653 0.865977 14.2653C0.714059 14.2653 0.559102 14.2714 0.407184 14.247C0.148923 14.2045 -0.00299363 14.0404 4.4728e-05 13.7731C0.00308309 13.5057 0.158039 13.3477 0.419338 13.3082C0.531757 13.29 0.650252 13.2991 0.76571 13.2991C3.39895 13.2991 6.03423 13.2991 8.67152 13.2991C8.87509 13.3021 9.00878 13.2869 9.09993 13.0408C9.45238 12.102 10.2697 11.5399 11.2116 11.5459C12.1535 11.552 12.9404 12.1293 13.305 13.0742C13.3324 13.1441 13.3658 13.214 13.4022 13.2991ZM11.1812 12.5213C10.4793 12.5273 9.91117 13.1077 9.92636 13.8004C9.94156 14.4932 10.5067 15.0401 11.1842 15.0461C11.8618 15.0522 12.4543 14.4749 12.4543 13.7791C12.4547 13.6126 12.4219 13.4475 12.3579 13.2937C12.2939 13.14 12.1999 13.0004 12.0814 12.8834C11.9629 12.7663 11.8223 12.6739 11.6677 12.6118C11.5132 12.5496 11.3478 12.5188 11.1812 12.5213Z" fill="#0D0B54"/>
<path d="M6.25685 8.47964C6.01682 9.29088 5.53372 9.85602 4.74678 10.1204C3.62867 10.4941 2.42548 9.91678 1.99403 8.79563C1.89984 8.55256 1.7935 8.45229 1.52916 8.47052C1.18583 8.49787 0.836416 8.48268 0.493081 8.4766C0.149747 8.47052 0.00390625 8.30949 0.00390625 8.00262C0.00390625 7.69574 0.189246 7.53471 0.490044 7.52559C0.860724 7.51648 1.2314 7.51344 1.60512 7.52863C1.79958 7.53471 1.89073 7.4709 1.96365 7.27949C2.33129 6.32544 3.11519 5.77246 4.06619 5.77246C5.0172 5.77246 5.79502 6.31937 6.15962 7.28556C6.25685 7.53775 6.40877 7.52256 6.60322 7.52256H18.2766C18.8448 7.52256 19.0726 7.6684 19.0575 8.01781C19.0423 8.36722 18.8357 8.4766 18.2796 8.4766H6.25685V8.47964ZM4.06012 6.74474C3.35826 6.74777 2.79008 7.31899 2.7992 8.01477C2.80396 8.34444 2.93765 8.65914 3.17164 8.89143C3.40563 9.12371 3.7213 9.25511 4.051 9.25746C4.22114 9.26642 4.39133 9.24073 4.55124 9.18194C4.71115 9.12315 4.85746 9.03249 4.98127 8.91545C5.10509 8.79841 5.20384 8.65744 5.27153 8.50109C5.33922 8.34473 5.37445 8.17626 5.37507 8.00588C5.37568 7.83551 5.34168 7.66678 5.27513 7.50994C5.20857 7.3531 5.11085 7.21142 4.98788 7.09349C4.86492 6.97555 4.71928 6.88383 4.5598 6.82388C4.40032 6.76393 4.23032 6.73701 4.06012 6.74474Z" fill="#0D0B54"/>
</g>
<defs>
<clipPath id="clip0_627_195">
<rect width="19.0566" height="16" fill="white"/>
</clipPath>
</defs>
</svg>
