<svg width="25" height="28" viewBox="0 0 25 28" fill="none" xmlns="http://www.w3.org/2000/svg">
<g clip-path="url(#clip0_146_2)">
<path d="M15.4618 13.4736C13.8516 12.2251 12.2721 10.9991 10.6927 9.77304C9.36685 8.74599 8.04438 7.71894 6.7185 6.69509C6.5746 6.58276 6.47525 6.49931 6.54719 6.28427C7.24611 4.24622 7.93132 2.20174 8.61996 0.157267C8.63367 0.118753 8.65422 0.0802384 8.69191 0C14.1359 4.22054 19.556 8.42183 24.9966 12.6424C20.4707 17.7584 15.9586 22.8583 11.4122 28C11.3437 27.8556 11.2923 27.7625 11.2546 27.663C10.4495 25.564 9.64093 23.4649 8.84608 21.3595C8.79812 21.2311 8.81868 21.0193 8.90433 20.9198C9.97326 19.6745 11.0559 18.442 12.1454 17.2127C13.1869 16.0316 14.2387 14.8602 15.2871 13.6823C15.3385 13.6245 15.3864 13.5635 15.4618 13.4736Z" fill="#FFC700"/>
<path d="M9.77791 14.3595C7.36253 17.0876 4.97799 19.7836 2.55234 22.5278C2.32964 21.95 2.12408 21.4237 1.92194 20.8973C1.70267 20.3228 1.49711 19.7419 1.25386 19.177C1.13737 18.9074 1.20589 18.7341 1.39433 18.5255C2.48724 17.3155 3.56645 16.0958 4.64909 14.8794C4.66279 14.8634 4.66622 14.8409 4.6902 14.7863C4.03582 14.2792 3.37459 13.7625 2.70993 13.249C1.85342 12.5846 0.99005 11.9202 0.140386 11.2462C0.0547341 11.1788 -0.0240654 11.0183 0.0033431 10.9285C0.352802 9.84687 0.719391 8.76846 1.10311 7.6355C4.00156 9.88217 6.8726 12.1096 9.77448 14.3595H9.77791Z" fill="#FFC700"/>
</g>
<defs>
<clipPath id="clip0_146_2">
<rect width="25" height="28" fill="white"/>
</clipPath>
</defs>
</svg>
