<svg width="32" height="32" viewBox="0 0 32 32" fill="none" xmlns="http://www.w3.org/2000/svg">
<g clip-path="url(#clip0_489_173)">
<path d="M31.9143 15.4816C31.7582 16.3043 31.6448 17.1553 31.432 17.9638C30.2264 22.4176 27.1768 25.0133 22.9215 26.3892C20.6379 27.1268 18.2691 27.3679 15.872 27.3963C15.5342 27.4023 15.2106 27.5337 14.9642 27.7651C12.8934 29.921 10.3402 30.9565 7.38992 31.0841C6.56724 31.1267 5.74457 31.0983 4.7375 31.0983C6.07081 29.4813 7.07788 27.8076 7.30482 25.7084L6.66654 25.3679C2.86519 23.3254 0.59574 20.2191 0.11348 15.8788C0.0888937 15.7429 0.050876 15.6099 0 15.4816V13.0703C0.0425524 12.8859 0.0992923 12.7157 0.127661 12.5313C0.609921 8.26189 2.73754 5.01372 6.58144 3.16979C12.5955 0.304595 18.7798 0.318779 24.879 2.94284C28.2122 4.37544 30.4249 6.97113 31.4036 10.503C31.6306 11.3398 31.7441 12.2193 31.9143 13.0703V15.4816ZM8.32607 29.2118C8.41529 29.2266 8.50635 29.2266 8.59557 29.2118C10.6239 28.8572 12.3827 27.992 13.6877 26.4034C14.1983 25.7935 14.7089 25.5807 15.4891 25.5949C17.8578 25.6374 20.1982 25.4389 22.4676 24.7013C27.1768 23.1694 29.9143 19.5524 30.0562 14.7157C30.198 9.87888 27.7016 5.86477 23.0066 4.13431C18.8791 2.61661 14.6238 2.57405 10.397 3.65205C4.18432 5.25485 1.12054 9.85051 2.01414 16.2192C2.55313 20.0489 4.78005 22.6446 8.31189 24.1481C9.30478 24.5736 9.33316 24.5736 9.1204 25.6374C8.90763 26.7012 8.59557 28.0062 8.32607 29.2118Z" fill="white"/>
</g>
<defs>
<clipPath id="clip0_489_173">
<rect width="31.9143" height="30.1129" fill="white" transform="translate(0 1)"/>
</clipPath>
</defs>
</svg>
