<svg width="1000" height="1000" viewBox="0 0 1000 1000" fill="none" xmlns="http://www.w3.org/2000/svg">
<path d="M1000 764.796H0V765.296H1000V764.796Z" fill="#85C8FE"/>
<path d="M151.81 784.004H130.588V784.504H151.81V784.004Z" fill="#85C8FE"/>
<path d="M252.782 783.754H166.478V784.254H252.782V783.754Z" fill="#85C8FE"/>
<path d="M292.666 795.334H224.366V795.834H292.666V795.334Z" fill="#85C8FE"/>
<path d="M460.222 779.834H308.01V780.334H460.222V779.834Z" fill="#85C8FE"/>
<path d="M806.554 788.278H698.666V788.778H806.554V788.278Z" fill="#85C8FE"/>
<path d="M687.56 788.278H672.328V788.778H687.56V788.278Z" fill="#85C8FE"/>
<path d="M859.444 779.584H753.666V780.084H859.444V779.584Z" fill="#85C8FE"/>
<path d="M474.028 675.6H87.8301C81.5361 675.6 76.4141 670.478 76.4141 664.184V121.32C76.4141 115.026 81.5361 109.904 87.8301 109.904H474.028C480.32 109.904 485.442 115.026 485.442 121.32V664.184C485.442 670.478 480.32 675.6 474.028 675.6ZM87.8301 110.406C81.8101 110.406 76.9141 115.302 76.9141 121.322V664.186C76.9141 670.206 81.8101 675.102 87.8301 675.102H474.028C480.046 675.102 484.942 670.206 484.942 664.186V121.32C484.942 115.302 480.046 110.404 474.028 110.404L87.8301 110.406Z" fill="#85C8FE"/>
<path d="M906.62 675.6H520.424C514.132 675.6 509.01 670.478 509.01 664.184V121.32C509.01 115.026 514.132 109.904 520.424 109.904H906.62C912.916 109.904 918.036 115.026 918.036 121.32V664.184C918.038 670.478 912.916 675.6 906.62 675.6ZM520.424 110.406C514.406 110.406 509.51 115.302 509.51 121.322V664.186C509.51 670.206 514.406 675.102 520.424 675.102H906.62C912.64 675.102 917.536 670.206 917.536 664.186V121.32C917.536 115.302 912.64 110.404 906.62 110.404L520.424 110.406Z" fill="#85C8FE"/>
<path d="M617.886 764.794H404.926C414.066 730.354 416.806 694.754 413.126 658.994C408.466 613.094 393.246 566.954 367.486 522.734H580.426C606.186 566.954 621.406 613.094 626.086 658.994C629.766 694.734 627.026 730.354 617.886 764.794Z" fill="#85C8FE"/>
<path d="M613.22 764.794H400.26C409.4 730.354 412.14 694.754 408.46 658.994C403.8 613.094 388.58 566.954 362.82 522.734H575.76C601.52 566.954 616.74 613.094 621.42 658.994C625.1 694.734 622.36 730.354 613.22 764.794Z" fill="#EEF9FF"/>
<path d="M621.42 658.994H408.46C403.8 613.094 388.58 566.954 362.82 522.734H575.76C601.52 566.954 616.74 613.094 621.42 658.994Z" fill="#85C8FE"/>
<path d="M824.944 638.294H167.602C156.386 638.294 147.21 629.118 147.21 617.902V212.734C147.21 201.518 156.386 192.342 167.602 192.342H824.944C836.16 192.342 845.336 201.518 845.336 212.734V617.904C845.336 629.118 836.16 638.294 824.944 638.294Z" fill="#85C8FE"/>
<path d="M821.308 638.294H163.968C152.752 638.294 143.576 629.118 143.576 617.902V212.734C143.576 201.518 152.752 192.342 163.968 192.342H821.31C832.526 192.342 841.702 201.518 841.702 212.734V617.904C841.7 629.118 832.524 638.294 821.308 638.294Z" fill="#EEF9FF"/>
<path d="M841.7 215.778H143.576V568.666H841.7V215.778Z" fill="white"/>
<path d="M588.59 747.964H345.494C336.198 747.964 328.66 755.5 328.66 764.798H605.422C605.422 755.5 597.886 747.964 588.59 747.964Z" fill="#EEF9FF"/>
<path d="M646.501 747.964H602.971C593.675 747.964 586.139 755.5 586.139 764.798H663.335C663.335 755.5 655.799 747.964 646.501 747.964Z" fill="#85C8FE"/>
<path d="M390.58 472.648H802.106C806.892 472.648 810.808 468.732 810.808 463.946V154.33C810.808 149.544 806.892 145.628 802.106 145.628H390.58C385.794 145.628 381.878 149.544 381.878 154.33V463.944C381.878 468.73 385.794 472.648 390.58 472.648Z" fill="#85C8FE"/>
<path d="M388.265 472.648H799.793C804.579 472.648 808.495 468.732 808.495 463.946V154.33C808.495 149.544 804.579 145.628 799.793 145.628H388.265C383.479 145.628 379.563 149.544 379.563 154.33V463.944C379.561 468.73 383.479 472.648 388.265 472.648Z" fill="#85C8FE"/>
<path d="M808.493 168.13V463.944C808.493 468.73 804.577 472.646 799.791 472.646H388.265C383.479 472.646 379.563 468.73 379.563 463.944V168.13H808.493Z" fill="#E5EFF9"/>
<path d="M806.888 179.702H381.17V461.074H806.888V179.702Z" fill="white"/>
<path d="M784.771 156.944C784.771 159.5 786.844 161.572 789.4 161.572C791.956 161.572 794.028 159.5 794.028 156.944C794.028 154.388 791.956 152.316 789.4 152.316C786.844 152.316 784.771 154.388 784.771 156.944Z" fill="white"/>
<path d="M768.372 156.944C768.372 159.5 770.444 161.572 773 161.572C775.556 161.572 777.628 159.5 777.628 156.944C777.628 154.388 775.556 152.316 773 152.316C770.444 152.316 768.372 154.388 768.372 156.944Z" fill="white"/>
<path d="M751.97 156.944C751.97 159.5 754.042 161.572 756.598 161.572C759.154 161.572 761.226 159.5 761.226 156.944C761.226 154.388 759.154 152.316 756.598 152.316C754.042 152.316 751.97 154.388 751.97 156.944Z" fill="white"/>
<path d="M379.564 168.709L808.496 168.709V167.553L379.564 167.553V168.709Z" fill="#85C8FE"/>
<path d="M349.016 514.21H760.542C765.328 514.21 769.244 510.294 769.244 505.508V195.894C769.244 191.108 765.328 187.192 760.542 187.192H349.016C344.23 187.192 340.314 191.108 340.314 195.894V505.508C340.314 510.294 344.23 514.21 349.016 514.21Z" fill="#85C8FE"/>
<path d="M346.703 514.21H758.229C763.015 514.21 766.931 510.294 766.931 505.508V195.894C766.931 191.108 763.015 187.192 758.229 187.192H346.703C341.917 187.192 338.001 191.108 338.001 195.894V505.508C338.001 510.294 341.917 514.21 346.703 514.21Z" fill="#85C8FE"/>
<path d="M766.933 209.694V505.508C766.933 510.294 763.017 514.21 758.231 514.21H346.703C341.917 514.21 338.001 510.294 338.001 505.508V209.694H766.933Z" fill="#E5EFF9"/>
<path d="M765.326 221.266H339.608V502.638H765.326V221.266Z" fill="white"/>
<path d="M747.839 203.136C750.395 203.136 752.467 201.064 752.467 198.508C752.467 195.952 750.395 193.88 747.839 193.88C745.283 193.88 743.211 195.952 743.211 198.508C743.211 201.064 745.283 203.136 747.839 203.136Z" fill="white"/>
<path d="M726.809 198.508C726.809 201.064 728.881 203.136 731.437 203.136C733.993 203.136 736.065 201.064 736.065 198.508C736.065 195.952 733.993 193.88 731.437 193.88C728.881 193.88 726.809 195.95 726.809 198.508Z" fill="white"/>
<path d="M715.036 203.136C717.592 203.136 719.664 201.064 719.664 198.508C719.664 195.952 717.592 193.88 715.036 193.88C712.48 193.88 710.408 195.952 710.408 198.508C710.408 201.064 712.48 203.136 715.036 203.136Z" fill="white"/>
<path d="M338.001 210.273L766.933 210.273V209.115L338.001 209.115V210.273Z" fill="#85C8FE"/>
<path d="M692.222 356.64C676.684 356.64 669.152 340.81 661.866 325.5C654.806 310.66 648.136 296.64 635.124 296.64C622.114 296.64 615.444 310.658 608.384 325.498C601.098 340.808 593.566 356.64 578.028 356.64C562.494 356.64 554.96 340.81 547.676 325.498C540.616 310.658 533.948 296.64 520.94 296.64C507.93 296.64 501.262 310.658 494.2 325.5C486.916 340.81 479.384 356.64 463.85 356.64C448.314 356.64 440.784 340.81 433.5 325.5C426.44 310.66 419.77 296.64 406.762 296.64C393.754 296.64 387.084 310.658 380.024 325.5C372.74 340.81 365.21 356.64 349.676 356.64C334.142 356.64 326.612 340.81 319.33 325.5C312.27 310.658 305.602 296.64 292.596 296.64C279.59 296.64 272.922 310.658 265.862 325.5C258.58 340.81 251.05 356.64 235.518 356.64C219.986 356.64 212.456 340.81 205.174 325.498C198.116 310.658 191.45 296.64 178.444 296.64V292.64C193.976 292.64 201.504 308.472 208.786 323.78C215.844 338.62 222.512 352.64 235.518 352.64C248.524 352.64 255.192 338.622 262.252 323.78C269.534 308.47 277.064 292.64 292.596 292.64C308.128 292.64 315.66 308.472 322.942 323.78C330.002 338.622 336.67 352.64 349.676 352.64C362.684 352.64 369.352 338.622 376.414 323.782C383.698 308.472 391.228 292.64 406.764 292.64C422.3 292.64 429.83 308.472 437.114 323.78C444.174 338.62 450.844 352.64 463.852 352.64C476.86 352.64 483.53 338.622 490.592 323.782C497.876 308.472 505.406 292.64 520.944 292.64C536.48 292.64 544.01 308.472 551.294 323.78C558.354 338.622 565.022 352.64 578.032 352.64C591.044 352.64 597.714 338.622 604.774 323.78C612.06 308.472 619.59 292.64 635.128 292.64C650.666 292.64 658.198 308.472 665.484 323.78C672.544 338.62 679.214 352.64 692.226 352.64V356.64H692.222Z" fill="#F3F8FF"/>
<path d="M692.222 448.666C676.684 448.666 669.152 432.836 661.866 417.526C654.806 402.686 648.136 388.666 635.124 388.666C622.114 388.666 615.444 402.684 608.384 417.524C601.098 432.834 593.566 448.666 578.028 448.666C562.494 448.666 554.96 432.836 547.676 417.524C540.616 402.684 533.948 388.666 520.94 388.666C507.93 388.666 501.262 402.684 494.2 417.526C486.916 432.836 479.384 448.666 463.85 448.666C448.314 448.666 440.784 432.836 433.5 417.526C426.44 402.686 419.77 388.666 406.762 388.666C393.754 388.666 387.084 402.684 380.024 417.526C372.74 432.836 365.21 448.666 349.676 448.666C334.142 448.666 326.612 432.836 319.33 417.526C312.27 402.684 305.602 388.666 292.596 388.666C279.59 388.666 272.922 402.684 265.862 417.526C258.58 432.836 251.05 448.666 235.518 448.666C219.986 448.666 212.456 432.836 205.174 417.524C198.116 402.684 191.45 388.666 178.444 388.666V384.666C193.976 384.666 201.504 400.496 208.786 415.806C215.844 430.646 222.512 444.666 235.518 444.666C248.524 444.666 255.192 430.648 262.252 415.806C269.534 400.496 277.064 384.666 292.596 384.666C308.128 384.666 315.66 400.496 322.942 415.806C330.002 430.648 336.67 444.666 349.676 444.666C362.684 444.666 369.352 430.648 376.414 415.808C383.698 400.498 391.228 384.666 406.764 384.666C422.3 384.666 429.83 400.496 437.114 415.806C444.174 430.646 450.844 444.666 463.852 444.666C476.86 444.666 483.53 430.648 490.592 415.808C497.876 400.498 505.406 384.666 520.944 384.666C536.48 384.666 544.01 400.496 551.294 415.806C558.354 430.648 565.022 444.666 578.032 444.666C591.044 444.666 597.714 430.648 604.774 415.806C612.06 400.498 619.59 384.666 635.128 384.666C650.666 384.666 658.198 400.496 665.484 415.806C672.544 430.646 679.214 444.666 692.226 444.666V448.666H692.222Z" fill="#F3F8FF"/>
<path d="M500 855.122C714.164 855.122 887.778 844.983 887.778 832.476C887.778 819.969 714.164 809.83 500 809.83C285.836 809.83 112.222 819.969 112.222 832.476C112.222 844.983 285.836 855.122 500 855.122Z" fill="#F0F7FB" fill-opacity="0.2"/>
<path d="M323.362 219.888H216.762C209.076 219.888 202.168 224.586 199.346 231.736L189.852 255.778H350.274L340.78 231.736C337.954 224.586 331.048 219.888 323.362 219.888Z" fill="#6F97B8"/>
<path d="M626.028 219.888H519.428C511.742 219.888 504.836 224.586 502.012 231.736L492.518 255.778H652.94L643.446 231.736C640.62 224.586 633.714 219.888 626.028 219.888Z" fill="#6F97B8"/>
<path d="M159.666 389.44H157.666V428.17H159.666V389.44Z" fill="#0078D7"/>
<path d="M159.666 442.888H157.666V457.11H159.666V442.888Z" fill="#0078D7"/>
<path d="M813.462 253.11H500.552L492.11 231.736C489.286 224.586 482.38 219.888 474.694 219.888H368.094C360.408 219.888 353.5 224.586 350.678 231.736L342.236 253.11H186.538C174.51 253.11 164.668 262.952 164.668 274.98V692.422C164.668 704.45 174.51 714.292 186.538 714.292H813.464C825.492 714.292 835.334 704.45 835.334 692.422V274.98C835.334 262.952 825.492 253.11 813.462 253.11Z" fill="#0078D7"/>
<path d="M178.666 692.83V316.164C178.666 312.06 182.024 308.702 186.128 308.702H813.87C817.974 308.702 821.332 312.06 821.332 316.164V692.83C821.332 696.934 817.974 700.292 813.87 700.292H186.128C182.024 700.292 178.666 696.934 178.666 692.83Z" fill="white"/>
<path d="M665 533.385H335V472.653H665V533.385ZM337 531.385H663V474.653H337V531.385Z" fill="#BBD7E5"/>
<path d="M348.332 487.81H346.332V518.194H348.332V487.81Z" fill="#2C3557"/>
<path d="M506.912 412.256H399.578V444.082H506.912V412.256Z" fill="#0078D7"/>
<path d="M585.556 552.7H414.444V560.304H585.556V552.7Z" fill="#2C3557"/>
<path d="M270.06 321.722H235.97V329.326H270.06V321.722Z" fill="#6F97B8"/>
<path d="M226.504 321.722H192.414V329.326H226.504V321.722Z" fill="#6F97B8"/>
<path d="M600.422 412.256H525.088V444.082H600.422V412.256Z" fill="#0078D7"/>
<path d="M628.15 514.57C624.37 514.57 620.592 513.13 617.714 510.254C611.962 504.5 611.962 495.136 617.714 489.382C623.468 483.628 632.832 483.628 638.586 489.382C644.34 495.136 644.34 504.5 638.586 510.254C635.708 513.13 631.93 514.57 628.15 514.57ZM628.15 489.066C625.394 489.066 622.64 490.114 620.542 492.212C616.348 496.406 616.348 503.232 620.542 507.426C624.738 511.622 631.562 511.618 635.756 507.426C639.952 503.23 639.952 496.406 635.756 492.212C633.66 490.114 630.906 489.066 628.15 489.066Z" fill="#2C3557"/>
<path d="M647.282 520.946C646.77 520.946 646.258 520.75 645.868 520.36L635.766 510.258C634.984 509.476 634.984 508.212 635.766 507.43C636.548 506.648 637.812 506.648 638.594 507.43L648.696 517.532C649.478 518.314 649.478 519.578 648.696 520.36C648.304 520.75 647.792 520.946 647.282 520.946Z" fill="#2C3557"/>
<path d="M521.546 509.796C521.428 509.796 521.343 509.744 521.291 509.639C521.239 509.535 521.239 509.398 521.291 509.228L526.17 495.651C526.222 495.507 526.281 495.409 526.346 495.357C526.411 495.291 526.522 495.259 526.679 495.259H529.618C529.905 495.259 530.101 495.402 530.205 495.69L535.045 509.267C535.084 509.371 535.084 509.489 535.045 509.62C535.005 509.737 534.927 509.796 534.81 509.796H531.93C531.734 509.796 531.61 509.705 531.557 509.522L530.538 506.661C530.525 506.596 530.499 506.544 530.46 506.505C530.434 506.465 530.375 506.446 530.284 506.446H525.503C525.373 506.446 525.288 506.511 525.249 506.642L524.21 509.541C524.184 509.62 524.138 509.685 524.073 509.737C524.021 509.776 523.93 509.796 523.799 509.796H521.546ZM529.481 503.84C529.663 503.84 529.722 503.729 529.657 503.507L528.011 498.922C527.972 498.844 527.926 498.805 527.874 498.805C527.835 498.805 527.796 498.851 527.756 498.942L526.091 503.507C526 503.729 526.058 503.84 526.267 503.84H529.481Z" fill="#255782"/>
<path d="M509.964 495.611C509.964 495.507 509.997 495.422 510.062 495.357C510.127 495.291 510.225 495.259 510.356 495.259H521.601C521.745 495.259 521.843 495.291 521.895 495.357C521.961 495.422 521.993 495.507 521.993 495.611V497.433C521.993 497.629 521.876 497.727 521.641 497.727H517.977C517.833 497.727 517.761 497.793 517.761 497.923V509.424C517.761 509.672 517.65 509.796 517.428 509.796H514.627C514.431 509.796 514.333 509.685 514.333 509.463V497.982C514.333 497.812 514.261 497.727 514.117 497.727H510.336C510.088 497.727 509.964 497.629 509.964 497.433V495.611Z" fill="#255782"/>
<path d="M497.382 509.796C497.264 509.796 497.179 509.744 497.127 509.639C497.075 509.535 497.075 509.398 497.127 509.228L502.005 495.651C502.058 495.507 502.116 495.409 502.182 495.357C502.247 495.291 502.358 495.259 502.515 495.259H505.454C505.741 495.259 505.937 495.402 506.041 495.69L510.881 509.267C510.92 509.371 510.92 509.489 510.881 509.62C510.841 509.737 510.763 509.796 510.645 509.796H507.765C507.57 509.796 507.445 509.705 507.393 509.522L506.374 506.661C506.361 506.596 506.335 506.544 506.296 506.505C506.27 506.465 506.211 506.446 506.12 506.446H501.339C501.209 506.446 501.124 506.511 501.085 506.642L500.046 509.541C500.02 509.62 499.974 509.685 499.909 509.737C499.857 509.776 499.765 509.796 499.635 509.796H497.382ZM505.316 503.84C505.499 503.84 505.558 503.729 505.493 503.507L503.847 498.922C503.808 498.844 503.762 498.805 503.71 498.805C503.671 498.805 503.632 498.851 503.592 498.942L501.927 503.507C501.836 503.729 501.894 503.84 502.103 503.84H505.316Z" fill="#255782"/>
<path d="M484.45 495.259C484.685 495.259 484.998 495.259 485.39 495.259C485.795 495.259 486.213 495.259 486.644 495.259C487.088 495.259 487.506 495.259 487.898 495.259C488.29 495.259 488.597 495.265 488.819 495.278C490.582 495.318 492.032 495.638 493.168 496.238C494.304 496.839 495.14 497.669 495.676 498.727C496.224 499.771 496.499 501.019 496.499 502.469C496.499 503.958 496.211 505.257 495.637 506.367C495.075 507.465 494.213 508.313 493.05 508.914C491.901 509.502 490.458 509.796 488.721 509.796H484.469C484.169 509.796 484.019 509.639 484.019 509.326V495.67C484.019 495.513 484.051 495.409 484.117 495.357C484.182 495.291 484.293 495.259 484.45 495.259ZM487.643 497.688C487.512 497.688 487.447 497.78 487.447 497.962V507.112C487.447 507.295 487.532 507.386 487.702 507.386H488.074C489.145 507.386 490.04 507.229 490.758 506.916C491.477 506.589 492.012 506.067 492.365 505.349C492.73 504.63 492.913 503.677 492.913 502.488C492.913 501.339 492.743 500.418 492.404 499.726C492.077 499.02 491.568 498.505 490.876 498.178C490.197 497.851 489.328 497.688 488.27 497.688H487.643Z" fill="#255782"/>
<path d="M471.039 509.992C469.655 509.992 468.46 509.698 467.454 509.11C466.448 508.51 465.671 507.654 465.123 506.544C464.587 505.434 464.319 504.114 464.319 502.586C464.319 501.032 464.594 499.693 465.142 498.57C465.704 497.447 466.487 496.585 467.493 495.984C468.499 495.37 469.681 495.063 471.039 495.063C472.398 495.063 473.573 495.37 474.566 495.984C475.572 496.585 476.349 497.447 476.897 498.57C477.446 499.68 477.72 501.012 477.72 502.567C477.72 504.095 477.446 505.414 476.897 506.524C476.362 507.634 475.591 508.49 474.585 509.091C473.58 509.692 472.398 509.992 471.039 509.992ZM471.039 507.582C472.11 507.582 472.894 507.197 473.39 506.426C473.887 505.643 474.135 504.369 474.135 502.606C474.135 500.803 473.88 499.497 473.371 498.687C472.874 497.865 472.097 497.453 471.039 497.453C469.968 497.453 469.178 497.865 468.669 498.687C468.159 499.51 467.905 500.816 467.905 502.606C467.905 504.356 468.153 505.623 468.649 506.407C469.159 507.19 469.955 507.582 471.039 507.582Z" fill="#255782"/>
<path d="M461.816 495.259C461.986 495.259 462.071 495.357 462.071 495.553V509.482C462.071 509.574 462.038 509.652 461.973 509.718C461.907 509.77 461.816 509.796 461.698 509.796H459.72C459.615 509.796 459.53 509.783 459.465 509.757C459.4 509.731 459.321 509.665 459.23 509.561L452.98 500.784C452.928 500.718 452.876 500.692 452.823 500.705C452.784 500.718 452.765 500.758 452.765 500.823V509.443C452.778 509.678 452.647 509.796 452.373 509.796H450.335C450.074 509.796 449.943 509.685 449.943 509.463V495.631C449.943 495.383 450.061 495.259 450.296 495.259H452.667C452.81 495.259 452.915 495.278 452.98 495.318C453.058 495.357 453.143 495.435 453.235 495.553L458.995 503.762C459.073 503.866 459.138 503.912 459.191 503.899C459.256 503.886 459.289 503.82 459.289 503.703V495.611C459.289 495.376 459.406 495.259 459.641 495.259H461.816Z" fill="#255782"/>
<path d="M695.707 377.296L706.062 373.985L722.641 378.75L722.215 381.134H711.05L704.487 387.681L698.773 388.817L695.707 377.296Z" fill="#F7A99C"/>
<path d="M704.864 376.326C707.699 374.757 714.895 371.304 723.425 372.982C726.046 373.498 730.85 374.443 733.876 378.501C735.499 380.678 735.947 382.859 736.3 384.688C737.318 389.948 735.575 392.047 735.547 400.825C735.537 404.109 735.777 405.379 736.55 406.594C738.049 408.943 739.936 408.544 743.155 410.774C743.604 411.085 748.149 414.317 750.01 419.804C751.344 423.732 749.953 424.844 751.515 426.994C753.926 430.315 758.119 428.881 760.211 431.676C762.644 434.93 759.893 440.791 759.541 441.541C752.864 455.767 710.753 462.614 692.572 444.217C691.938 443.576 681.504 432.803 684.546 425.322C686.298 421.014 691.902 419.314 691.903 414.286C691.903 412.106 690.85 411.989 690.315 408.266C689.933 405.61 689.418 402.03 691.235 399.153C693.349 395.805 696.831 396.248 697.438 393.554C697.914 391.441 695.967 390.311 695.596 388.059C695.196 385.621 696.645 381.907 704.864 376.326Z" fill="#262626"/>
<path d="M733.081 378.124C735.412 380.39 738.14 383.83 738.724 388.366C739.544 394.722 735.432 397.646 737.219 402.126C738.86 406.239 742.761 404.864 747.92 410.689C749.528 412.504 753.047 416.477 753.773 422.143C754.379 426.878 752.638 429.715 754.608 431.508C754.608 431.508 755.232 432.074 760.934 433.141" stroke="#262626" stroke-width="0.5" stroke-miterlimit="10" stroke-linecap="round" stroke-linejoin="round"/>
<path d="M695.16 395.967C692.374 397.208 688.817 399.363 687.724 402.997C686.411 407.364 689.982 409.469 689.229 414.451C688.239 421.011 680.79 421.511 680.952 427.66C681.035 430.837 682.092 433.529 685.634 438.195C688.559 442.049 691.86 443.834 692.573 444.215C693.785 444.864 694.868 445.284 695.668 445.553" stroke="#262626" stroke-width="0.5" stroke-miterlimit="10" stroke-linecap="round" stroke-linejoin="round"/>
<path d="M695.16 375.239C668.714 375.363 649.362 386.554 647.76 398.616C646.151 410.728 662.397 424.04 669.163 429.584C676.38 435.498 683.317 439.078 688.14 441.195L708.569 419.464L676.353 402.354L699.608 391.953L695.16 375.239Z" fill="#98D1FF"/>
<path d="M723.211 419.464C721.031 419.464 718.851 419.464 716.671 419.464C713.97 419.464 711.27 419.464 708.57 419.464C704.529 421.854 698.705 426.041 694.031 432.945C688.62 440.938 687.192 448.962 686.202 459.718C685.104 471.651 684.634 489.001 686.449 509.598L760.053 509.004C760.053 496.29 760.053 483.576 760.053 470.864C759.695 461.239 758.56 453.323 757.488 447.554C755.756 438.231 754.337 435.329 752.804 433.056C748.453 426.607 742.232 423.829 739.421 422.573C732.845 419.637 726.822 419.335 723.211 419.464Z" fill="#0078D7"/>
<path d="M715.89 425.396C720.006 425.411 723.356 422.088 723.371 417.972L723.432 401.934L708.526 401.877L708.465 417.915C708.45 422.03 711.774 425.38 715.89 425.396Z" fill="#F7A99C"/>
<path d="M708.483 413.425L718.191 408.438C718.092 409.278 717.541 413.216 714.078 415.935C711.867 417.671 709.544 418.068 708.471 418.181L708.483 413.425Z" fill="#FF7769"/>
<path d="M723.794 396.964C723.841 396.723 724.48 396.356 724.676 396.23C725.007 396.018 725.366 395.85 725.74 395.729C726.468 395.495 727.266 395.441 728.014 395.612C729.501 395.953 730.818 397.202 731.065 398.731C731.209 399.619 731.004 400.538 730.623 401.354C730.051 402.58 729.08 403.611 727.908 404.286C726.937 404.846 725.831 405.162 724.713 405.229C724.489 405.242 722.198 405.189 722.216 405.101C722.741 402.388 723.268 399.676 723.794 396.964Z" fill="#F7A99C"/>
<path d="M725.838 397.12C725.662 398.317 724.609 404.628 718.92 409.088C717.872 409.909 710.904 415.371 704.53 412.705C696.339 409.28 697.232 395.826 697.29 395.097C697.485 392.634 698.06 385.378 704.069 381.507C708.972 378.348 714.286 379.51 715.039 379.687C715.833 379.874 720.891 381.149 723.987 386.11C726.797 390.611 726.126 395.162 725.838 397.12Z" fill="#F7A99C"/>
<path d="M701.939 395.106C701.807 396.156 700.997 396.92 700.13 396.81C699.262 396.701 698.666 395.761 698.799 394.711C698.931 393.661 699.74 392.898 700.608 393.006C701.475 393.116 702.072 394.056 701.939 395.106Z" fill="#262626"/>
<path d="M711.405 396.295C711.273 397.345 710.463 398.108 709.596 397.999C708.728 397.89 708.132 396.95 708.264 395.9C708.397 394.85 709.206 394.086 710.074 394.196C710.941 394.305 711.537 395.245 711.405 396.295Z" fill="#262626"/>
<path d="M704.798 396.678L703.346 398.638C703.079 398.998 703.18 399.51 703.563 399.743L704.895 400.554" stroke="#262626" stroke-width="0.7131" stroke-miterlimit="10" stroke-linecap="round" stroke-linejoin="round"/>
<path d="M714.58 401.243C714.432 402.421 713.357 403.256 712.178 403.109C711 402.961 710.164 401.886 710.312 400.707C710.46 399.528 711.535 398.693 712.714 398.84C713.892 398.988 714.728 400.064 714.58 401.243Z" fill="#FF7769"/>
<path d="M724.794 402.354C724.788 402.118 724.767 400.517 726.051 399.362C727.057 398.458 728.228 398.399 728.546 398.393" stroke="#262626" stroke-width="0.7131" stroke-miterlimit="10" stroke-linecap="round" stroke-linejoin="round"/>
<path d="M725.927 399.678C725.998 399.667 726.859 399.548 727.46 400.198C727.955 400.733 727.91 401.395 727.9 401.505" stroke="#262626" stroke-width="0.7131" stroke-miterlimit="10" stroke-linecap="round" stroke-linejoin="round"/>
<path d="M698.405 397.842C697.997 397.79 697.606 397.864 697.257 398.021C697.298 399.176 697.409 400.576 697.663 402.062C697.732 402.077 697.798 402.1 697.869 402.109C699.049 402.257 700.124 401.422 700.272 400.243C700.419 399.065 699.585 397.989 698.405 397.842Z" fill="#FF7769"/>
<path d="M695.812 386.101C695.527 387.007 695.454 388.008 695.794 388.895C696.133 389.78 696.887 390.496 697.788 390.79C698.939 391.164 700.324 390.866 701.038 389.85C701.038 389.85 701.383 390.54 702.355 390.759C703.322 390.978 704.414 389.861 704.424 389.85C704.381 389.895 705.307 390.553 705.406 390.583C705.698 390.669 706.016 390.613 706.3 390.501C706.458 390.438 707.589 389.966 707.59 389.756C707.587 390.502 709.114 390.134 709.404 389.934C709.587 389.808 710.293 389.292 710.293 389.035C710.293 389.035 710.255 390.414 711.133 390.571C712.011 390.727 713.359 389.38 713.359 389.38C713.359 389.38 713.924 390.697 714.456 390.727C714.989 390.759 716.244 389.661 716.244 389.661C716.244 389.661 716.37 389.849 716.996 390.413C717.623 390.978 718.846 389.661 718.846 389.661L723.674 398.064C723.674 398.064 723.612 396.896 724.333 396.383C725.054 395.869 726.025 395.649 726.025 395.649C726.278 395.386 726.322 394.469 726.38 394.114C726.472 393.553 726.524 392.985 726.531 392.416C726.543 391.387 726.408 390.35 726.105 389.365C725.511 387.435 724.32 385.738 722.974 384.255C720.142 381.133 716.408 378.678 712.267 377.737C710.823 377.408 709.335 377.255 707.855 377.306C705.723 377.379 703.754 378.122 701.916 379.196C699.253 380.753 696.783 383.059 695.812 386.101Z" fill="#262626"/>
<path d="M704.738 405.23L709.545 404.084C709.254 402.731 707.957 401.867 706.702 402.078C705.333 402.308 704.362 403.761 704.738 405.23Z" fill="white"/>
<path d="M740.593 459.485C729.238 477.303 717.036 485.676 708.083 490.007C689.475 499.011 655.291 504.895 651.22 507.175C649.778 507.982 648.941 508.082 647.269 508.283C646.679 508.354 645.723 508.423 644.914 507.868C644.69 507.715 644.307 507.451 644.195 506.999C644.002 506.216 644.709 505.197 644.709 505.197C644.54 505.325 643.988 505.711 643.198 505.696C642.972 505.691 642.173 505.643 641.633 505.062C641.01 504.392 640.942 503.24 641.514 502.243C640.423 503.258 638.935 503.251 638.216 502.523C637.753 502.054 637.504 501.179 637.839 500.424C638.073 499.898 638.501 499.63 638.681 499.532C638.279 499.644 637.187 499.889 636.133 499.341C635.835 499.186 635.341 498.93 635.115 498.381C634.779 497.569 635.278 496.727 635.37 496.573C635.864 495.739 636.707 495.444 638.156 494.978C641.135 494.019 644.345 493.099 644.345 493.099L638.535 490.739C637.771 489.994 637.439 488.963 637.739 488.164C638.171 487.012 639.939 486.292 641.594 487.138C645.354 488.056 649.115 488.974 652.875 489.89C652.875 489.89 656.588 490.658 659.694 490.151C662.799 489.643 685.836 476.471 690.389 472.98C694.941 469.49 714.62 451.028 714.62 451.028L740.593 459.485Z" fill="#F7A99C"/>
<path d="M691.464 509.598C691.464 509.598 672.393 573.019 671.279 582.164C670.163 591.309 678.751 662.908 678.751 662.908H704.959L718.787 591.978C718.787 591.978 720.571 604.692 729.048 613.614C737.524 622.535 768.528 653.317 768.528 653.317L788.156 634.135L764.513 590.864C763.174 581.669 762.47 573.886 762.071 568.04C761.44 558.807 761.125 554.19 761.594 548.724C762.545 537.623 765.029 535.714 764.829 528.159C764.707 523.536 763.583 516.941 758.842 509.004C736.383 509.202 713.923 509.4 691.464 509.598Z" fill="#042B48"/>
<path d="M703.026 662.908V689.525H660.349L661.464 681.867C661.464 681.867 674.847 674.357 676.929 672.648C679.011 670.938 681.241 667.592 681.688 666.55C682.134 665.509 681.688 662.907 681.688 662.907L703.026 662.908Z" fill="#F7A99C"/>
<path d="M705.181 672.945C704.661 672.801 703.874 672.667 703.025 672.908C700.843 673.528 700.27 676.056 699.327 677.406L674.847 677.685C674.899 676.444 674.95 675.203 675.001 673.962C673.726 673.549 672.453 673.135 671.179 672.722C668.51 675.699 665.913 677.428 663.951 678.472C660.939 680.077 657.033 681.345 655.442 684.06C654.67 685.377 654.632 686.716 654.627 686.963C654.615 687.653 654.599 688.621 655.294 689.264C655.81 689.744 656.472 689.811 656.78 689.822C672.58 689.723 688.379 689.624 704.178 689.525C704.733 689.525 705.182 689.075 705.182 688.522V672.945H705.181Z" fill="#98D1FF"/>
<path d="M656.725 692.573H703.298C704.338 692.573 705.18 691.73 705.18 690.691V688.603H654.843V690.691C654.843 691.73 655.686 692.573 656.725 692.573Z" fill="#2C3557"/>
<path opacity="0.5" d="M696.967 493.508L697.235 504.21C700.375 502.651 703.545 501.048 706.745 499.397C709.905 497.767 713.012 496.134 716.066 494.501C716.066 491.619 716.066 488.735 716.066 485.853L696.967 493.508Z" fill="#C3988F"/>
<path d="M787.722 634.559L806.302 653.617L775.745 683.409L771.198 677.148C771.198 677.148 775.539 662.429 775.836 659.751C776.133 657.073 775.394 653.121 774.987 652.063C774.58 651.006 772.444 649.454 772.444 649.454L787.722 634.559Z" fill="#F7A99C"/>
<path d="M796.273 640.241C795.8 640.501 795.143 640.954 794.704 641.72C793.574 643.687 794.928 645.898 795.195 647.523L777.861 664.811C777.032 663.887 776.202 662.962 775.373 662.038C774.172 662.632 772.971 663.225 771.771 663.818C771.938 667.814 771.285 670.862 770.61 672.98C769.573 676.232 767.661 679.867 768.418 682.921C768.786 684.403 769.691 685.389 769.861 685.568C770.334 686.07 770.997 686.775 771.945 686.751C772.649 686.733 773.17 686.321 773.398 686.112C784.642 675.012 795.885 663.912 807.129 652.811C807.526 652.424 807.533 651.789 807.147 651.392L796.273 640.241Z" fill="#98D1FF"/>
<path d="M775.28 688.12L808.627 655.609C809.372 654.883 809.386 653.692 808.661 652.947L807.203 651.452L771.159 686.591L772.617 688.086C773.344 688.831 774.535 688.846 775.28 688.12Z" fill="#2C3557"/>
<path d="M637.949 489.957C638.379 490.25 638.937 490.608 639.608 490.984C640.801 491.654 641.858 492.105 642.625 492.398C643.656 492.791 644.988 493.212 646.581 493.507" stroke="#262626" stroke-width="0.5" stroke-miterlimit="10" stroke-linecap="round" stroke-linejoin="round"/>
<path d="M636.691 499.555C636.691 499.555 637.227 499.842 638.68 499.53C640.133 499.219 641.65 498.376 641.65 498.376" stroke="#262626" stroke-width="0.5" stroke-miterlimit="10" stroke-linecap="round" stroke-linejoin="round"/>
<path d="M639.838 503.023C639.838 503.023 640.4 502.897 641.782 502.262C643.163 501.626 644.444 500.759 644.444 500.759" stroke="#262626" stroke-width="0.5" stroke-miterlimit="10" stroke-linecap="round" stroke-linejoin="round"/>
<path d="M643.787 505.631C643.787 505.631 644.953 505.153 645.623 504.76C646.291 504.367 647.04 503.689 647.04 503.689" stroke="#262626" stroke-width="0.5" stroke-miterlimit="10" stroke-linecap="round" stroke-linejoin="round"/>
<path d="M714.164 546.26C714.164 546.26 700.453 598.599 699.617 612.143C698.781 625.687 695.103 662.908 695.103 662.908H704.96L718.789 591.979L714.164 546.26Z" fill="#00263D"/>
<path d="M724.77 608.002C722.8 604.477 720.228 599.03 718.788 591.978C718.494 590.542 718.37 589.635 717.549 581.208C716.45 569.921 715.615 560.673 715.568 560.149C715.254 556.667 714.773 551.384 714.164 544.839C714.164 544.839 713.328 531.88 712.909 525.191" stroke="#262626" stroke-width="0.5" stroke-miterlimit="10" stroke-linecap="round" stroke-linejoin="round"/>
<path d="M742.255 509.004C742.255 509.004 745.516 571.928 747.021 579.453C748.526 586.977 752.355 603.532 758.842 612.059C765.33 620.587 780.025 642.064 780.025 642.064" stroke="#262626" stroke-width="0.5" stroke-miterlimit="10" stroke-linecap="round" stroke-linejoin="round"/>
<path d="M713.908 547.24C713.908 547.24 701.38 598.503 700.498 605.324C699.616 612.143 695.101 662.908 695.101 662.908" stroke="#262626" stroke-width="0.5" stroke-miterlimit="10" stroke-linecap="round" stroke-linejoin="round"/>
<path d="M787.723 634.559L772.445 649.454L774.253 651.032L790.122 637.019L787.723 634.559Z" fill="#F7A99C"/>
<path d="M703.026 662.908H681.687L681.874 665.567H703.026V662.908Z" fill="#F7A99C"/>
<path d="M708.569 419.464C708.569 419.464 700.29 449.985 698.773 461.188C697.256 472.392 697.235 514.196 697.235 514.196H682.875C682.314 507.877 679.457 473.568 685.823 448.648C688.95 436.406 693.338 430.209 697.924 426.074C701.878 422.509 705.908 420.539 708.569 419.464Z" fill="#98D1FF"/>
<path opacity="0.5" d="M682.251 505.631C684.484 505.929 687.422 506.093 690.817 505.667C693.327 505.353 695.489 504.791 697.234 504.209C697.28 501.519 697.326 498.828 697.37 496.138L681.75 502.212L682.251 505.631Z" fill="#0078D7"/>
<path d="M770.829 518.041C766.189 482.977 761.025 456.423 757.535 443.714C756.166 438.726 753.816 431.361 747.31 426.207C743.334 423.056 738.893 421.592 737.218 421.057C731.406 419.197 726.329 419.214 723.208 419.464C723.208 419.464 717.028 435.12 716.921 441.129C711.669 448.981 703.757 458.772 692.237 467.876C679.572 477.885 667.231 483.365 658.627 486.401L662.808 509.005C662.808 509.005 697.835 496.972 716.167 488.064C715.933 502.687 715.738 515.031 715.738 515.031L770.829 518.041Z" fill="#98D1FF"/>
<path opacity="0.5" d="M716.065 494.5L716.168 488.064C729.09 481.418 736.518 473.493 740.355 468.671C745.652 462.011 749.658 454.283 751.344 451.031C753.615 446.649 755.278 442.839 756.422 440.031C757.511 444.155 758.599 448.279 759.688 452.403C757.131 458.416 752.103 468.14 742.612 477.449C732.644 487.228 722.265 492.121 716.065 494.5Z" fill="#0078D7"/>
<path d="M756.115 441.195C756.115 441.195 749.07 456.811 742.672 465.982C738.174 472.429 730.388 480.866 716.167 488.064C708.432 491.549 700.309 495.005 691.802 498.381C681.816 502.344 672.13 505.867 662.808 509.003" stroke="#262626" stroke-width="0.5" stroke-miterlimit="10" stroke-linecap="round" stroke-linejoin="round"/>
<path d="M735.303 420.504C733.762 420.596 731.439 420.961 729.193 422.393C726.504 424.108 725.374 426.429 723.675 429.583C722.218 432.288 719.999 436.243 716.922 441.128C713.984 445.134 701.661 461.589 686.526 472.11C680.272 476.457 674.791 479.285 674.791 479.285C667.474 483.058 658.628 486.4 658.628 486.4" stroke="#262626" stroke-width="0.5" stroke-miterlimit="10" stroke-linecap="round" stroke-linejoin="round"/>
<path d="M690.179 436.466C690.179 436.466 688.034 440.379 686.676 445.554C685.317 450.728 684.217 456.144 684.217 456.144" stroke="#262626" stroke-width="0.5" stroke-miterlimit="10" stroke-linecap="round" stroke-linejoin="round"/>
<path d="M708.568 419.464L672.005 399.976" stroke="#262626" stroke-width="0.5" stroke-miterlimit="10" stroke-linecap="round" stroke-linejoin="round"/>
<path d="M670.166 385.272C667.619 385.578 661.087 386.736 656.287 392.128C654.931 393.652 652.675 396.185 652.274 399.976C651.518 407.109 658.017 412.192 658.628 412.655" stroke="white" stroke-width="0.5" stroke-miterlimit="10" stroke-linecap="round" stroke-linejoin="round"/>
<path d="M757.787 465.786L763.054 505.925" stroke="#262626" stroke-width="0.5" stroke-miterlimit="10" stroke-linecap="round" stroke-linejoin="round"/>
<path d="M760.91 369.783C761.404 365.853 762.102 362.726 763.002 360.403C763.902 358.081 765.344 356.029 767.327 354.248C768.477 353.175 769.738 352.284 771.114 351.577C772.487 350.87 773.768 350.1 774.957 349.267C776.142 348.436 777.177 347.466 778.062 346.359C778.945 345.252 779.508 343.734 779.751 341.801C780.161 338.538 779.548 336.142 777.912 334.617C776.277 333.093 774.226 332.175 771.763 331.865C768.23 331.421 765.676 332.1 764.098 333.897C762.517 335.695 761.352 338.238 760.602 341.526L747.713 339.907C748.123 336.644 749.028 333.747 750.428 331.215C751.827 328.685 753.627 326.61 755.827 324.991C758.026 323.374 760.57 322.238 763.461 321.586C766.35 320.934 769.461 320.817 772.792 321.235C779.986 322.139 785.48 324.318 789.276 327.771C793.071 331.225 794.555 336.249 793.727 342.844C793.459 344.977 793.008 346.814 792.375 348.358C791.741 349.903 790.908 351.27 789.881 352.46C788.852 353.651 787.632 354.732 786.226 355.706C784.817 356.681 783.239 357.665 781.49 358.664C779.882 359.613 778.568 360.514 777.548 361.366C776.527 362.219 775.716 363.15 775.117 364.156C774.517 365.164 774.077 366.243 773.797 367.391C773.516 368.54 773.285 369.849 773.101 371.312L760.91 369.783ZM758.089 389.017L759.733 375.928L773.222 377.623L771.578 390.712L758.089 389.017Z" fill="#FF6262"/>
<path d="M712.752 344.17C712.245 341.385 712.049 339.103 712.164 337.327C712.279 335.55 712.821 333.842 713.791 332.202C714.344 331.223 715.012 330.346 715.799 329.568C716.583 328.791 717.291 327.992 717.922 327.169C718.552 326.348 719.049 325.464 719.414 324.519C719.778 323.575 719.836 322.418 719.587 321.049C719.166 318.737 718.234 317.235 716.791 316.547C715.348 315.859 713.753 315.674 712.008 315.992C709.505 316.448 707.909 317.459 707.219 319.023C706.527 320.588 706.28 322.573 706.474 324.975L697.339 326.64C696.918 324.327 696.911 322.157 697.324 320.131C697.734 318.106 698.516 316.305 699.668 314.729C700.818 313.153 702.309 311.833 704.14 310.768C705.969 309.703 708.065 308.955 710.426 308.524C715.524 307.596 719.738 307.901 723.068 309.44C726.396 310.98 728.487 314.085 729.339 318.76C729.614 320.271 729.701 321.62 729.601 322.809C729.501 323.998 729.227 325.108 728.782 326.141C728.336 327.174 727.737 328.173 726.987 329.138C726.235 330.105 725.371 331.116 724.393 332.171C723.501 333.164 722.799 334.06 722.285 334.86C721.772 335.661 721.419 336.47 721.228 337.284C721.035 338.1 720.966 338.93 721.022 339.773C721.078 340.616 721.201 341.558 721.391 342.596L712.752 344.17ZM714.96 357.888L713.269 348.612L722.828 346.87L724.519 356.146L714.96 357.888Z" fill="#FF6262"/>
</svg>
