<svg width="287" height="287" viewBox="0 0 287 287" fill="none" xmlns="http://www.w3.org/2000/svg">
<g opacity="0.8">
<path d="M287 219.496H0V219.64H287V219.496Z" fill="#E1E5FA"/>
<path d="M43.5692 225.009H37.4785V225.153H43.5692V225.009Z" fill="#E1E5FA"/>
<path d="M72.5485 224.937H47.7793V225.081H72.5485V224.937Z" fill="#E1E5FA"/>
<path d="M83.9947 228.261H64.3926V228.404H83.9947V228.261Z" fill="#E1E5FA"/>
<path d="M132.083 223.812H88.3984V223.956H132.083V223.812Z" fill="#E1E5FA"/>
<path d="M231.481 226.236H200.518V226.379H231.481V226.236Z" fill="#E1E5FA"/>
<path d="M197.33 226.236H192.958V226.379H197.33V226.236Z" fill="#E1E5FA"/>
<path d="M246.66 223.741H216.302V223.884H246.66V223.741Z" fill="#E1E5FA"/>
<path d="M177.333 219.496H116.213C118.836 209.612 119.623 199.394 118.566 189.131C117.229 175.958 112.861 162.716 105.468 150.025H166.582C173.975 162.716 178.343 175.958 179.686 189.131C180.742 199.389 179.956 209.612 177.333 219.496Z" fill="#E1E5FA"/>
<path d="M175.994 219.496H114.874C117.497 209.612 118.284 199.394 117.228 189.131C115.89 175.958 111.522 162.716 104.129 150.025H165.243C172.636 162.716 177.004 175.958 178.347 189.131C179.403 199.389 178.617 209.612 175.994 219.496Z" fill="#EEF9FF"/>
<path d="M178.347 189.131H117.228C115.89 175.958 111.522 162.716 104.129 150.025H165.243C172.636 162.716 177.004 175.958 178.347 189.131Z" fill="#E1E5FA"/>
<path d="M236.759 183.19H48.1015C44.8825 183.19 42.249 180.557 42.249 177.338V61.0547C42.249 57.8357 44.8825 55.2022 48.1015 55.2022H236.759C239.978 55.2022 242.611 57.8357 242.611 61.0547V177.338C242.611 180.557 239.978 183.19 236.759 183.19Z" fill="#E1E5FA"/>
<path d="M235.715 183.19H47.0586C43.8396 183.19 41.2061 180.557 41.2061 177.338V61.0547C41.2061 57.8357 43.8396 55.2022 47.0586 55.2022H235.716C238.935 55.2022 241.568 57.8357 241.568 61.0547V177.338C241.568 180.557 238.934 183.19 235.715 183.19Z" fill="#212A4B"/>
<path d="M241.568 61.9283H41.2061V163.207H241.568V61.9283Z" fill="white"/>
<path d="M168.925 214.666H99.1565C96.4886 214.666 94.3252 216.828 94.3252 219.497H173.756C173.756 216.828 171.593 214.666 168.925 214.666Z" fill="#EEF9FF"/>
<path d="M185.546 214.666H173.052C170.385 214.666 168.222 216.828 168.222 219.497H190.377C190.377 216.828 188.214 214.666 185.546 214.666Z" fill="#E1E5FA"/>
<path d="M112.096 135.65H230.204C231.578 135.65 232.702 134.526 232.702 133.152V44.2927C232.702 42.9191 231.578 41.7952 230.204 41.7952H112.096C110.723 41.7952 109.599 42.9191 109.599 44.2927V133.152C109.599 134.525 110.723 135.65 112.096 135.65Z" fill="#E1E5FA"/>
<path d="M111.432 135.65H229.541C230.914 135.65 232.038 134.526 232.038 133.152V44.2927C232.038 42.9191 230.914 41.7952 229.541 41.7952H111.432C110.058 41.7952 108.935 42.9191 108.935 44.2927V133.152C108.934 134.525 110.058 135.65 111.432 135.65Z" fill="#171F3F"/>
<path d="M232.037 48.2533V133.152C232.037 134.526 230.914 135.649 229.54 135.649H111.432C110.058 135.649 108.935 134.526 108.935 133.152V48.2533H232.037Z" fill="#E8EBFD"/>
<path d="M231.577 51.5745H109.396V132.328H231.577V51.5745Z" fill="white"/>
<path d="M225.229 45.0429C225.229 45.7765 225.824 46.3712 226.558 46.3712C227.291 46.3712 227.886 45.7765 227.886 45.0429C227.886 44.3094 227.291 43.7147 226.558 43.7147C225.824 43.7147 225.229 44.3094 225.229 45.0429Z" fill="white"/>
<path d="M220.522 45.0429C220.522 45.7765 221.117 46.3712 221.851 46.3712C222.584 46.3712 223.179 45.7765 223.179 45.0429C223.179 44.3094 222.584 43.7147 221.851 43.7147C221.117 43.7147 220.522 44.3094 220.522 45.0429Z" fill="white"/>
<path d="M215.815 45.0429C215.815 45.7765 216.41 46.3712 217.144 46.3712C217.877 46.3712 218.472 45.7765 218.472 45.0429C218.472 44.3094 217.877 43.7147 217.144 43.7147C216.41 43.7147 215.815 44.3094 215.815 45.0429Z" fill="white"/>
<path d="M108.935 48.4194L232.038 48.4194V48.0876L108.935 48.0876V48.4194Z" fill="#E1E5FA"/>
<path d="M100.167 147.578H218.275C219.649 147.578 220.773 146.454 220.773 145.081V56.2216C220.773 54.848 219.649 53.7241 218.275 53.7241H100.167C98.7938 53.7241 97.6699 54.848 97.6699 56.2216V145.081C97.6699 146.454 98.7938 147.578 100.167 147.578Z" fill="#E1E5FA"/>
<path d="M99.5033 147.578H217.611C218.985 147.578 220.109 146.454 220.109 145.081V56.2216C220.109 54.848 218.985 53.7241 217.611 53.7241H99.5033C98.1298 53.7241 97.0059 54.848 97.0059 56.2216V145.081C97.0059 146.454 98.1298 147.578 99.5033 147.578Z" fill="#171F3F"/>
<path d="M220.109 60.1822V145.081C220.109 146.454 218.985 147.578 217.612 147.578H99.5033C98.1298 147.578 97.0059 146.454 97.0059 145.081V60.1822H220.109Z" fill="#E8EBFD"/>
<path d="M219.649 63.5033H97.4678V144.257H219.649V63.5033Z" fill="white"/>
<path d="M214.629 58.3C215.363 58.3 215.957 57.7054 215.957 56.9718C215.957 56.2382 215.363 55.6436 214.629 55.6436C213.895 55.6436 213.301 56.2382 213.301 56.9718C213.301 57.7054 213.895 58.3 214.629 58.3Z" fill="white"/>
<path d="M208.594 56.9718C208.594 57.7054 209.188 58.3 209.922 58.3C210.656 58.3 211.25 57.7054 211.25 56.9718C211.25 56.2382 210.656 55.6436 209.922 55.6436C209.188 55.6436 208.594 56.2376 208.594 56.9718Z" fill="white"/>
<path d="M205.215 58.3C205.949 58.3 206.543 57.7054 206.543 56.9718C206.543 56.2382 205.949 55.6436 205.215 55.6436C204.481 55.6436 203.887 56.2382 203.887 56.9718C203.887 57.7054 204.481 58.3 205.215 58.3Z" fill="white"/>
<path d="M97.0059 60.3483L220.109 60.3483V60.0159L97.0059 60.0159V60.3483Z" fill="#E1E5FA"/>
<path d="M198.667 102.356C194.208 102.356 192.046 97.8125 189.955 93.4185C187.929 89.1594 186.014 85.1357 182.28 85.1357C178.546 85.1357 176.632 89.1588 174.606 93.4179C172.515 97.8119 170.353 102.356 165.894 102.356C161.435 102.356 159.273 97.8125 157.182 93.4179C155.156 89.1588 153.243 85.1357 149.509 85.1357C145.775 85.1357 143.862 89.1589 141.835 93.4185C139.744 97.8125 137.583 102.356 133.124 102.356C128.666 102.356 126.504 97.8125 124.414 93.4185C122.388 89.1594 120.473 85.1357 116.74 85.1357C113.007 85.1357 111.093 89.1589 109.066 93.4185C106.976 97.8125 104.815 102.356 100.356 102.356C95.8982 102.356 93.7371 97.8125 91.6472 93.4185C89.6209 89.1589 87.7072 85.1357 83.9745 85.1357C80.2418 85.1357 78.3281 89.1589 76.3019 93.4185C74.2119 97.8125 72.0508 102.356 67.5931 102.356C63.1354 102.356 60.9743 97.8125 58.8844 93.4179C56.8588 89.1588 54.9456 85.1357 51.2129 85.1357V83.9877C55.6706 83.9877 57.8311 88.5315 59.921 92.9249C61.9467 97.1839 63.8604 101.208 67.5931 101.208C71.3259 101.208 73.2396 97.1845 75.2658 92.9249C77.3557 88.5309 79.5168 83.9877 83.9745 83.9877C88.4322 83.9877 90.5939 88.5315 92.6838 92.9249C94.71 97.1845 96.6238 101.208 100.356 101.208C104.09 101.208 106.003 97.1845 108.03 92.9254C110.121 88.5315 112.282 83.9877 116.741 83.9877C121.2 83.9877 123.361 88.5315 125.451 92.9249C127.477 97.1839 129.392 101.208 133.125 101.208C136.858 101.208 138.773 97.1845 140.799 92.9254C142.89 88.5315 145.051 83.9877 149.51 83.9877C153.969 83.9877 156.13 88.5315 158.221 92.9249C160.247 97.1845 162.161 101.208 165.895 101.208C169.629 101.208 171.543 97.1845 173.57 92.9249C175.661 88.5315 177.822 83.9877 182.281 83.9877C186.741 83.9877 188.902 88.5315 190.993 92.9249C193.02 97.1839 194.934 101.208 198.668 101.208V102.356H198.667Z" fill="#F3F8FF"/>
<path d="M198.667 128.767C194.208 128.767 192.046 124.224 189.955 119.83C187.929 115.571 186.014 111.547 182.28 111.547C178.546 111.547 176.632 115.57 174.606 119.829C172.515 124.223 170.353 128.767 165.894 128.767C161.435 128.767 159.273 124.224 157.182 119.829C155.156 115.57 153.243 111.547 149.509 111.547C145.775 111.547 143.862 115.57 141.835 119.83C139.744 124.224 137.583 128.767 133.124 128.767C128.666 128.767 126.504 124.224 124.414 119.83C122.388 115.571 120.473 111.547 116.74 111.547C113.007 111.547 111.093 115.57 109.066 119.83C106.976 124.224 104.815 128.767 100.356 128.767C95.8982 128.767 93.7371 124.224 91.6472 119.83C89.6209 115.57 87.7072 111.547 83.9745 111.547C80.2418 111.547 78.3281 115.57 76.3019 119.83C74.2119 124.224 72.0508 128.767 67.5931 128.767C63.1354 128.767 60.9743 124.224 58.8844 119.829C56.8588 115.57 54.9456 111.547 51.2129 111.547V110.399C55.6706 110.399 57.8311 114.942 59.921 119.336C61.9467 123.595 63.8604 127.619 67.5931 127.619C71.3259 127.619 73.2396 123.596 75.2658 119.336C77.3557 114.942 79.5168 110.399 83.9745 110.399C88.4322 110.399 90.5939 114.942 92.6838 119.336C94.71 123.596 96.6238 127.619 100.356 127.619C104.09 127.619 106.003 123.596 108.03 119.337C110.121 114.943 112.282 110.399 116.741 110.399C121.2 110.399 123.361 114.942 125.451 119.336C127.477 123.595 129.392 127.619 133.125 127.619C136.858 127.619 138.773 123.596 140.799 119.337C142.89 114.943 145.051 110.399 149.51 110.399C153.969 110.399 156.13 114.942 158.221 119.336C160.247 123.596 162.161 127.619 165.895 127.619C169.629 127.619 171.543 123.596 173.57 119.336C175.661 114.943 177.822 110.399 182.281 110.399C186.741 110.399 188.902 114.942 190.993 119.336C193.02 123.595 194.934 127.619 198.668 127.619V128.767H198.667Z" fill="#F3F8FF"/>
<path d="M143.5 245.42C204.965 245.42 254.793 242.51 254.793 238.921C254.793 235.331 204.965 232.421 143.5 232.421C82.0353 232.421 32.208 235.331 32.208 238.921C32.208 242.51 82.0353 245.42 143.5 245.42Z" fill="#E1E5FA" fill-opacity="0.24"/>
<path d="M92.8047 63.1079H62.2105C60.0046 63.1079 58.022 64.4562 57.2121 66.5082L54.4873 73.4083H100.528L97.8036 66.5082C96.9926 64.4562 95.0106 63.1079 92.8047 63.1079Z" fill="#E1E5FA"/>
<path d="M179.67 63.1079H149.076C146.87 63.1079 144.888 64.4562 144.077 66.5082L141.353 73.4083H187.394L184.669 66.5082C183.858 64.4562 181.876 63.1079 179.67 63.1079Z" fill="#E1E5FA"/>
<path d="M45.824 111.769H45.25V122.885H45.824V111.769Z" fill="#E1E5FA"/>
<path d="M45.824 127.109H45.25V131.191H45.824V127.109Z" fill="#E1E5FA"/>
<path d="M233.464 72.6426H143.658L141.236 66.5082C140.425 64.4562 138.443 63.1079 136.237 63.1079H105.643C103.437 63.1079 101.455 64.4562 100.645 66.5082L98.2218 72.6426H53.5365C50.0844 72.6426 47.2598 75.4672 47.2598 78.9193V198.725C47.2598 202.177 50.0844 205.002 53.5365 205.002H233.464C236.916 205.002 239.741 202.177 239.741 198.725V78.9193C239.741 75.4672 236.916 72.6426 233.464 72.6426Z" fill="#171F3F"/>
<path d="M51.2773 198.842V90.7391C51.2773 89.5612 52.2411 88.5975 53.4189 88.5975H233.581C234.759 88.5975 235.722 89.5612 235.722 90.7391V198.842C235.722 200.02 234.759 200.984 233.581 200.984H53.4189C52.2411 200.984 51.2773 200.02 51.2773 198.842Z" fill="#E1E5FA"/>
<path d="M190.855 153.194H96.1455V135.763H190.855V153.194ZM96.7195 152.62H190.282V136.337H96.7195V152.62Z" fill="#2C3557"/>
<path d="M99.9715 140.001H99.3975V148.722H99.9715V140.001Z" fill="#2C3557"/>
<path d="M145.484 118.317H114.679V127.452H145.484V118.317Z" fill="#171F3F"/>
<path d="M168.054 158.625H118.945V160.807H168.054V158.625Z" fill="#2C3557"/>
<path d="M77.5075 92.3342H67.7236V94.5166H77.5075V92.3342Z" fill="#2C3557"/>
<path d="M65.0065 92.3342H55.2227V94.5166H65.0065V92.3342Z" fill="#2C3557"/>
<path d="M172.321 118.317H150.7V127.452H172.321V118.317Z" fill="#171F3F"/>
<path d="M180.279 147.682C179.194 147.682 178.11 147.268 177.284 146.443C175.633 144.792 175.633 142.104 177.284 140.453C178.935 138.801 181.623 138.801 183.274 140.453C184.926 142.104 184.926 144.792 183.274 146.443C182.448 147.268 181.364 147.682 180.279 147.682ZM180.279 140.362C179.488 140.362 178.698 140.663 178.096 141.265C176.892 142.469 176.892 144.428 178.096 145.631C179.3 146.836 181.258 146.834 182.462 145.631C183.666 144.427 183.666 142.469 182.462 141.265C181.861 140.663 181.07 140.362 180.279 140.362Z" fill="#2C3557"/>
<path d="M185.77 149.512C185.623 149.512 185.476 149.455 185.364 149.343L182.465 146.444C182.241 146.22 182.241 145.857 182.465 145.632C182.69 145.408 183.052 145.408 183.277 145.632L186.176 148.532C186.401 148.756 186.401 149.119 186.176 149.343C186.064 149.455 185.917 149.512 185.77 149.512Z" fill="#2C3557"/>
<path d="M221.549 102.214C221.846 103.354 222.173 104.623 222.528 105.827C222.864 107.052 223.22 108.275 223.598 109.493C223.981 110.71 224.347 111.935 224.751 113.147L225.348 114.972L225.499 115.427L225.553 115.589C225.561 115.619 225.574 115.652 225.589 115.687C225.645 115.823 225.733 115.982 225.85 116.149C226.321 116.837 227.21 117.578 228.174 118.213C229.142 118.87 230.228 119.447 231.338 120.002C233.567 121.085 235.961 122.062 238.33 122.911L237.771 125.281C235.094 124.865 232.519 124.25 229.941 123.34C228.653 122.889 227.381 122.35 226.112 121.677C224.857 120.974 223.579 120.188 222.424 118.831C222.141 118.486 221.87 118.098 221.636 117.652C221.577 117.543 221.521 117.428 221.469 117.307L221.343 117.015L221.151 116.558C220.893 115.948 220.636 115.338 220.395 114.721C219.912 113.489 219.428 112.254 219.005 110.997C218.573 109.742 218.155 108.482 217.768 107.207L217.232 105.276C217.054 104.62 216.901 103.996 216.749 103.276L221.549 102.214Z" fill="#FF8B7B"/>
<path d="M237.552 122.74L240.936 123.279L238.757 126.277C238.757 126.277 235.436 125.077 235.572 123.083L237.552 122.74Z" fill="#FF8B7B"/>
<path d="M241.235 126.448L239.741 129.487L238.757 126.277L240.936 123.279L241.235 126.448Z" fill="#FF8B7B"/>
<path d="M210.047 234.295C209.677 234.295 209.336 234.231 209.13 234.044C208.969 233.897 208.905 233.694 208.941 233.439C208.968 233.247 209.08 233.159 209.168 233.119C209.727 232.867 211.188 233.807 211.353 233.916C211.39 233.941 211.41 233.986 211.402 234.031C211.394 234.075 211.361 234.112 211.317 234.122C210.977 234.203 210.491 234.295 210.047 234.295ZM209.407 233.301C209.35 233.301 209.301 233.309 209.262 233.326C209.225 233.343 209.18 233.375 209.167 233.47C209.142 233.649 209.18 233.781 209.284 233.875C209.528 234.098 210.157 234.127 210.994 233.96C210.478 233.648 209.777 233.301 209.407 233.301Z" fill="#171F3F"/>
<path d="M211.291 234.125C211.271 234.125 211.252 234.12 211.234 234.111C210.776 233.85 209.902 232.813 210.01 232.271C210.031 232.167 210.108 231.988 210.393 231.953C210.575 231.929 210.736 231.983 210.875 232.106C211.398 232.569 211.404 233.953 211.404 234.012C211.404 234.052 211.383 234.09 211.348 234.11C211.33 234.12 211.31 234.125 211.291 234.125ZM210.473 232.176C210.456 232.176 210.438 232.177 210.421 232.18C210.275 232.197 210.244 232.262 210.233 232.316C210.168 232.645 210.713 233.425 211.17 233.79C211.143 233.329 211.036 232.552 210.725 232.275C210.648 232.209 210.566 232.176 210.473 232.176Z" fill="#171F3F"/>
<path d="M180.117 232.169C180.11 232.169 180.103 232.169 180.095 232.167C179.318 232.012 177.97 231.657 177.669 231.026C177.578 230.836 177.585 230.637 177.691 230.435C177.754 230.314 177.856 230.243 177.986 230.23C178.643 230.152 180.048 231.796 180.205 231.983C180.236 232.02 180.24 232.072 180.216 232.115C180.195 232.149 180.157 232.169 180.117 232.169ZM178.036 230.454C178.027 230.454 178.018 230.454 178.009 230.455C177.956 230.461 177.92 230.487 177.892 230.54C177.821 230.676 177.814 230.803 177.874 230.927C178.043 231.281 178.756 231.627 179.808 231.872C179.239 231.236 178.413 230.454 178.036 230.454Z" fill="#171F3F"/>
<path d="M180.117 232.169C180.086 232.169 180.056 232.157 180.034 232.133C179.604 231.674 178.955 230.282 179.245 229.814C179.315 229.702 179.459 229.59 179.764 229.68C179.989 229.748 180.159 229.89 180.271 230.103C180.636 230.8 180.242 232.037 180.225 232.09C180.213 232.128 180.181 232.157 180.141 232.166C180.134 232.169 180.126 232.169 180.117 232.169ZM179.563 229.875C179.475 229.875 179.45 229.916 179.439 229.933C179.264 230.215 179.663 231.263 180.066 231.813C180.159 231.444 180.309 230.666 180.069 230.209C179.986 230.05 179.864 229.948 179.698 229.898C179.641 229.881 179.598 229.875 179.563 229.875Z" fill="#171F3F"/>
<path d="M210.868 84.9905C210.309 87.8432 209.13 93.6217 211.127 95.5257C211.127 95.5257 210.346 98.4198 205.046 98.4198C199.217 98.4198 202.26 95.5262 202.26 95.5262C205.442 94.7662 205.36 92.406 204.805 90.1892L210.868 84.9905Z" fill="#FF8B7B"/>
<path d="M201.928 96.4584C201.138 96.5755 201.871 94.7812 202.197 94.5877C202.95 94.1406 212.518 93.2423 212.42 94.2531C212.366 94.6882 212.101 95.5429 211.674 95.8437C211.245 96.1444 208.824 95.3506 201.928 96.4584Z" fill="#2C3557"/>
<path d="M199.287 78.8751C199.216 78.8751 199.147 78.8423 199.102 78.7809C198.515 77.9687 197.693 77.9871 197.658 77.9899C197.531 77.9922 197.427 77.8975 197.421 77.7724C197.415 77.6473 197.512 77.5411 197.637 77.5348C197.682 77.5348 198.734 77.4952 199.471 78.5134C199.545 78.6156 199.522 78.758 199.42 78.8314C199.38 78.8607 199.333 78.8751 199.287 78.8751Z" fill="#0F264C"/>
<path d="M198.012 81.6136C198.012 81.6136 197.42 83.3075 196.728 84.1409C197.258 84.5984 198.119 84.3459 198.119 84.3459L198.012 81.6136Z" fill="#FE5C4C"/>
<path d="M198.332 80.934C198.348 81.3214 198.154 81.6435 197.901 81.6538C197.648 81.6636 197.43 81.3576 197.415 80.9702C197.399 80.5827 197.593 80.2607 197.846 80.2504C198.099 80.2406 198.317 80.5465 198.332 80.934Z" fill="#0F264C"/>
<path d="M197.959 80.2676L197.018 80.0357C197.018 80.0357 197.524 80.744 197.959 80.2676Z" fill="#0F264C"/>
<path d="M185.211 233.977L180.526 232.893L182.722 221.973L187.407 223.056L185.211 233.977Z" fill="#FF8B7B"/>
<path d="M216.882 234.011H212.073L212.45 222.877H217.259L216.882 234.011Z" fill="#FF8B7B"/>
<path d="M211.692 233.455H217.094C217.29 233.455 217.45 233.592 217.478 233.783L218.093 238.057C218.157 238.5 217.776 238.919 217.322 238.912C215.439 238.88 214.531 238.769 212.156 238.769C210.695 238.769 208.56 238.921 206.542 238.921C204.568 238.921 204.416 236.925 205.257 236.745C209.025 235.934 209.62 234.817 210.889 233.751C211.118 233.558 211.405 233.455 211.692 233.455Z" fill="#14365B"/>
<path d="M180.621 231.662L185.611 233.732C185.792 233.807 185.887 233.995 185.839 234.183L184.769 238.366C184.658 238.8 184.145 239.041 183.73 238.86C182.002 238.108 181.207 237.658 179.013 236.748C177.663 236.188 174.813 235.17 172.949 234.396C171.126 233.639 171.751 231.738 172.596 231.893C176.387 232.589 178.185 232.125 179.766 231.627C180.051 231.537 180.356 231.552 180.621 231.662Z" fill="#14365B"/>
<path d="M182.724 221.976L181.546 227.826L186.277 228.688L187.41 223.06L182.724 221.976Z" fill="#DBDBDB"/>
<path d="M217.26 222.88H212.45L212.258 228.62H217.068L217.26 222.88Z" fill="#DBDBDB"/>
<path d="M196.042 103.309C194.906 106.176 193.646 108.901 192.218 111.619C191.508 112.977 190.766 114.321 189.926 115.643C189.728 115.975 189.503 116.304 189.287 116.633C189.073 116.963 188.851 117.29 188.607 117.615C188.363 117.94 188.149 118.265 187.877 118.588L187.484 119.071L187.288 119.312C187.261 119.346 187.218 119.397 187.16 119.459L187.004 119.629C186.144 120.511 185.181 120.984 184.291 121.305C183.393 121.621 182.533 121.788 181.695 121.903C180.021 122.117 178.427 122.089 176.864 121.984C173.736 121.73 170.758 121.186 167.783 120.337L168.275 117.952C169.7 118.086 171.178 118.207 172.625 118.262C174.075 118.338 175.522 118.361 176.939 118.3C178.352 118.251 179.75 118.123 181.019 117.854C181.647 117.718 182.246 117.543 182.738 117.319C183.228 117.097 183.605 116.832 183.763 116.616L184.273 115.902C184.468 115.644 184.644 115.333 184.831 115.05C185.199 114.475 185.555 113.862 185.902 113.247C186.597 112.014 187.244 110.719 187.89 109.425C188.533 108.127 189.13 106.796 189.73 105.466C190.336 104.145 190.918 102.778 191.481 101.474L196.042 103.309Z" fill="#FF8B7B"/>
<path d="M194.132 96.7575C191.742 97.3401 188.802 103.901 188.802 103.901L194.49 111.188C194.49 111.188 200.366 102.875 199.58 100.334C198.762 97.6885 197.031 96.0503 194.132 96.7575Z" fill="#E1E5FA"/>
<path d="M168.533 120.535L163.622 119.692L165.668 116.1C165.668 116.1 169.076 117.015 169.86 118.853L168.533 120.535Z" fill="#FF8B7B"/>
<path d="M160.39 118.528L161.669 116.374L165.669 116.1L163.622 119.692L160.39 118.528Z" fill="#FF8B7B"/>
<path d="M211.309 79.0926C211.203 83.8631 211.261 85.8847 208.953 88.4218C205.481 92.2383 199.645 91.0651 198.323 86.3594C197.133 82.1233 197.505 75.0338 202.089 72.9571C206.606 70.9102 211.414 74.3221 211.309 79.0926Z" fill="#FF8B7B"/>
<path d="M217.046 79.0077L217.043 79.0082C216.615 75.5815 214.933 72.1799 213.06 70.5147C208.535 66.4927 202.46 69.7111 199.468 72.1667C196.332 74.7411 198.489 78.8148 200.407 80.8594C200.407 80.8594 200.417 81.7933 200.739 83.0239C200.44 84.9084 199.181 86.7722 197.423 88.2766C203.387 90.0227 212.117 90.1421 215.345 88.9419C219.515 87.3909 217.833 86.1717 217.046 79.0077Z" fill="#262F52"/>
<path d="M202.159 81.3014C202.097 82.2284 201.628 83.1118 201.066 83.6961C200.219 84.5755 199.339 84.0663 199.191 83.0268C199.058 82.0912 199.338 80.5069 200.372 80.0064C201.39 79.5145 202.229 80.2418 202.159 81.3014Z" fill="#FF8B7B"/>
<path d="M196.429 125.776C196.429 125.776 191.01 162.8 189.106 177.341C187.126 192.467 181.337 226.378 181.337 226.378L187.763 227.36C187.763 227.36 197.925 195.018 200.756 180.3C203.842 164.254 210.727 125.776 210.727 125.776H196.429Z" fill="#0F264C"/>
<path d="M180.39 226.405L188.623 227.803L189.557 224.696L180.747 223.19L180.39 226.405Z" fill="#E1E5FA"/>
<path d="M201.586 125.776C201.586 125.776 204.376 158.776 207.271 177.374C209.61 192.396 211.454 227.508 211.454 227.508H218.01C218.01 227.508 221.134 193.598 219.948 178.741C216.944 141.145 222.212 134.491 215.957 125.777H201.586V125.776Z" fill="#0F264C"/>
<path d="M210.557 227.638H218.908L219.346 224.708L210.509 224.409L210.557 227.638Z" fill="#E1E5FA"/>
<path d="M223.55 104.242L218.723 108.088L215.824 110.401C215.824 110.401 215.52 109.592 215.153 108.433C214.452 106.194 213.54 102.647 214.171 101.017C215.164 98.4335 217.058 96.1031 219.417 96.6197C221.415 97.0559 223.55 104.242 223.55 104.242Z" fill="#E1E5FA"/>
<path d="M218.723 108.088L215.824 110.401C215.824 110.401 215.52 109.592 215.152 108.433L216.874 99.9087L218.723 108.088Z" fill="#B2BEFD"/>
<path d="M194.131 96.7575C194.131 96.7575 191.841 97.5639 196.429 125.776C204.177 125.776 212.186 125.776 215.956 125.776C215.628 117.828 215.619 112.928 219.417 96.618C219.417 96.618 215.326 95.7277 211.125 95.5257C207.839 95.3672 205.147 95.2622 202.258 95.5262C198.45 95.8735 194.131 96.7575 194.131 96.7575Z" fill="#E1E5FA"/>
<path d="M216.248 124.63L217.129 126.378C217.197 126.513 217.036 126.651 216.811 126.651H196.332C196.156 126.651 196.01 126.565 195.999 126.454L195.823 124.707C195.811 124.586 195.964 124.483 196.156 124.483H215.93C216.075 124.483 216.205 124.542 216.248 124.63Z" fill="#2C3557"/>
<path d="M213.593 126.841H214.122C214.228 126.841 214.308 126.786 214.301 126.72L214.052 124.45C214.045 124.383 213.953 124.329 213.847 124.329H213.318C213.212 124.329 213.132 124.384 213.139 124.45L213.388 126.72C213.395 126.787 213.488 126.841 213.593 126.841Z" fill="#0F264C"/>
<path d="M200.757 126.841H201.286C201.392 126.841 201.472 126.786 201.465 126.72L201.216 124.45C201.209 124.383 201.117 124.329 201.012 124.329H200.482C200.376 124.329 200.296 124.384 200.303 124.45L200.552 126.72C200.559 126.787 200.651 126.841 200.757 126.841Z" fill="#0F264C"/>
<path d="M132.187 140.819C132.257 140.819 132.291 140.859 132.291 140.939V146.627C132.291 146.664 132.278 146.696 132.251 146.723C132.225 146.744 132.187 146.755 132.139 146.755H131.331C131.289 146.755 131.254 146.749 131.227 146.739C131.201 146.728 131.169 146.701 131.131 146.659L128.579 143.075C128.558 143.048 128.537 143.037 128.515 143.043C128.499 143.048 128.491 143.064 128.491 143.091V146.611C128.497 146.707 128.443 146.755 128.331 146.755H127.499C127.393 146.755 127.339 146.709 127.339 146.619V140.971C127.339 140.869 127.387 140.819 127.483 140.819H128.451C128.51 140.819 128.553 140.827 128.579 140.843C128.611 140.859 128.646 140.891 128.683 140.939L131.035 144.291C131.067 144.333 131.094 144.352 131.115 144.347C131.142 144.341 131.155 144.315 131.155 144.267V140.963C131.155 140.867 131.203 140.819 131.299 140.819H132.187ZM135.954 146.835C135.388 146.835 134.9 146.715 134.49 146.475C134.079 146.229 133.762 145.88 133.538 145.427C133.319 144.973 133.21 144.435 133.21 143.811C133.21 143.176 133.322 142.629 133.546 142.171C133.775 141.712 134.095 141.36 134.506 141.115C134.916 140.864 135.399 140.739 135.954 140.739C136.508 140.739 136.988 140.864 137.394 141.115C137.804 141.36 138.122 141.712 138.346 142.171C138.57 142.624 138.682 143.168 138.682 143.803C138.682 144.427 138.57 144.965 138.346 145.419C138.127 145.872 137.812 146.221 137.402 146.467C136.991 146.712 136.508 146.835 135.954 146.835ZM135.954 145.851C136.391 145.851 136.711 145.693 136.914 145.379C137.116 145.059 137.218 144.539 137.218 143.819C137.218 143.083 137.114 142.549 136.906 142.219C136.703 141.883 136.386 141.715 135.954 141.715C135.516 141.715 135.194 141.883 134.986 142.219C134.778 142.555 134.674 143.088 134.674 143.819C134.674 144.533 134.775 145.051 134.978 145.371C135.186 145.691 135.511 145.851 135.954 145.851ZM141.429 140.819C141.525 140.819 141.653 140.819 141.813 140.819C141.979 140.819 142.149 140.819 142.325 140.819C142.507 140.819 142.677 140.819 142.837 140.819C142.997 140.819 143.123 140.821 143.213 140.827C143.933 140.843 144.525 140.973 144.989 141.219C145.453 141.464 145.795 141.803 146.013 142.235C146.237 142.661 146.349 143.171 146.349 143.763C146.349 144.371 146.232 144.901 145.997 145.355C145.768 145.803 145.416 146.149 144.941 146.395C144.472 146.635 143.883 146.755 143.173 146.755H141.437C141.315 146.755 141.253 146.691 141.253 146.563V140.987C141.253 140.923 141.267 140.88 141.293 140.859C141.32 140.832 141.365 140.819 141.429 140.819ZM142.733 141.811C142.68 141.811 142.653 141.848 142.653 141.923V145.659C142.653 145.733 142.688 145.771 142.757 145.771H142.909C143.347 145.771 143.712 145.707 144.005 145.579C144.299 145.445 144.517 145.232 144.661 144.939C144.811 144.645 144.885 144.256 144.885 143.771C144.885 143.301 144.816 142.925 144.677 142.643C144.544 142.355 144.336 142.144 144.053 142.011C143.776 141.877 143.421 141.811 142.989 141.811H142.733ZM146.71 146.755C146.662 146.755 146.628 146.733 146.606 146.691C146.585 146.648 146.585 146.592 146.606 146.523L148.598 140.979C148.62 140.92 148.644 140.88 148.67 140.859C148.697 140.832 148.742 140.819 148.806 140.819H150.006C150.124 140.819 150.204 140.877 150.246 140.995L152.222 146.539C152.238 146.581 152.238 146.629 152.222 146.683C152.206 146.731 152.174 146.755 152.126 146.755H150.95C150.87 146.755 150.82 146.717 150.798 146.643L150.382 145.475C150.377 145.448 150.366 145.427 150.35 145.411C150.34 145.395 150.316 145.387 150.278 145.387H148.326C148.273 145.387 148.238 145.413 148.222 145.467L147.798 146.651C147.788 146.683 147.769 146.709 147.742 146.731C147.721 146.747 147.684 146.755 147.63 146.755H146.71ZM149.95 144.323C150.025 144.323 150.049 144.277 150.022 144.187L149.35 142.315C149.334 142.283 149.316 142.267 149.294 142.267C149.278 142.267 149.262 142.285 149.246 142.323L148.566 144.187C148.529 144.277 148.553 144.323 148.638 144.323H149.95ZM151.848 140.963C151.848 140.92 151.861 140.885 151.888 140.859C151.915 140.832 151.955 140.819 152.008 140.819H156.6C156.659 140.819 156.699 140.832 156.72 140.859C156.747 140.885 156.76 140.92 156.76 140.963V141.707C156.76 141.787 156.712 141.827 156.616 141.827H155.12C155.061 141.827 155.032 141.853 155.032 141.907V146.603C155.032 146.704 154.987 146.755 154.896 146.755H153.752C153.672 146.755 153.632 146.709 153.632 146.619V141.931C153.632 141.861 153.603 141.827 153.544 141.827H152C151.899 141.827 151.848 141.787 151.848 141.707V140.963ZM156.577 146.755C156.529 146.755 156.495 146.733 156.473 146.691C156.452 146.648 156.452 146.592 156.473 146.523L158.465 140.979C158.487 140.92 158.511 140.88 158.537 140.859C158.564 140.832 158.609 140.819 158.673 140.819H159.873C159.991 140.819 160.071 140.877 160.113 140.995L162.089 146.539C162.105 146.581 162.105 146.629 162.089 146.683C162.073 146.731 162.041 146.755 161.993 146.755H160.817C160.737 146.755 160.687 146.717 160.665 146.643L160.249 145.475C160.244 145.448 160.233 145.427 160.217 145.411C160.207 145.395 160.183 145.387 160.145 145.387H158.193C158.14 145.387 158.105 145.413 158.089 145.467L157.665 146.651C157.655 146.683 157.636 146.709 157.609 146.731C157.588 146.747 157.551 146.755 157.497 146.755H156.577ZM159.817 144.323C159.892 144.323 159.916 144.277 159.889 144.187L159.217 142.315C159.201 142.283 159.183 142.267 159.161 142.267C159.145 142.267 159.129 142.285 159.113 142.323L158.433 144.187C158.396 144.277 158.42 144.323 158.505 144.323H159.817Z" fill="#171F3F"/>
</g>
</svg>
