<svg width="18" height="16" viewBox="0 0 18 16" fill="none" xmlns="http://www.w3.org/2000/svg">
<g clip-path="url(#clip0_166_465)">
<path d="M17.4538 7.66439C17.258 7.75062 17.0645 7.90304 16.8657 7.91061C16.0963 7.93973 15.325 7.92233 14.4967 7.92233C14.4967 8.07362 14.4967 8.20335 14.4967 8.3327C14.4967 10.0271 14.496 11.7215 14.4967 13.4163C14.4971 14.4488 14.1136 15.2779 13.1476 15.7313C12.801 15.894 12.3862 15.9844 12.0019 15.9866C8.81148 16.0063 5.62141 15.9991 2.43095 15.9968C1.08605 15.9957 0.0699511 15.0396 0.012171 13.7056C-0.0125376 13.1304 0.00494849 12.5536 0.00608889 11.9776C0.00684915 11.672 0.164984 11.5237 0.472131 11.5248C1.11684 11.5267 1.76192 11.5256 2.43247 11.5256C2.44008 11.3879 2.45072 11.279 2.45148 11.1697C2.47315 8.14245 2.52751 5.11484 2.49976 2.08761C2.48835 0.73247 3.3619 -0.0107225 4.60265 -0.000132506C8.08809 0.0305029 11.5739 0.023695 15.0593 0.00327143C16.2309 -0.00353644 17.0877 0.383756 17.4538 1.56114V7.66439ZM3.21137 11.5248C3.38281 11.5248 3.50635 11.5248 3.62951 11.5248C5.71872 11.5248 7.80755 11.5245 9.89676 11.5252C10.3841 11.5252 10.4909 11.6341 10.4936 12.1251C10.4966 12.6561 10.4795 13.1878 10.5038 13.7177C10.5517 14.7688 11.6176 15.4787 12.62 15.1425C13.3396 14.9012 13.7216 14.3108 13.722 13.4235C13.7235 9.89888 13.7209 6.3743 13.7239 2.85009C13.7247 2.15834 13.6285 1.44956 14.0854 0.796388C13.9596 0.78542 13.895 0.77483 13.8304 0.77483C10.6855 0.774073 7.54031 0.769913 4.39548 0.777477C3.65308 0.779368 3.28207 1.17838 3.27675 1.92876C3.25432 4.97869 3.23303 8.02861 3.21137 11.0785C3.21061 11.2124 3.21137 11.3459 3.21137 11.5248ZM0.764833 12.2971C0.764833 12.7177 0.761032 13.1213 0.765594 13.5245C0.777378 14.5831 1.43425 15.2321 2.49482 15.2325C4.96986 15.2332 7.4449 15.2325 9.91994 15.2325C10.0393 15.2325 10.1583 15.2325 10.3788 15.2325C9.52803 14.335 9.77853 13.2832 9.71315 12.2968H0.764833V12.2971ZM16.6452 7.13224C16.6665 7.08988 16.6852 7.06984 16.6852 7.05017C16.6878 5.32324 16.6988 3.59631 16.6836 1.86976C16.6795 1.40342 16.421 1.05811 15.9724 0.887916C15.2346 0.608037 14.5074 1.13376 14.5013 1.97301C14.4888 3.6209 14.4971 5.26878 14.4994 6.91704C14.4994 6.99079 14.5241 7.06492 14.5363 7.13224H16.6456H16.6452Z" fill="#2C3557"/>
<path d="M3.21225 11.5249C3.21225 11.346 3.21149 11.2121 3.21225 11.0786C3.23392 8.02864 3.25521 4.97872 3.27763 1.9288C3.28296 1.1788 3.65397 0.779401 4.39636 0.77751C7.5412 0.770324 10.6864 0.774106 13.8313 0.774863C13.8959 0.774863 13.9605 0.785453 14.0863 0.796421C13.6294 1.4496 13.7252 2.15799 13.7248 2.85013C13.7218 6.37471 13.7244 9.89929 13.7229 13.4235C13.7229 14.3108 13.3401 14.9012 12.6209 15.1425C11.6189 15.4787 10.5526 14.7688 10.5047 13.7178C10.4808 13.1879 10.4975 12.6561 10.4945 12.1251C10.4918 11.6342 10.385 11.5252 9.89764 11.5252C7.80843 11.5245 5.71961 11.5249 3.6304 11.5249C3.50685 11.5249 3.38369 11.5249 3.21225 11.5249ZM8.28664 6.10088C7.59442 6.10088 6.90182 6.10088 6.2096 6.10088C5.80095 6.10088 5.39231 6.10164 4.98367 6.10088C4.73164 6.10088 4.55488 6.2083 4.54994 6.47078C4.545 6.73175 4.71111 6.85202 4.96732 6.85429C5.01256 6.85429 5.05818 6.85504 5.10341 6.85504C7.22569 6.85504 9.34835 6.85504 11.4706 6.85467C11.5611 6.85467 11.6793 6.88265 11.7367 6.83727C11.8584 6.74158 12.0268 6.60731 12.029 6.48628C12.0313 6.36412 11.8721 6.21813 11.7515 6.12282C11.6869 6.07176 11.5543 6.10164 11.4524 6.10164C10.3968 6.10051 9.34113 6.10088 8.28588 6.10088H8.28664ZM8.28892 9.57441C9.0834 9.57441 9.8775 9.57441 10.672 9.57441C11.0012 9.57441 11.33 9.57479 11.6592 9.571C11.888 9.56836 12.0313 9.44014 12.0435 9.22267C12.0568 8.98553 11.9112 8.84786 11.6725 8.82327C11.5714 8.81306 11.4684 8.81836 11.3665 8.81836C9.4259 8.81836 7.4857 8.81836 5.54512 8.81836C5.34099 8.81836 5.13572 8.80777 4.93273 8.82365C4.63319 8.8471 4.43818 9.11185 4.58681 9.33349C4.67234 9.46094 4.8932 9.56117 5.05513 9.5642C6.13281 9.58424 7.21087 9.57441 8.28892 9.57479V9.57441ZM6.71783 3.38265C6.1617 3.38265 5.60595 3.38644 5.05019 3.38114C4.78182 3.37849 4.55564 3.44241 4.55184 3.75255C4.54804 4.05928 4.76661 4.13946 5.03765 4.13908C6.16094 4.13681 7.28423 4.13568 8.40752 4.13984C8.67932 4.14097 8.90664 4.06041 8.91082 3.76465C8.91538 3.46926 8.69604 3.37774 8.41969 3.38076C7.85253 3.38719 7.28499 3.38265 6.71783 3.38265Z" fill="#E1E5FA"/>
<path d="M0.765537 12.2974H9.71348C9.77886 13.2837 9.52835 14.3356 10.3791 15.2331C10.1586 15.2331 10.0396 15.2331 9.92027 15.2331C7.44523 15.2331 4.97018 15.2338 2.49514 15.2331C1.43457 15.2331 0.777701 14.5837 0.765917 13.525C0.761355 13.1219 0.765157 12.7183 0.765157 12.2977L0.765537 12.2974Z" fill="#E1E5FA"/>
<path d="M16.6462 7.13232H14.5368C14.5247 7.065 14.5 6.99087 14.5 6.91711C14.4977 5.26923 14.4893 3.62097 14.5019 1.97309C14.5083 1.13383 15.2355 0.608112 15.973 0.887991C16.4215 1.05819 16.68 1.4035 16.6842 1.86984C16.6994 3.59639 16.6884 5.32332 16.6857 7.05025C16.6857 7.06991 16.6671 7.08958 16.6458 7.13232H16.6462Z" fill="#E1E5FA"/>
<path d="M8.28683 6.10095C9.34246 6.10095 10.3981 6.10095 11.4533 6.10171C11.5552 6.10171 11.6875 6.07183 11.7525 6.12289C11.873 6.2182 12.0323 6.36419 12.03 6.48635C12.0277 6.60738 11.8593 6.74165 11.7377 6.83733C11.6803 6.88272 11.5621 6.85473 11.4716 6.85473C9.3493 6.85549 7.22664 6.85511 5.10436 6.85511C5.05913 6.85511 5.01351 6.85473 4.96827 6.85435C4.71206 6.85246 4.54595 6.73219 4.55089 6.47084C4.55583 6.20836 4.73259 6.10057 4.98462 6.10095C5.39326 6.10133 5.8019 6.10095 6.21055 6.10095C6.90277 6.10095 7.59537 6.10095 8.28759 6.10095H8.28683Z" fill="#2C3557"/>
<path d="M8.2892 9.57447C7.21114 9.57447 6.13309 9.58392 5.05541 9.56388C4.89348 9.56085 4.67262 9.46025 4.58709 9.33317C4.43846 9.11153 4.63346 8.84678 4.93301 8.82333C5.136 8.80745 5.34127 8.81842 5.5454 8.81804C7.48598 8.81804 9.42618 8.81804 11.3668 8.81804C11.469 8.81804 11.5716 8.81274 11.6728 8.82295C11.9115 8.84716 12.0571 8.98483 12.0438 9.22235C12.0316 9.43982 11.8883 9.56804 11.6595 9.57068C11.3303 9.57485 11.0014 9.57409 10.6723 9.57409C9.87777 9.57447 9.08368 9.57409 8.2892 9.57409V9.57447Z" fill="#2C3557"/>
<path d="M6.7178 3.38282C7.28496 3.38282 7.8525 3.38736 8.41966 3.38093C8.69601 3.37791 8.91497 3.46906 8.91079 3.76482C8.90622 4.06058 8.67929 4.14114 8.40749 4.14001C7.2842 4.13585 6.16091 4.13698 5.03762 4.13925C4.7662 4.13963 4.54801 4.05983 4.55181 3.75272C4.55561 3.44258 4.78179 3.37866 5.05016 3.38131C5.60591 3.38661 6.16205 3.38282 6.7178 3.38282Z" fill="#2C3557"/>
</g>
<defs>
<clipPath id="clip0_166_465">
<rect width="17.4545" height="16" fill="white"/>
</clipPath>
</defs>
</svg>
