<svg width="47" height="47" viewBox="0 0 47 47" fill="none" xmlns="http://www.w3.org/2000/svg">
<circle cx="23.5" cy="23.5" r="23.5" fill="#FA5F80"/>
<path d="M16.5339 24.6879C17.5569 25.7546 18.7259 26.6273 20.1873 27.1121C23.8893 28.3727 27.153 27.6455 30.027 25.0273C30.4167 24.6879 30.6115 24.6879 31.0012 24.9303C33.2907 26.3849 34.5572 28.4697 34.8981 31.0879C35.093 32.6879 35.0443 34.3364 35.093 35.9849C27.3479 35.9849 19.6514 35.9849 12.0037 35.9849L11.955 35.9364C11.955 33.803 11.7602 31.6697 12.3934 29.5849C13.0267 27.4515 14.6829 25.4637 16.5339 24.6879Z" fill="white"/>
<path d="M23.5 10.9667C27.543 10.9667 30.8554 14.2636 30.8554 18.2879C30.8554 22.3121 27.543 25.6091 23.5 25.6091C19.4082 25.6091 16.1445 22.3121 16.1445 18.1909C16.1445 14.2152 19.4569 10.9667 23.5 10.9667Z" fill="white"/>
</svg>
