<svg width="47" height="47" viewBox="0 0 47 47" fill="none" xmlns="http://www.w3.org/2000/svg">
<circle cx="23.5" cy="23.5" r="23.5" fill="#FD9379"/>
<path d="M16.5338 24.6879C17.5567 25.7545 18.7258 26.6273 20.1872 27.1121C23.8892 28.3727 27.1529 27.6455 30.0269 25.0273C30.4166 24.6879 30.6114 24.6879 31.0011 24.9303C33.2905 26.3849 34.557 28.4697 34.898 31.0879C35.0929 32.6879 35.0442 34.3364 35.0929 35.9849C27.3477 35.9849 19.6513 35.9849 12.0036 35.9849L11.9549 35.9364C11.9549 33.803 11.7601 31.6697 12.3933 29.5849C13.0266 27.4515 14.6828 25.4636 16.5338 24.6879Z" fill="white"/>
<path d="M23.4998 10.9667C27.5429 10.9667 30.8553 14.2636 30.8553 18.2879C30.8553 22.3121 27.5429 25.6091 23.4998 25.6091C19.4081 25.6091 16.1444 22.3121 16.1444 18.1909C16.1444 14.2152 19.4568 10.9667 23.4998 10.9667Z" fill="white"/>
</svg>
