<svg width="25" height="26" viewBox="0 0 25 26" fill="none" xmlns="http://www.w3.org/2000/svg">
<path d="M5.53384 14.6879C6.55678 15.7546 7.72586 16.6273 9.1872 17.1121C12.8893 18.3727 16.1529 17.6455 19.0269 15.0273C19.4166 14.6879 19.6115 14.6879 20.0012 14.9303C22.2906 16.3849 23.5571 18.4697 23.8981 21.0879C24.0929 22.6879 24.0442 24.3364 24.0929 25.9849C16.3478 25.9849 8.65137 25.9849 1.00367 25.9849L0.954958 25.9364C0.954958 23.803 0.760113 21.6697 1.39336 19.5849C2.02661 17.4515 3.6828 15.4637 5.53384 14.6879Z" fill="white"/>
<path d="M12.4999 0.966675C16.5429 0.966675 19.8553 4.26364 19.8553 8.28789C19.8553 12.3121 16.5429 15.6091 12.4999 15.6091C8.40812 15.6091 5.14445 12.3121 5.14445 8.19092C5.14445 4.21516 8.45684 0.966675 12.4999 0.966675Z" fill="white"/>
</svg>
