<svg width="40" height="40" viewBox="0 0 40 40" fill="none" xmlns="http://www.w3.org/2000/svg">
<path d="M25.4126 8.05558C24.9059 8.05558 24.479 7.88072 24.1318 7.531C23.7845 7.18127 23.6109 6.75308 23.6109 6.24641C23.6109 5.73975 23.7858 5.3128 24.1355 4.96558C24.4852 4.61836 24.9134 4.44475 25.4201 4.44475C25.9268 4.44475 26.3537 4.61961 26.7009 4.96933C27.0482 5.31905 27.2218 5.74725 27.2218 6.25391C27.2218 6.76058 27.0469 7.18753 26.6972 7.53475C26.3475 7.88197 25.9193 8.05558 25.4126 8.05558ZM25.4126 35.5556C24.9059 35.5556 24.479 35.3807 24.1318 35.031C23.7845 34.6813 23.6109 34.2531 23.6109 33.7464C23.6109 33.2398 23.7858 32.8128 24.1355 32.4656C24.4852 32.1184 24.9134 31.9447 25.4201 31.9447C25.9268 31.9447 26.3537 32.1196 26.7009 32.4693C27.0482 32.8191 27.2218 33.2472 27.2218 33.7539C27.2218 34.2606 27.0469 34.6875 26.6972 35.0347C26.3475 35.382 25.9193 35.5556 25.4126 35.5556ZM32.0793 13.8889C31.5726 13.8889 31.1456 13.7141 30.7984 13.3643C30.4512 13.0146 30.2776 12.5864 30.2776 12.0797C30.2776 11.5731 30.4525 11.1461 30.8022 10.7989C31.1519 10.4517 31.5801 10.2781 32.0868 10.2781C32.5934 10.2781 33.0204 10.4529 33.3676 10.8027C33.7148 11.1524 33.8884 11.5806 33.8884 12.0872C33.8884 12.5939 33.7136 13.0209 33.3638 13.3681C33.0141 13.7153 32.5859 13.8889 32.0793 13.8889ZM32.0793 29.7222C31.5726 29.7222 31.1456 29.5474 30.7984 29.1977C30.4512 28.8479 30.2776 28.4198 30.2776 27.9131C30.2776 27.4064 30.4525 26.9795 30.8022 26.6322C31.1519 26.285 31.5801 26.1114 32.0868 26.1114C32.5934 26.1114 33.0204 26.2863 33.3676 26.636C33.7148 26.9857 33.8884 27.4139 33.8884 27.9206C33.8884 28.4272 33.7136 28.8542 33.3638 29.2014C33.0141 29.5486 32.5859 29.7222 32.0793 29.7222ZM34.5793 21.8056C34.0726 21.8056 33.6456 21.6307 33.2984 21.281C32.9512 20.9313 32.7776 20.5031 32.7776 19.9964C32.7776 19.4897 32.9525 19.0628 33.3022 18.7156C33.6519 18.3684 34.0801 18.1947 34.5868 18.1947C35.0934 18.1947 35.5204 18.3696 35.8676 18.7193C36.2148 19.0691 36.3884 19.4972 36.3884 20.0039C36.3884 20.5106 36.2136 20.9375 35.8638 21.2847C35.5141 21.632 35.0859 21.8056 34.5793 21.8056ZM19.9997 36.6668C17.6941 36.6668 15.5275 36.2293 13.4997 35.3543C11.4719 34.4793 9.70801 33.2918 8.20801 31.7918C6.70801 30.2918 5.52051 28.5279 4.64551 26.5002C3.77051 24.4724 3.33301 22.3057 3.33301 20.0002C3.33301 17.6946 3.77051 15.5279 4.64551 13.5002C5.52051 11.4724 6.70801 9.7085 8.20801 8.2085C9.70801 6.7085 11.4719 5.521 13.4997 4.646C15.5275 3.771 17.6941 3.3335 19.9997 3.3335V6.11141C16.1294 6.11141 12.847 7.45683 10.1526 10.1477C7.45815 12.8388 6.11092 16.1229 6.11092 20.0002C6.11092 23.8774 7.45634 27.1616 10.1472 29.8527C12.8383 32.5435 16.1225 33.8889 19.9997 33.8889V36.6668ZM25.4997 27.4448L18.6109 20.5556V11.9447H21.3884V19.4572L27.4443 25.5002L25.4997 27.4448Z" fill="white"/>
</svg>
