<svg width="865" height="729" viewBox="0 0 865 729" fill="none" xmlns="http://www.w3.org/2000/svg">
<g clip-path="url(#clip0_188_513)">
<path d="M865 525.549H0V525.981H865V525.549Z" fill="#2C3557"/>
<path d="M778.329 553.395H721.028V553.827H778.329V553.395Z" fill="#2C3557"/>
<path d="M573.011 558.09H557.972V558.522H573.011V558.09Z" fill="#2C3557"/>
<path d="M719.296 537.33H686.094V537.762H719.296V537.33Z" fill="#2C3557"/>
<path d="M165.478 540.236H90.7539V540.669H165.478V540.236Z" fill="#2C3557"/>
<path d="M191.838 540.236H180.882V540.669H191.838V540.236Z" fill="#2C3557"/>
<path d="M389.504 547.542H227.445V547.974H389.504V547.542Z" fill="#2C3557"/>
<path d="M410.034 448.394H75.973C70.5287 448.394 66.0981 443.964 66.0981 438.519V-31.0582C66.0981 -36.5025 70.5287 -40.933 75.973 -40.933H410.034C415.477 -40.933 419.907 -36.5025 419.907 -31.0582V438.519C419.907 443.964 415.477 448.394 410.034 448.394ZM75.973 -40.4988C70.7657 -40.4988 66.5306 -36.2638 66.5306 -31.0565V438.521C66.5306 443.728 70.7657 447.963 75.973 447.963H410.034C415.24 447.963 419.475 443.728 419.475 438.521V-31.0582C419.475 -36.2638 415.24 -40.5005 410.034 -40.5005L75.973 -40.4988Z" fill="#2C3557"/>
<path d="M784.227 448.394H450.167C444.723 448.394 440.294 443.964 440.294 438.519V-31.0582C440.294 -36.5025 444.724 -40.933 450.167 -40.933H784.227C789.673 -40.933 794.101 -36.5025 794.101 -31.0582V438.519C794.103 443.964 789.673 448.394 784.227 448.394ZM450.167 -40.4988C444.961 -40.4988 440.726 -36.2638 440.726 -31.0565V438.521C440.726 443.728 444.961 447.963 450.167 447.963H784.227C789.434 447.963 793.669 443.728 793.669 438.521V-31.0582C793.669 -36.2638 789.434 -40.5005 784.227 -40.5005L450.167 -40.4988Z" fill="#2C3557"/>
<path d="M419.248 164.807H173.614V524.94H419.248V164.807Z" fill="#2C3557"/>
<path d="M410.565 176.144H182.297V242.657H410.565V176.144Z" fill="#171F3F"/>
<path d="M195.263 186.911H182.297V242.657H195.263V186.911Z" fill="#2C3557"/>
<path d="M257.965 186.911H244.997V242.657H257.965V186.911Z" fill="#2C3557"/>
<path d="M329.141 185.545L316.361 187.747L325.827 242.684L338.607 240.482L329.141 185.545Z" fill="#2C3557"/>
<path d="M211.33 194.257H198.363V242.655H211.33V194.257Z" fill="#2C3557"/>
<path d="M241.136 194.257H228.169V242.655H241.136V194.257Z" fill="#2C3557"/>
<path d="M316.367 194.257H303.4V242.655H316.367V194.257Z" fill="#2C3557"/>
<path d="M274.996 192.603L262.336 195.416L272.834 242.663L285.493 239.85L274.996 192.603Z" fill="#2C3557"/>
<path d="M222.546 184.143H216.062V242.656H222.546V184.143Z" fill="#2C3557"/>
<path d="M299.674 184.143H293.19V242.656H299.674V184.143Z" fill="#2C3557"/>
<path d="M182.297 319.701H410.565V253.188L182.297 253.188V319.701Z" fill="#171F3F"/>
<path d="M397.599 319.702H410.565V263.957H397.599V319.702Z" fill="#2C3557"/>
<path d="M334.897 319.702H347.865V263.957H334.897V319.702Z" fill="#2C3557"/>
<path d="M254.227 317.498L267.005 319.7L276.471 264.762L263.693 262.56L254.227 317.498Z" fill="#2C3557"/>
<path d="M381.531 319.7H394.499V271.302H381.531V319.7Z" fill="#2C3557"/>
<path d="M351.725 319.7H364.693V271.302H351.725V319.7Z" fill="#2C3557"/>
<path d="M276.493 319.7H289.461V271.302H276.493V319.7Z" fill="#2C3557"/>
<path d="M307.371 316.884L320.028 319.696L330.526 272.45L317.868 269.637L307.371 316.884Z" fill="#2C3557"/>
<path d="M370.318 319.7H376.802V261.188H370.318V319.7Z" fill="#2C3557"/>
<path d="M293.189 319.7H299.673V261.188H293.189V319.7Z" fill="#2C3557"/>
<path d="M195.263 263.955H182.297V319.699H195.263V263.955Z" fill="#2C3557"/>
<path d="M211.33 271.303H198.363V319.701H211.33V271.303Z" fill="#2C3557"/>
<path d="M241.136 271.303H228.169V319.701H241.136V271.303Z" fill="#2C3557"/>
<path d="M222.546 261.189H216.062V319.701H222.546V261.189Z" fill="#2C3557"/>
<path d="M410.565 330.233H182.297V396.747H410.565V330.233Z" fill="#171F3F"/>
<path d="M326.283 341.001H313.315V396.747H326.283V341.001Z" fill="#2C3557"/>
<path d="M397.454 339.64L384.674 341.842L394.139 396.779L406.92 394.577L397.454 339.64Z" fill="#2C3557"/>
<path d="M279.649 348.346H266.681V396.745H279.649V348.346Z" fill="#2C3557"/>
<path d="M309.454 348.346H296.487V396.745H309.454V348.346Z" fill="#2C3557"/>
<path d="M384.686 348.346H371.718V396.745H384.686V348.346Z" fill="#2C3557"/>
<path d="M343.314 346.691L330.657 349.504L341.154 396.75L353.812 393.938L343.314 346.691Z" fill="#2C3557"/>
<path d="M290.863 338.233H284.379V396.745H290.863V338.233Z" fill="#2C3557"/>
<path d="M367.992 338.233H361.508V396.745H367.992V338.233Z" fill="#2C3557"/>
<path d="M248.265 339.634L235.485 341.836L244.951 396.773L257.731 394.571L248.265 339.634Z" fill="#2C3557"/>
<path d="M235.503 348.346H222.535V396.745H235.503V348.346Z" fill="#2C3557"/>
<path d="M194.128 346.691L181.471 349.503L191.968 396.75L204.626 393.937L194.128 346.691Z" fill="#2C3557"/>
<path d="M218.807 338.233H212.323V396.745H218.807V338.233Z" fill="#2C3557"/>
<path d="M131.238 525.884H173.614L173.614 164.807H131.238L131.238 525.884Z" fill="#171F3F"/>
<path d="M563.006 516.459H527.001L545.929 362.304C546.73 355.778 552.669 350.488 559.195 350.488H571.567H716.294L693.264 516.459H563.006Z" fill="#171F3F"/>
<path d="M677.196 516.459H713.201L732.129 362.304C732.93 355.778 728.29 350.488 721.764 350.488H709.391C702.866 350.488 696.927 355.778 696.126 362.304L677.196 516.459Z" fill="#2C3557"/>
<path d="M663.932 516.277L670.456 441.716C670.747 438.386 673.321 435.71 676.637 435.286L679.321 434.943C683.768 434.376 687.22 430.784 687.611 426.317L688.801 412.723C689.289 407.151 684.896 402.359 679.303 402.359H739.474C745.067 402.359 749.46 407.151 748.972 412.723L747.782 426.317C747.391 430.784 743.94 434.376 739.492 434.943L736.808 435.286C733.492 435.71 730.92 438.386 730.629 441.716L724.105 516.277C723.629 521.713 719.078 525.884 713.621 525.884H653.45C658.905 525.884 663.456 521.713 663.932 516.277Z" fill="#171F3F"/>
<path d="M498.345 423.049C497.321 411.341 487.517 402.357 475.764 402.357H504.878H528.146C539.9 402.357 549.704 411.341 550.728 423.049L555.899 482.155H503.515L498.345 423.049Z" fill="#171F3F"/>
<path d="M452.493 402.357H475.762C487.515 402.357 497.319 411.341 498.343 423.049L503.514 482.153H628.277L633.448 423.048C634.472 411.339 644.276 402.355 656.029 402.355H679.298C684.891 402.355 689.284 407.147 688.796 412.72L687.605 426.314C687.214 430.781 683.763 434.372 679.315 434.94L676.632 435.282C673.316 435.706 670.743 438.382 670.451 441.713L663.927 516.274C663.451 521.71 658.9 525.881 653.443 525.881H478.346C472.89 525.881 468.338 521.71 467.863 516.274L461.339 441.713C461.048 438.382 458.474 435.706 455.159 435.282L452.476 434.94C448.028 434.372 444.577 430.781 444.186 426.314L442.996 412.72C442.508 407.151 446.9 402.357 452.493 402.357Z" fill="#2C3557"/>
<path d="M176.735 146.815C176.735 146.815 174.818 134.181 184.034 126.079C193.248 117.978 192.438 113.16 189.805 112.532C187.172 111.904 184.741 120.004 180.691 122.232C180.691 122.232 180.563 110.688 184.677 106.435C188.791 102.183 190.95 91.2268 187.035 91.0331C183.12 90.8411 182.715 97.5413 181.906 102.292C181.096 107.042 176.733 113.726 176.733 113.726C176.733 113.726 175.882 103.396 173.223 99.1433C170.564 94.891 177.653 85.1684 174.918 80.916C172.185 76.6637 167.324 84.7636 167.728 93.8772C168.133 102.991 174.209 112.712 172.792 122.23C172.792 122.23 170.112 115.547 167.706 114.94C165.3 114.333 162.869 109.913 161.25 108.274C159.629 106.636 157.605 112.307 161.25 117.573C164.895 122.839 174.211 136.927 172.794 148.312L176.735 146.815Z" fill="#171F3F"/>
<path d="M182.243 141.068L185.26 160.005C186.193 165.852 181.674 171.148 175.752 171.148H172.533C166.611 171.148 162.092 165.852 163.025 160.005L166.042 141.068H182.243Z" fill="#171F3F"/>
<path d="M363.396 167.43H372.793V127.033H363.396V167.43Z" fill="#2C3557"/>
<path d="M317.958 167.43H327.355V127.033H317.958V167.43Z" fill="#2C3557"/>
<path d="M259.493 165.839L268.754 167.435L275.613 127.624L266.352 126.028L259.493 165.839Z" fill="#2C3557"/>
<path d="M351.753 167.431H361.15V132.357H351.753V167.431Z" fill="#2C3557"/>
<path d="M330.152 167.431H339.55V132.357H330.152V167.431Z" fill="#2C3557"/>
<path d="M275.633 167.431H285.031V132.357H275.633V167.431Z" fill="#2C3557"/>
<path d="M298.003 165.392L307.176 167.43L314.784 133.191L305.61 131.152L298.003 165.392Z" fill="#2C3557"/>
<path d="M343.627 167.43H348.326V125.026H343.627V167.43Z" fill="#2C3557"/>
<path d="M287.732 167.43H292.431V125.026H287.732V167.43Z" fill="#2C3557"/>
<path d="M254.216 135.366H208.428V166.977H254.216V135.366Z" fill="#2C3557"/>
<path d="M411.274 148.313H372.915V171.914H411.274V148.313Z" fill="#2C3557"/>
<path d="M402.306 127.569H383.125V151.168H402.306V127.569Z" fill="#2C3557"/>
<path d="M722.816 96.3442H677.196V286.445H722.816V96.3442Z" fill="#171F3F"/>
<path d="M547.312 286.945H717.92V96.3427L547.312 96.3427V286.945Z" fill="#171F3F"/>
<path d="M541.811 286.945H718.825V96.3427L541.811 96.3427V286.945Z" fill="#2C3557"/>
<path d="M549.371 278.188H711.548V102.422L549.371 102.422V278.188Z" fill="#171F3F"/>
<path d="M549.371 278.188H552.379V102.422H549.371V278.188Z" fill="#171F3F"/>
<path d="M551.874 228.817V233.557H711.97V228.817H551.874Z" fill="#171F3F"/>
<path d="M549.37 228.818L714.09 228.818V220.86L549.37 220.86V228.818Z" fill="#2C3557"/>
<path opacity="0.2" d="M432.5 603.681C617.752 603.681 767.928 594.91 767.928 584.092C767.928 573.273 617.752 564.503 432.5 564.503C247.248 564.503 97.0723 573.273 97.0723 584.092C97.0723 594.91 247.248 603.681 432.5 603.681Z" fill="#E1E5FA"/>
<path d="M556.982 518.161H247.451C240.461 518.161 234.794 512.496 234.794 505.505V141.042C234.794 134.053 240.46 128.386 247.451 128.386H556.98C563.97 128.386 569.637 134.051 569.637 141.042V505.505C569.639 512.494 563.971 518.161 556.982 518.161Z" fill="#2C3557"/>
<path opacity="0.6" d="M556.982 518.161H247.451C240.461 518.161 234.794 512.496 234.794 505.505V141.042C234.794 134.053 240.46 128.386 247.451 128.386H556.98C563.97 128.386 569.637 134.051 569.637 141.042V505.505C569.639 512.494 563.971 518.161 556.982 518.161Z" fill="#E1E5FA"/>
<path d="M515.391 307.134H289.043V345.891H515.391V307.134Z" fill="#E1E5FA"/>
<g opacity="0.4">
<path d="M309.283 330.283V331.299H301.429V320.192H309.044V321.208H302.603V325.159H308.347V326.157H302.603V330.283H309.283Z" fill="#2C3557"/>
<path d="M310.871 326.509H315.028V327.491H310.871V326.509Z" fill="#2C3557"/>
<path d="M331.322 326.46V331.299H330.195V326.571C330.195 324.81 329.306 323.907 327.799 323.907C326.087 323.907 325.007 325.017 325.007 326.92V331.299H323.881V326.571C323.881 324.81 322.992 323.907 321.469 323.907C319.772 323.907 318.677 325.017 318.677 326.92V331.299H317.551V322.953H318.63V324.478C319.217 323.478 320.296 322.891 321.692 322.891C323.073 322.891 324.151 323.478 324.659 324.652C325.263 323.575 326.453 322.891 327.96 322.891C329.99 322.891 331.322 324.066 331.322 326.46Z" fill="#2C3557"/>
<path d="M340.682 326.126V331.299H339.603V329.998C339.096 330.854 338.112 331.379 336.731 331.379C334.844 331.379 333.685 330.394 333.685 328.951C333.685 327.666 334.51 326.588 336.906 326.588H339.554V326.08C339.554 324.652 338.745 323.876 337.191 323.876C336.112 323.876 335.096 324.256 334.415 324.858L333.908 324.017C334.749 323.305 335.985 322.893 337.302 322.893C339.461 322.891 340.682 323.969 340.682 326.126ZM339.556 328.792V327.427H336.939C335.319 327.427 334.797 328.062 334.797 328.919C334.797 329.887 335.574 330.489 336.908 330.489C338.176 330.489 339.112 329.887 339.556 328.792Z" fill="#2C3557"/>
<path d="M343.492 320.32C343.492 319.893 343.857 319.528 344.317 319.528C344.778 319.528 345.143 319.878 345.143 320.305C345.143 320.765 344.793 321.13 344.317 321.13C343.857 321.128 343.492 320.763 343.492 320.32ZM343.745 322.953H344.871V331.299H343.745V322.953Z" fill="#2C3557"/>
<path d="M348.012 319.526H349.138V331.299H348.012V319.526Z" fill="#2C3557"/>
</g>
<path d="M515.391 360.077H289.043V398.835H515.391V360.077Z" fill="#E1E5FA"/>
<g opacity="0.4">
<path d="M310.125 377.002C310.125 379.367 308.412 380.794 305.587 380.794H302.605V384.299H301.43V373.194H305.587C308.412 373.196 310.125 374.623 310.125 377.002ZM308.95 377.002C308.95 375.227 307.778 374.212 305.556 374.212H302.605V379.763H305.556C307.778 379.763 308.95 378.748 308.95 377.002Z" fill="#2C3557"/>
<path d="M318.645 379.13V384.301H317.566V383C317.057 383.856 316.075 384.381 314.694 384.381C312.807 384.381 311.647 383.398 311.647 381.953C311.647 380.67 312.473 379.59 314.869 379.59H317.517V379.082C317.517 377.654 316.708 376.878 315.154 376.878C314.076 376.878 313.061 377.26 312.378 377.86L311.871 377.021C312.711 376.307 313.948 375.895 315.265 375.895C317.422 375.893 318.645 376.973 318.645 379.13ZM317.519 381.794V380.431H314.902C313.282 380.431 312.76 381.064 312.76 381.92C312.76 382.888 313.537 383.491 314.87 383.491C316.139 383.491 317.074 382.888 317.519 381.794Z" fill="#2C3557"/>
<path d="M320.55 383.349L321.057 382.46C321.723 382.984 322.851 383.396 324.024 383.396C325.611 383.396 326.261 382.855 326.261 382.031C326.261 379.858 320.851 381.571 320.851 378.272C320.851 376.907 322.026 375.891 324.152 375.891C325.23 375.891 326.405 376.192 327.104 376.668L326.612 377.573C325.882 377.066 325.01 376.86 324.154 376.86C322.645 376.86 321.981 377.447 321.981 378.241C321.981 380.493 327.391 378.794 327.391 382C327.391 383.445 326.123 384.381 323.948 384.381C322.566 384.381 321.232 383.936 320.55 383.349Z" fill="#2C3557"/>
<path d="M328.308 383.349L328.816 382.46C329.482 382.984 330.61 383.396 331.783 383.396C333.37 383.396 334.022 382.855 334.022 382.031C334.022 379.858 328.612 381.571 328.612 378.272C328.612 376.907 329.787 375.891 331.913 375.891C332.992 375.891 334.165 376.192 334.864 376.668L334.373 377.573C333.643 377.066 332.771 376.86 331.915 376.86C330.406 376.86 329.742 377.447 329.742 378.241C329.742 380.493 335.152 378.794 335.152 382C335.152 383.445 333.883 384.381 331.709 384.381C330.323 384.381 328.989 383.936 328.308 383.349Z" fill="#2C3557"/>
<path d="M349.313 375.957L346.156 384.301H345.094L342.459 377.464L339.826 384.301H338.764L335.622 375.957H336.7L339.317 383.048L341.999 375.957H342.968L345.632 383.048L348.282 375.957H349.313Z" fill="#2C3557"/>
<path d="M349.933 380.128C349.933 377.653 351.74 375.893 354.185 375.893C356.629 375.893 358.422 377.654 358.422 380.128C358.422 382.604 356.629 384.381 354.185 384.381C351.742 384.381 349.933 382.604 349.933 380.128ZM357.28 380.128C357.28 378.177 355.963 376.876 354.187 376.876C352.41 376.876 351.078 378.177 351.078 380.128C351.078 382.08 352.412 383.381 354.187 383.381C355.962 383.381 357.28 382.08 357.28 380.128Z" fill="#2C3557"/>
<path d="M364.927 375.893V376.988C364.831 376.988 364.736 376.973 364.657 376.973C362.911 376.973 361.849 378.083 361.849 380.049V384.301H360.723V375.957H361.802V377.59C362.325 376.478 363.389 375.893 364.927 375.893Z" fill="#2C3557"/>
<path d="M374.493 372.528V384.301H373.414V382.651C372.732 383.777 371.575 384.381 370.194 384.381C367.814 384.381 366.037 382.651 366.037 380.128C366.037 377.606 367.814 375.893 370.194 375.893C371.526 375.893 372.67 376.464 373.367 377.544V372.53H374.493V372.528ZM373.384 380.128C373.384 378.177 372.052 376.876 370.289 376.876C368.513 376.876 367.181 378.177 367.181 380.128C367.181 382.08 368.513 383.381 370.289 383.381C372.051 383.381 373.384 382.08 373.384 380.128Z" fill="#2C3557"/>
</g>
<path opacity="0.2" d="M515.391 438.365H289.043V477.122H515.391V438.365Z" fill="#171F3F"/>
<g opacity="0.5">
<path d="M344.09 420.553H340.395L339.599 422.325H338.869L341.902 415.69H342.594L345.627 422.325H344.888L344.09 420.553ZM343.836 419.984L342.244 416.42L340.653 419.984H343.836Z" fill="#171F3F"/>
<path d="M346.588 415.294H347.261V422.325H346.588V415.294Z" fill="#171F3F"/>
<path d="M351.65 417.302V417.956C351.593 417.956 351.536 417.946 351.489 417.946C350.446 417.946 349.811 418.61 349.811 419.787V422.326H349.138V417.341H349.782V418.316C350.097 417.654 350.73 417.302 351.65 417.302Z" fill="#171F3F"/>
<path d="M357.159 420.041H352.989C353.065 421.084 353.861 421.776 354.951 421.776C355.558 421.776 356.098 421.558 356.477 421.122L356.856 421.558C356.411 422.089 355.719 422.373 354.932 422.373C353.379 422.373 352.316 421.313 352.316 419.833C352.316 418.356 353.349 417.302 354.752 417.302C356.155 417.302 357.169 418.335 357.169 419.833C357.169 419.889 357.159 419.965 357.159 420.041ZM352.989 419.539H356.524C356.439 418.564 355.728 417.88 354.752 417.88C353.785 417.88 353.074 418.564 352.989 419.539Z" fill="#171F3F"/>
<path d="M362.167 419.235V422.325H361.523V421.548C361.221 422.06 360.632 422.373 359.807 422.373C358.679 422.373 357.987 421.785 357.987 420.923C357.987 420.155 358.48 419.512 359.911 419.512H361.494V419.209C361.494 418.356 361.011 417.891 360.082 417.891C359.437 417.891 358.832 418.117 358.423 418.479L358.121 417.975C358.622 417.55 359.363 417.302 360.148 417.302C361.437 417.302 362.167 417.946 362.167 419.235ZM361.494 420.828V420.012H359.93C358.963 420.012 358.65 420.392 358.65 420.904C358.65 421.482 359.115 421.842 359.911 421.842C360.669 421.842 361.228 421.482 361.494 420.828Z" fill="#171F3F"/>
<path d="M368.566 415.294V422.325H367.923V421.34C367.515 422.013 366.823 422.373 365.999 422.373C364.579 422.373 363.517 421.34 363.517 419.833C363.517 418.327 364.579 417.302 365.999 417.302C366.795 417.302 367.477 417.643 367.895 418.287V415.294H368.566ZM367.904 419.833C367.904 418.667 367.108 417.891 366.056 417.891C364.994 417.891 364.198 418.667 364.198 419.833C364.198 420.999 364.994 421.776 366.056 421.776C367.108 421.776 367.904 420.999 367.904 419.833Z" fill="#171F3F"/>
<path d="M374.637 417.341L372.146 422.923C371.729 423.899 371.198 424.212 370.487 424.212C370.023 424.212 369.577 424.062 369.274 423.757L369.587 423.255C369.833 423.503 370.135 423.634 370.497 423.634C370.942 423.634 371.246 423.427 371.53 422.8L371.748 422.318L369.52 417.342H370.22L372.097 421.579L373.973 417.342H374.637V417.341Z" fill="#171F3F"/>
<path d="M381.835 419.235V422.325H381.19V421.548C380.887 422.06 380.299 422.373 379.474 422.373C378.346 422.373 377.654 421.785 377.654 420.923C377.654 420.155 378.147 419.512 379.578 419.512H381.161V419.209C381.161 418.356 380.678 417.891 379.749 417.891C379.104 417.891 378.498 418.117 378.092 418.479L377.789 417.975C378.29 417.55 379.031 417.302 379.816 417.302C381.105 417.302 381.835 417.946 381.835 419.235ZM381.162 420.828V420.012H379.598C378.631 420.012 378.318 420.392 378.318 420.904C378.318 421.482 378.784 421.842 379.579 421.842C380.337 421.842 380.896 421.482 381.162 420.828Z" fill="#171F3F"/>
<path d="M394.378 419.434V422.325H393.705V419.5C393.705 418.449 393.174 417.908 392.274 417.908C391.25 417.908 390.607 418.572 390.607 419.709V422.325H389.934V419.5C389.934 418.449 389.403 417.908 388.493 417.908C387.479 417.908 386.825 418.572 386.825 419.709V422.325H386.152V417.339H386.795V418.249C387.147 417.652 387.79 417.301 388.624 417.301C389.449 417.301 390.093 417.652 390.396 418.353C390.755 417.707 391.466 417.301 392.366 417.301C393.582 417.302 394.378 418.003 394.378 419.434Z" fill="#171F3F"/>
<path d="M400.573 420.041H396.404C396.478 421.084 397.276 421.776 398.366 421.776C398.971 421.776 399.513 421.558 399.892 421.122L400.27 421.558C399.826 422.089 399.134 422.373 398.347 422.373C396.793 422.373 395.731 421.313 395.731 419.833C395.731 418.356 396.764 417.302 398.167 417.302C399.57 417.302 400.584 418.335 400.584 419.833C400.582 419.889 400.573 419.965 400.573 420.041ZM396.404 419.539H399.938C399.854 418.564 399.143 417.88 398.167 417.88C397.2 417.88 396.489 418.564 396.404 419.539Z" fill="#171F3F"/>
<path d="M410.187 419.434V422.325H409.514V419.5C409.514 418.449 408.983 417.908 408.083 417.908C407.059 417.908 406.415 418.572 406.415 419.709V422.325H405.742V419.5C405.742 418.449 405.211 417.908 404.301 417.908C403.287 417.908 402.633 418.572 402.633 419.709V422.325H401.96V417.339H402.604V418.249C402.955 417.652 403.599 417.301 404.433 417.301C405.258 417.301 405.901 417.652 406.204 418.353C406.564 417.707 407.275 417.301 408.175 417.301C409.391 417.302 410.187 418.003 410.187 419.434Z" fill="#171F3F"/>
<path d="M417.074 419.833C417.074 421.34 416.013 422.373 414.591 422.373C413.766 422.373 413.074 422.013 412.667 421.34V422.325H412.024V415.294H412.697V418.287C413.114 417.643 413.797 417.302 414.593 417.302C416.012 417.302 417.074 418.327 417.074 419.833ZM416.401 419.833C416.401 418.667 415.595 417.891 414.543 417.891C413.481 417.891 412.685 418.667 412.685 419.833C412.685 420.999 413.481 421.776 414.543 421.776C415.595 421.776 416.401 420.999 416.401 419.833Z" fill="#171F3F"/>
<path d="M422.793 420.041H418.624C418.7 421.084 419.496 421.776 420.585 421.776C421.193 421.776 421.732 421.558 422.111 421.122L422.49 421.558C422.046 422.089 421.354 422.373 420.566 422.373C419.013 422.373 417.951 421.313 417.951 419.833C417.951 418.356 418.984 417.302 420.387 417.302C421.79 417.302 422.803 418.335 422.803 419.833C422.802 419.889 422.793 419.965 422.793 420.041ZM418.624 419.539H422.158C422.073 418.564 421.362 417.88 420.387 417.88C419.419 417.88 418.708 418.564 418.624 419.539Z" fill="#171F3F"/>
<path d="M426.691 417.302V417.956C426.634 417.956 426.576 417.946 426.53 417.946C425.488 417.946 424.852 418.61 424.852 419.787V422.326H424.179V417.341H424.824V418.316C425.137 417.654 425.77 417.302 426.691 417.302Z" fill="#171F3F"/>
<path d="M431.052 417.389C431.052 416.706 430.493 416.232 429.526 416.232C428.722 416.232 428.133 416.496 427.717 417L427.215 416.619C427.727 415.995 428.514 415.635 429.575 415.635C430.901 415.635 431.754 416.27 431.754 417.283C431.754 418.903 430.021 418.979 430.021 420.335H429.319C429.319 418.771 431.052 418.629 431.052 417.389ZM429.177 421.88C429.177 421.607 429.395 421.397 429.67 421.397C429.955 421.397 430.171 421.607 430.171 421.88C430.171 422.145 429.953 422.373 429.67 422.373C429.395 422.373 429.177 422.145 429.177 421.88Z" fill="#171F3F"/>
<path d="M435.739 415.692H437.275V421.076H440.6V422.326H435.739V415.692Z" fill="#171F3F"/>
<path d="M440.946 419.776C440.946 418.24 442.131 417.15 443.752 417.15C445.373 417.15 446.548 418.24 446.548 419.776C446.548 421.313 445.373 422.402 443.752 422.402C442.13 422.401 440.946 421.313 440.946 419.776ZM445.05 419.776C445.05 418.894 444.491 418.365 443.751 418.365C443.012 418.365 442.443 418.896 442.443 419.776C442.443 420.659 443.012 421.188 443.751 421.188C444.491 421.188 445.05 420.659 445.05 419.776Z" fill="#171F3F"/>
<path d="M452.797 417.226V421.472C452.797 423.368 451.774 424.24 449.935 424.24C448.968 424.24 448.031 424.003 447.434 423.539L448.022 422.479C448.458 422.828 449.169 423.056 449.821 423.056C450.864 423.056 451.319 422.582 451.319 421.662V421.444C450.93 421.871 450.371 422.079 449.709 422.079C448.297 422.079 447.159 421.103 447.159 419.615C447.159 418.128 448.295 417.15 449.709 417.15C450.42 417.15 451.008 417.389 451.395 417.88V417.226H452.797ZM451.337 419.615C451.337 418.866 450.778 418.363 450.001 418.363C449.224 418.363 448.655 418.866 448.655 419.615C448.655 420.365 449.224 420.866 450.001 420.866C450.778 420.866 451.337 420.365 451.337 419.615Z" fill="#171F3F"/>
<path d="M456.679 415.692C456.679 415.228 457.047 414.867 457.597 414.867C458.147 414.867 458.516 415.207 458.516 415.664C458.516 416.155 458.147 416.515 457.597 416.515C457.049 416.515 456.679 416.155 456.679 415.692ZM456.859 417.226H458.336V422.325H456.859V417.226Z" fill="#171F3F"/>
<path d="M464.925 419.406V422.326H463.448V419.634C463.448 418.809 463.069 418.432 462.415 418.432C461.704 418.432 461.194 418.868 461.194 419.806V422.326H459.716V417.228H461.128V417.827C461.526 417.391 462.123 417.152 462.815 417.152C464.015 417.15 464.925 417.853 464.925 419.406Z" fill="#171F3F"/>
</g>
<path d="M515.391 435.993H289.043V474.751H515.391V435.993Z" fill="#2C3557"/>
<path d="M372.992 461.393L370.13 457.319C369.864 457.338 369.58 457.355 369.296 457.355H366.018V461.393H364.122V448.126H369.296C372.746 448.126 374.831 449.87 374.831 452.75C374.831 454.798 373.77 456.276 371.912 456.94L375.057 461.393H372.992ZM372.935 452.748C372.935 450.852 371.665 449.773 369.239 449.773H366.018V455.743H369.239C371.665 455.745 372.935 454.644 372.935 452.748Z" fill="#E1E5FA"/>
<path d="M386.686 456.977H378.536C378.765 458.739 380.185 459.914 382.176 459.914C383.351 459.914 384.337 459.514 385.076 458.701L386.081 459.876C385.171 460.938 383.787 461.506 382.119 461.506C378.877 461.506 376.716 459.366 376.716 456.369C376.716 453.394 378.858 451.252 381.759 451.252C384.659 451.252 386.724 453.337 386.724 456.426C386.723 456.577 386.704 456.805 386.686 456.977ZM378.535 455.669H384.979C384.79 453.98 383.519 452.788 381.758 452.788C380.014 452.788 378.725 453.963 378.535 455.669Z" fill="#E1E5FA"/>
<path d="M398.862 451.347V460.028C398.862 463.573 397.061 465.184 393.65 465.184C391.811 465.184 389.954 464.672 388.856 463.685L389.728 462.282C390.657 463.078 392.115 463.59 393.594 463.59C395.964 463.59 397.044 462.492 397.044 460.217V459.421C396.172 460.464 394.864 460.975 393.423 460.975C390.524 460.975 388.325 459.002 388.325 456.105C388.325 453.205 390.524 451.252 393.423 451.252C394.921 451.252 396.284 451.8 397.137 452.901V451.347H398.862ZM397.079 456.105C397.079 454.151 395.637 452.844 393.629 452.844C391.601 452.844 390.16 454.151 390.16 456.105C390.16 458.037 391.601 459.385 393.629 459.385C395.639 459.383 397.079 458.037 397.079 456.105Z" fill="#E1E5FA"/>
<path d="M402.016 448.238C402.016 447.576 402.547 447.045 403.248 447.045C403.949 447.045 404.48 447.557 404.48 448.202C404.48 448.885 403.968 449.415 403.248 449.415C402.547 449.415 402.016 448.903 402.016 448.238ZM402.338 451.347H404.158V461.393H402.338V451.347Z" fill="#E1E5FA"/>
<path d="M406.362 460.331L407.12 458.89C407.972 459.497 409.337 459.933 410.645 459.933C412.332 459.933 413.034 459.421 413.034 458.568C413.034 456.312 406.685 458.265 406.685 454.267C406.685 452.466 408.296 451.254 410.874 451.254C412.182 451.254 413.659 451.594 414.531 452.162L413.754 453.603C412.844 453.015 411.839 452.807 410.855 452.807C409.263 452.807 408.485 453.395 408.485 454.191C408.485 456.56 414.854 454.627 414.854 458.532C414.854 460.352 413.187 461.507 410.514 461.507C408.844 461.506 407.196 460.994 406.362 460.331Z" fill="#E1E5FA"/>
<path d="M422.779 460.805C422.229 461.279 421.395 461.506 420.58 461.506C418.553 461.506 417.397 460.386 417.397 458.361V452.845H415.691V451.349H417.397V449.15H419.217V451.349H422.098V452.845H419.217V458.286C419.217 459.367 419.786 459.975 420.79 459.975C421.321 459.975 421.831 459.803 422.212 459.501L422.779 460.805Z" fill="#E1E5FA"/>
<path d="M433.685 456.977H425.534C425.762 458.739 427.182 459.914 429.173 459.914C430.348 459.914 431.334 459.514 432.073 458.701L433.078 459.876C432.168 460.938 430.784 461.506 429.116 461.506C425.874 461.506 423.715 459.366 423.715 456.369C423.715 453.394 425.857 451.252 428.758 451.252C431.658 451.252 433.723 453.337 433.723 456.426C433.722 456.577 433.703 456.805 433.685 456.977ZM425.534 455.669H431.978C431.789 453.98 430.518 452.788 428.757 452.788C427.013 452.788 425.724 453.963 425.534 455.669Z" fill="#E1E5FA"/>
<path d="M441.652 451.252V453.015C441.501 452.996 441.368 452.996 441.235 452.996C439.283 452.996 438.069 454.189 438.069 456.388V461.393H436.249V451.347H437.993V453.036C438.638 451.859 439.889 451.252 441.652 451.252Z" fill="#E1E5FA"/>
<path d="M515.391 254.191H289.043V292.948H515.391V254.191Z" fill="#E1E5FA"/>
<g opacity="0.4">
<path d="M301.43 267.251H302.605V277.34H308.824V278.356H301.432V267.251H301.43Z" fill="#2C3557"/>
<path d="M316.867 273.185V278.356H315.787V277.055C315.281 277.911 314.296 278.435 312.916 278.435C311.028 278.435 309.869 277.453 309.869 276.008C309.869 274.724 310.694 273.645 313.09 273.645H315.739V273.138C315.739 271.711 314.929 270.932 313.376 270.932C312.296 270.932 311.281 271.315 310.599 271.917L310.091 271.076C310.931 270.361 312.168 269.95 313.485 269.95C315.646 269.946 316.867 271.026 316.867 273.185ZM315.741 275.851V274.486H313.123C311.504 274.486 310.982 275.121 310.982 275.977C310.982 276.944 311.758 277.546 313.092 277.546C314.36 277.546 315.296 276.942 315.741 275.851Z" fill="#2C3557"/>
<path d="M318.771 277.404L319.28 276.515C319.946 277.039 321.074 277.451 322.247 277.451C323.833 277.451 324.486 276.911 324.486 276.086C324.486 273.913 319.076 275.626 319.076 272.327C319.076 270.962 320.251 269.946 322.377 269.946C323.455 269.946 324.629 270.249 325.326 270.723L324.835 271.628C324.105 271.119 323.233 270.913 322.377 270.913C320.868 270.913 320.204 271.5 320.204 272.294C320.204 274.546 325.614 272.849 325.614 276.055C325.614 277.498 324.346 278.434 322.171 278.434C320.787 278.435 319.453 277.991 318.771 277.404Z" fill="#2C3557"/>
<path d="M332.084 277.849C331.639 278.245 330.973 278.435 330.323 278.435C328.752 278.435 327.88 277.546 327.88 276.008V270.963H326.389V270.012H327.88V268.187H329.006V270.012H331.544V270.963H329.006V275.946C329.006 276.929 329.513 277.468 330.449 277.468C330.909 277.468 331.369 277.326 331.686 277.041L332.084 277.849Z" fill="#2C3557"/>
<path d="M347.806 267.251V278.356H346.838L339.7 269.344V278.356H338.525V267.251H339.494L346.649 276.262V267.251H347.806Z" fill="#2C3557"/>
<path d="M357.484 273.185V278.356H356.406V277.055C355.898 277.911 354.915 278.435 353.534 278.435C351.647 278.435 350.488 277.453 350.488 276.008C350.488 274.724 351.313 273.645 353.709 273.645H356.358V273.138C356.358 271.711 355.548 270.932 353.995 270.932C352.915 270.932 351.901 271.315 351.218 271.917L350.711 271.076C351.552 270.361 352.789 269.95 354.105 269.95C356.263 269.946 357.484 271.026 357.484 273.185ZM356.358 275.851V274.486H353.74C352.121 274.486 351.598 275.121 351.598 275.977C351.598 276.944 352.375 277.546 353.709 277.546C354.977 277.546 355.913 276.942 356.358 275.851Z" fill="#2C3557"/>
<path d="M374.317 273.517V278.356H373.19V273.629C373.19 271.867 372.301 270.963 370.794 270.963C369.082 270.963 368.002 272.076 368.002 273.977V278.356H366.876V273.629C366.876 271.867 365.987 270.963 364.464 270.963C362.767 270.963 361.672 272.076 361.672 273.977V278.356H360.546V270.012H361.624V271.534C362.21 270.536 363.29 269.948 364.686 269.948C366.066 269.948 367.144 270.536 367.653 271.711C368.257 270.631 369.447 269.948 370.954 269.948C372.985 269.946 374.317 271.121 374.317 273.517Z" fill="#2C3557"/>
<path d="M384.678 274.532H377.697C377.825 276.278 379.157 277.437 380.981 277.437C381.996 277.437 382.901 277.072 383.536 276.342L384.171 277.072C383.425 277.96 382.266 278.435 380.951 278.435C378.349 278.435 376.573 276.659 376.573 274.185C376.573 271.709 378.301 269.948 380.65 269.948C382.998 269.948 384.695 271.678 384.695 274.185C384.695 274.278 384.678 274.406 384.678 274.532ZM377.697 273.69H383.616C383.472 272.057 382.283 270.915 380.649 270.915C379.031 270.915 377.841 272.057 377.697 273.69Z" fill="#2C3557"/>
</g>
<path d="M515.391 201.248H289.043V240.005H515.391V201.248Z" fill="#E1E5FA"/>
<g opacity="0.4">
<path d="M302.603 215.321V219.685H308.347V220.7H302.603V225.413H301.429V214.308H309.044V215.323L302.603 215.321Z" fill="#2C3557"/>
<path d="M310.824 214.434C310.824 214.005 311.189 213.642 311.649 213.642C312.11 213.642 312.475 213.991 312.475 214.42C312.475 214.88 312.125 215.245 311.649 215.245C311.188 215.242 310.824 214.877 310.824 214.434ZM311.077 217.067H312.203V225.413H311.077V217.067Z" fill="#2C3557"/>
<path d="M319.549 217.003V218.098C319.453 218.098 319.358 218.083 319.279 218.083C317.533 218.083 316.471 219.193 316.471 221.16V225.413H315.345V217.067H316.424V218.702C316.947 217.591 318.011 217.003 319.549 217.003Z" fill="#2C3557"/>
<path d="M320.485 224.459L320.992 223.57C321.658 224.094 322.786 224.506 323.959 224.506C325.545 224.506 326.196 223.968 326.196 223.143C326.196 220.97 320.786 222.683 320.786 219.384C320.786 218.02 321.961 217.003 324.087 217.003C325.166 217.003 326.339 217.304 327.038 217.78L326.547 218.685C325.817 218.178 324.945 217.97 324.088 217.97C322.58 217.97 321.916 218.557 321.916 219.351C321.916 221.603 327.325 219.906 327.325 223.11C327.325 224.554 326.057 225.49 323.883 225.49C322.502 225.492 321.168 225.048 320.485 224.459Z" fill="#2C3557"/>
<path d="M333.797 224.904C333.353 225.3 332.687 225.49 332.036 225.49C330.465 225.49 329.593 224.601 329.593 223.063V218.019H328.102V217.067H329.593V215.242H330.72V217.067H333.257V218.019H330.72V222.999C330.72 223.984 331.228 224.522 332.164 224.522C332.624 224.522 333.084 224.378 333.401 224.094L333.797 224.904Z" fill="#2C3557"/>
<path d="M349.519 214.306V225.411H348.55L341.412 216.399V225.411H340.238V214.306H341.207L348.362 223.318V214.306H349.519Z" fill="#2C3557"/>
<path d="M359.199 220.24V225.413H358.119V224.112C357.61 224.968 356.628 225.492 355.247 225.492C353.36 225.492 352.201 224.508 352.201 223.065C352.201 221.78 353.026 220.702 355.422 220.702H358.071V220.193C358.071 218.766 357.261 217.987 355.707 217.987C354.628 217.987 353.612 218.368 352.931 218.972L352.424 218.131C353.265 217.417 354.502 217.005 355.818 217.005C357.975 217.003 359.199 218.083 359.199 220.24ZM358.071 222.906V221.541H355.453C353.834 221.541 353.311 222.176 353.311 223.032C353.311 223.999 354.088 224.603 355.422 224.603C356.692 224.603 357.628 223.999 358.071 222.906Z" fill="#2C3557"/>
<path d="M376.03 220.574V225.413H374.903V220.684C374.903 218.923 374.014 218.02 372.507 218.02C370.795 218.02 369.715 219.131 369.715 221.034V225.413H368.589V220.684C368.589 218.923 367.7 218.02 366.177 218.02C364.48 218.02 363.385 219.131 363.385 221.034V225.413H362.259V217.067H363.338V218.589C363.925 217.59 365.004 217.003 366.4 217.003C367.781 217.003 368.859 217.589 369.367 218.764C369.971 217.685 371.161 217.003 372.668 217.003C374.697 217.003 376.03 218.178 376.03 220.574Z" fill="#2C3557"/>
<path d="M386.393 221.589H379.412C379.54 223.335 380.872 224.492 382.696 224.492C383.711 224.492 384.616 224.127 385.251 223.397L385.886 224.127C385.14 225.015 383.981 225.492 382.666 225.492C380.064 225.492 378.288 223.715 378.288 221.24C378.288 218.764 380.016 217.003 382.365 217.003C384.713 217.003 386.41 218.733 386.41 221.24C386.408 221.335 386.393 221.461 386.393 221.589ZM379.412 220.747H385.33C385.187 219.114 383.998 217.97 382.363 217.97C380.744 217.972 379.554 219.114 379.412 220.747Z" fill="#2C3557"/>
</g>
<path d="M236.045 461.801C236.045 461.801 224.592 452.254 214.773 461.801C204.953 471.349 203.057 530.502 203.057 530.502" stroke="#171F3F" stroke-width="0.9446" stroke-miterlimit="10"/>
<path d="M202.244 541.923C202.244 541.923 208.994 472.505 183.577 443.332" stroke="#171F3F" stroke-width="0.9446" stroke-miterlimit="10"/>
<path d="M204.663 534.607C204.663 534.607 199.464 455.58 218.527 438.047" stroke="#171F3F" stroke-width="0.9446" stroke-miterlimit="10"/>
<path d="M202.244 534.607C202.244 534.607 201.801 482.387 187.634 474.268C173.467 466.151 166.246 492.627 166.246 492.627" stroke="#171F3F" stroke-width="0.9446" stroke-miterlimit="10"/>
<path d="M207.841 534.607C207.841 534.607 205.529 494.517 216.506 480.19C227.481 465.862 239.036 486.328 239.036 486.328" stroke="#171F3F" stroke-width="0.9446" stroke-miterlimit="10"/>
<path d="M204.015 539.977C204.015 539.977 211.113 446.221 199.367 430.335" stroke="#171F3F" stroke-width="0.9446" stroke-miterlimit="10"/>
<path d="M175.503 481.876C175.503 481.876 182.567 484.48 180.466 490.629C178.366 496.777 156.03 506.894 156.03 506.894C156.03 506.894 146.676 498.32 155.267 484.375C163.858 470.431 175.313 477.477 175.503 481.876Z" fill="#2C3557"/>
<path opacity="0.2" d="M175.503 481.876C175.503 481.876 182.567 484.48 180.466 490.629C178.366 496.777 156.03 506.894 156.03 506.894C156.03 506.894 146.676 498.32 155.267 484.375C163.858 470.431 175.313 477.477 175.503 481.876Z" fill="#171F3F"/>
<path d="M206.211 470.173C206.211 470.173 198.689 469.858 198.261 476.34C197.834 482.823 214.556 500.758 214.556 500.758C214.556 500.758 226.49 496.443 223.926 480.266C221.364 464.09 208.081 466.185 206.211 470.173Z" fill="#2C3557"/>
<path opacity="0.2" d="M206.211 470.173C206.211 470.173 198.689 469.858 198.261 476.34C197.834 482.823 214.556 500.758 214.556 500.758C214.556 500.758 226.49 496.443 223.926 480.266C221.364 464.09 208.081 466.185 206.211 470.173Z" fill="#171F3F"/>
<path d="M212.579 439.142C212.579 439.142 207.563 438.604 207.968 435.549C208.371 432.494 227.463 424.632 238.726 437.344C238.726 437.344 231.513 449.733 221.088 449.896C210.663 450.058 212.579 439.142 212.579 439.142Z" fill="#2C3557"/>
<path opacity="0.2" d="M212.579 439.142C212.579 439.142 207.563 438.604 207.968 435.549C208.371 432.494 227.463 424.632 238.726 437.344C238.726 437.344 231.513 449.733 221.088 449.896C210.663 450.058 212.579 439.142 212.579 439.142Z" fill="#171F3F"/>
<path d="M203.235 431.724C203.235 431.724 207.776 433.919 209.048 431.113C210.321 428.307 198.277 411.538 181.994 416.37C181.994 416.37 181.563 430.7 190.326 436.35C199.087 442.002 203.235 431.724 203.235 431.724Z" fill="#2C3557"/>
<path opacity="0.2" d="M203.235 431.724C203.235 431.724 207.776 433.919 209.048 431.113C210.321 428.307 198.277 411.538 181.994 416.37C181.994 416.37 181.563 430.7 190.326 436.35C199.087 442.002 203.235 431.724 203.235 431.724Z" fill="#171F3F"/>
<path d="M226.978 479.404C226.978 479.404 223.516 476.61 227.251 475.245C230.986 473.882 249.314 474.27 249.504 492.424C249.504 492.424 228.159 495.971 225.516 489.056C222.876 482.141 226.978 479.404 226.978 479.404Z" fill="#2C3557"/>
<path opacity="0.2" d="M226.978 479.404C226.978 479.404 223.516 476.61 227.251 475.245C230.986 473.882 249.314 474.27 249.504 492.424C249.504 492.424 228.159 495.971 225.516 489.056C222.876 482.141 226.978 479.404 226.978 479.404Z" fill="#171F3F"/>
<path d="M183.451 438.687C183.451 438.687 186.912 435.893 183.177 434.528C179.442 433.163 161.115 433.551 160.924 451.705C160.924 451.705 182.269 455.253 184.913 448.337C187.552 441.424 183.451 438.687 183.451 438.687Z" fill="#2C3557"/>
<path opacity="0.2" d="M183.451 438.687C183.451 438.687 186.912 435.893 183.177 434.528C179.442 433.163 161.115 433.551 160.924 451.705C160.924 451.705 182.269 455.253 184.913 448.337C187.552 441.424 183.451 438.687 183.451 438.687Z" fill="#171F3F"/>
<path d="M194.735 453.311C194.735 453.311 195.04 449.913 192.298 451.245C189.556 452.577 180.001 462.884 189.905 472.666C189.905 472.666 203.237 462.793 200.834 457.651C198.429 452.508 194.735 453.311 194.735 453.311Z" fill="#2C3557"/>
<path opacity="0.2" d="M194.735 453.311C194.735 453.311 195.04 449.913 192.298 451.245C189.556 452.577 180.001 462.884 189.905 472.666C189.905 472.666 203.237 462.793 200.834 457.651C198.429 452.508 194.735 453.311 194.735 453.311Z" fill="#171F3F"/>
<path d="M230.073 458.153C230.073 458.153 228.004 455.442 231.035 455.106C234.064 454.771 247.644 458.395 244.482 471.95C244.482 471.95 227.938 470.706 227.23 465.075C226.519 459.443 230.073 458.153 230.073 458.153Z" fill="#2C3557"/>
<path opacity="0.2" d="M230.073 458.153C230.073 458.153 228.004 455.442 231.035 455.106C234.064 454.771 247.644 458.395 244.482 471.95C244.482 471.95 227.938 470.706 227.23 465.075C226.519 459.443 230.073 458.153 230.073 458.153Z" fill="#171F3F"/>
<path d="M176.737 584.931H230.219L237.328 532.924H169.628L176.737 584.931Z" fill="#2C3557"/>
<path opacity="0.2" d="M176.737 584.931H230.219L237.328 532.924H169.628L176.737 584.931Z" fill="#E1E5FA"/>
<path d="M244.032 528.708V533.648C244.032 536.954 241.352 539.636 238.044 539.636H168.242C164.936 539.636 162.255 536.956 162.255 533.648V528.708H244.032Z" fill="#2C3557"/>
<path d="M689.614 35.7994H639.915C631.462 35.7994 624.611 42.6519 624.611 51.103V94.3564C624.611 102.807 631.464 109.66 639.915 109.66H654.426L650.918 123.317L664.718 109.66H689.614C698.065 109.66 704.918 102.809 704.918 94.3564V51.103C704.918 42.6519 698.067 35.7994 689.614 35.7994Z" fill="#2C3557"/>
<path opacity="0.7" d="M689.614 35.7994H639.915C631.462 35.7994 624.611 42.6519 624.611 51.103V94.3564C624.611 102.807 631.464 109.66 639.915 109.66H654.426L650.918 123.317L664.718 109.66H689.614C698.065 109.66 704.918 102.809 704.918 94.3564V51.103C704.918 42.6519 698.067 35.7994 689.614 35.7994Z" fill="#E1E5FA"/>
<path d="M682.2 89.9874C691.832 80.3547 691.832 64.737 682.2 55.1043C672.567 45.4716 656.949 45.4716 647.317 55.1043C637.684 64.737 637.684 80.3547 647.317 89.9874C656.949 99.6202 672.567 99.6202 682.2 89.9874Z" fill="#2C3557"/>
<path d="M662.175 83.5612C661.509 83.5612 660.877 83.2689 660.446 82.762L650.769 71.3595C649.959 70.4046 650.077 68.9756 651.03 68.1642C651.983 67.3563 653.414 67.4705 654.225 68.4255L662.175 77.7917L675.302 62.3255C676.113 61.3688 677.544 61.2546 678.497 62.0643C679.452 62.8739 679.57 64.3046 678.758 65.2596L663.903 82.7637C663.472 83.2689 662.841 83.5612 662.175 83.5612Z" fill="#E1E5FA"/>
<path d="M681.004 302.654C681.004 302.654 650.876 298.861 605.246 311.371C605.246 311.371 597.9 229.822 598.776 218.621C599.651 207.419 669.226 210.699 669.226 210.699C669.226 210.699 671.022 243.337 675.499 263.03C679.977 282.721 683.298 298.867 681.004 302.654Z" fill="#2C3557"/>
<path opacity="0.2" d="M681.004 302.654C681.004 302.654 650.876 298.861 605.246 311.371C605.246 311.371 597.9 229.822 598.776 218.621C599.651 207.419 669.226 210.699 669.226 210.699C669.226 210.699 671.022 243.337 675.499 263.03C679.977 282.721 683.298 298.867 681.004 302.654Z" fill="#171F3F"/>
<path d="M583.231 572.644L595.514 576.122L598.438 557.005L600.012 546.781L587.729 543.304L585.636 557.005L583.231 572.644Z" fill="#E4897B"/>
<path d="M653.85 573.648L666.514 575.326L666.635 557.005L666.721 545.622L654.04 543.961L653.954 557.005L653.85 573.648Z" fill="#E4897B"/>
<path opacity="0.2" d="M654.04 543.961L653.954 557.005H666.635L666.721 545.622L654.04 543.961Z" fill="#171F3F"/>
<path opacity="0.2" d="M585.636 557.005H598.438L600.013 546.781L587.73 543.304L585.636 557.005Z" fill="#171F3F"/>
<path d="M528.702 225.241L516.509 221.638L518.735 235.562C518.735 235.562 529.807 238.121 530.885 232.36L528.702 225.241Z" fill="#E4897B"/>
<path d="M504.338 224.871L510.317 236.194L518.735 235.561L516.509 221.638L504.338 224.871Z" fill="#E4897B"/>
<path d="M545.539 228.8L525.514 224.317L523.694 234.044L541.874 238.478L545.539 228.8Z" fill="#E4897B"/>
<path d="M606.145 220.024C606.145 220.024 605.713 220.543 604.969 221.425C602.443 224.383 596.267 231.528 589.935 237.687C584.745 242.704 579.486 247.081 576.061 247.963C566.251 250.489 530.596 239.988 530.596 239.988L534.281 225.525C534.281 225.525 567.497 229.937 570.075 229.937C572.03 229.937 592.236 200.665 597.132 198.26L606.145 220.024Z" fill="#2C3557"/>
<path opacity="0.2" d="M604.969 221.425C602.443 224.383 596.267 231.528 589.935 237.687C591.216 227.549 594.935 218.242 599.831 212.36C600.35 211.737 600.869 211.218 601.388 210.837L604.969 221.425Z" fill="#171F3F"/>
<path d="M583.382 570.727L597.331 570.352C597.853 570.338 598.319 570.688 598.45 571.191L601.381 582.424C601.685 583.588 600.831 584.723 599.625 584.735C594.591 584.785 587.309 584.689 580.984 584.858C573.588 585.057 568.888 584.694 560.215 584.927C554.972 585.069 553.327 579.831 555.505 579.294C565.419 576.85 571.9 577.333 580.344 571.8C581.259 571.2 582.28 570.757 583.382 570.727Z" fill="#2C3557"/>
<path d="M582.188 572.518C582.176 572.523 582.162 572.527 582.148 572.53C580.107 572.994 576.464 573.594 575.017 572.397C574.581 572.035 574.374 571.549 574.398 570.947C574.413 570.589 574.576 570.307 574.868 570.132C576.394 569.215 581.617 571.684 582.207 571.966C582.323 572.022 582.392 572.144 582.378 572.271C582.368 572.383 582.292 572.478 582.188 572.518ZM575.291 570.599C575.251 570.615 575.214 570.631 575.182 570.65C575.062 570.721 575.009 570.817 575.002 570.977C574.986 571.385 575.116 571.698 575.401 571.935C576.213 572.606 578.318 572.672 581.122 572.129C579.064 571.222 576.242 570.241 575.291 570.599Z" fill="#2C3557"/>
<path d="M582.188 572.518C582.117 572.546 582.038 572.546 581.965 572.515C580.399 571.868 577.246 569.2 577.427 567.757C577.47 567.418 577.695 566.994 578.524 566.885C579.14 566.806 579.709 566.965 580.221 567.356C581.894 568.639 582.361 572.054 582.38 572.2C582.394 572.307 582.351 572.411 582.264 572.477C582.24 572.494 582.214 572.508 582.188 572.518ZM578.299 567.553C578.052 567.646 578.034 567.783 578.027 567.837C577.918 568.703 580.072 570.807 581.68 571.707C581.479 570.71 580.951 568.674 579.853 567.831C579.47 567.537 579.062 567.423 578.605 567.482C578.477 567.499 578.377 567.524 578.299 567.553Z" fill="#2C3557"/>
<path d="M654.357 570.727L668.306 570.352C668.828 570.338 669.294 570.688 669.425 571.191L672.356 582.424C672.66 583.588 671.806 584.723 670.6 584.735C665.566 584.785 658.284 584.689 651.959 584.858C644.564 585.057 639.863 584.694 631.191 584.927C625.947 585.069 624.302 579.831 626.48 579.294C636.394 576.85 642.875 577.333 651.319 571.8C652.233 571.2 653.255 570.757 654.357 570.727Z" fill="#2C3557"/>
<path d="M653.163 572.518C653.151 572.523 653.137 572.527 653.123 572.53C651.08 572.994 647.439 573.594 645.992 572.397C645.556 572.035 645.349 571.549 645.373 570.947C645.389 570.589 645.551 570.307 645.844 570.132C647.369 569.215 652.592 571.684 653.182 571.966C653.298 572.022 653.367 572.144 653.353 572.271C653.343 572.383 653.267 572.478 653.163 572.518ZM646.266 570.599C646.226 570.615 646.19 570.631 646.157 570.65C646.037 570.721 645.984 570.817 645.979 570.977C645.963 571.385 646.093 571.698 646.378 571.935C647.189 572.606 649.295 572.672 652.099 572.129C650.039 571.222 647.217 570.241 646.266 570.599Z" fill="#2C3557"/>
<path d="M653.163 572.518C653.092 572.546 653.013 572.546 652.94 572.515C651.374 571.868 648.221 569.2 648.402 567.757C648.446 567.418 648.67 566.994 649.499 566.885C650.115 566.806 650.686 566.965 651.196 567.356C652.869 568.639 653.336 572.054 653.355 572.2C653.369 572.307 653.326 572.411 653.239 572.477C653.215 572.494 653.189 572.508 653.163 572.518ZM649.274 567.553C649.027 567.646 649.01 567.783 649.003 567.837C648.894 568.703 651.047 570.807 652.655 571.707C652.454 570.71 651.926 568.674 650.828 567.831C650.445 567.537 650.037 567.423 649.582 567.482C649.451 567.499 649.352 567.524 649.274 567.553Z" fill="#2C3557"/>
<path d="M679.975 295.215C686.684 324.306 675.171 553.097 675.171 553.097H652.919L643.406 362.425L608.365 553.097L584.584 551.365C600.13 403.663 613.873 315.48 613.873 315.48L613.841 304.337L679.975 295.215Z" fill="#2C3557"/>
<path opacity="0.4" d="M584.581 551.365L608.369 553.095L635.945 403.001L643.401 362.432L652.916 553.095H675.164C675.164 553.095 686.686 324.303 679.973 295.222L613.835 304.339L613.87 315.48C613.87 315.48 600.134 403.658 584.581 551.365Z" fill="#E1E5FA"/>
<path d="M667.989 187.493C667.185 201.741 667.796 215.953 669.048 229.187C669.97 238.868 671.259 248.022 672.626 256.281C675.825 275.641 679.458 290.151 679.975 295.215C670.283 296.555 633.758 301.597 613.84 304.337C589.724 236.905 598.807 197.656 598.807 197.656C598.807 197.656 605.703 194.71 613.975 192.466C615.064 192.164 616.178 191.89 617.313 191.629C624.656 189.927 636.926 188.512 645.43 187.749C647.219 187.59 649.037 187.475 650.812 187.392C659.846 186.981 667.989 187.493 667.989 187.493Z" fill="#2C3557"/>
<path d="M632.59 157.148C633.075 166.411 634.059 183.777 641.754 188.18C641.754 188.18 636.964 197.305 626.599 198.233C618.761 198.935 619.281 191.204 619.281 191.204C623.816 187.814 622.728 182.09 619.276 175.635L632.59 157.148Z" fill="#E4897B"/>
<path opacity="0.2" d="M627.165 164.69L619.283 175.625C620.107 177.151 620.842 178.723 621.361 180.298C625.006 178.841 629.161 173.454 628.57 169.414C628.276 167.399 627.717 165.529 627.165 164.69Z" fill="#171F3F"/>
<path d="M598.859 138.525C597.346 143.326 598.175 153.19 604.884 149.983C611.593 146.775 601.457 130.273 598.859 138.525Z" fill="#2C3557"/>
<path d="M633.455 145.013C634.192 157.353 635.254 164.544 629.813 171.528C621.63 182.033 605.779 178.114 601.357 166.209C597.376 155.491 596.84 137.112 608.273 130.891C619.539 124.761 632.718 132.672 633.455 145.013Z" fill="#E4897B"/>
<path d="M624.803 138.304V124.517C624.803 124.517 639.477 123.427 638.825 130.937C646.953 134.968 643.11 147.613 632.194 153.813C626.212 149.024 626.895 137.492 626.895 137.492C626.25 137.778 625.54 138.046 624.803 138.304Z" fill="#2C3557"/>
<path d="M639.425 154.649C638.83 157.922 636.77 160.602 634.488 162.103C631.054 164.363 628.051 161.586 627.928 157.685C627.817 154.173 629.471 148.767 633.436 148.071C637.341 147.388 640.107 150.907 639.425 154.649Z" fill="#E4897B"/>
<path d="M615.233 150.521C615.354 151.519 614.923 152.388 614.269 152.46C613.615 152.533 612.987 151.784 612.865 150.786C612.744 149.787 613.174 148.919 613.828 148.846C614.482 148.774 615.112 149.523 615.233 150.521Z" fill="#2C3557"/>
<path d="M603.924 151.784C604.045 152.782 603.614 153.65 602.96 153.723C602.306 153.796 601.678 153.047 601.556 152.048C601.434 151.05 601.865 150.182 602.519 150.109C603.173 150.036 603.801 150.786 603.924 151.784Z" fill="#2C3557"/>
<path d="M607.58 151.879C607.58 151.879 605.922 157.681 603.722 160.655C605.658 162.018 608.574 160.927 608.574 160.927L607.58 151.879Z" fill="#DE5753"/>
<path d="M614.401 164.145C613.998 164.247 613.567 164.325 613.109 164.376C612.946 164.394 612.799 164.278 612.78 164.117C612.759 163.954 612.88 163.809 613.038 163.792C617.432 163.295 619.107 160.012 619.124 159.979C619.195 159.833 619.375 159.776 619.52 159.847C619.667 159.92 619.728 160.098 619.655 160.243C619.589 160.375 618.145 163.209 614.401 164.145Z" fill="#2C3557"/>
<path d="M618.276 146.488C618.077 146.538 617.856 146.483 617.702 146.322C615.866 144.416 613.721 144.782 613.698 144.786C613.377 144.845 613.067 144.632 613.005 144.314C612.942 143.994 613.155 143.686 613.474 143.627C613.586 143.606 616.276 143.144 618.553 145.511C618.779 145.748 618.774 146.12 618.539 146.345C618.463 146.417 618.371 146.464 618.276 146.488Z" fill="#2C3557"/>
<path d="M598.578 148.448C598.469 148.476 598.352 148.473 598.237 148.433C597.928 148.324 597.763 147.986 597.871 147.68C598.938 144.599 601.576 143.954 601.691 143.909C602.007 143.833 602.329 144.028 602.409 144.343C602.488 144.658 602.298 144.974 601.983 145.054C601.872 145.077 599.845 145.601 598.988 148.073C598.923 148.267 598.763 148.402 598.578 148.448Z" fill="#2C3557"/>
<path d="M631.319 143.424C631.319 143.424 622.717 140.271 618.719 135.252C618.719 135.252 610.868 137.305 609.259 140.499C609.259 140.499 606.536 138.217 608.576 135.252C608.576 135.252 602.701 136.492 601.535 140.499C601.535 140.499 598.603 139.494 598.777 135.252C598.777 135.252 596.158 136.238 595.331 140.499C595.331 140.499 588.833 126.982 610.266 123.104C610.266 123.104 608.574 122.391 605.246 122.247C605.246 122.247 620.196 116.215 632.059 121.741C643.923 127.268 641.756 137.876 631.319 143.424Z" fill="#2C3557"/>
<path d="M685.085 306.852L664.342 309.62C664.342 309.62 655.779 249.78 652.008 230.456V189.178L662.855 186.323L671.211 189.178C673.217 195.873 674.982 204.661 676.522 214.436C677.542 220.906 678.459 227.826 679.272 234.832C680.397 244.382 681.331 254.105 682.127 263.204C683.372 277.892 684.203 290.902 684.653 298.825C684.947 303.877 685.085 306.852 685.085 306.852Z" fill="#2C3557"/>
<path d="M652.009 230.45C652.009 230.45 653.732 201.338 662.858 186.318C662.858 186.318 662.63 182.021 660.805 181.336C658.98 180.651 652.009 184.758 652.009 184.758C652.009 184.758 647.664 181.792 646.707 183.161C645.75 184.529 643.441 193.788 652.009 230.45Z" fill="#2C3557"/>
<path opacity="0.7" d="M652.009 230.45C652.009 230.45 653.732 201.338 662.858 186.318C662.858 186.318 662.63 182.021 660.805 181.336C658.98 180.651 652.009 184.758 652.009 184.758C652.009 184.758 647.664 181.792 646.707 183.161C645.75 184.529 643.441 193.788 652.009 230.45Z" fill="#E1E5FA"/>
<path d="M604.805 314.864L607.175 316.577C607.175 316.577 603.749 297.28 605.133 248.494C605.202 246.141 605.289 243.875 605.375 241.713C607.14 200.435 613.541 192.927 613.956 192.477L607.97 194.518L597.123 198.255C593.923 233.478 604.805 314.864 604.805 314.864Z" fill="#2C3557"/>
<path d="M605.744 234.611C605.744 234.611 599.753 206.319 601.535 196.565C603.315 186.811 609.704 191.145 609.704 191.145C609.704 191.145 615.574 186.408 617.316 191.627C617.316 191.627 609.259 197.304 605.744 234.611Z" fill="#2C3557"/>
<path opacity="0.7" d="M605.744 234.611C605.744 234.611 599.753 206.319 601.535 196.565C603.315 186.811 609.704 191.145 609.704 191.145C609.704 191.145 615.574 186.408 617.316 191.627C617.316 191.627 609.259 197.304 605.744 234.611Z" fill="#E1E5FA"/>
<path opacity="0.2" d="M679.273 234.832C670.415 229.867 669.239 216.91 669.239 216.91C669.775 216.702 673.062 215.578 676.522 214.436C677.543 220.906 678.459 227.826 679.273 234.832Z" fill="#171F3F"/>
<path opacity="0.2" d="M635.945 403.001L643.401 362.432L641.965 340.963C641.965 340.963 631.741 378.192 635.945 403.001Z" fill="#171F3F"/>
<path opacity="0.2" d="M684.653 298.825C679.082 298.445 674.256 298.081 674.256 298.081L673.2 275.436C673.2 275.436 674.999 273.93 679.03 274.363C679.03 274.363 680.847 269.934 682.127 263.204C683.373 277.892 684.203 290.902 684.653 298.825Z" fill="#171F3F"/>
<path d="M686.554 263.182L675.707 280.6L684.286 285.532L694.478 269.837L686.554 263.182Z" fill="#E4897B"/>
<path d="M670.778 188.96C678.082 189.762 709.108 232.35 710.477 245.19C711.845 258.028 692.251 280.19 692.251 280.19L679.157 272.486C679.157 272.486 692.453 252.055 693.139 246.602C693.824 241.149 668.837 218.794 668.837 218.794C668.837 218.794 666.109 212.227 665.763 202.774C665.415 193.321 670.778 188.96 670.778 188.96Z" fill="#2C3557"/>
<path d="M673.192 275.439C673.192 275.439 684.359 277.835 688.845 284.848C688.845 284.848 684.184 299.467 680.849 301.059C677.515 302.65 669.23 302.65 669.23 302.65C669.23 302.65 668.699 286.39 673.192 275.439Z" fill="#2C3557"/>
<path d="M370.768 182C370.672 182 370.603 181.957 370.56 181.872C370.517 181.787 370.517 181.675 370.56 181.536L374.544 170.448C374.587 170.331 374.635 170.251 374.688 170.208C374.741 170.155 374.832 170.128 374.96 170.128H377.36C377.595 170.128 377.755 170.245 377.84 170.48L381.792 181.568C381.824 181.653 381.824 181.749 381.792 181.856C381.76 181.952 381.696 182 381.6 182H379.248C379.088 182 378.987 181.925 378.944 181.776L378.112 179.44C378.101 179.387 378.08 179.344 378.048 179.312C378.027 179.28 377.979 179.264 377.904 179.264H374C373.893 179.264 373.824 179.317 373.792 179.424L372.944 181.792C372.923 181.856 372.885 181.909 372.832 181.952C372.789 181.984 372.715 182 372.608 182H370.768ZM377.248 177.136C377.397 177.136 377.445 177.045 377.392 176.864L376.048 173.12C376.016 173.056 375.979 173.024 375.936 173.024C375.904 173.024 375.872 173.061 375.84 173.136L374.48 176.864C374.405 177.045 374.453 177.136 374.624 177.136H377.248ZM388.706 182C388.62 182 388.54 181.979 388.466 181.936C388.402 181.883 388.37 181.797 388.37 181.68V181.232C388.37 181.157 388.348 181.115 388.306 181.104C388.263 181.093 388.21 181.115 388.146 181.168C387.975 181.328 387.783 181.488 387.57 181.648C387.356 181.797 387.106 181.92 386.818 182.016C386.53 182.112 386.194 182.16 385.81 182.16C385.159 182.16 384.583 182 384.082 181.68C383.58 181.36 383.186 180.88 382.898 180.24C382.61 179.589 382.465 178.784 382.465 177.824C382.465 176.928 382.62 176.149 382.93 175.488C383.25 174.816 383.676 174.293 384.21 173.92C384.743 173.547 385.33 173.36 385.97 173.36C386.396 173.36 386.775 173.429 387.106 173.568C387.436 173.707 387.756 173.92 388.066 174.208C388.151 174.272 388.215 174.299 388.258 174.288C388.311 174.267 388.338 174.197 388.338 174.08V170.416C388.338 170.224 388.423 170.128 388.594 170.128H390.546C390.716 170.128 390.802 170.229 390.802 170.432V181.664C390.802 181.781 390.775 181.867 390.722 181.92C390.668 181.973 390.572 182 390.434 182H388.706ZM388.338 175.728C388.103 175.472 387.863 175.28 387.618 175.152C387.383 175.013 387.111 174.944 386.802 174.944C386.45 174.944 386.13 175.045 385.842 175.248C385.564 175.44 385.346 175.744 385.186 176.16C385.036 176.576 384.962 177.12 384.962 177.792C384.962 178.475 385.036 179.024 385.186 179.44C385.346 179.856 385.559 180.16 385.826 180.352C386.103 180.533 386.418 180.624 386.77 180.624C387.068 180.624 387.335 180.555 387.57 180.416C387.804 180.277 387.991 180.101 388.13 179.888C388.268 179.675 388.338 179.451 388.338 179.216V175.728ZM398.456 182C398.37 182 398.29 181.979 398.216 181.936C398.152 181.883 398.12 181.797 398.12 181.68V181.232C398.12 181.157 398.098 181.115 398.056 181.104C398.013 181.093 397.96 181.115 397.896 181.168C397.725 181.328 397.533 181.488 397.32 181.648C397.106 181.797 396.856 181.92 396.568 182.016C396.28 182.112 395.944 182.16 395.56 182.16C394.909 182.16 394.333 182 393.832 181.68C393.33 181.36 392.936 180.88 392.648 180.24C392.36 179.589 392.215 178.784 392.215 177.824C392.215 176.928 392.37 176.149 392.68 175.488C393 174.816 393.426 174.293 393.96 173.92C394.493 173.547 395.08 173.36 395.72 173.36C396.146 173.36 396.525 173.429 396.856 173.568C397.186 173.707 397.506 173.92 397.816 174.208C397.901 174.272 397.965 174.299 398.008 174.288C398.061 174.267 398.088 174.197 398.088 174.08V170.416C398.088 170.224 398.173 170.128 398.344 170.128H400.296C400.466 170.128 400.552 170.229 400.552 170.432V181.664C400.552 181.781 400.525 181.867 400.472 181.92C400.418 181.973 400.322 182 400.184 182H398.456ZM398.088 175.728C397.853 175.472 397.613 175.28 397.368 175.152C397.133 175.013 396.861 174.944 396.552 174.944C396.2 174.944 395.88 175.045 395.592 175.248C395.314 175.44 395.096 175.744 394.936 176.16C394.786 176.576 394.712 177.12 394.712 177.792C394.712 178.475 394.786 179.024 394.936 179.44C395.096 179.856 395.309 180.16 395.576 180.352C395.853 180.533 396.168 180.624 396.52 180.624C396.818 180.624 397.085 180.555 397.32 180.416C397.554 180.277 397.741 180.101 397.88 179.888C398.018 179.675 398.088 179.451 398.088 179.216V175.728ZM415.566 173.824C415.566 174.613 415.38 175.28 415.006 175.824C414.633 176.357 414.121 176.763 413.47 177.04C412.83 177.317 412.084 177.456 411.23 177.456H408.83C408.713 177.456 408.654 177.515 408.654 177.632V181.632C408.654 181.877 408.516 182 408.238 182H406.19C406.062 182 405.972 181.973 405.918 181.92C405.876 181.867 405.854 181.787 405.854 181.68V170.432C405.854 170.229 405.94 170.128 406.11 170.128H410.91C411.764 170.128 412.542 170.261 413.246 170.528C413.961 170.795 414.526 171.2 414.942 171.744C415.358 172.288 415.566 172.981 415.566 173.824ZM412.686 173.776C412.686 173.403 412.606 173.099 412.446 172.864C412.286 172.619 412.057 172.437 411.758 172.32C411.46 172.203 411.118 172.144 410.734 172.144H408.958C408.756 172.144 408.654 172.235 408.654 172.416V175.152C408.654 175.355 408.729 175.456 408.878 175.456H410.846C411.412 175.456 411.86 175.307 412.19 175.008C412.521 174.709 412.686 174.299 412.686 173.776ZM417.388 182C417.271 182 417.185 181.973 417.132 181.92C417.079 181.867 417.052 181.787 417.052 181.68V173.824C417.052 173.621 417.137 173.52 417.308 173.52H419.18C419.351 173.52 419.436 173.611 419.436 173.792V174.736C419.436 174.8 419.457 174.843 419.5 174.864C419.553 174.875 419.607 174.848 419.66 174.784C419.873 174.496 420.113 174.245 420.38 174.032C420.657 173.819 420.94 173.653 421.228 173.536C421.516 173.419 421.788 173.36 422.044 173.36C422.428 173.36 422.62 173.451 422.62 173.632V175.488C422.62 175.659 422.54 175.728 422.38 175.696C422.188 175.643 421.991 175.611 421.788 175.6C421.585 175.579 421.409 175.568 421.26 175.568C421.068 175.568 420.865 175.605 420.652 175.68C420.449 175.755 420.263 175.861 420.092 176C419.921 176.139 419.783 176.288 419.676 176.448C419.569 176.608 419.516 176.779 419.516 176.96V181.632C419.516 181.877 419.377 182 419.1 182H417.388ZM427.503 182.16C426.66 182.16 425.913 181.973 425.263 181.6C424.623 181.227 424.121 180.715 423.759 180.064C423.396 179.403 423.215 178.651 423.215 177.808C423.215 176.923 423.401 176.149 423.775 175.488C424.148 174.816 424.66 174.293 425.311 173.92C425.961 173.547 426.697 173.36 427.519 173.36C428.383 173.36 429.135 173.552 429.775 173.936C430.415 174.309 430.911 174.832 431.263 175.504C431.625 176.165 431.807 176.928 431.807 177.792C431.807 178.645 431.625 179.403 431.263 180.064C430.9 180.715 430.393 181.227 429.743 181.6C429.103 181.973 428.356 182.16 427.503 182.16ZM427.519 180.528C427.913 180.528 428.244 180.427 428.511 180.224C428.777 180.011 428.975 179.696 429.103 179.28C429.241 178.864 429.311 178.357 429.311 177.76C429.311 177.131 429.241 176.613 429.103 176.208C428.975 175.792 428.777 175.477 428.511 175.264C428.244 175.051 427.913 174.944 427.519 174.944C427.135 174.944 426.804 175.051 426.527 175.264C426.26 175.477 426.057 175.792 425.919 176.208C425.78 176.613 425.711 177.131 425.711 177.76C425.711 178.368 425.78 178.88 425.919 179.296C426.057 179.701 426.26 180.011 426.527 180.224C426.804 180.427 427.135 180.528 427.519 180.528ZM437.839 173.52C437.946 173.52 438.021 173.547 438.063 173.6C438.117 173.653 438.143 173.717 438.143 173.792V174.976C438.143 175.136 438.053 175.216 437.871 175.216H436.543C436.437 175.216 436.383 175.275 436.383 175.392V181.696C436.383 181.899 436.298 182 436.127 182H434.159C433.999 182 433.919 181.909 433.919 181.728V175.36C433.919 175.264 433.877 175.216 433.791 175.216H432.639C432.447 175.216 432.351 175.136 432.351 174.976V173.792C432.351 173.717 432.373 173.653 432.415 173.6C432.469 173.547 432.549 173.52 432.655 173.52H433.727C433.855 173.52 433.919 173.44 433.919 173.28V172.304C433.919 171.621 434.122 171.088 434.527 170.704C434.933 170.32 435.503 170.128 436.239 170.128H437.855C438.09 170.128 438.207 170.24 438.207 170.464L438.223 171.504C438.223 171.579 438.202 171.643 438.159 171.696C438.127 171.749 438.069 171.776 437.983 171.776H437.119C436.885 171.776 436.693 171.867 436.543 172.048C436.394 172.219 436.319 172.443 436.319 172.72V173.344C436.319 173.461 436.383 173.52 436.511 173.52H437.839ZM441.807 181.616C441.807 181.755 441.775 181.856 441.711 181.92C441.647 181.973 441.535 182 441.375 182H439.695C439.557 182 439.461 181.973 439.407 181.92C439.365 181.867 439.343 181.781 439.343 181.664V173.824C439.343 173.621 439.429 173.52 439.599 173.52H441.567C441.727 173.52 441.807 173.611 441.807 173.792V181.616ZM441.839 172.096C441.839 172.363 441.695 172.496 441.407 172.496H439.679C439.541 172.496 439.445 172.464 439.391 172.4C439.349 172.336 439.327 172.245 439.327 172.128V170.448C439.327 170.235 439.418 170.128 439.599 170.128H441.583C441.754 170.128 441.839 170.229 441.839 170.432V172.096ZM446.063 181.616C446.063 181.755 446.031 181.856 445.967 181.92C445.903 181.973 445.791 182 445.631 182H443.935C443.7 182 443.583 181.888 443.583 181.664L443.631 170.432C443.631 170.229 443.716 170.128 443.887 170.128H445.823C445.983 170.128 446.063 170.224 446.063 170.416V181.616ZM449.993 178.48C449.993 178.875 450.084 179.227 450.265 179.536C450.457 179.835 450.708 180.069 451.017 180.24C451.337 180.4 451.694 180.48 452.089 180.48C452.473 180.48 452.825 180.4 453.145 180.24C453.476 180.069 453.806 179.792 454.137 179.408C454.18 179.365 454.217 179.344 454.249 179.344C454.281 179.333 454.34 179.349 454.425 179.392L455.577 179.872C455.726 179.936 455.742 180.043 455.625 180.192C455.284 180.683 454.926 181.072 454.553 181.36C454.18 181.648 453.764 181.856 453.305 181.984C452.857 182.101 452.35 182.16 451.785 182.16C450.953 182.16 450.212 181.979 449.561 181.616C448.91 181.253 448.393 180.752 448.009 180.112C447.636 179.461 447.449 178.72 447.449 177.888C447.449 176.971 447.641 176.176 448.025 175.504C448.42 174.821 448.942 174.293 449.593 173.92C450.244 173.547 450.958 173.36 451.737 173.36C452.558 173.36 453.278 173.541 453.897 173.904C454.516 174.256 455.001 174.763 455.353 175.424C455.716 176.085 455.897 176.891 455.897 177.84C455.897 177.957 455.886 178.048 455.865 178.112C455.844 178.176 455.764 178.213 455.625 178.224H450.185C450.121 178.224 450.073 178.245 450.041 178.288C450.009 178.331 449.993 178.395 449.993 178.48ZM453.209 176.88C453.326 176.88 453.401 176.869 453.433 176.848C453.465 176.816 453.481 176.752 453.481 176.656C453.481 176.389 453.417 176.117 453.289 175.84C453.172 175.563 452.99 175.333 452.745 175.152C452.51 174.96 452.206 174.864 451.833 174.864C451.481 174.864 451.166 174.949 450.889 175.12C450.612 175.291 450.398 175.531 450.249 175.84C450.1 176.139 450.025 176.48 450.025 176.864L453.209 176.88Z" fill="#2C3557"/>
</g>
<defs>
<clipPath id="clip0_188_513">
<rect width="865" height="729" fill="white"/>
</clipPath>
</defs>
</svg>
