<svg width="22" height="16" viewBox="0 0 22 16" fill="none" xmlns="http://www.w3.org/2000/svg">
<g clip-path="url(#clip0_146_5)">
<path d="M11.0048 6.87825C14.1505 6.87825 17.2961 6.87825 20.4417 6.87825C20.6485 6.87825 20.8595 6.85818 21.0595 6.89832C21.6208 7.01014 21.9559 7.36996 21.9973 7.96919C22.0345 8.51968 21.6125 9.01569 21.0499 9.10314C20.8471 9.13468 20.6375 9.12034 20.4307 9.12034C14.1394 9.12034 7.84957 9.12034 1.55834 9.12034C1.35149 9.12034 1.14049 9.14041 0.940529 9.10027C0.379255 8.98845 0.0427667 8.62863 0.00277422 8.0294C-0.0344602 7.47748 0.387529 6.98146 0.950182 6.89545C1.1529 6.86391 1.36252 6.87825 1.56938 6.87825C4.71499 6.87825 7.86061 6.87825 11.0062 6.87825H11.0048Z" fill="#E1E5FA"/>
<path d="M10.9303 2.24352C9.20921 2.24352 7.48815 2.24639 5.76848 2.24208C4.93691 2.23922 4.43355 1.82922 4.41149 1.15688C4.38667 0.458732 4.91071 0.00429287 5.76985 0.00285931C9.25747 -0.00144138 12.7451 -0.00144138 16.2327 0.00285931C17.0629 0.00285931 17.5676 0.415726 17.5897 1.08807C17.6131 1.78765 17.0891 2.24065 16.2313 2.24352C14.4648 2.24925 12.6982 2.24495 10.9316 2.24495L10.9303 2.24352Z" fill="#E1E5FA"/>
<path d="M10.9304 16C9.20936 16 7.48831 16.0029 5.76863 15.9986C4.93706 15.9957 4.43371 15.5857 4.41164 14.9133C4.3882 14.2138 4.91224 13.7593 5.77001 13.7593C9.25763 13.755 12.7452 13.755 16.2329 13.7593C17.0631 13.7593 17.5678 14.1722 17.5899 14.8445C17.6133 15.5441 17.0893 15.9971 16.2315 16C14.4649 16.0057 12.6984 16.0014 10.9318 16.0014L10.9304 16Z" fill="#E1E5FA"/>
</g>
<defs>
<clipPath id="clip0_146_5">
<rect width="22" height="16" fill="white"/>
</clipPath>
</defs>
</svg>
