<svg width="49" height="44" viewBox="0 0 49 44" fill="none" xmlns="http://www.w3.org/2000/svg">
<path d="M11 6H47" stroke="black" stroke-width="4" stroke-linecap="round"/>
<path d="M11 22H47" stroke="black" stroke-width="4" stroke-linecap="round"/>
<path d="M11 38H47" stroke="black" stroke-width="4" stroke-linecap="round"/>
<path d="M5.175 9.075V10H1.175V9.075H2.64V4.86C2.64 4.69333 2.645 4.52167 2.655 4.345L1.615 5.215C1.555 5.26167 1.495 5.29167 1.435 5.305C1.37833 5.315 1.32333 5.315 1.27 5.305C1.22 5.295 1.175 5.27833 1.135 5.255C1.095 5.22833 1.065 5.2 1.045 5.17L0.655 4.635L2.86 2.76H3.875V9.075H5.175Z" fill="black"/>
<path d="M4.905 24.85C5.03833 24.85 5.14333 24.8883 5.22 24.965C5.3 25.0383 5.34 25.1367 5.34 25.26V26H0.38V25.59C0.38 25.5067 0.396667 25.42 0.43 25.33C0.466667 25.2367 0.523333 25.1533 0.6 25.08L2.795 22.88C2.97833 22.6933 3.14167 22.515 3.285 22.345C3.43167 22.175 3.55333 22.0067 3.65 21.84C3.74667 21.6733 3.82 21.505 3.87 21.335C3.92333 21.1617 3.95 20.98 3.95 20.79C3.95 20.6167 3.925 20.465 3.875 20.335C3.825 20.2017 3.75333 20.09 3.66 20C3.57 19.91 3.46 19.8433 3.33 19.8C3.20333 19.7533 3.06 19.73 2.9 19.73C2.75333 19.73 2.61667 19.7517 2.49 19.795C2.36667 19.835 2.25667 19.8933 2.16 19.97C2.06333 20.0433 1.98167 20.13 1.915 20.23C1.84833 20.33 1.79833 20.44 1.765 20.56C1.70833 20.7133 1.635 20.815 1.545 20.865C1.455 20.915 1.325 20.9267 1.155 20.9L0.505 20.785C0.555 20.4383 0.651667 20.135 0.795 19.875C0.938333 19.6117 1.11667 19.3933 1.33 19.22C1.54667 19.0433 1.79333 18.9117 2.07 18.825C2.35 18.735 2.65 18.69 2.97 18.69C3.30333 18.69 3.60833 18.74 3.885 18.84C4.16167 18.9367 4.39833 19.075 4.595 19.255C4.79167 19.435 4.945 19.6517 5.055 19.905C5.165 20.1583 5.22 20.44 5.22 20.75C5.22 21.0167 5.18 21.2633 5.1 21.49C5.02333 21.7167 4.91833 21.9333 4.785 22.14C4.655 22.3467 4.50167 22.5467 4.325 22.74C4.14833 22.9333 3.96333 23.13 3.77 23.33L2.14 24.995C2.29667 24.9483 2.45167 24.9133 2.605 24.89C2.76167 24.8633 2.91 24.85 3.05 24.85H4.905Z" fill="black"/>
<path d="M0.54 36.785C0.59 36.4383 0.686667 36.135 0.83 35.875C0.973333 35.6117 1.15167 35.3933 1.365 35.22C1.58167 35.0433 1.82833 34.9117 2.105 34.825C2.385 34.735 2.685 34.69 3.005 34.69C3.33833 34.69 3.63833 34.7383 3.905 34.835C4.175 34.9283 4.405 35.06 4.595 35.23C4.785 35.3967 4.93 35.5933 5.03 35.82C5.13333 36.0467 5.185 36.2917 5.185 36.555C5.185 36.785 5.15833 36.9883 5.105 37.165C5.055 37.3383 4.98167 37.49 4.885 37.62C4.78833 37.75 4.66833 37.86 4.525 37.95C4.38167 38.04 4.22 38.115 4.04 38.175C4.47333 38.3117 4.79667 38.52 5.01 38.8C5.22333 39.08 5.33 39.4317 5.33 39.855C5.33 40.215 5.26333 40.5333 5.13 40.81C4.99667 41.0867 4.81667 41.32 4.59 41.51C4.36333 41.6967 4.1 41.8383 3.8 41.935C3.50333 42.0317 3.18833 42.08 2.855 42.08C2.49167 42.08 2.175 42.0383 1.905 41.955C1.635 41.8717 1.4 41.7483 1.2 41.585C1 41.4217 0.83 41.2217 0.69 40.985C0.55 40.7483 0.43 40.475 0.33 40.165L0.875 39.94C1.01833 39.88 1.15167 39.865 1.275 39.895C1.40167 39.9217 1.49333 39.9883 1.55 40.095C1.61 40.2117 1.675 40.3267 1.745 40.44C1.81833 40.5533 1.905 40.655 2.005 40.745C2.105 40.8317 2.22167 40.9033 2.355 40.96C2.49167 41.0133 2.65333 41.04 2.84 41.04C3.05 41.04 3.23333 41.0067 3.39 40.94C3.54667 40.87 3.67667 40.78 3.78 40.67C3.88667 40.56 3.965 40.4383 4.015 40.305C4.06833 40.1683 4.095 40.0317 4.095 39.895C4.095 39.7217 4.07667 39.565 4.04 39.425C4.00333 39.2817 3.92667 39.16 3.81 39.06C3.69333 38.96 3.525 38.8817 3.305 38.825C3.08833 38.7683 2.79667 38.74 2.43 38.74V37.86C2.73333 37.8567 2.985 37.8283 3.185 37.775C3.385 37.7217 3.54333 37.6483 3.66 37.555C3.78 37.4583 3.86333 37.3433 3.91 37.21C3.95667 37.0767 3.98 36.93 3.98 36.77C3.98 36.43 3.885 36.1717 3.695 35.995C3.505 35.8183 3.25167 35.73 2.935 35.73C2.78833 35.73 2.65333 35.7517 2.53 35.795C2.40667 35.835 2.295 35.8933 2.195 35.97C2.09833 36.0433 2.01667 36.13 1.95 36.23C1.88333 36.33 1.83333 36.44 1.8 36.56C1.74333 36.7133 1.66833 36.815 1.575 36.865C1.485 36.915 1.35667 36.9267 1.19 36.9L0.54 36.785Z" fill="black"/>
</svg>
