<svg width="36" height="50" viewBox="0 0 36 50" fill="none" xmlns="http://www.w3.org/2000/svg">
<path d="M17.832 29.792C19.08 29.792 20.192 29.584 21.168 29.168C22.16 28.752 22.992 28.168 23.664 27.416C24.336 26.664 24.848 25.752 25.2 24.68C25.568 23.608 25.752 22.408 25.752 21.08V0.295998H32.208V21.08C32.208 23.144 31.872 25.056 31.2 26.816C30.544 28.56 29.592 30.072 28.344 31.352C27.112 32.616 25.608 33.608 23.832 34.328C22.056 35.032 20.056 35.384 17.832 35.384C15.592 35.384 13.584 35.032 11.808 34.328C10.032 33.608 8.52 32.616 7.272 31.352C6.04 30.072 5.088 28.56 4.416 26.816C3.76 25.056 3.432 23.144 3.432 21.08V0.295998H9.888V21.056C9.888 22.384 10.064 23.584 10.416 24.656C10.784 25.728 11.304 26.648 11.976 27.416C12.664 28.168 13.496 28.752 14.472 29.168C15.464 29.584 16.584 29.792 17.832 29.792Z" fill="#E1E5FA"/>
<path d="M0 47.24H35.64V49.616H0V47.24Z" fill="#E1E5FA"/>
</svg>
