<svg width="19" height="28" viewBox="0 0 19 28" fill="none" xmlns="http://www.w3.org/2000/svg">
<path d="M9.46182 13.4736C7.85157 12.2251 6.27215 10.9991 4.69273 9.77304C3.36685 8.74599 2.04438 7.71894 0.718497 6.69509C0.574602 6.58276 0.475246 6.49931 0.547194 6.28427C1.24611 4.24622 1.93132 2.20174 2.61996 0.157267C2.63367 0.118753 2.65422 0.0802384 2.69191 0C8.13593 4.22054 13.556 8.42183 18.9966 12.6424C14.4707 17.7584 9.9586 22.8583 5.41221 28C5.34369 27.8556 5.29229 27.7625 5.25461 27.663C4.44948 25.564 3.64093 23.4649 2.84608 21.3595C2.79812 21.2311 2.81868 21.0193 2.90433 20.9198C3.97326 19.6745 5.0559 18.442 6.14538 17.2127C7.18691 16.0316 8.23871 14.8602 9.28709 13.6823C9.33848 13.6245 9.38644 13.5635 9.46182 13.4736Z" fill="#FFC700"/>
</svg>
