<svg width="28" height="28" viewBox="0 0 28 28" fill="none" xmlns="http://www.w3.org/2000/svg">
<path d="M13.5335 0.00757741C6.3294 0.241069 0.378434 6.07602 0.0182313 13.2756C-0.112005 15.871 0.460565 18.3244 1.57402 20.454L0.0100183 27.4587C-0.0556864 27.7755 0.224732 28.056 0.541522 27.9902L7.54611 26.4262H7.5508C9.66626 27.5315 12.0938 28.1041 14.6704 27.9844C21.858 27.6512 27.7116 21.7458 27.9897 14.5557C28.3041 6.41277 21.6667 -0.256421 13.5346 0.00757741H13.5335ZM14.0004 25.1027C11.9636 25.1027 10.0558 24.5524 8.41552 23.5914C8.26065 23.5046 8.11164 23.4131 7.96615 23.3157L3.49119 24.5078L4.68326 20.0327C3.55338 18.295 2.8975 16.2241 2.8975 13.9983C2.8975 7.87708 7.87933 2.89513 14.0004 2.89513C20.1215 2.89513 25.1033 7.87708 25.1033 13.9983C25.1033 20.1196 20.1215 25.1015 14.0004 25.1015V25.1027Z" fill="white"/>
<path d="M20.5854 18.8882C20.3918 19.1791 20.1888 19.4502 19.8638 19.774C19.1528 20.4851 18.1649 20.8441 17.1629 20.742C15.3678 20.5578 12.817 19.5663 10.6241 17.3781C8.43121 15.1851 7.43978 12.6343 7.26026 10.8391C7.15819 9.83712 7.51722 8.85035 8.22823 8.13814C8.55206 7.8143 8.82309 7.61015 9.11407 7.41185C9.65144 7.0493 10.3824 7.291 10.5854 7.90113L11.321 10.1082C11.524 10.7136 11.4325 11.0961 11.1709 11.3519L10.5854 11.9432C10.2944 12.2342 10.2463 12.6836 10.4692 13.0321C10.7931 13.5401 11.4032 14.3533 12.526 15.4761C13.6489 16.599 14.462 17.2091 14.97 17.533C15.3185 17.7559 15.769 17.7078 16.0588 17.4168L16.6502 16.8313C16.9071 16.5697 17.2896 16.4781 17.8939 16.6811L20.1008 17.4168C20.7109 17.6198 20.9527 18.3508 20.5854 18.8882Z" fill="white"/>
</svg>
