<svg width="24" height="20" viewBox="0 0 24 20" fill="none" xmlns="http://www.w3.org/2000/svg">
<path d="M2.66683 19.3332C2.02516 19.3332 1.47586 19.1047 1.01891 18.6478C0.561968 18.1908 0.333496 17.6415 0.333496 16.9998V2.99984C0.333496 2.35817 0.561968 1.80886 1.01891 1.35192C1.47586 0.894976 2.02516 0.666504 2.66683 0.666504H21.3335C21.9752 0.666504 22.5245 0.894976 22.9814 1.35192C23.4384 1.80886 23.6668 2.35817 23.6668 2.99984V16.9998C23.6668 17.6415 23.4384 18.1908 22.9814 18.6478C22.5245 19.1047 21.9752 19.3332 21.3335 19.3332H2.66683ZM12.0002 11.1665L21.3335 5.33317V2.99984L12.0002 8.83317L2.66683 2.99984V5.33317L12.0002 11.1665Z" fill="white"/>
</svg>
