<svg width="22" height="22" viewBox="0 0 22 22" fill="none" xmlns="http://www.w3.org/2000/svg">
<path d="M20.275 21.5C17.8444 21.5 15.4431 20.9701 13.0708 19.9104C10.6986 18.8507 8.54028 17.3486 6.59583 15.4042C4.65139 13.4597 3.14931 11.3014 2.08958 8.92917C1.02986 6.55694 0.5 4.15556 0.5 1.725C0.5 1.375 0.616667 1.08333 0.85 0.85C1.08333 0.616667 1.375 0.5 1.725 0.5H6.45C6.72222 0.5 6.96528 0.592361 7.17917 0.777083C7.39306 0.961806 7.51944 1.18056 7.55833 1.43333L8.31667 5.51667C8.35556 5.82778 8.34583 6.09028 8.2875 6.30417C8.22917 6.51806 8.12222 6.70278 7.96667 6.85833L5.1375 9.71667C5.52639 10.4361 5.98819 11.1313 6.52292 11.8021C7.05764 12.4729 7.64583 13.1194 8.2875 13.7417C8.89028 14.3444 9.52222 14.9035 10.1833 15.4187C10.8444 15.934 11.5444 16.4056 12.2833 16.8333L15.025 14.0917C15.2 13.9167 15.4285 13.7854 15.7104 13.6979C15.9924 13.6104 16.2694 13.5861 16.5417 13.625L20.5667 14.4417C20.8389 14.5194 21.0625 14.6604 21.2375 14.8646C21.4125 15.0688 21.5 15.2972 21.5 15.55V20.275C21.5 20.625 21.3833 20.9167 21.15 21.15C20.9167 21.3833 20.625 21.5 20.275 21.5Z" fill="white"/>
</svg>
