<svg width="60" height="60" viewBox="0 0 60 60" fill="none" xmlns="http://www.w3.org/2000/svg">
<circle cx="30" cy="30" r="30" fill="#7FBB27"/>
<g clip-path="url(#clip0_2107_55)">
<path d="M21.4904 18.858C21.333 18.748 21.1284 18.7008 20.8609 18.7008H20.2472V20.1944H20.9239C21.1127 20.1944 21.2543 20.1629 21.3645 20.0843C21.4904 20.0214 21.569 19.9271 21.632 19.8013C21.6949 19.6756 21.7264 19.5498 21.7264 19.4083C21.7264 19.141 21.6477 18.9524 21.4904 18.858ZM21.6792 21.2477C21.5061 21.1062 21.2858 21.0434 20.9868 21.0434H20.2472V22.6627H21.0183C21.2386 22.6627 21.4117 22.6155 21.5533 22.5526C21.6792 22.474 21.7736 22.3797 21.8365 22.2539C21.8838 22.1282 21.9152 21.9867 21.9152 21.8294C21.9152 21.5779 21.8365 21.3892 21.6792 21.2477ZM21.6792 21.2477C21.5061 21.1062 21.2858 21.0434 20.9868 21.0434H20.2472V22.6627H21.0183C21.2386 22.6627 21.4117 22.6155 21.5533 22.5526C21.6792 22.474 21.7736 22.3797 21.8365 22.2539C21.8838 22.1282 21.9152 21.9867 21.9152 21.8294C21.9152 21.5779 21.8365 21.3892 21.6792 21.2477ZM21.4904 18.858C21.333 18.748 21.1284 18.7008 20.8609 18.7008H20.2472V20.1944H20.9239C21.1127 20.1944 21.2543 20.1629 21.3645 20.0843C21.4904 20.0214 21.569 19.9271 21.632 19.8013C21.6949 19.6756 21.7264 19.5498 21.7264 19.4083C21.7264 19.141 21.6477 18.9524 21.4904 18.858ZM21.4904 18.858C21.333 18.748 21.1284 18.7008 20.8609 18.7008H20.2472V20.1944H20.9239C21.1127 20.1944 21.2543 20.1629 21.3645 20.0843C21.4904 20.0214 21.569 19.9271 21.632 19.8013C21.6949 19.6756 21.7264 19.5498 21.7264 19.4083C21.7264 19.141 21.6477 18.9524 21.4904 18.858ZM21.6792 21.2477C21.5061 21.1062 21.2858 21.0434 20.9868 21.0434H20.2472V22.6627H21.0183C21.2386 22.6627 21.4117 22.6155 21.5533 22.5526C21.6792 22.474 21.7736 22.3797 21.8365 22.2539C21.8838 22.1282 21.9152 21.9867 21.9152 21.8294C21.9152 21.5779 21.8365 21.3892 21.6792 21.2477ZM21.6792 21.2477C21.5061 21.1062 21.2858 21.0434 20.9868 21.0434H20.2472V22.6627H21.0183C21.2386 22.6627 21.4117 22.6155 21.5533 22.5526C21.6792 22.474 21.7736 22.3797 21.8365 22.2539C21.8838 22.1282 21.9152 21.9867 21.9152 21.8294C21.9152 21.5779 21.8365 21.3892 21.6792 21.2477ZM21.4904 18.858C21.333 18.748 21.1284 18.7008 20.8609 18.7008H20.2472V20.1944H20.9239C21.1127 20.1944 21.2543 20.1629 21.3645 20.0843C21.4904 20.0214 21.569 19.9271 21.632 19.8013C21.6949 19.6756 21.7264 19.5498 21.7264 19.4083C21.7264 19.141 21.6477 18.9524 21.4904 18.858ZM21.4904 18.858C21.333 18.748 21.1284 18.7008 20.8609 18.7008H20.2472V20.1944H20.9239C21.1127 20.1944 21.2543 20.1629 21.3645 20.0843C21.4904 20.0214 21.569 19.9271 21.632 19.8013C21.6949 19.6756 21.7264 19.5498 21.7264 19.4083C21.7264 19.141 21.6477 18.9524 21.4904 18.858ZM21.6792 21.2477C21.5061 21.1062 21.2858 21.0434 20.9868 21.0434H20.2472V22.6627H21.0183C21.2386 22.6627 21.4117 22.6155 21.5533 22.5526C21.6792 22.474 21.7736 22.3797 21.8365 22.2539C21.8838 22.1282 21.9152 21.9867 21.9152 21.8294C21.9152 21.5779 21.8365 21.3892 21.6792 21.2477ZM21.6792 21.2477C21.5061 21.1062 21.2858 21.0434 20.9868 21.0434H20.2472V22.6627H21.0183C21.2386 22.6627 21.4117 22.6155 21.5533 22.5526C21.6792 22.474 21.7736 22.3797 21.8365 22.2539C21.8838 22.1282 21.9152 21.9867 21.9152 21.8294C21.9152 21.5779 21.8365 21.3892 21.6792 21.2477ZM21.4904 18.858C21.333 18.748 21.1284 18.7008 20.8609 18.7008H20.2472V20.1944H20.9239C21.1127 20.1944 21.2543 20.1629 21.3645 20.0843C21.4904 20.0214 21.569 19.9271 21.632 19.8013C21.6949 19.6756 21.7264 19.5498 21.7264 19.4083C21.7264 19.141 21.6477 18.9524 21.4904 18.858ZM21.4904 18.858C21.333 18.748 21.1284 18.7008 20.8609 18.7008H20.2472V20.1944H20.9239C21.1127 20.1944 21.2543 20.1629 21.3645 20.0843C21.4904 20.0214 21.569 19.9271 21.632 19.8013C21.6949 19.6756 21.7264 19.5498 21.7264 19.4083C21.7264 19.141 21.6477 18.9524 21.4904 18.858ZM21.6792 21.2477C21.5061 21.1062 21.2858 21.0434 20.9868 21.0434H20.2472V22.6627H21.0183C21.2386 22.6627 21.4117 22.6155 21.5533 22.5526C21.6792 22.474 21.7736 22.3797 21.8365 22.2539C21.8838 22.1282 21.9152 21.9867 21.9152 21.8294C21.9152 21.5779 21.8365 21.3892 21.6792 21.2477ZM21.6792 21.2477C21.5061 21.1062 21.2858 21.0434 20.9868 21.0434H20.2472V22.6627H21.0183C21.2386 22.6627 21.4117 22.6155 21.5533 22.5526C21.6792 22.474 21.7736 22.3797 21.8365 22.2539C21.8838 22.1282 21.9152 21.9867 21.9152 21.8294C21.9152 21.5779 21.8365 21.3892 21.6792 21.2477ZM21.3645 20.0843C21.4904 20.0214 21.569 19.9271 21.632 19.8013C21.6949 19.6756 21.7264 19.5498 21.7264 19.4083C21.7264 19.141 21.6477 18.9524 21.4904 18.858C21.333 18.748 21.1284 18.7008 20.8609 18.7008H20.2472V20.1944H20.9239C21.1127 20.1944 21.2543 20.1629 21.3645 20.0843ZM37.4782 39.9252C35.7 40.0353 33.8904 39.485 32.4741 38.3845C32.1279 38.1015 31.7817 37.787 31.3569 37.6455C31.0421 37.5355 30.6802 37.5355 30.3497 37.5355C27.0294 37.5355 23.7249 37.5198 20.4046 37.5198C20.0112 37.5198 19.5863 37.5041 19.2401 37.2997C18.6421 36.9381 18.5792 35.9633 19.1142 35.5231C19.5076 35.1929 20.0584 35.1772 20.5619 35.1772C23.6934 35.193 26.8091 35.1929 29.9406 35.1929C29.6259 34.4383 29.4685 33.6208 29.4213 32.8032H19.7279C18.469 32.6146 18.3904 30.7909 19.602 30.4607H29.6416C29.8619 29.5017 30.2711 28.6055 30.8533 27.8194C31.4513 26.9862 32.2381 26.2944 33.1193 25.7599C34.4568 24.9581 36.0305 24.5493 37.5883 24.6594V18.3078C37.5883 17.6632 37.5883 17.0029 37.3995 16.374C37.0848 15.3678 36.235 14.5345 35.2279 14.2201C34.5513 14 33.8431 14 33.135 14C28.3355 14 23.5518 14 18.7523 14.0157C17.4462 14.0157 15.9985 14.0629 15.0543 14.9747C14.0629 15.9181 14 17.4588 14 18.8266L14.0472 42.7394C14.0472 43.9657 14.2046 45.1606 15.1487 46.0253C16.1244 46.9371 17.635 46.9528 18.8939 46.9686C23.3315 46.9686 27.7848 46.9843 32.2381 47C33.6228 47 35.1492 46.9686 36.2508 46.1039C37.1162 45.4278 37.5726 44.3273 37.6827 43.2268C37.8086 42.1263 37.6513 41.0257 37.4782 39.9252ZM30.2396 17.8361H31.3254V22.5684H33.4655V23.5274H30.2396V17.8361ZM26.1167 17.8361H27.2025V22.5684H29.3426V23.5274H26.1167V17.8361ZM23.9452 17.8361H25.0152V23.5274H23.9452V17.8361ZM19.1614 17.8361H20.9711C21.3015 17.8361 21.6005 17.8676 21.868 17.9619C22.1513 18.0405 22.3716 18.1977 22.5447 18.3864C22.7178 18.5908 22.7964 18.8737 22.7964 19.2196C22.7964 19.4555 22.7492 19.6598 22.6706 19.8485C22.5761 20.0214 22.466 20.1787 22.3244 20.2887C22.1827 20.4145 22.0411 20.4774 21.8838 20.5088C22.0096 20.5245 22.1513 20.5717 22.2772 20.6346C22.4188 20.6975 22.5447 20.7761 22.6548 20.9019C22.7807 21.0119 22.8751 21.1534 22.9381 21.3106C23.0167 21.4836 23.0482 21.6879 23.0482 21.9081C23.0482 22.2225 22.9695 22.5055 22.8437 22.757C22.702 22.9929 22.4975 23.1815 22.2299 23.323C21.9624 23.4645 21.632 23.5274 21.2386 23.5274H19.1614V17.8361ZM31.7975 42.252H19.8066C18.4533 42.0634 18.3589 40.2396 19.6807 39.9095H31.7975C33.2294 40.0981 33.2294 42.0476 31.7975 42.252ZM21.8365 22.2539C21.8838 22.1282 21.9152 21.9867 21.9152 21.8294C21.9152 21.5779 21.8365 21.3892 21.6792 21.2477C21.5061 21.1062 21.2858 21.0434 20.9868 21.0434H20.2472V22.6627H21.0183C21.2386 22.6627 21.4117 22.6155 21.5533 22.5526C21.6792 22.474 21.7736 22.3797 21.8365 22.2539ZM21.3645 20.0843C21.4904 20.0214 21.569 19.9271 21.632 19.8013C21.6949 19.6756 21.7264 19.5498 21.7264 19.4083C21.7264 19.141 21.6477 18.9524 21.4904 18.858C21.333 18.748 21.1284 18.7008 20.8609 18.7008H20.2472V20.1944H20.9239C21.1127 20.1944 21.2543 20.1629 21.3645 20.0843ZM21.4904 18.858C21.333 18.748 21.1284 18.7008 20.8609 18.7008H20.2472V20.1944H20.9239C21.1127 20.1944 21.2543 20.1629 21.3645 20.0843C21.4904 20.0214 21.569 19.9271 21.632 19.8013C21.6949 19.6756 21.7264 19.5498 21.7264 19.4083C21.7264 19.141 21.6477 18.9524 21.4904 18.858ZM21.6792 21.2477C21.5061 21.1062 21.2858 21.0434 20.9868 21.0434H20.2472V22.6627H21.0183C21.2386 22.6627 21.4117 22.6155 21.5533 22.5526C21.6792 22.474 21.7736 22.3797 21.8365 22.2539C21.8838 22.1282 21.9152 21.9867 21.9152 21.8294C21.9152 21.5779 21.8365 21.3892 21.6792 21.2477ZM21.6792 21.2477C21.5061 21.1062 21.2858 21.0434 20.9868 21.0434H20.2472V22.6627H21.0183C21.2386 22.6627 21.4117 22.6155 21.5533 22.5526C21.6792 22.474 21.7736 22.3797 21.8365 22.2539C21.8838 22.1282 21.9152 21.9867 21.9152 21.8294C21.9152 21.5779 21.8365 21.3892 21.6792 21.2477ZM21.4904 18.858C21.333 18.748 21.1284 18.7008 20.8609 18.7008H20.2472V20.1944H20.9239C21.1127 20.1944 21.2543 20.1629 21.3645 20.0843C21.4904 20.0214 21.569 19.9271 21.632 19.8013C21.6949 19.6756 21.7264 19.5498 21.7264 19.4083C21.7264 19.141 21.6477 18.9524 21.4904 18.858ZM21.4904 18.858C21.333 18.748 21.1284 18.7008 20.8609 18.7008H20.2472V20.1944H20.9239C21.1127 20.1944 21.2543 20.1629 21.3645 20.0843C21.4904 20.0214 21.569 19.9271 21.632 19.8013C21.6949 19.6756 21.7264 19.5498 21.7264 19.4083C21.7264 19.141 21.6477 18.9524 21.4904 18.858ZM21.6792 21.2477C21.5061 21.1062 21.2858 21.0434 20.9868 21.0434H20.2472V22.6627H21.0183C21.2386 22.6627 21.4117 22.6155 21.5533 22.5526C21.6792 22.474 21.7736 22.3797 21.8365 22.2539C21.8838 22.1282 21.9152 21.9867 21.9152 21.8294C21.9152 21.5779 21.8365 21.3892 21.6792 21.2477ZM21.6792 21.2477C21.5061 21.1062 21.2858 21.0434 20.9868 21.0434H20.2472V22.6627H21.0183C21.2386 22.6627 21.4117 22.6155 21.5533 22.5526C21.6792 22.474 21.7736 22.3797 21.8365 22.2539C21.8838 22.1282 21.9152 21.9867 21.9152 21.8294C21.9152 21.5779 21.8365 21.3892 21.6792 21.2477ZM21.4904 18.858C21.333 18.748 21.1284 18.7008 20.8609 18.7008H20.2472V20.1944H20.9239C21.1127 20.1944 21.2543 20.1629 21.3645 20.0843C21.4904 20.0214 21.569 19.9271 21.632 19.8013C21.6949 19.6756 21.7264 19.5498 21.7264 19.4083C21.7264 19.141 21.6477 18.9524 21.4904 18.858ZM21.4904 18.858C21.333 18.748 21.1284 18.7008 20.8609 18.7008H20.2472V20.1944H20.9239C21.1127 20.1944 21.2543 20.1629 21.3645 20.0843C21.4904 20.0214 21.569 19.9271 21.632 19.8013C21.6949 19.6756 21.7264 19.5498 21.7264 19.4083C21.7264 19.141 21.6477 18.9524 21.4904 18.858ZM21.6792 21.2477C21.5061 21.1062 21.2858 21.0434 20.9868 21.0434H20.2472V22.6627H21.0183C21.2386 22.6627 21.4117 22.6155 21.5533 22.5526C21.6792 22.474 21.7736 22.3797 21.8365 22.2539C21.8838 22.1282 21.9152 21.9867 21.9152 21.8294C21.9152 21.5779 21.8365 21.3892 21.6792 21.2477ZM21.6792 21.2477C21.5061 21.1062 21.2858 21.0434 20.9868 21.0434H20.2472V22.6627H21.0183C21.2386 22.6627 21.4117 22.6155 21.5533 22.5526C21.6792 22.474 21.7736 22.3797 21.8365 22.2539C21.8838 22.1282 21.9152 21.9867 21.9152 21.8294C21.9152 21.5779 21.8365 21.3892 21.6792 21.2477ZM21.4904 18.858C21.333 18.748 21.1284 18.7008 20.8609 18.7008H20.2472V20.1944H20.9239C21.1127 20.1944 21.2543 20.1629 21.3645 20.0843C21.4904 20.0214 21.569 19.9271 21.632 19.8013C21.6949 19.6756 21.7264 19.5498 21.7264 19.4083C21.7264 19.141 21.6477 18.9524 21.4904 18.858Z" fill="white"/>
<path d="M37.053 37.5826C39.9818 37.5826 42.3561 35.2105 42.3561 32.2843C42.3561 29.3582 39.9818 26.9861 37.053 26.9861C34.1243 26.9861 31.75 29.3582 31.75 32.2843C31.75 35.2105 34.1243 37.5826 37.053 37.5826Z" fill="white"/>
<path d="M41.6322 38.4946L44.984 45.1135C45.1571 46.2926 43.851 46.9844 42.954 46.1669L39.5078 39.6266L39.5865 39.5165L41.6322 38.5104V38.4946Z" fill="white"/>
</g>
<defs>
<clipPath id="clip0_2107_55">
<rect width="31" height="33" fill="white" transform="translate(14 14)"/>
</clipPath>
</defs>
</svg>
