<svg width="61" height="60" viewBox="0 0 61 60" fill="none" xmlns="http://www.w3.org/2000/svg">
<g clip-path="url(#clip0_2027_54)">
<path d="M29.9265 0.00738488C33.2186 -0.0803449 39.3025 0.734289 42.1742 2.35281C44.2343 3.51479 43.4081 6.61039 40.9203 6.40092C40.1123 6.33288 38.7401 5.64358 37.8557 5.39471C11.1817 -2.12857 -7.3392 31.0279 12.9907 49.0215C33.4697 67.1493 64.9664 45.677 54.5403 20.0724C53.9343 18.5864 52.1726 16.2535 54.6095 15.1775C56.7988 14.2107 57.7469 16.5668 58.4476 18.103C66.7335 36.2595 53.5903 58.072 33.5607 59.8713C12.6412 61.7512 -4.17807 42.6924 0.919409 22.5325C4.13695 9.80805 16.6614 0.360094 29.9265 0.00738488Z" fill="#7FBB27"/>
<path d="M41.9408 45.3992H13.265C12.9356 44.8406 13.0211 43.7413 13.0557 43.0484C13.3723 36.7462 17.6873 31.4645 24.0259 30.2542L27.5692 33.6022L31.1125 30.2542C38.0699 31.6274 43.08 38.447 41.9408 45.3992Z" fill="#7FBB27"/>
<path d="M25.8328 12.5991C33.2561 11.6734 35.7129 16.6919 34.8394 23.2036C33.7766 31.1333 20.8645 30.5998 20.2749 23.2251C19.9291 18.9049 20.3222 13.2866 25.831 12.6009L25.8328 12.5991Z" fill="#7FBB27"/>
<path d="M52.1573 7.47132H55.495C55.6861 7.47132 56.5342 7.97801 56.707 8.15526C57.435 8.90185 57.4532 10.2268 56.7671 11.002C56.6251 11.1631 55.7552 11.7593 55.6297 11.7593H52.1555V14.9087C52.1555 14.948 51.9535 15.5013 51.908 15.6033C51.3839 16.751 49.8461 17.2075 48.756 16.5111C48.5249 16.3625 47.7951 15.5263 47.7951 15.3115V11.7593H44.3209C44.2645 11.7593 43.684 11.4872 43.5784 11.4192C42.2681 10.5795 42.2681 8.65299 43.5784 7.8115C43.6858 7.74346 44.2645 7.47132 44.3209 7.47132H47.7951V3.91916C47.7951 3.70431 48.523 2.86819 48.756 2.71959C49.8461 2.02312 51.3821 2.47789 51.908 3.62732C51.9535 3.72938 52.1555 4.28261 52.1555 4.322V7.47132H52.1573Z" fill="#7FBB27"/>
<path d="M34.1777 29.0475L36.2033 26.1506C37.3516 23.73 37.3534 18.6113 36.5308 16.0778C36.3925 15.6517 36.0449 15.222 35.9503 14.9069C35.8884 14.701 35.9594 14.6903 36.145 14.7135C45.2735 15.8684 43.2789 30.6052 34.1796 29.0475H34.1777Z" fill="#7FBB27"/>
<path d="M44.1215 43.1219C44.2125 38.2197 41.5355 33.2478 37.3115 30.6553C37.7829 29.1102 39.5445 29.9588 40.6292 30.4082C43.8867 31.76 47.936 36.0659 47.936 39.704V42.9195L47.7321 43.1201H44.1215V43.1219Z" fill="#7FBB27"/>
</g>
<defs>
<clipPath id="clip0_2027_54">
<rect width="60.9677" height="60" fill="white"/>
</clipPath>
</defs>
</svg>
