<svg width="60" height="60" viewBox="0 0 60 60" fill="none" xmlns="http://www.w3.org/2000/svg">
<circle cx="30" cy="30" r="30" fill="#7FBB27"/>
<g clip-path="url(#clip0_2028_76)">
<path d="M46.0003 37.3235V38.8054L45.6456 40.5448C44.8 43.4629 42.4347 45.8265 39.5045 46.6479L37.8151 46.988C37.3312 46.9613 36.812 47.0242 36.3324 46.988C28.7103 46.412 25.2971 36.7604 30.949 31.5226C36.4047 26.4665 45.2374 29.8539 45.9409 37.2202L46.0003 37.3227V37.3235ZM38.0726 37.0015V34.0059C38.0726 33.9577 37.8935 33.6494 37.8435 33.5909C37.4612 33.144 36.6863 33.1345 36.2988 33.5848C36.2049 33.6942 36.0103 34.0791 36.0103 34.1988V37.0015H33.2067C33.087 37.0015 32.7022 37.1961 32.5928 37.29C32.145 37.674 32.1502 38.3973 32.5739 38.7951C32.6427 38.8597 32.9424 39.0637 33.0139 39.0637H36.0112V41.9311C36.0112 41.95 36.1068 42.2161 36.1283 42.2651C36.3763 42.8171 37.1039 43.0366 37.6196 42.7017C37.729 42.6302 38.0743 42.2281 38.0743 42.1248V39.161L38.1707 39.0646H41.1353C41.2387 39.0646 41.6408 38.7202 41.7123 38.6108C42.0472 38.095 41.8285 37.3683 41.2757 37.1203C41.2266 37.0988 40.9605 37.0032 40.9416 37.0032H38.0734L38.0726 37.0015Z" fill="white"/>
<path d="M20.2191 25.4037L25.7643 28.0885V34.9744C25.2658 36.9832 25.2279 39.0541 25.7617 41.0603C25.6954 41.1223 25.2709 40.8829 25.1805 40.8365C21.3548 38.8939 17.5739 36.8609 13.7302 34.9503C13.4856 34.8383 13 34.4026 13 34.134V21.8596L18.0923 24.3395C18.1586 24.3885 18.1508 24.4591 18.1595 24.5298C18.3162 25.8317 18.0355 27.4513 18.1534 28.7885C18.2275 29.6272 19.0971 30.0887 19.7998 29.5919C19.9332 29.4981 20.2182 29.1295 20.2182 28.9797V25.4037H20.2191Z" fill="white"/>
<path d="M39.4259 20.1194L26.8192 26.2407L26.5531 26.1907L21.3799 23.6317L33.7386 17.3606L33.9935 17.3993L39.4259 20.1194Z" fill="white"/>
<path d="M31.4338 16.1269L31.3512 16.2698L19.0751 22.4298C18.9046 22.4583 18.4388 22.2163 18.2424 22.1293C16.8535 21.518 15.5008 20.7103 14.0964 20.1196C14.031 20.0327 15.8582 19.1716 16.0071 19.0984C19.1414 17.5563 22.3738 15.8953 25.5459 14.4599C25.9144 14.2929 26.4991 13.9622 26.8831 14.0035L31.4338 16.1269Z" fill="white"/>
<path d="M40.5223 21.9243V26.8857C35.8959 25.4245 30.7881 27.1053 27.8252 30.8802V28.0774L40.5223 21.9243Z" fill="white"/>
</g>
<defs>
<clipPath id="clip0_2028_76">
<rect width="33" height="33" fill="white" transform="translate(13 14)"/>
</clipPath>
</defs>
</svg>
