<svg width="60" height="60" viewBox="0 0 60 60" fill="none" xmlns="http://www.w3.org/2000/svg">
<circle cx="30" cy="30" r="30" fill="#7FBB27"/>
<path d="M20.8027 35.1062C20.4361 34.4187 20.1439 33.6911 19.9262 32.9234C19.7085 32.1557 19.5996 31.3479 19.5996 30.5C19.5996 27.727 20.5736 25.3666 22.5215 23.4187C24.4694 21.4708 26.8642 20.5312 29.7059 20.6L27.7465 18.6406L29.4996 16.8875L34.4496 21.8375L29.4996 26.7875L27.7465 25.0343L29.7059 23.075C27.5517 23.0291 25.7413 23.7395 24.2746 25.2062C22.8079 26.6729 22.0746 28.4375 22.0746 30.5C22.0746 31.0041 22.1204 31.4854 22.2121 31.9437C22.3038 32.402 22.4413 32.8489 22.6246 33.2843L20.8027 35.1062ZM29.4996 44.1125L24.5496 39.1625L29.4996 34.2125L31.2527 35.9656L29.2934 37.925C31.4475 37.9708 33.2579 37.2604 34.7246 35.7937C36.1913 34.327 36.9246 32.5625 36.9246 30.5C36.9246 29.9958 36.8788 29.5145 36.7871 29.0562C36.6954 28.5979 36.5579 28.151 36.3746 27.7156L38.1965 25.8937C38.5631 26.5812 38.8553 27.3088 39.073 28.0765C39.2908 28.8442 39.3996 29.652 39.3996 30.5C39.3996 33.25 38.4256 35.6046 36.4777 37.564C34.5298 39.5234 32.135 40.4687 29.2934 40.4L31.2527 42.3593L29.4996 44.1125Z" fill="white"/>
</svg>
