<svg width="124" height="124" viewBox="0 0 124 124" fill="none" xmlns="http://www.w3.org/2000/svg">
<circle cx="62" cy="62" r="62" fill="#80BA29"/>
<path d="M47 87C44.9167 87 43.1458 86.2708 41.6875 84.8125C40.2292 83.3542 39.5 81.5833 39.5 79.5V72H47V37L50.75 40.75L54.5 37L58.25 40.75L62 37L65.75 40.75L69.5 37L73.25 40.75L77 37L80.75 40.75L84.5 37V79.5C84.5 81.5833 83.7708 83.3542 82.3125 84.8125C80.8542 86.2708 79.0833 87 77 87H47ZM77 82C77.7083 82 78.3021 81.7604 78.7812 81.2812C79.2604 80.8021 79.5 80.2083 79.5 79.5V44.5H52V72H74.5V79.5C74.5 80.2083 74.7396 80.8021 75.2188 81.2812C75.6979 81.7604 76.2917 82 77 82ZM54.5 54.5V49.5H69.5V54.5H54.5ZM54.5 62V57H69.5V62H54.5ZM74.5 54.5C73.7917 54.5 73.1979 54.2604 72.7188 53.7812C72.2396 53.3021 72 52.7083 72 52C72 51.2917 72.2396 50.6979 72.7188 50.2188C73.1979 49.7396 73.7917 49.5 74.5 49.5C75.2083 49.5 75.8021 49.7396 76.2812 50.2188C76.7604 50.6979 77 51.2917 77 52C77 52.7083 76.7604 53.3021 76.2812 53.7812C75.8021 54.2604 75.2083 54.5 74.5 54.5ZM74.5 62C73.7917 62 73.1979 61.7604 72.7188 61.2812C72.2396 60.8021 72 60.2083 72 59.5C72 58.7917 72.2396 58.1979 72.7188 57.7188C73.1979 57.2396 73.7917 57 74.5 57C75.2083 57 75.8021 57.2396 76.2812 57.7188C76.7604 58.1979 77 58.7917 77 59.5C77 60.2083 76.7604 60.8021 76.2812 61.2812C75.8021 61.7604 75.2083 62 74.5 62Z" fill="#E3E3E3"/>
</svg>
