<svg width="50" height="50" viewBox="0 0 50 50" fill="none" xmlns="http://www.w3.org/2000/svg">
<circle cx="25" cy="25" r="25" fill="#80BA29"/>
<path d="M25.0011 30.8556C27.4472 30.8556 29.3928 28.9071 29.3928 26.4639C29.3928 24.0206 27.4472 22.0722 25.0011 22.0722C22.5549 22.0722 20.6094 24.0206 20.6094 26.4639C20.6094 28.9071 22.5549 30.8556 25.0011 30.8556Z" fill="white"/>
<path d="M37.9085 23.8084C37.565 22.122 36.8908 20.5204 35.9249 19.0961C34.9786 17.6928 33.7708 16.4851 32.3676 15.5388C30.9414 14.5763 29.3405 13.9024 27.6553 13.5552C26.7698 13.3754 25.8682 13.2871 24.9647 13.2917V10.361L19.1457 14.7527L24.9647 19.1444V16.2195C25.6732 16.2166 26.3817 16.2839 27.0654 16.4245C28.3751 16.6944 29.6194 17.218 30.728 17.9659C31.8208 18.7025 32.7612 19.6429 33.4977 20.7356C34.6413 22.4269 35.2512 24.4223 35.2486 26.4639C35.2496 27.834 34.9758 29.1905 34.4434 30.453C34.186 31.0618 33.8703 31.6442 33.5007 32.1921C33.1319 32.7383 32.7113 33.2477 32.2446 33.7131C30.8275 35.1274 29.0286 36.0975 27.0683 36.5048C25.7051 36.7812 24.3003 36.7812 22.9372 36.5048C21.6268 36.2346 20.382 35.7104 19.273 34.9618C18.1816 34.2258 17.2422 33.2865 16.5063 32.1951C15.3641 30.502 14.7539 28.5062 14.754 26.4639H11.8262C11.8259 29.0899 12.6105 31.6562 14.0791 33.8332C15.0276 35.2328 16.2339 36.439 17.6335 37.3875C19.8083 38.8594 22.3752 39.6438 25.0013 39.639C25.8932 39.6398 26.783 39.55 27.6568 39.3711C29.3415 39.0238 30.9419 38.3499 32.3676 37.3875C33.0671 36.9149 33.7196 36.3761 34.3161 35.7787C34.9141 35.1818 35.4533 34.5289 35.9263 33.8288C37.3972 31.6546 38.1811 29.0888 38.1764 26.4639C38.1772 25.5719 38.0874 24.6822 37.9085 23.8084Z" fill="white"/>
</svg>
