<svg width="124" height="124" viewBox="0 0 124 124" fill="none" xmlns="http://www.w3.org/2000/svg">
<circle cx="62" cy="62" r="62" fill="#80BA29"/>
<path d="M74.5 87C71.0417 87 68.0938 85.7812 65.6562 83.3438C63.2188 80.9062 62 77.9583 62 74.5C62 71.0417 63.2188 68.0938 65.6562 65.6562C68.0938 63.2188 71.0417 62 74.5 62C77.9583 62 80.9062 63.2188 83.3438 65.6562C85.7812 68.0938 87 71.0417 87 74.5C87 77.9583 85.7812 80.9062 83.3438 83.3438C80.9062 85.7812 77.9583 87 74.5 87ZM78.6875 80.4375L80.4375 78.6875L75.75 74V67H73.25V75L78.6875 80.4375ZM44.5 84.5C43.125 84.5 41.9479 84.0104 40.9688 83.0312C39.9896 82.0521 39.5 80.875 39.5 79.5V44.5C39.5 43.125 39.9896 41.9479 40.9688 40.9688C41.9479 39.9896 43.125 39.5 44.5 39.5H54.9375C55.3958 38.0417 56.2917 36.8438 57.625 35.9062C58.9583 34.9688 60.4167 34.5 62 34.5C63.6667 34.5 65.1562 34.9688 66.4688 35.9062C67.7812 36.8438 68.6667 38.0417 69.125 39.5H79.5C80.875 39.5 82.0521 39.9896 83.0312 40.9688C84.0104 41.9479 84.5 43.125 84.5 44.5V60.125C83.75 59.5833 82.9583 59.125 82.125 58.75C81.2917 58.375 80.4167 58.0417 79.5 57.75V44.5H74.5V52H49.5V44.5H44.5V79.5H57.75C58.0417 80.4167 58.375 81.2917 58.75 82.125C59.125 82.9583 59.5833 83.75 60.125 84.5H44.5ZM62 44.5C62.7083 44.5 63.3021 44.2604 63.7812 43.7812C64.2604 43.3021 64.5 42.7083 64.5 42C64.5 41.2917 64.2604 40.6979 63.7812 40.2188C63.3021 39.7396 62.7083 39.5 62 39.5C61.2917 39.5 60.6979 39.7396 60.2188 40.2188C59.7396 40.6979 59.5 41.2917 59.5 42C59.5 42.7083 59.7396 43.3021 60.2188 43.7812C60.6979 44.2604 61.2917 44.5 62 44.5Z" fill="white"/>
</svg>
